<?xml version="1.0" encoding="utf-8" standalone="no"?>
<!DOCTYPE svg PUBLIC "-//W3C//DTD SVG 1.1//EN"
  "http://www.w3.org/Graphics/SVG/1.1/DTD/svg11.dtd">
<svg xmlns:xlink="http://www.w3.org/1999/xlink" width="720pt" height="432pt" viewBox="0 0 720 432" xmlns="http://www.w3.org/2000/svg" version="1.1">
 <metadata>
  <rdf:RDF xmlns:dc="http://purl.org/dc/elements/1.1/" xmlns:cc="http://creativecommons.org/ns#" xmlns:rdf="http://www.w3.org/1999/02/22-rdf-syntax-ns#">
   <cc:Work>
    <dc:type rdf:resource="http://purl.org/dc/dcmitype/StillImage"/>
    <dc:date>2022-10-27T00:58:57.279966</dc:date>
    <dc:format>image/svg+xml</dc:format>
    <dc:creator>
     <cc:Agent>
      <dc:title>Matplotlib v3.5.1, https://matplotlib.org/</dc:title>
     </cc:Agent>
    </dc:creator>
   </cc:Work>
  </rdf:RDF>
 </metadata>
 <defs>
  <style type="text/css">*{stroke-linejoin: round; stroke-linecap: butt}</style>
 </defs>
 <g id="figure_1">
  <g id="patch_1">
   <path d="M 0 432 
L 720 432 
L 720 0 
L 0 0 
L 0 432 
z
" style="fill: none"/>
  </g>
  <g id="axes_1">
   <g id="patch_2">
    <path d="M 90 378 
L 648 378 
L 648 51.84 
L 90 51.84 
z
" style="fill: #ffffff"/>
   </g>
   <g id="matplotlib.axis_1">
    <g id="xtick_1">
     <g id="line2d_1">
      <defs>
       <path id="m754bff0b12" d="M 0 0 
L 0 3.5 
" style="stroke: #000000; stroke-width: 0.8"/>
      </defs>
      <g>
       <use xlink:href="#m754bff0b12" x="103.373554" y="378" style="stroke: #000000; stroke-width: 0.8"/>
      </g>
     </g>
     <g id="text_1">
      <!-- 2017-01 -->
      <g transform="translate(82.482147 392.598437)scale(0.1 -0.1)">
       <defs>
        <path id="DejaVuSans-32" d="M 1228 531 
L 3431 531 
L 3431 0 
L 469 0 
L 469 531 
Q 828 903 1448 1529 
Q 2069 2156 2228 2338 
Q 2531 2678 2651 2914 
Q 2772 3150 2772 3378 
Q 2772 3750 2511 3984 
Q 2250 4219 1831 4219 
Q 1534 4219 1204 4116 
Q 875 4013 500 3803 
L 500 4441 
Q 881 4594 1212 4672 
Q 1544 4750 1819 4750 
Q 2544 4750 2975 4387 
Q 3406 4025 3406 3419 
Q 3406 3131 3298 2873 
Q 3191 2616 2906 2266 
Q 2828 2175 2409 1742 
Q 1991 1309 1228 531 
z
" transform="scale(0.015625)"/>
        <path id="DejaVuSans-30" d="M 2034 4250 
Q 1547 4250 1301 3770 
Q 1056 3291 1056 2328 
Q 1056 1369 1301 889 
Q 1547 409 2034 409 
Q 2525 409 2770 889 
Q 3016 1369 3016 2328 
Q 3016 3291 2770 3770 
Q 2525 4250 2034 4250 
z
M 2034 4750 
Q 2819 4750 3233 4129 
Q 3647 3509 3647 2328 
Q 3647 1150 3233 529 
Q 2819 -91 2034 -91 
Q 1250 -91 836 529 
Q 422 1150 422 2328 
Q 422 3509 836 4129 
Q 1250 4750 2034 4750 
z
" transform="scale(0.015625)"/>
        <path id="DejaVuSans-31" d="M 794 531 
L 1825 531 
L 1825 4091 
L 703 3866 
L 703 4441 
L 1819 4666 
L 2450 4666 
L 2450 531 
L 3481 531 
L 3481 0 
L 794 0 
L 794 531 
z
" transform="scale(0.015625)"/>
        <path id="DejaVuSans-37" d="M 525 4666 
L 3525 4666 
L 3525 4397 
L 1831 0 
L 1172 0 
L 2766 4134 
L 525 4134 
L 525 4666 
z
" transform="scale(0.015625)"/>
        <path id="DejaVuSans-2d" d="M 313 2009 
L 1997 2009 
L 1997 1497 
L 313 1497 
L 313 2009 
z
" transform="scale(0.015625)"/>
       </defs>
       <use xlink:href="#DejaVuSans-32"/>
       <use xlink:href="#DejaVuSans-30" x="63.623047"/>
       <use xlink:href="#DejaVuSans-31" x="127.246094"/>
       <use xlink:href="#DejaVuSans-37" x="190.869141"/>
       <use xlink:href="#DejaVuSans-2d" x="254.492188"/>
       <use xlink:href="#DejaVuSans-30" x="290.576172"/>
       <use xlink:href="#DejaVuSans-31" x="354.199219"/>
      </g>
     </g>
    </g>
    <g id="xtick_2">
     <g id="line2d_2">
      <g>
       <use xlink:href="#m754bff0b12" x="158.712397" y="378" style="stroke: #000000; stroke-width: 0.8"/>
      </g>
     </g>
     <g id="text_2">
      <!-- 2017-05 -->
      <g transform="translate(137.82099 392.598437)scale(0.1 -0.1)">
       <defs>
        <path id="DejaVuSans-35" d="M 691 4666 
L 3169 4666 
L 3169 4134 
L 1269 4134 
L 1269 2991 
Q 1406 3038 1543 3061 
Q 1681 3084 1819 3084 
Q 2600 3084 3056 2656 
Q 3513 2228 3513 1497 
Q 3513 744 3044 326 
Q 2575 -91 1722 -91 
Q 1428 -91 1123 -41 
Q 819 9 494 109 
L 494 744 
Q 775 591 1075 516 
Q 1375 441 1709 441 
Q 2250 441 2565 725 
Q 2881 1009 2881 1497 
Q 2881 1984 2565 2268 
Q 2250 2553 1709 2553 
Q 1456 2553 1204 2497 
Q 953 2441 691 2322 
L 691 4666 
z
" transform="scale(0.015625)"/>
       </defs>
       <use xlink:href="#DejaVuSans-32"/>
       <use xlink:href="#DejaVuSans-30" x="63.623047"/>
       <use xlink:href="#DejaVuSans-31" x="127.246094"/>
       <use xlink:href="#DejaVuSans-37" x="190.869141"/>
       <use xlink:href="#DejaVuSans-2d" x="254.492188"/>
       <use xlink:href="#DejaVuSans-30" x="290.576172"/>
       <use xlink:href="#DejaVuSans-35" x="354.199219"/>
      </g>
     </g>
    </g>
    <g id="xtick_3">
     <g id="line2d_3">
      <g>
       <use xlink:href="#m754bff0b12" x="215.434711" y="378" style="stroke: #000000; stroke-width: 0.8"/>
      </g>
     </g>
     <g id="text_3">
      <!-- 2017-09 -->
      <g transform="translate(194.543304 392.598437)scale(0.1 -0.1)">
       <defs>
        <path id="DejaVuSans-39" d="M 703 97 
L 703 672 
Q 941 559 1184 500 
Q 1428 441 1663 441 
Q 2288 441 2617 861 
Q 2947 1281 2994 2138 
Q 2813 1869 2534 1725 
Q 2256 1581 1919 1581 
Q 1219 1581 811 2004 
Q 403 2428 403 3163 
Q 403 3881 828 4315 
Q 1253 4750 1959 4750 
Q 2769 4750 3195 4129 
Q 3622 3509 3622 2328 
Q 3622 1225 3098 567 
Q 2575 -91 1691 -91 
Q 1453 -91 1209 -44 
Q 966 3 703 97 
z
M 1959 2075 
Q 2384 2075 2632 2365 
Q 2881 2656 2881 3163 
Q 2881 3666 2632 3958 
Q 2384 4250 1959 4250 
Q 1534 4250 1286 3958 
Q 1038 3666 1038 3163 
Q 1038 2656 1286 2365 
Q 1534 2075 1959 2075 
z
" transform="scale(0.015625)"/>
       </defs>
       <use xlink:href="#DejaVuSans-32"/>
       <use xlink:href="#DejaVuSans-30" x="63.623047"/>
       <use xlink:href="#DejaVuSans-31" x="127.246094"/>
       <use xlink:href="#DejaVuSans-37" x="190.869141"/>
       <use xlink:href="#DejaVuSans-2d" x="254.492188"/>
       <use xlink:href="#DejaVuSans-30" x="290.576172"/>
       <use xlink:href="#DejaVuSans-39" x="354.199219"/>
      </g>
     </g>
    </g>
    <g id="xtick_4">
     <g id="line2d_4">
      <g>
       <use xlink:href="#m754bff0b12" x="271.695868" y="378" style="stroke: #000000; stroke-width: 0.8"/>
      </g>
     </g>
     <g id="text_4">
      <!-- 2018-01 -->
      <g transform="translate(250.804462 392.598437)scale(0.1 -0.1)">
       <defs>
        <path id="DejaVuSans-38" d="M 2034 2216 
Q 1584 2216 1326 1975 
Q 1069 1734 1069 1313 
Q 1069 891 1326 650 
Q 1584 409 2034 409 
Q 2484 409 2743 651 
Q 3003 894 3003 1313 
Q 3003 1734 2745 1975 
Q 2488 2216 2034 2216 
z
M 1403 2484 
Q 997 2584 770 2862 
Q 544 3141 544 3541 
Q 544 4100 942 4425 
Q 1341 4750 2034 4750 
Q 2731 4750 3128 4425 
Q 3525 4100 3525 3541 
Q 3525 3141 3298 2862 
Q 3072 2584 2669 2484 
Q 3125 2378 3379 2068 
Q 3634 1759 3634 1313 
Q 3634 634 3220 271 
Q 2806 -91 2034 -91 
Q 1263 -91 848 271 
Q 434 634 434 1313 
Q 434 1759 690 2068 
Q 947 2378 1403 2484 
z
M 1172 3481 
Q 1172 3119 1398 2916 
Q 1625 2713 2034 2713 
Q 2441 2713 2670 2916 
Q 2900 3119 2900 3481 
Q 2900 3844 2670 4047 
Q 2441 4250 2034 4250 
Q 1625 4250 1398 4047 
Q 1172 3844 1172 3481 
z
" transform="scale(0.015625)"/>
       </defs>
       <use xlink:href="#DejaVuSans-32"/>
       <use xlink:href="#DejaVuSans-30" x="63.623047"/>
       <use xlink:href="#DejaVuSans-31" x="127.246094"/>
       <use xlink:href="#DejaVuSans-38" x="190.869141"/>
       <use xlink:href="#DejaVuSans-2d" x="254.492188"/>
       <use xlink:href="#DejaVuSans-30" x="290.576172"/>
       <use xlink:href="#DejaVuSans-31" x="354.199219"/>
      </g>
     </g>
    </g>
    <g id="xtick_5">
     <g id="line2d_5">
      <g>
       <use xlink:href="#m754bff0b12" x="327.034711" y="378" style="stroke: #000000; stroke-width: 0.8"/>
      </g>
     </g>
     <g id="text_5">
      <!-- 2018-05 -->
      <g transform="translate(306.143304 392.598437)scale(0.1 -0.1)">
       <use xlink:href="#DejaVuSans-32"/>
       <use xlink:href="#DejaVuSans-30" x="63.623047"/>
       <use xlink:href="#DejaVuSans-31" x="127.246094"/>
       <use xlink:href="#DejaVuSans-38" x="190.869141"/>
       <use xlink:href="#DejaVuSans-2d" x="254.492188"/>
       <use xlink:href="#DejaVuSans-30" x="290.576172"/>
       <use xlink:href="#DejaVuSans-35" x="354.199219"/>
      </g>
     </g>
    </g>
    <g id="xtick_6">
     <g id="line2d_6">
      <g>
       <use xlink:href="#m754bff0b12" x="383.757025" y="378" style="stroke: #000000; stroke-width: 0.8"/>
      </g>
     </g>
     <g id="text_6">
      <!-- 2018-09 -->
      <g transform="translate(362.865619 392.598437)scale(0.1 -0.1)">
       <use xlink:href="#DejaVuSans-32"/>
       <use xlink:href="#DejaVuSans-30" x="63.623047"/>
       <use xlink:href="#DejaVuSans-31" x="127.246094"/>
       <use xlink:href="#DejaVuSans-38" x="190.869141"/>
       <use xlink:href="#DejaVuSans-2d" x="254.492188"/>
       <use xlink:href="#DejaVuSans-30" x="290.576172"/>
       <use xlink:href="#DejaVuSans-39" x="354.199219"/>
      </g>
     </g>
    </g>
    <g id="xtick_7">
     <g id="line2d_7">
      <g>
       <use xlink:href="#m754bff0b12" x="440.018182" y="378" style="stroke: #000000; stroke-width: 0.8"/>
      </g>
     </g>
     <g id="text_7">
      <!-- 2019-01 -->
      <g transform="translate(419.126776 392.598437)scale(0.1 -0.1)">
       <use xlink:href="#DejaVuSans-32"/>
       <use xlink:href="#DejaVuSans-30" x="63.623047"/>
       <use xlink:href="#DejaVuSans-31" x="127.246094"/>
       <use xlink:href="#DejaVuSans-39" x="190.869141"/>
       <use xlink:href="#DejaVuSans-2d" x="254.492188"/>
       <use xlink:href="#DejaVuSans-30" x="290.576172"/>
       <use xlink:href="#DejaVuSans-31" x="354.199219"/>
      </g>
     </g>
    </g>
    <g id="xtick_8">
     <g id="line2d_8">
      <g>
       <use xlink:href="#m754bff0b12" x="495.357025" y="378" style="stroke: #000000; stroke-width: 0.8"/>
      </g>
     </g>
     <g id="text_8">
      <!-- 2019-05 -->
      <g transform="translate(474.465619 392.598437)scale(0.1 -0.1)">
       <use xlink:href="#DejaVuSans-32"/>
       <use xlink:href="#DejaVuSans-30" x="63.623047"/>
       <use xlink:href="#DejaVuSans-31" x="127.246094"/>
       <use xlink:href="#DejaVuSans-39" x="190.869141"/>
       <use xlink:href="#DejaVuSans-2d" x="254.492188"/>
       <use xlink:href="#DejaVuSans-30" x="290.576172"/>
       <use xlink:href="#DejaVuSans-35" x="354.199219"/>
      </g>
     </g>
    </g>
    <g id="xtick_9">
     <g id="line2d_9">
      <g>
       <use xlink:href="#m754bff0b12" x="552.079339" y="378" style="stroke: #000000; stroke-width: 0.8"/>
      </g>
     </g>
     <g id="text_9">
      <!-- 2019-09 -->
      <g transform="translate(531.187933 392.598437)scale(0.1 -0.1)">
       <use xlink:href="#DejaVuSans-32"/>
       <use xlink:href="#DejaVuSans-30" x="63.623047"/>
       <use xlink:href="#DejaVuSans-31" x="127.246094"/>
       <use xlink:href="#DejaVuSans-39" x="190.869141"/>
       <use xlink:href="#DejaVuSans-2d" x="254.492188"/>
       <use xlink:href="#DejaVuSans-30" x="290.576172"/>
       <use xlink:href="#DejaVuSans-39" x="354.199219"/>
      </g>
     </g>
    </g>
    <g id="xtick_10">
     <g id="line2d_10">
      <g>
       <use xlink:href="#m754bff0b12" x="608.340496" y="378" style="stroke: #000000; stroke-width: 0.8"/>
      </g>
     </g>
     <g id="text_10">
      <!-- 2020-01 -->
      <g transform="translate(587.44909 392.598437)scale(0.1 -0.1)">
       <use xlink:href="#DejaVuSans-32"/>
       <use xlink:href="#DejaVuSans-30" x="63.623047"/>
       <use xlink:href="#DejaVuSans-32" x="127.246094"/>
       <use xlink:href="#DejaVuSans-30" x="190.869141"/>
       <use xlink:href="#DejaVuSans-2d" x="254.492188"/>
       <use xlink:href="#DejaVuSans-30" x="290.576172"/>
       <use xlink:href="#DejaVuSans-31" x="354.199219"/>
      </g>
     </g>
    </g>
    <g id="text_11">
     <!-- Date [Year-Month] -->
     <g transform="translate(323.814844 406.276563)scale(0.1 -0.1)">
      <defs>
       <path id="DejaVuSans-44" d="M 1259 4147 
L 1259 519 
L 2022 519 
Q 2988 519 3436 956 
Q 3884 1394 3884 2338 
Q 3884 3275 3436 3711 
Q 2988 4147 2022 4147 
L 1259 4147 
z
M 628 4666 
L 1925 4666 
Q 3281 4666 3915 4102 
Q 4550 3538 4550 2338 
Q 4550 1131 3912 565 
Q 3275 0 1925 0 
L 628 0 
L 628 4666 
z
" transform="scale(0.015625)"/>
       <path id="DejaVuSans-61" d="M 2194 1759 
Q 1497 1759 1228 1600 
Q 959 1441 959 1056 
Q 959 750 1161 570 
Q 1363 391 1709 391 
Q 2188 391 2477 730 
Q 2766 1069 2766 1631 
L 2766 1759 
L 2194 1759 
z
M 3341 1997 
L 3341 0 
L 2766 0 
L 2766 531 
Q 2569 213 2275 61 
Q 1981 -91 1556 -91 
Q 1019 -91 701 211 
Q 384 513 384 1019 
Q 384 1609 779 1909 
Q 1175 2209 1959 2209 
L 2766 2209 
L 2766 2266 
Q 2766 2663 2505 2880 
Q 2244 3097 1772 3097 
Q 1472 3097 1187 3025 
Q 903 2953 641 2809 
L 641 3341 
Q 956 3463 1253 3523 
Q 1550 3584 1831 3584 
Q 2591 3584 2966 3190 
Q 3341 2797 3341 1997 
z
" transform="scale(0.015625)"/>
       <path id="DejaVuSans-74" d="M 1172 4494 
L 1172 3500 
L 2356 3500 
L 2356 3053 
L 1172 3053 
L 1172 1153 
Q 1172 725 1289 603 
Q 1406 481 1766 481 
L 2356 481 
L 2356 0 
L 1766 0 
Q 1100 0 847 248 
Q 594 497 594 1153 
L 594 3053 
L 172 3053 
L 172 3500 
L 594 3500 
L 594 4494 
L 1172 4494 
z
" transform="scale(0.015625)"/>
       <path id="DejaVuSans-65" d="M 3597 1894 
L 3597 1613 
L 953 1613 
Q 991 1019 1311 708 
Q 1631 397 2203 397 
Q 2534 397 2845 478 
Q 3156 559 3463 722 
L 3463 178 
Q 3153 47 2828 -22 
Q 2503 -91 2169 -91 
Q 1331 -91 842 396 
Q 353 884 353 1716 
Q 353 2575 817 3079 
Q 1281 3584 2069 3584 
Q 2775 3584 3186 3129 
Q 3597 2675 3597 1894 
z
M 3022 2063 
Q 3016 2534 2758 2815 
Q 2500 3097 2075 3097 
Q 1594 3097 1305 2825 
Q 1016 2553 972 2059 
L 3022 2063 
z
" transform="scale(0.015625)"/>
       <path id="DejaVuSans-20" transform="scale(0.015625)"/>
       <path id="DejaVuSans-5b" d="M 550 4863 
L 1875 4863 
L 1875 4416 
L 1125 4416 
L 1125 -397 
L 1875 -397 
L 1875 -844 
L 550 -844 
L 550 4863 
z
" transform="scale(0.015625)"/>
       <path id="DejaVuSans-59" d="M -13 4666 
L 666 4666 
L 1959 2747 
L 3244 4666 
L 3922 4666 
L 2272 2222 
L 2272 0 
L 1638 0 
L 1638 2222 
L -13 4666 
z
" transform="scale(0.015625)"/>
       <path id="DejaVuSans-72" d="M 2631 2963 
Q 2534 3019 2420 3045 
Q 2306 3072 2169 3072 
Q 1681 3072 1420 2755 
Q 1159 2438 1159 1844 
L 1159 0 
L 581 0 
L 581 3500 
L 1159 3500 
L 1159 2956 
Q 1341 3275 1631 3429 
Q 1922 3584 2338 3584 
Q 2397 3584 2469 3576 
Q 2541 3569 2628 3553 
L 2631 2963 
z
" transform="scale(0.015625)"/>
       <path id="DejaVuSans-4d" d="M 628 4666 
L 1569 4666 
L 2759 1491 
L 3956 4666 
L 4897 4666 
L 4897 0 
L 4281 0 
L 4281 4097 
L 3078 897 
L 2444 897 
L 1241 4097 
L 1241 0 
L 628 0 
L 628 4666 
z
" transform="scale(0.015625)"/>
       <path id="DejaVuSans-6f" d="M 1959 3097 
Q 1497 3097 1228 2736 
Q 959 2375 959 1747 
Q 959 1119 1226 758 
Q 1494 397 1959 397 
Q 2419 397 2687 759 
Q 2956 1122 2956 1747 
Q 2956 2369 2687 2733 
Q 2419 3097 1959 3097 
z
M 1959 3584 
Q 2709 3584 3137 3096 
Q 3566 2609 3566 1747 
Q 3566 888 3137 398 
Q 2709 -91 1959 -91 
Q 1206 -91 779 398 
Q 353 888 353 1747 
Q 353 2609 779 3096 
Q 1206 3584 1959 3584 
z
" transform="scale(0.015625)"/>
       <path id="DejaVuSans-6e" d="M 3513 2113 
L 3513 0 
L 2938 0 
L 2938 2094 
Q 2938 2591 2744 2837 
Q 2550 3084 2163 3084 
Q 1697 3084 1428 2787 
Q 1159 2491 1159 1978 
L 1159 0 
L 581 0 
L 581 3500 
L 1159 3500 
L 1159 2956 
Q 1366 3272 1645 3428 
Q 1925 3584 2291 3584 
Q 2894 3584 3203 3211 
Q 3513 2838 3513 2113 
z
" transform="scale(0.015625)"/>
       <path id="DejaVuSans-68" d="M 3513 2113 
L 3513 0 
L 2938 0 
L 2938 2094 
Q 2938 2591 2744 2837 
Q 2550 3084 2163 3084 
Q 1697 3084 1428 2787 
Q 1159 2491 1159 1978 
L 1159 0 
L 581 0 
L 581 4863 
L 1159 4863 
L 1159 2956 
Q 1366 3272 1645 3428 
Q 1925 3584 2291 3584 
Q 2894 3584 3203 3211 
Q 3513 2838 3513 2113 
z
" transform="scale(0.015625)"/>
       <path id="DejaVuSans-5d" d="M 1947 4863 
L 1947 -844 
L 622 -844 
L 622 -397 
L 1369 -397 
L 1369 4416 
L 622 4416 
L 622 4863 
L 1947 4863 
z
" transform="scale(0.015625)"/>
      </defs>
      <use xlink:href="#DejaVuSans-44"/>
      <use xlink:href="#DejaVuSans-61" x="77.001953"/>
      <use xlink:href="#DejaVuSans-74" x="138.28125"/>
      <use xlink:href="#DejaVuSans-65" x="177.490234"/>
      <use xlink:href="#DejaVuSans-20" x="239.013672"/>
      <use xlink:href="#DejaVuSans-5b" x="270.800781"/>
      <use xlink:href="#DejaVuSans-59" x="309.814453"/>
      <use xlink:href="#DejaVuSans-65" x="357.648438"/>
      <use xlink:href="#DejaVuSans-61" x="419.171875"/>
      <use xlink:href="#DejaVuSans-72" x="480.451172"/>
      <use xlink:href="#DejaVuSans-2d" x="515.189453"/>
      <use xlink:href="#DejaVuSans-4d" x="551.273438"/>
      <use xlink:href="#DejaVuSans-6f" x="637.552734"/>
      <use xlink:href="#DejaVuSans-6e" x="698.734375"/>
      <use xlink:href="#DejaVuSans-74" x="762.113281"/>
      <use xlink:href="#DejaVuSans-68" x="801.322266"/>
      <use xlink:href="#DejaVuSans-5d" x="864.701172"/>
     </g>
    </g>
   </g>
   <g id="matplotlib.axis_2">
    <g id="ytick_1">
     <g id="line2d_11">
      <defs>
       <path id="m02fd403a89" d="M 0 0 
L -3.5 0 
" style="stroke: #000000; stroke-width: 0.8"/>
      </defs>
      <g>
       <use xlink:href="#m02fd403a89" x="90" y="356.568877" style="stroke: #000000; stroke-width: 0.8"/>
      </g>
     </g>
     <g id="text_12">
      <!-- 4.0 -->
      <g transform="translate(67.096875 360.368095)scale(0.1 -0.1)">
       <defs>
        <path id="DejaVuSans-34" d="M 2419 4116 
L 825 1625 
L 2419 1625 
L 2419 4116 
z
M 2253 4666 
L 3047 4666 
L 3047 1625 
L 3713 1625 
L 3713 1100 
L 3047 1100 
L 3047 0 
L 2419 0 
L 2419 1100 
L 313 1100 
L 313 1709 
L 2253 4666 
z
" transform="scale(0.015625)"/>
        <path id="DejaVuSans-2e" d="M 684 794 
L 1344 794 
L 1344 0 
L 684 0 
L 684 794 
z
" transform="scale(0.015625)"/>
       </defs>
       <use xlink:href="#DejaVuSans-34"/>
       <use xlink:href="#DejaVuSans-2e" x="63.623047"/>
       <use xlink:href="#DejaVuSans-30" x="95.410156"/>
      </g>
     </g>
    </g>
    <g id="ytick_2">
     <g id="line2d_12">
      <g>
       <use xlink:href="#m02fd403a89" x="90" y="317.813007" style="stroke: #000000; stroke-width: 0.8"/>
      </g>
     </g>
     <g id="text_13">
      <!-- 4.5 -->
      <g transform="translate(67.096875 321.612226)scale(0.1 -0.1)">
       <use xlink:href="#DejaVuSans-34"/>
       <use xlink:href="#DejaVuSans-2e" x="63.623047"/>
       <use xlink:href="#DejaVuSans-35" x="95.410156"/>
      </g>
     </g>
    </g>
    <g id="ytick_3">
     <g id="line2d_13">
      <g>
       <use xlink:href="#m02fd403a89" x="90" y="279.057138" style="stroke: #000000; stroke-width: 0.8"/>
      </g>
     </g>
     <g id="text_14">
      <!-- 5.0 -->
      <g transform="translate(67.096875 282.856356)scale(0.1 -0.1)">
       <use xlink:href="#DejaVuSans-35"/>
       <use xlink:href="#DejaVuSans-2e" x="63.623047"/>
       <use xlink:href="#DejaVuSans-30" x="95.410156"/>
      </g>
     </g>
    </g>
    <g id="ytick_4">
     <g id="line2d_14">
      <g>
       <use xlink:href="#m02fd403a89" x="90" y="240.301268" style="stroke: #000000; stroke-width: 0.8"/>
      </g>
     </g>
     <g id="text_15">
      <!-- 5.5 -->
      <g transform="translate(67.096875 244.100487)scale(0.1 -0.1)">
       <use xlink:href="#DejaVuSans-35"/>
       <use xlink:href="#DejaVuSans-2e" x="63.623047"/>
       <use xlink:href="#DejaVuSans-35" x="95.410156"/>
      </g>
     </g>
    </g>
    <g id="ytick_5">
     <g id="line2d_15">
      <g>
       <use xlink:href="#m02fd403a89" x="90" y="201.545399" style="stroke: #000000; stroke-width: 0.8"/>
      </g>
     </g>
     <g id="text_16">
      <!-- 6.0 -->
      <g transform="translate(67.096875 205.344617)scale(0.1 -0.1)">
       <defs>
        <path id="DejaVuSans-36" d="M 2113 2584 
Q 1688 2584 1439 2293 
Q 1191 2003 1191 1497 
Q 1191 994 1439 701 
Q 1688 409 2113 409 
Q 2538 409 2786 701 
Q 3034 994 3034 1497 
Q 3034 2003 2786 2293 
Q 2538 2584 2113 2584 
z
M 3366 4563 
L 3366 3988 
Q 3128 4100 2886 4159 
Q 2644 4219 2406 4219 
Q 1781 4219 1451 3797 
Q 1122 3375 1075 2522 
Q 1259 2794 1537 2939 
Q 1816 3084 2150 3084 
Q 2853 3084 3261 2657 
Q 3669 2231 3669 1497 
Q 3669 778 3244 343 
Q 2819 -91 2113 -91 
Q 1303 -91 875 529 
Q 447 1150 447 2328 
Q 447 3434 972 4092 
Q 1497 4750 2381 4750 
Q 2619 4750 2861 4703 
Q 3103 4656 3366 4563 
z
" transform="scale(0.015625)"/>
       </defs>
       <use xlink:href="#DejaVuSans-36"/>
       <use xlink:href="#DejaVuSans-2e" x="63.623047"/>
       <use xlink:href="#DejaVuSans-30" x="95.410156"/>
      </g>
     </g>
    </g>
    <g id="ytick_6">
     <g id="line2d_16">
      <g>
       <use xlink:href="#m02fd403a89" x="90" y="162.789529" style="stroke: #000000; stroke-width: 0.8"/>
      </g>
     </g>
     <g id="text_17">
      <!-- 6.5 -->
      <g transform="translate(67.096875 166.588748)scale(0.1 -0.1)">
       <use xlink:href="#DejaVuSans-36"/>
       <use xlink:href="#DejaVuSans-2e" x="63.623047"/>
       <use xlink:href="#DejaVuSans-35" x="95.410156"/>
      </g>
     </g>
    </g>
    <g id="ytick_7">
     <g id="line2d_17">
      <g>
       <use xlink:href="#m02fd403a89" x="90" y="124.033659" style="stroke: #000000; stroke-width: 0.8"/>
      </g>
     </g>
     <g id="text_18">
      <!-- 7.0 -->
      <g transform="translate(67.096875 127.832878)scale(0.1 -0.1)">
       <use xlink:href="#DejaVuSans-37"/>
       <use xlink:href="#DejaVuSans-2e" x="63.623047"/>
       <use xlink:href="#DejaVuSans-30" x="95.410156"/>
      </g>
     </g>
    </g>
    <g id="ytick_8">
     <g id="line2d_18">
      <g>
       <use xlink:href="#m02fd403a89" x="90" y="85.27779" style="stroke: #000000; stroke-width: 0.8"/>
      </g>
     </g>
     <g id="text_19">
      <!-- 7.5 -->
      <g transform="translate(67.096875 89.077009)scale(0.1 -0.1)">
       <use xlink:href="#DejaVuSans-37"/>
       <use xlink:href="#DejaVuSans-2e" x="63.623047"/>
       <use xlink:href="#DejaVuSans-35" x="95.410156"/>
      </g>
     </g>
    </g>
    <g id="text_20">
     <!-- Spring Stage [ft] -->
     <g transform="translate(61.017187 256.217656)rotate(-90)scale(0.1 -0.1)">
      <defs>
       <path id="DejaVuSans-53" d="M 3425 4513 
L 3425 3897 
Q 3066 4069 2747 4153 
Q 2428 4238 2131 4238 
Q 1616 4238 1336 4038 
Q 1056 3838 1056 3469 
Q 1056 3159 1242 3001 
Q 1428 2844 1947 2747 
L 2328 2669 
Q 3034 2534 3370 2195 
Q 3706 1856 3706 1288 
Q 3706 609 3251 259 
Q 2797 -91 1919 -91 
Q 1588 -91 1214 -16 
Q 841 59 441 206 
L 441 856 
Q 825 641 1194 531 
Q 1563 422 1919 422 
Q 2459 422 2753 634 
Q 3047 847 3047 1241 
Q 3047 1584 2836 1778 
Q 2625 1972 2144 2069 
L 1759 2144 
Q 1053 2284 737 2584 
Q 422 2884 422 3419 
Q 422 4038 858 4394 
Q 1294 4750 2059 4750 
Q 2388 4750 2728 4690 
Q 3069 4631 3425 4513 
z
" transform="scale(0.015625)"/>
       <path id="DejaVuSans-70" d="M 1159 525 
L 1159 -1331 
L 581 -1331 
L 581 3500 
L 1159 3500 
L 1159 2969 
Q 1341 3281 1617 3432 
Q 1894 3584 2278 3584 
Q 2916 3584 3314 3078 
Q 3713 2572 3713 1747 
Q 3713 922 3314 415 
Q 2916 -91 2278 -91 
Q 1894 -91 1617 61 
Q 1341 213 1159 525 
z
M 3116 1747 
Q 3116 2381 2855 2742 
Q 2594 3103 2138 3103 
Q 1681 3103 1420 2742 
Q 1159 2381 1159 1747 
Q 1159 1113 1420 752 
Q 1681 391 2138 391 
Q 2594 391 2855 752 
Q 3116 1113 3116 1747 
z
" transform="scale(0.015625)"/>
       <path id="DejaVuSans-69" d="M 603 3500 
L 1178 3500 
L 1178 0 
L 603 0 
L 603 3500 
z
M 603 4863 
L 1178 4863 
L 1178 4134 
L 603 4134 
L 603 4863 
z
" transform="scale(0.015625)"/>
       <path id="DejaVuSans-67" d="M 2906 1791 
Q 2906 2416 2648 2759 
Q 2391 3103 1925 3103 
Q 1463 3103 1205 2759 
Q 947 2416 947 1791 
Q 947 1169 1205 825 
Q 1463 481 1925 481 
Q 2391 481 2648 825 
Q 2906 1169 2906 1791 
z
M 3481 434 
Q 3481 -459 3084 -895 
Q 2688 -1331 1869 -1331 
Q 1566 -1331 1297 -1286 
Q 1028 -1241 775 -1147 
L 775 -588 
Q 1028 -725 1275 -790 
Q 1522 -856 1778 -856 
Q 2344 -856 2625 -561 
Q 2906 -266 2906 331 
L 2906 616 
Q 2728 306 2450 153 
Q 2172 0 1784 0 
Q 1141 0 747 490 
Q 353 981 353 1791 
Q 353 2603 747 3093 
Q 1141 3584 1784 3584 
Q 2172 3584 2450 3431 
Q 2728 3278 2906 2969 
L 2906 3500 
L 3481 3500 
L 3481 434 
z
" transform="scale(0.015625)"/>
       <path id="DejaVuSans-66" d="M 2375 4863 
L 2375 4384 
L 1825 4384 
Q 1516 4384 1395 4259 
Q 1275 4134 1275 3809 
L 1275 3500 
L 2222 3500 
L 2222 3053 
L 1275 3053 
L 1275 0 
L 697 0 
L 697 3053 
L 147 3053 
L 147 3500 
L 697 3500 
L 697 3744 
Q 697 4328 969 4595 
Q 1241 4863 1831 4863 
L 2375 4863 
z
" transform="scale(0.015625)"/>
      </defs>
      <use xlink:href="#DejaVuSans-53"/>
      <use xlink:href="#DejaVuSans-70" x="63.476562"/>
      <use xlink:href="#DejaVuSans-72" x="126.953125"/>
      <use xlink:href="#DejaVuSans-69" x="168.066406"/>
      <use xlink:href="#DejaVuSans-6e" x="195.849609"/>
      <use xlink:href="#DejaVuSans-67" x="259.228516"/>
      <use xlink:href="#DejaVuSans-20" x="322.705078"/>
      <use xlink:href="#DejaVuSans-53" x="354.492188"/>
      <use xlink:href="#DejaVuSans-74" x="417.96875"/>
      <use xlink:href="#DejaVuSans-61" x="457.177734"/>
      <use xlink:href="#DejaVuSans-67" x="518.457031"/>
      <use xlink:href="#DejaVuSans-65" x="581.933594"/>
      <use xlink:href="#DejaVuSans-20" x="643.457031"/>
      <use xlink:href="#DejaVuSans-5b" x="675.244141"/>
      <use xlink:href="#DejaVuSans-66" x="714.257812"/>
      <use xlink:href="#DejaVuSans-74" x="747.712891"/>
      <use xlink:href="#DejaVuSans-5d" x="786.921875"/>
     </g>
    </g>
   </g>
   <g id="line2d_19">
    <path d="M 470.454545 378 
L 470.454545 51.84 
" clip-path="url(#p5f8158de3c)" style="fill: none; stroke-dasharray: 5.55,2.4; stroke-dashoffset: 0; stroke: #ff0000; stroke-width: 1.5"/>
   </g>
   <g id="line2d_20">
    <path d="M 115.363636 229.644527 
L 115.824793 237.165948 
L 116.28595 256.37209 
L 116.747107 261.103844 
L 117.208264 245.448938 
L 117.669421 253.590149 
L 118.130579 282.168618 
L 118.591736 289.81807 
L 119.052893 270.112554 
L 119.51405 285.360451 
L 119.975207 290.303767 
L 120.897521 278.610248 
L 121.358678 292.895547 
L 121.819835 283.079842 
L 122.280992 280.799565 
L 122.742149 299.049134 
L 123.203306 283.930376 
L 123.664463 291.179435 
L 124.12562 300.627161 
L 124.586777 316.119515 
L 125.047934 301.114411 
L 125.509091 303.179984 
L 125.970248 315.059451 
L 126.431405 309.033083 
L 126.892562 292.636602 
L 127.353719 296.850022 
L 127.814876 289.329674 
L 128.276033 302.896608 
L 128.73719 289.405369 
L 129.198347 308.97232 
L 129.659504 304.952313 
L 130.120661 297.478831 
L 130.581818 313.228245 
L 131.042975 285.186737 
L 131.504132 319.290502 
L 131.965289 297.331654 
L 132.426446 317.379202 
L 132.887603 303.303395 
L 133.34876 346.906114 
L 133.809917 312.017678 
L 134.271074 325.71597 
L 134.732231 325.908239 
L 135.193388 336.193452 
L 135.654545 302.047737 
L 136.115702 331.093831 
L 136.57686 315.612269 
L 137.499174 320.245006 
L 137.960331 347.817005 
L 138.421488 328.656952 
L 138.882645 348.000403 
L 139.343802 325.183148 
L 139.804959 341.525556 
L 140.266116 332.505499 
L 140.727273 348.135309 
L 141.18843 344.083627 
L 142.110744 310.479568 
L 142.571901 313.268642 
L 143.033058 305.742343 
L 143.494215 287.83307 
L 143.955372 300.547844 
L 144.416529 292.041058 
L 144.877686 266.934951 
L 145.8 302.473004 
L 146.261157 266.535187 
L 146.722314 263.291794 
L 147.183471 254.172387 
L 147.644628 276.82125 
L 148.105785 289.810973 
L 148.566942 276.087733 
L 149.028099 291.673633 
L 149.489256 285.943244 
L 149.950413 298.141421 
L 150.41157 305.989646 
L 151.333884 303.078787 
L 151.795041 296.359224 
L 152.256198 311.579881 
L 152.717355 300.024927 
L 153.178512 297.087937 
L 153.639669 305.53056 
L 154.100826 291.639778 
L 155.02314 307.800894 
L 155.484298 324.701183 
L 155.945455 313.209136 
L 156.867769 302.631491 
L 157.328926 299.971482 
L 157.790083 304.954642 
L 158.25124 287.434008 
L 158.712397 300.628566 
L 159.173554 307.039028 
L 159.634711 301.365114 
L 160.095868 287.509851 
L 160.557025 289.034175 
L 161.018182 303.515549 
L 161.479339 314.185854 
L 161.940496 311.012649 
L 162.401653 314.360825 
L 162.86281 306.056655 
L 163.323967 306.026976 
L 163.785124 305.278416 
L 164.246281 310.754591 
L 164.707438 321.031119 
L 165.168595 291.747813 
L 165.629752 306.705977 
L 166.090909 311.365178 
L 166.552066 295.456982 
L 167.013223 308.939979 
L 167.47438 300.079555 
L 167.935537 304.756423 
L 168.396694 303.092351 
L 168.857851 297.996536 
L 169.319008 282.085827 
L 169.780165 282.250375 
L 170.241322 285.714533 
L 170.702479 275.798554 
L 171.163636 301.383853 
L 171.624793 304.090395 
L 172.08595 297.123788 
L 172.547107 308.307142 
L 173.008264 303.294599 
L 173.469421 304.195067 
L 173.930579 282.971511 
L 174.391736 295.017041 
L 174.852893 288.886407 
L 175.31405 266.451175 
L 176.236364 198.205945 
L 176.697521 199.732635 
L 177.619835 191.510925 
L 178.080992 213.262055 
L 178.542149 194.885379 
L 179.003306 196.274021 
L 179.464463 212.598651 
L 179.92562 198.550121 
L 180.386777 205.443842 
L 180.847934 203.93578 
L 181.309091 195.124661 
L 181.770248 204.899118 
L 182.231405 166.678991 
L 182.692562 143.329061 
L 183.153719 152.064338 
L 183.614876 194.904229 
L 184.076033 198.081352 
L 184.53719 158.107302 
L 184.998347 212.611107 
L 185.459504 205.45663 
L 185.920661 207.04922 
L 186.381818 182.987617 
L 186.842975 213.678045 
L 187.304132 262.673962 
L 187.765289 211.008537 
L 188.226446 199.166474 
L 188.687603 256.119059 
L 189.14876 234.681354 
L 189.609917 243.582989 
L 190.071074 239.941716 
L 190.532231 257.461833 
L 190.993388 227.872199 
L 191.454545 260.958368 
L 191.915702 210.523505 
L 192.37686 249.634602 
L 192.838017 237.907005 
L 193.299174 206.930429 
L 193.760331 252.714186 
L 194.221488 212.484591 
L 194.682645 190.097999 
L 195.604959 240.44741 
L 196.066116 243.683004 
L 196.527273 225.575438 
L 196.98843 218.69543 
L 197.449587 187.8698 
L 197.910744 231.133406 
L 198.833058 236.232104 
L 199.294215 262.338583 
L 199.755372 233.734389 
L 200.216529 244.646822 
L 200.677686 238.461708 
L 201.6 259.00253 
L 202.061157 242.810478 
L 202.522314 234.572283 
L 202.983471 275.792714 
L 203.444628 248.907996 
L 203.905785 253.876704 
L 204.366942 248.442368 
L 204.828099 230.520971 
L 205.289256 228.984192 
L 205.750413 253.867648 
L 206.21157 242.814913 
L 206.672727 243.106494 
L 207.133884 242.30837 
L 207.595041 247.100628 
L 208.056198 244.560187 
L 208.978512 263.323284 
L 209.439669 251.534962 
L 209.900826 254.996791 
L 210.361983 249.626101 
L 210.82314 256.930822 
L 211.284298 257.224621 
L 211.745455 256.867545 
L 212.206612 271.394307 
L 212.667769 251.496079 
L 213.128926 264.989462 
L 213.590083 260.594012 
L 214.05124 268.028427 
L 214.512397 256.789411 
L 214.973554 257.580809 
L 215.434711 263.127911 
L 215.895868 277.397058 
L 216.357025 264.714292 
L 216.818182 263.791943 
L 217.279339 274.736236 
L 217.740496 259.612009 
L 218.201653 273.690217 
L 218.66281 267.469991 
L 219.123967 273.668448 
L 219.585124 272.22333 
L 220.046281 250.196031 
L 220.507438 275.978847 
L 220.968595 271.260547 
L 221.429752 259.383223 
L 221.890909 243.067353 
L 222.352066 245.44698 
L 222.813223 238.757762 
L 223.27438 263.286545 
L 223.735537 262.268173 
L 224.196694 282.038665 
L 224.657851 264.159478 
L 225.119008 255.46338 
L 225.580165 279.59166 
L 226.502479 269.555634 
L 226.963636 264.852856 
L 227.424793 265.759608 
L 227.88595 269.539741 
L 228.347107 290.443958 
L 228.808264 257.39486 
L 229.269421 281.605452 
L 229.730579 274.17573 
L 230.191736 273.336358 
L 230.652893 259.992258 
L 231.11405 259.532728 
L 231.575207 257.793442 
L 232.036364 254.095288 
L 232.497521 254.775398 
L 232.958678 235.766809 
L 233.419835 244.757223 
L 233.880992 261.561526 
L 234.342149 229.701114 
L 234.803306 240.120975 
L 235.264463 227.073002 
L 235.72562 248.436823 
L 236.186777 255.016121 
L 236.647934 219.889327 
L 237.109091 261.002942 
L 237.570248 244.785202 
L 238.031405 260.651448 
L 238.953719 237.476933 
L 239.414876 243.244431 
L 239.876033 253.442085 
L 240.33719 235.394912 
L 241.259504 272.379229 
L 241.720661 262.484762 
L 242.642975 256.157645 
L 243.104132 251.196514 
L 243.565289 249.697176 
L 244.026446 267.228861 
L 244.487603 255.680153 
L 244.94876 249.048372 
L 245.409917 263.713143 
L 245.871074 231.4584 
L 246.332231 250.735063 
L 246.793388 249.771245 
L 247.254545 267.840446 
L 247.715702 270.139498 
L 248.17686 258.579739 
L 248.638017 253.692271 
L 249.099174 255.95525 
L 249.560331 244.254672 
L 250.021488 254.928229 
L 250.482645 253.142631 
L 250.943802 248.954825 
L 251.404959 231.389062 
L 251.866116 249.449097 
L 252.327273 253.810101 
L 252.78843 231.523118 
L 253.249587 232.036277 
L 253.710744 240.219622 
L 254.171901 221.668493 
L 254.633058 249.714362 
L 255.094215 264.205752 
L 255.555372 236.841546 
L 256.016529 241.863513 
L 256.477686 239.947593 
L 256.938843 250.099749 
L 257.4 236.021873 
L 257.861157 233.27279 
L 258.783471 266.193228 
L 259.244628 249.232841 
L 259.705785 243.99447 
L 260.166942 256.882625 
L 260.628099 248.999695 
L 261.089256 270.676682 
L 262.01157 249.744226 
L 262.472727 256.618321 
L 262.933884 249.662026 
L 263.395041 271.669366 
L 263.856198 250.778639 
L 264.317355 276.370406 
L 264.778512 248.469866 
L 265.239669 253.451991 
L 265.700826 249.3992 
L 266.161983 260.886221 
L 266.62314 264.052625 
L 267.084298 260.946799 
L 267.545455 268.821377 
L 268.006612 258.881078 
L 268.467769 261.924995 
L 268.928926 269.480752 
L 269.390083 259.121913 
L 269.85124 264.196438 
L 270.312397 266.597613 
L 270.773554 253.246749 
L 271.234711 272.385956 
L 271.695868 266.877477 
L 272.157025 269.730087 
L 272.618182 280.764157 
L 273.079339 274.267281 
L 274.001653 264.495596 
L 274.46281 263.178769 
L 274.923967 263.56094 
L 275.385124 256.758142 
L 275.846281 264.817005 
L 276.307438 251.492605 
L 276.768595 265.712557 
L 277.229752 263.582525 
L 277.690909 272.967308 
L 278.152066 265.895881 
L 278.613223 266.668355 
L 279.07438 260.972191 
L 279.535537 265.29069 
L 279.996694 268.44863 
L 280.457851 276.130237 
L 280.919008 271.936554 
L 281.380165 280.141964 
L 281.841322 278.14998 
L 282.302479 257.762026 
L 282.763636 275.922261 
L 283.224793 283.432075 
L 283.68595 260.060783 
L 284.147107 270.530725 
L 284.608264 264.698731 
L 285.069421 280.793799 
L 285.530579 274.241224 
L 285.991736 277.928845 
L 286.452893 280.066676 
L 286.91405 276.827977 
L 287.375207 279.172491 
L 287.836364 272.617181 
L 288.297521 268.043654 
L 288.758678 265.653162 
L 289.219835 254.746827 
L 289.680992 234.788872 
L 290.142149 266.087817 
L 290.603306 259.97411 
L 291.064463 259.164343 
L 291.986777 231.908135 
L 292.447934 241.015862 
L 292.909091 241.919361 
L 293.370248 249.300294 
L 293.831405 249.294196 
L 294.292562 264.669939 
L 294.753719 242.911602 
L 295.214876 244.28217 
L 295.676033 268.629811 
L 296.13719 245.572313 
L 296.598347 266.076729 
L 297.059504 252.822775 
L 297.520661 250.221017 
L 297.981818 256.583763 
L 298.442975 243.604537 
L 298.904132 270.171839 
L 299.365289 265.439456 
L 299.826446 269.207429 
L 300.287603 267.545501 
L 300.74876 271.281392 
L 301.209917 257.627268 
L 301.671074 253.863509 
L 302.132231 270.43448 
L 302.593388 264.701873 
L 303.054545 279.164286 
L 303.515702 278.652642 
L 304.438017 261.510594 
L 304.899174 265.999925 
L 305.360331 256.623163 
L 305.821488 262.577643 
L 306.282645 271.813032 
L 306.743802 272.300799 
L 307.204959 225.048381 
L 307.666116 233.674476 
L 308.127273 212.29613 
L 308.58843 234.375653 
L 309.049587 214.025954 
L 309.510744 223.804218 
L 310.433058 247.457334 
L 310.894215 248.494371 
L 311.816529 227.81369 
L 312.277686 264.901201 
L 312.738843 279.023134 
L 313.2 286.491109 
L 313.661157 281.463154 
L 314.122314 259.748688 
L 314.583471 263.942187 
L 315.044628 276.287393 
L 315.505785 296.237217 
L 315.966942 279.18077 
L 316.428099 281.044318 
L 316.889256 274.253791 
L 317.350413 285.477099 
L 317.81157 252.343287 
L 318.272727 285.515537 
L 318.733884 278.496558 
L 319.195041 286.179606 
L 319.656198 277.422671 
L 320.117355 284.86252 
L 320.578512 278.214845 
L 321.039669 299.221517 
L 321.500826 313.428275 
L 321.961983 289.010077 
L 322.42314 319.432467 
L 322.884298 314.318616 
L 323.345455 295.168616 
L 324.267769 307.026018 
L 324.728926 306.760679 
L 325.190083 321.621156 
L 325.65124 326.723845 
L 326.112397 311.865253 
L 326.573554 313.227986 
L 327.034711 318.800998 
L 327.495868 307.058654 
L 327.957025 339.218187 
L 328.418182 304.038244 
L 328.879339 363.174545 
L 329.340496 323.028722 
L 329.801653 344.586142 
L 330.26281 349.657526 
L 330.723967 314.676726 
L 331.185124 288.221562 
L 331.646281 332.254427 
L 332.107438 286.781175 
L 332.568595 324.702292 
L 333.029752 321.042503 
L 333.490909 272.960174 
L 333.952066 255.65417 
L 334.413223 252.951841 
L 334.87438 253.444931 
L 335.335537 234.253092 
L 335.796694 274.048882 
L 336.257851 255.362884 
L 336.719008 247.035171 
L 337.180165 224.302667 
L 337.641322 230.693318 
L 338.102479 270.591599 
L 338.563636 253.430332 
L 339.024793 255.185807 
L 339.48595 231.834177 
L 339.947107 216.419625 
L 340.408264 217.772453 
L 340.869421 215.288598 
L 341.330579 199.145555 
L 341.791736 238.030084 
L 342.252893 210.793501 
L 342.71405 249.556578 
L 343.175207 244.475178 
L 343.636364 260.158284 
L 344.097521 265.698771 
L 344.558678 237.603153 
L 345.019835 235.815301 
L 345.480992 245.530325 
L 345.942149 252.506689 
L 346.403306 272.648228 
L 346.864463 260.836916 
L 347.32562 261.857468 
L 347.786777 266.731484 
L 348.247934 254.178597 
L 348.709091 265.898284 
L 349.170248 259.509369 
L 349.631405 270.045101 
L 350.092562 266.188349 
L 350.553719 275.144797 
L 351.014876 288.431904 
L 351.476033 275.205745 
L 351.93719 280.54062 
L 352.398347 278.71906 
L 352.859504 280.826805 
L 353.320661 288.668525 
L 353.781818 288.588062 
L 354.242975 272.700453 
L 354.704132 260.904701 
L 355.165289 259.601401 
L 355.626446 262.882678 
L 356.087603 283.847807 
L 356.54876 275.318622 
L 357.009917 282.204692 
L 357.471074 279.38664 
L 357.932231 294.935543 
L 358.393388 288.869183 
L 358.854545 273.956074 
L 359.315702 281.25806 
L 359.77686 300.488633 
L 360.238017 292.216509 
L 360.699174 290.974267 
L 361.160331 283.295654 
L 361.621488 282.530683 
L 362.082645 276.975413 
L 362.543802 268.976537 
L 363.004959 291.715103 
L 363.466116 275.909362 
L 363.927273 286.844784 
L 364.38843 276.815189 
L 364.849587 269.852315 
L 365.310744 273.101881 
L 365.771901 273.764175 
L 366.233058 282.538038 
L 366.694215 279.419572 
L 367.155372 272.129118 
L 368.077686 267.231965 
L 368.538843 265.453095 
L 369 275.382305 
L 369.461157 252.59643 
L 369.922314 199.583721 
L 370.383471 176.404623 
L 370.844628 172.885431 
L 371.305785 66.665455 
L 371.766942 102.915145 
L 372.228099 118.84001 
L 372.689256 175.008367 
L 373.150413 189.237781 
L 373.61157 168.829869 
L 374.072727 185.902948 
L 374.533884 217.697977 
L 375.456198 175.147375 
L 375.917355 240.247823 
L 376.378512 214.435143 
L 376.839669 223.736469 
L 377.300826 226.516267 
L 377.761983 226.199996 
L 378.22314 251.090918 
L 378.684298 234.255975 
L 379.145455 251.97712 
L 379.606612 233.944546 
L 380.067769 245.538494 
L 380.990083 235.146575 
L 381.45124 240.111365 
L 381.912397 229.306302 
L 382.373554 241.243538 
L 382.834711 242.113736 
L 383.295868 248.561787 
L 383.757025 241.692756 
L 384.218182 229.941209 
L 384.679339 257.218855 
L 385.140496 259.979063 
L 385.601653 240.742983 
L 386.06281 226.333978 
L 386.523967 262.34653 
L 386.985124 253.109478 
L 387.446281 231.618217 
L 387.907438 255.111812 
L 388.368595 258.55845 
L 388.829752 221.73262 
L 389.752066 265.658484 
L 390.213223 244.716456 
L 390.67438 258.532097 
L 391.135537 251.984475 
L 391.596694 264.22767 
L 392.057851 262.459037 
L 392.519008 268.286004 
L 392.980165 255.007842 
L 393.441322 252.773729 
L 393.902479 268.807886 
L 394.363636 252.49161 
L 394.824793 253.058546 
L 395.28595 275.259301 
L 395.747107 261.804135 
L 396.208264 270.844926 
L 396.669421 265.036661 
L 397.130579 280.646771 
L 397.591736 270.360448 
L 398.51405 283.688359 
L 399.436364 257.215528 
L 399.897521 266.612914 
L 400.358678 269.34884 
L 400.819835 256.161933 
L 401.280992 271.755558 
L 401.742149 250.068702 
L 402.203306 203.251198 
L 402.664463 245.446758 
L 403.12562 262.142877 
L 403.586777 256.268638 
L 404.047934 280.257688 
L 404.509091 256.218852 
L 404.970248 261.498582 
L 405.431405 271.640131 
L 405.892562 265.927741 
L 406.353719 270.13972 
L 406.814876 277.816929 
L 407.276033 264.718283 
L 407.73719 278.844282 
L 408.198347 271.783611 
L 408.659504 274.606135 
L 409.120661 276.422151 
L 409.581818 283.540887 
L 410.042975 283.034344 
L 410.504132 281.700588 
L 410.965289 277.629724 
L 411.887603 289.358281 
L 412.34876 279.870268 
L 412.809917 286.16959 
L 413.271074 298.858602 
L 413.732231 275.752908 
L 414.193388 276.690299 
L 414.654545 263.41672 
L 415.57686 260.530033 
L 416.038017 270.500565 
L 416.499174 261.344975 
L 417.421488 280.554259 
L 417.882645 279.687942 
L 418.343802 281.203765 
L 418.804959 263.814119 
L 419.266116 279.606814 
L 419.727273 274.03066 
L 420.18843 259.183452 
L 420.649587 253.432328 
L 421.110744 258.543814 
L 421.571901 268.728384 
L 422.033058 271.357642 
L 422.494215 289.453528 
L 422.955372 249.24818 
L 423.416529 247.70253 
L 423.877686 252.277535 
L 424.338843 264.494451 
L 424.8 268.522034 
L 425.261157 268.969995 
L 425.722314 261.361902 
L 426.183471 251.465217 
L 426.644628 173.032867 
L 427.105785 163.25087 
L 427.566942 149.815958 
L 428.028099 97.460739 
L 428.489256 204.587468 
L 428.950413 141.037955 
L 429.41157 192.4957 
L 429.872727 144.327364 
L 430.333884 182.29483 
L 430.795041 182.163953 
L 431.256198 193.904042 
L 431.717355 194.184313 
L 432.178512 204.695244 
L 432.639669 158.579694 
L 433.100826 155.56261 
L 433.561983 179.600448 
L 434.02314 176.49477 
L 434.484298 159.861964 
L 434.945455 214.275585 
L 435.406612 153.248551 
L 435.867769 142.516929 
L 436.328926 213.092628 
L 436.790083 229.881333 
L 437.25124 209.888339 
L 437.712397 242.998939 
L 438.173554 210.431473 
L 438.634711 209.132793 
L 439.095868 189.715606 
L 439.557025 221.877024 
L 440.018182 226.121566 
L 440.479339 205.230099 
L 440.940496 220.200534 
L 441.401653 224.683433 
L 441.86281 215.024293 
L 442.323967 226.783787 
L 442.785124 256.028912 
L 443.246281 227.150471 
L 443.707438 243.152436 
L 444.168595 220.85832 
L 445.552066 258.001899 
L 446.013223 266.243347 
L 446.47438 242.790334 
L 446.935537 265.281746 
L 447.857851 267.312946 
L 448.319008 264.917131 
L 448.780165 275.027374 
L 449.241322 264.296084 
L 449.702479 278.104186 
L 450.163636 265.059798 
L 450.624793 272.270048 
L 451.08595 265.134384 
L 451.547107 282.845771 
L 452.008264 267.610773 
L 452.469421 272.509589 
L 452.930579 279.57148 
L 453.391736 280.811171 
L 453.852893 270.269821 
L 454.31405 285.392533 
L 454.775207 264.904749 
L 455.697521 279.732627 
L 456.158678 294.930406 
L 456.619835 289.154222 
L 457.080992 278.13867 
L 457.542149 296.988809 
L 458.003306 284.164706 
L 458.464463 285.426758 
L 458.92562 299.427868 
L 459.386777 283.610594 
L 459.847934 277.638151 
L 460.770248 307.288659 
L 461.231405 300.390947 
L 461.692562 298.90399 
L 462.153719 291.080455 
L 462.614876 279.630395 
L 463.076033 293.66924 
L 463.53719 312.049279 
L 463.998347 299.933894 
L 464.459504 298.806377 
L 464.920661 294.415436 
L 465.381818 303.226924 
L 465.842975 302.115707 
L 466.304132 310.674165 
L 466.765289 313.363409 
L 467.226446 302.759337 
L 467.687603 311.383954 
L 468.609917 294.073366 
L 469.071074 301.632967 
L 469.532231 301.273119 
L 469.993388 290.647204 
L 470.454545 290.033217 
L 470.915702 299.960025 
L 471.37686 291.818038 
L 471.838017 291.876325 
L 472.299174 319.418496 
L 472.760331 280.6576 
L 473.221488 284.839752 
L 473.682645 291.175517 
L 474.143802 301.303981 
L 474.604959 302.193029 
L 475.066116 316.341241 
L 475.527273 290.622588 
L 475.98843 318.422707 
L 476.449587 289.862459 
L 476.910744 320.458934 
L 477.371901 313.862745 
L 477.833058 296.153687 
L 478.294215 312.875272 
L 478.755372 307.08375 
L 479.216529 283.301901 
L 479.677686 312.705734 
L 480.138843 319.214881 
L 480.6 319.095646 
L 481.061157 320.440416 
L 481.522314 301.417672 
L 481.983471 308.905236 
L 482.444628 320.780638 
L 482.905785 310.108965 
L 483.366942 291.26097 
L 483.828099 302.618703 
L 484.289256 323.244127 
L 484.750413 291.347346 
L 485.21157 291.460482 
L 485.672727 316.091092 
L 486.133884 322.131395 
L 486.595041 321.371377 
L 487.056198 315.704781 
L 487.517355 283.631292 
L 487.978512 307.943599 
L 488.439669 300.029584 
L 488.900826 341.452854 
L 489.361983 331.436824 
L 489.82314 275.844163 
L 490.284298 300.300652 
L 490.745455 301.108239 
L 491.206612 303.388811 
L 491.667769 316.770648 
L 492.128926 310.379996 
L 492.590083 331.48125 
L 493.05124 285.491957 
L 493.512397 329.546037 
L 493.973554 334.429735 
L 494.434711 326.861006 
L 494.895868 343.560045 
L 495.357025 300.87487 
L 495.818182 334.269733 
L 496.279339 296.517341 
L 496.740496 309.677082 
L 497.201653 309.160485 
L 497.66281 325.182224 
L 498.123967 330.986497 
L 498.585124 350.706501 
L 499.046281 341.284241 
L 499.507438 286.44003 
L 499.968595 324.168102 
L 500.429752 311.085239 
L 500.890909 333.353594 
L 501.352066 327.434485 
L 501.813223 331.975375 
L 502.27438 327.547029 
L 502.735537 318.07465 
L 503.196694 333.17149 
L 503.657851 333.092653 
L 504.119008 313.140427 
L 504.580165 317.180909 
L 505.041322 343.493036 
L 505.502479 315.960437 
L 505.963636 306.03921 
L 506.424793 339.679232 
L 506.88595 317.796449 
L 507.347107 332.472715 
L 507.808264 323.178079 
L 508.269421 320.602525 
L 508.730579 321.325029 
L 509.652893 288.660837 
L 510.11405 297.235816 
L 510.575207 294.003141 
L 511.036364 305.69289 
L 511.497521 295.043394 
L 511.958678 307.686538 
L 512.419835 288.900563 
L 512.880992 308.6457 
L 513.342149 304.459556 
L 513.803306 313.469818 
L 514.72562 283.872496 
L 515.186777 289.690519 
L 515.647934 283.908422 
L 516.109091 275.295189 
L 516.570248 283.867913 
L 517.031405 297.571639 
L 517.492562 300.867478 
L 517.953719 280.119751 
L 518.414876 300.73346 
L 518.876033 303.121993 
L 519.33719 297.336829 
L 519.798347 304.743893 
L 520.259504 282.582428 
L 521.181818 312.321937 
L 521.642975 325.259508 
L 522.104132 266.984552 
L 522.565289 298.194977 
L 523.026446 291.59391 
L 523.487603 289.585071 
L 523.94876 323.271552 
L 524.409917 307.256466 
L 524.871074 315.505749 
L 525.332231 297.655687 
L 525.793388 272.512065 
L 526.254545 273.26155 
L 526.715702 298.577888 
L 527.17686 275.321172 
L 527.638017 294.384684 
L 528.099174 293.050485 
L 528.560331 284.308445 
L 529.021488 279.185834 
L 529.482645 279.810244 
L 529.943802 308.373819 
L 530.404959 306.486321 
L 530.866116 312.778325 
L 531.327273 297.053564 
L 531.78843 286.666487 
L 532.249587 287.457219 
L 532.710744 289.415792 
L 533.171901 304.474082 
L 533.633058 266.784485 
L 534.094215 268.3111 
L 534.555372 285.296399 
L 535.016529 282.705174 
L 535.477686 297.431743 
L 535.938843 306.402901 
L 536.4 306.424819 
L 536.861157 282.140676 
L 537.322314 293.604597 
L 537.783471 294.300821 
L 538.244628 315.291748 
L 538.705785 287.694173 
L 539.166942 284.203145 
L 539.628099 284.084169 
L 540.089256 301.314996 
L 540.550413 270.787748 
L 541.01157 294.308879 
L 541.472727 301.075085 
L 541.933884 310.665294 
L 542.395041 276.329972 
L 543.317355 306.255761 
L 544.239669 262.248806 
L 544.700826 271.240847 
L 545.161983 285.068611 
L 545.62314 250.620227 
L 546.084298 255.823708 
L 546.545455 228.42923 
L 547.467769 267.382358 
L 547.928926 276.698542 
L 548.390083 278.555621 
L 548.85124 263.675924 
L 549.312397 270.112111 
L 549.773554 243.077222 
L 550.234711 269.23478 
L 550.695868 268.609039 
L 551.157025 286.976992 
L 551.618182 274.325753 
L 552.079339 245.477139 
L 552.540496 278.671233 
L 553.001653 279.902017 
L 553.46281 270.991955 
L 553.923967 270.815912 
L 554.385124 295.066753 
L 554.846281 261.033804 
L 555.307438 306.386712 
L 555.768595 289.33337 
L 556.690909 277.72401 
L 557.152066 309.575552 
L 557.613223 290.066555 
L 558.07438 307.385089 
L 558.535537 314.322977 
L 558.996694 291.096385 
L 559.457851 290.094682 
L 559.919008 323.282086 
L 560.380165 299.858975 
L 560.841322 290.162985 
L 561.302479 304.123659 
L 561.763636 287.530807 
L 562.224793 294.906677 
L 562.68595 299.385252 
L 563.147107 295.660856 
L 563.608264 298.824931 
L 564.069421 298.965122 
L 564.530579 297.603203 
L 564.991736 257.246058 
L 565.452893 295.752777 
L 565.91405 280.909079 
L 566.836364 271.008809 
L 567.297521 275.652523 
L 567.758678 292.363723 
L 568.219835 284.907944 
L 568.680992 284.418477 
L 569.142149 251.866719 
L 569.603306 248.990639 
L 570.064463 251.277199 
L 570.52562 250.946181 
L 570.986777 286.386289 
L 571.447934 269.029538 
L 571.909091 273.693581 
L 572.370248 270.600285 
L 572.831405 272.349328 
L 573.292562 261.552914 
L 573.753719 264.757794 
L 574.214876 265.511751 
L 574.676033 259.317323 
L 575.13719 282.03253 
L 575.598347 236.138557 
L 576.059504 268.430852 
L 576.520661 287.833403 
L 576.981818 274.699608 
L 577.442975 298.383623 
L 577.904132 300.685781 
L 578.365289 280.768814 
L 578.826446 290.627652 
L 579.287603 291.41029 
L 579.74876 279.919869 
L 580.209917 294.203578 
L 580.671074 287.866889 
L 581.132231 308.523361 
L 581.593388 307.243271 
L 582.054545 290.941853 
L 582.515702 279.015668 
L 582.97686 282.180926 
L 583.438017 295.616799 
L 584.360331 287.266725 
L 584.821488 286.045033 
L 585.282645 262.109317 
L 585.743802 293.17397 
L 586.204959 271.778326 
L 586.666116 276.863422 
L 587.127273 289.109833 
L 587.58843 307.840294 
L 588.971901 276.171116 
L 589.433058 280.459011 
L 589.894215 277.576205 
L 591.277686 295.471988 
L 591.738843 293.742422 
L 592.2 286.74159 
L 592.661157 295.90923 
L 593.122314 287.792709 
L 593.583471 287.283764 
L 594.044628 293.070259 
L 594.505785 296.522626 
L 594.966942 305.645766 
L 595.428099 300.847409 
L 595.889256 281.726497 
L 596.350413 283.174017 
L 596.81157 289.360832 
L 597.272727 291.605035 
L 597.733884 280.851014 
L 598.195041 299.886547 
L 598.656198 307.053701 
L 599.117355 302.213172 
L 599.578512 308.00584 
L 600.039669 270.693573 
L 600.500826 284.612815 
L 600.961983 275.12421 
L 601.42314 306.597387 
L 601.884298 285.897043 
L 602.345455 311.158421 
L 602.806612 284.912232 
L 603.267769 314.814219 
L 603.728926 303.781294 
L 604.190083 282.395149 
L 604.65124 289.006824 
L 605.112397 304.661693 
L 606.034711 311.96719 
L 606.495868 291.815783 
L 606.957025 310.553821 
L 607.418182 289.939522 
L 607.879339 308.46829 
L 608.340496 307.999335 
L 608.801653 296.075552 
L 609.26281 314.28221 
L 609.723967 294.030233 
L 610.185124 299.132664 
L 610.646281 288.549106 
L 611.107438 296.483411 
L 611.568595 311.544584 
L 612.029752 311.063174 
L 612.490909 286.981168 
L 612.952066 301.220931 
L 613.413223 283.291478 
L 613.87438 295.684732 
L 614.335537 301.758743 
L 614.796694 324.668917 
L 615.257851 308.964299 
L 615.719008 316.508191 
L 616.180165 308.867389 
L 616.641322 293.188422 
L 617.102479 270.311328 
L 617.563636 321.041172 
L 618.024793 315.239301 
L 618.48595 334.209636 
L 618.947107 308.551598 
L 619.408264 313.156504 
L 619.869421 285.748795 
L 620.330579 300.082105 
L 620.791736 302.884485 
L 621.252893 314.301133 
L 621.71405 287.794336 
L 622.175207 312.293736 
L 622.636364 296.428931 
L 622.636364 296.428931 
" clip-path="url(#p5f8158de3c)" style="fill: none; stroke: #1f77b4; stroke-width: 1.5; stroke-linecap: square"/>
   </g>
   <g id="line2d_21">
    <path d="M 115.363636 242.556153 
L 115.824793 246.655587 
L 116.28595 252.291358 
L 116.747107 260.615818 
L 117.208264 265.759016 
L 117.669421 268.455801 
L 118.130579 272.831995 
L 119.052893 287.066658 
L 119.975207 294.357629 
L 120.436364 289.174033 
L 120.897521 280.720433 
L 121.358678 282.900436 
L 121.819835 297.046319 
L 122.280992 293.324141 
L 122.742149 292.11302 
L 123.203306 299.476619 
L 123.664463 301.713171 
L 124.12562 298.330105 
L 124.586777 309.96493 
L 125.047934 315.495733 
L 125.509091 313.921254 
L 125.970248 306.186239 
L 126.431405 315.310007 
L 126.892562 314.760959 
L 127.353719 297.603425 
L 127.814876 294.906677 
L 128.276033 303.626763 
L 128.73719 299.961096 
L 129.198347 311.377929 
L 129.659504 307.39736 
L 130.120661 300.728137 
L 130.581818 300.300172 
L 131.042975 308.422791 
L 131.504132 327.671549 
L 131.965289 333.008531 
L 132.426446 332.225339 
L 132.887603 312.49214 
L 133.34876 298.992178 
L 133.809917 303.546004 
L 134.271074 316.932941 
L 134.732231 323.594106 
L 135.193388 326.670364 
L 135.654545 323.521442 
L 136.115702 323.464892 
L 136.57686 312.65362 
L 137.038017 334.905971 
L 137.499174 343.044705 
L 137.960331 343.601811 
L 138.421488 340.896969 
L 138.882645 340.436737 
L 139.343802 344.643394 
L 139.804959 344.41727 
L 140.266116 340.186441 
L 140.727273 329.649711 
L 141.18843 338.725023 
L 142.110744 311.644377 
L 142.571901 303.699427 
L 143.033058 298.628856 
L 143.955372 292.77513 
L 144.416529 282.674386 
L 144.877686 280.978787 
L 145.338843 287.163568 
L 145.8 282.512868 
L 146.261157 251.475862 
L 146.722314 241.964526 
L 147.183471 252.993829 
L 147.644628 273.340645 
L 148.105785 281.850795 
L 148.566942 285.524519 
L 149.489256 287.914457 
L 150.41157 291.612427 
L 150.872727 297.312767 
L 151.333884 299.61389 
L 151.795041 301.147971 
L 152.717355 306.743381 
L 153.178512 308.34207 
L 153.639669 310.643192 
L 154.100826 308.640784 
L 154.561983 298.98412 
L 155.02314 295.18122 
L 155.484298 304.926663 
L 155.945455 310.53013 
L 156.406612 302.415642 
L 156.867769 288.883376 
L 157.328926 289.739196 
L 157.790083 296.279279 
L 158.25124 294.817861 
L 158.712397 289.989529 
L 159.173554 300.94613 
L 159.634711 309.196965 
L 160.095868 298.120169 
L 160.557025 292.823548 
L 161.018182 319.355183 
L 161.479339 319.896136 
L 161.940496 320.808506 
L 162.401653 321.995418 
L 162.86281 323.577954 
L 163.323967 322.528314 
L 163.785124 320.267552 
L 164.246281 305.960152 
L 164.707438 307.445815 
L 165.168595 315.471524 
L 165.629752 318.854553 
L 166.090909 320.073769 
L 166.552066 305.467653 
L 167.013223 298.023296 
L 167.47438 293.671347 
L 167.935537 298.475433 
L 168.396694 313.170365 
L 169.319008 280.211746 
L 169.780165 277.05473 
L 170.241322 291.668939 
L 170.702479 293.146508 
L 171.163636 296.731416 
L 171.624793 299.26672 
L 172.08595 306.880615 
L 172.547107 307.994826 
L 173.008264 309.553153 
L 173.469421 292.605555 
L 173.930579 286.913272 
L 174.391736 282.956948 
L 174.852893 276.190816 
L 175.31405 263.134933 
L 175.775207 236.522577 
L 176.236364 200.519967 
L 176.697521 182.223976 
L 177.158678 180.140884 
L 178.080992 193.923409 
L 178.542149 199.389605 
L 179.464463 205.873138 
L 179.92562 207.108468 
L 181.309091 212.978383 
L 181.770248 205.881195 
L 182.231405 185.873491 
L 182.692562 160.35923 
L 183.153719 149.047328 
L 183.614876 155.660038 
L 184.53719 174.868472 
L 184.998347 183.806513 
L 185.459504 188.965863 
L 185.920661 192.160616 
L 186.381818 196.846243 
L 186.842975 202.764614 
L 188.687603 233.002276 
L 189.609917 239.954098 
L 190.071074 239.736068 
L 190.532231 240.010611 
L 191.454545 235.844352 
L 191.915702 230.749572 
L 192.37686 228.989403 
L 193.760331 220.810308 
L 194.221488 216.119247 
L 194.682645 212.695783 
L 195.143802 213.115617 
L 196.527273 222.804622 
L 196.98843 221.036395 
L 197.449587 216.91046 
L 198.833058 229.812956 
L 199.294215 235.061159 
L 200.677686 245.993551 
L 201.138843 250.773428 
L 201.6 252.291358 
L 202.061157 251.944151 
L 202.522314 250.127507 
L 202.983471 245.646344 
L 203.444628 246.171183 
L 203.905785 242.344037 
L 204.366942 240.430445 
L 204.828099 241.576959 
L 205.289256 240.204395 
L 207.133884 248.633786 
L 208.056198 249.949875 
L 208.517355 253.397548 
L 208.978512 258.16933 
L 209.439669 259.872987 
L 209.900826 260.914533 
L 210.361983 257.95204 
L 210.82314 257.240809 
L 211.284298 256.907315 
L 211.745455 262.198355 
L 212.206612 262.981511 
L 213.590083 276.005126 
L 214.05124 270.167514 
L 214.512397 257.103575 
L 214.973554 255.537153 
L 215.434711 265.476417 
L 215.895868 268.019815 
L 216.357025 268.488104 
L 216.818182 267.632247 
L 217.279339 265.314936 
L 217.740496 262.335589 
L 218.201653 265.621782 
L 218.66281 264.596351 
L 219.585124 288.802617 
L 220.046281 303.618668 
L 220.507438 276.287726 
L 220.968595 264.71747 
L 221.429752 245.832034 
L 221.890909 237.846723 
L 222.352066 237.176592 
L 223.27438 265.274576 
L 224.196694 272.241182 
L 224.657851 273.033134 
L 225.119008 271.863076 
L 225.580165 276.089544 
L 226.041322 273.631302 
L 226.502479 275.181536 
L 226.963636 265.799414 
L 227.424793 264.725528 
L 227.88595 264.749774 
L 228.347107 263.772797 
L 228.808264 260.284763 
L 229.269421 262.933092 
L 229.730579 261.689668 
L 230.191736 256.231529 
L 230.652893 266.130432 
L 231.11405 281.850795 
L 231.575207 276.368448 
L 232.497521 224.839296 
L 232.958678 225.404495 
L 233.880992 233.930797 
L 234.342149 235.569809 
L 234.803306 236.603335 
L 235.264463 236.974714 
L 235.72562 232.057566 
L 236.186777 229.861412 
L 236.647934 235.38412 
L 237.109091 238.484587 
L 237.570248 239.292025 
L 238.031405 242.691206 
L 238.492562 241.536635 
L 238.953719 237.580275 
L 239.414876 225.307622 
L 239.876033 226.131175 
L 240.33719 234.94004 
L 241.259504 275.37532 
L 241.720661 271.717748 
L 242.181818 258.710284 
L 242.642975 272.912717 
L 243.104132 273.179165 
L 243.565289 269.14212 
L 244.026446 261.48779 
L 244.487603 257.337683 
L 244.94876 257.232715 
L 245.409917 255.747088 
L 245.871074 251.919979 
L 246.332231 250.628099 
L 247.254545 245.727066 
L 247.715702 247.277336 
L 248.17686 248.052435 
L 248.638017 247.059306 
L 249.099174 244.830848 
L 249.560331 244.402957 
L 250.021488 243.77315 
L 250.943802 240.172054 
L 251.866116 232.848816 
L 252.327273 239.170869 
L 252.78843 237.798304 
L 253.249587 233.373655 
L 253.710744 236.199616 
L 254.171901 240.753406 
L 254.633058 243.038376 
L 255.094215 244.629007 
L 255.555372 247.810233 
L 256.016529 248.601482 
L 256.477686 248.98905 
L 256.938843 249.667275 
L 257.4 248.884082 
L 257.861157 246.857465 
L 258.322314 246.542599 
L 258.783471 245.646344 
L 259.244628 243.660125 
L 259.705785 242.263278 
L 260.166942 248.302768 
L 260.628099 248.052435 
L 261.089256 248.213915 
L 261.550413 256.26387 
L 262.01157 255.617912 
L 262.472727 251.984549 
L 262.933884 253.663626 
L 263.395041 251.201356 
L 263.856198 247.689113 
L 264.317355 249.570401 
L 264.778512 250.434316 
L 265.239669 248.803324 
L 266.161983 250.926814 
L 266.62314 249.929546 
L 267.084298 252.388268 
L 268.006612 252.695077 
L 268.467769 258.45193 
L 268.928926 261.600852 
L 269.390083 260.559269 
L 269.85124 260.430092 
L 270.312397 261.818845 
L 270.773554 261.786541 
L 271.234711 260.898418 
L 271.695868 262.061084 
L 272.157025 268.64149 
L 272.618182 268.85952 
L 273.079339 269.376228 
L 273.540496 268.64149 
L 274.001653 266.017407 
L 274.46281 264.669015 
L 275.385124 256.231529 
L 275.846281 257.910977 
L 276.307438 260.228251 
L 276.768595 260.026373 
L 277.229752 263.82931 
L 277.690909 269.247051 
L 278.152066 271.079884 
L 279.07438 271.160642 
L 279.535537 274.382192 
L 279.996694 272.759331 
L 280.919008 267.769482 
L 281.380165 265.88823 
L 281.841322 263.183389 
L 282.302479 267.276983 
L 282.763636 272.460579 
L 283.224793 274.414532 
L 283.68595 273.098406 
L 284.608264 265.290727 
L 285.069421 273.058045 
L 285.530579 276.602592 
L 286.452893 269.976022 
L 286.91405 275.520685 
L 287.375207 269.352018 
L 287.836364 265.621782 
L 288.297521 269.860705 
L 288.758678 269.448892 
L 289.219835 269.263202 
L 289.680992 270.192758 
L 290.603306 265.282633 
L 291.52562 258.024002 
L 292.447934 246.784801 
L 292.909091 243.135287 
L 293.370248 241.504332 
L 293.831405 241.334757 
L 294.292562 242.844629 
L 294.753719 243.07068 
L 295.214876 243.143344 
L 296.598347 248.536875 
L 297.059504 247.301545 
L 297.520661 246.389176 
L 297.981818 247.899049 
L 298.442975 248.230067 
L 298.904132 245.541377 
L 299.365289 248.795266 
L 299.826446 260.050619 
L 300.287603 266.509906 
L 300.74876 266.404938 
L 301.209917 261.14062 
L 301.671074 257.184297 
L 302.132231 269.021 
L 302.593388 272.727027 
L 303.054545 266.461487 
L 303.515702 258.45193 
L 303.97686 256.04584 
L 304.438017 263.054175 
L 304.899174 264.677109 
L 305.360331 264.249181 
L 306.743802 251.047933 
L 307.204959 237.604521 
L 307.666116 213.793879 
L 308.127273 200.528061 
L 308.58843 200.778358 
L 309.049587 217.055826 
L 309.510744 228.319236 
L 309.971901 231.766909 
L 310.894215 250.345499 
L 311.355372 248.431908 
L 311.816529 247.180463 
L 312.277686 245.218416 
L 312.738843 265.476417 
L 313.2 270.224027 
L 314.122314 276.150455 
L 314.583471 280.130987 
L 315.505785 296.787929 
L 315.966942 288.568473 
L 316.428099 282.520926 
L 316.889256 286.10587 
L 317.350413 269.198595 
L 317.81157 266.461487 
L 318.272727 271.871134 
L 318.733884 282.714709 
L 319.656198 269.941427 
L 320.578512 301.567842 
L 321.039669 300.146786 
L 321.500826 296.747568 
L 321.961983 299.468561 
L 322.42314 304.199983 
L 322.884298 306.904824 
L 323.345455 301.567842 
L 323.806612 311.684738 
L 324.267769 318.466986 
L 324.728926 317.942184 
L 325.190083 307.171272 
L 325.65124 317.732248 
L 326.112397 322.84318 
L 326.573554 326.137468 
L 327.034711 317.958336 
L 327.495868 314.381485 
L 327.957025 320.542058 
L 328.418182 322.584826 
L 328.879339 325.499567 
L 329.340496 329.5528 
L 329.801653 337.408935 
L 330.26281 336.835678 
L 330.723967 338.999566 
L 331.185124 336.851829 
L 331.646281 326.266607 
L 332.107438 320.8166 
L 332.568595 313.146155 
L 333.029752 311.959281 
L 333.952066 272.823901 
L 334.413223 262.384044 
L 334.87438 258.120912 
L 335.796694 253.70432 
L 336.257851 246.833256 
L 336.719008 241.851501 
L 337.180165 240.575773 
L 337.641322 240.406236 
L 338.102479 242.271372 
L 339.024793 235.779745 
L 339.947107 192.954527 
L 340.869421 187.778988 
L 341.330579 195.764336 
L 341.791736 208.448803 
L 342.71405 228.16585 
L 343.636364 245.549434 
L 344.558678 258.024002 
L 345.019835 262.254868 
L 345.480992 264.370264 
L 345.942149 262.610095 
L 347.786777 253.98692 
L 348.247934 250.870338 
L 348.709091 249.699578 
L 349.170248 254.68939 
L 349.631405 262.75546 
L 350.553719 273.817029 
L 351.014876 277.49881 
L 351.476033 279.74342 
L 351.93719 281.164476 
L 352.398347 281.325956 
L 352.859504 280.292468 
L 353.320661 281.576253 
L 354.242975 267.494976 
L 354.704132 262.47286 
L 355.165289 263.579014 
L 355.626446 273.405252 
L 356.087603 280.849573 
L 356.54876 282.819677 
L 357.009917 283.635173 
L 357.932231 281.527835 
L 358.393388 288.560378 
L 358.854545 290.344793 
L 359.77686 284.595998 
L 360.238017 283.449447 
L 360.699174 284.103462 
L 361.160331 288.649195 
L 361.621488 287.882154 
L 362.543802 272.589756 
L 363.004959 284.127708 
L 363.466116 285.023926 
L 363.927273 281.568195 
L 364.38843 280.978787 
L 364.849587 281.568195 
L 365.310744 276.319992 
L 366.694215 266.760202 
L 367.155372 267.59185 
L 367.616529 273.615151 
L 368.077686 273.647454 
L 368.538843 270.716562 
L 369 266.881321 
L 369.461157 254.455246 
L 369.922314 222.885343 
L 370.844628 121.353027 
L 371.305785 107.441288 
L 371.766942 114.861437 
L 372.689256 135.450492 
L 373.150413 143.686137 
L 374.995041 187.455991 
L 375.917355 201.085167 
L 376.378512 206.14768 
L 376.839669 209.506501 
L 377.761983 219.308493 
L 378.22314 223.216398 
L 379.145455 228.319236 
L 380.067769 236.135009 
L 380.528926 235.803954 
L 380.990083 237.556066 
L 381.45124 237.661033 
L 381.912397 241.334757 
L 382.373554 237.580275 
L 382.834711 239.364653 
L 383.295868 239.259685 
L 384.218182 242.416701 
L 384.679339 241.916108 
L 385.601653 231.783061 
L 386.06281 232.784246 
L 386.523967 234.132638 
L 386.985124 232.671184 
L 387.446281 231.661941 
L 387.907438 231.678093 
L 388.829752 238.436131 
L 389.290909 240.172054 
L 390.213223 250.692706 
L 390.67438 254.398733 
L 391.135537 255.230344 
L 391.596694 257.991698 
L 392.057851 259.953745 
L 392.519008 259.412755 
L 392.980165 257.854464 
L 393.441322 254.899289 
L 393.902479 258.661866 
L 394.363636 255.795544 
L 394.824793 259.138249 
L 395.28595 261.407068 
L 395.747107 262.238716 
L 397.591736 281.204874 
L 398.052893 283.231491 
L 398.51405 279.816121 
L 398.975207 279.21056 
L 399.436364 277.837959 
L 399.897521 273.57479 
L 400.358678 271.152548 
L 400.819835 270.934555 
L 401.280992 260.962988 
L 402.203306 144.848802 
L 402.664463 212.962231 
L 404.047934 254.875117 
L 404.509091 262.327532 
L 404.970248 267.042802 
L 405.431405 273.171071 
L 405.892562 277.305063 
L 406.353719 271.378635 
L 406.814876 271.322123 
L 407.276033 281.051451 
L 408.198347 270.248273 
L 408.659504 273.049988 
L 409.120661 261.471675 
L 409.581818 266.647214 
L 410.042975 290.15101 
L 410.504132 295.802895 
L 410.965289 297.538818 
L 411.426446 291.136043 
L 411.887603 271.733899 
L 412.34876 262.125654 
L 412.809917 276.287726 
L 413.271074 295.512238 
L 413.732231 288.834921 
L 414.193388 278.871448 
L 414.654545 273.582884 
L 415.115702 277.450392 
L 415.57686 277.353481 
L 416.038017 280.752699 
L 416.499174 287.325048 
L 416.960331 286.186629 
L 417.421488 266.283855 
L 417.882645 265.605631 
L 418.343802 279.96145 
L 418.804959 288.350443 
L 419.727273 280.421681 
L 420.649587 253.841591 
L 421.110744 251.007573 
L 422.033058 256.974361 
L 423.416529 235.497182 
L 423.877686 245.799767 
L 424.338843 276.92559 
L 424.8 288.762257 
L 425.261157 282.157604 
L 426.183471 226.607522 
L 427.566942 152.083224 
L 428.028099 150.783288 
L 428.950413 175.151072 
L 429.41157 177.137291 
L 430.333884 204.742775 
L 430.795041 212.534303 
L 431.256198 217.007371 
L 431.717355 204.452118 
L 432.178512 184.185986 
L 432.639669 172.252409 
L 433.100826 165.542826 
L 433.561983 167.052661 
L 434.02314 171.549975 
L 434.484298 168.780564 
L 434.945455 167.189933 
L 435.406612 189.046622 
L 436.790083 210.790286 
L 437.25124 218.089315 
L 437.712397 223.539359 
L 438.173554 224.3064 
L 439.095868 212.493942 
L 439.557025 208.093538 
L 440.018182 206.519059 
L 440.479339 210.338148 
L 440.940496 213.067199 
L 441.401653 212.518151 
L 441.86281 214.875786 
L 442.323967 218.371915 
L 442.785124 217.75826 
L 443.246281 220.237014 
L 443.707438 225.92124 
L 444.168595 237.935539 
L 444.629752 241.593148 
L 445.090909 243.312919 
L 445.552066 244.079959 
L 446.47438 259.428906 
L 446.935537 263.118782 
L 447.396694 265.088886 
L 447.857851 265.419941 
L 448.319008 258.95256 
L 448.780165 249.05362 
L 449.241322 274.729398 
L 449.702479 274.091534 
L 450.163636 267.196225 
L 450.624793 243.369431 
L 451.08595 264.192631 
L 451.547107 273.970452 
L 452.008264 277.022463 
L 452.469421 281.576253 
L 452.930579 280.680035 
L 453.852893 287.591497 
L 454.31405 286.186629 
L 454.775207 277.789504 
L 455.697521 267.551489 
L 456.158678 278.774538 
L 456.619835 283.828957 
L 457.080992 285.193464 
L 457.542149 288.406993 
L 458.003306 301.018794 
L 458.464463 305.080086 
L 458.92562 296.86063 
L 459.386777 279.27513 
L 459.847934 288.705744 
L 460.309091 305.968246 
L 460.770248 299.089088 
L 461.231405 295.794838 
L 461.692562 288.237455 
L 462.153719 286.889063 
L 462.614876 300.655473 
L 463.076033 304.514886 
L 463.53719 298.943722 
L 463.998347 302.092644 
L 464.459504 306.057062 
L 464.920661 311.264867 
L 465.381818 321.309136 
L 465.842975 320.43709 
L 466.304132 314.042373 
L 466.765289 309.787298 
L 467.226446 315.552246 
L 467.687603 313.00079 
L 468.14876 307.009792 
L 468.609917 295.479934 
L 469.071074 301.680867 
L 469.532231 304.87015 
L 469.993388 299.783464 
L 470.454545 288.114192 
L 470.915702 280.825401 
L 471.37686 278.927961 
L 471.838017 288.06788 
L 472.760331 296.586087 
L 473.221488 293.081902 
L 473.682645 291.434795 
L 474.143802 302.819324 
L 474.604959 309.956873 
L 475.066116 309.520887 
L 475.527273 316.044781 
L 475.98843 315.196981 
L 476.449587 310.917697 
L 476.910744 313.081548 
L 477.371901 309.868057 
L 477.833058 298.007144 
L 478.294215 291.4267 
L 478.755372 287.107056 
L 479.216529 300.66353 
L 479.677686 323.109628 
L 480.138843 321.462522 
L 480.6 297.215894 
L 481.061157 290.223674 
L 481.522314 297.546912 
L 481.983471 302.359092 
L 482.444628 292.234139 
L 482.905785 289.618113 
L 483.828099 274.559824 
L 484.289256 275.367262 
L 484.750413 273.364854 
L 485.21157 269.303563 
L 485.672727 272.799692 
L 486.595041 300.534353 
L 487.056198 310.328289 
L 487.517355 297.514609 
L 488.439669 331.022312 
L 488.900826 327.736119 
L 489.361983 319.072583 
L 489.82314 297.81336 
L 490.745455 332.952019 
L 491.206612 333.743268 
L 491.667769 337.820711 
L 492.128926 335.132021 
L 492.590083 324.498381 
L 493.05124 308.010978 
L 493.512397 316.908695 
L 493.973554 331.975042 
L 494.434711 334.2035 
L 494.895868 317.619223 
L 495.357025 312.169179 
L 495.818182 319.758865 
L 496.279339 321.171827 
L 496.740496 310.174866 
L 497.201653 305.790614 
L 497.66281 308.438943 
L 498.123967 316.618038 
L 498.585124 316.311229 
L 499.046281 311.676681 
L 499.507438 313.54178 
L 499.968595 314.922476 
L 500.429752 312.330659 
L 500.890909 310.780426 
L 501.352066 315.213133 
L 501.813223 325.539964 
L 502.735537 308.883023 
L 503.196694 303.376429 
L 503.657851 299.726952 
L 504.119008 300.929978 
L 504.580165 304.999364 
L 505.041322 303.02926 
L 505.502479 300.461689 
L 505.963636 303.158436 
L 506.88595 326.355423 
L 507.347107 312.572898 
L 507.808264 310.191017 
L 508.269421 306.541503 
L 508.730579 301.470969 
L 509.191736 299.686554 
L 509.652893 300.211356 
L 510.11405 300.485898 
L 511.958678 283.41718 
L 512.880992 269.392379 
L 513.342149 265.573327 
L 513.803306 268.213599 
L 514.264463 272.856204 
L 514.72562 272.888471 
L 515.186777 273.3891 
L 515.647934 276.481473 
L 516.109091 274.810157 
L 516.570248 274.987789 
L 517.031405 271.725842 
L 517.492562 269.578106 
L 517.953719 264.822438 
L 518.414876 263.094573 
L 519.33719 264.055397 
L 519.798347 261.665422 
L 520.259504 260.51085 
L 520.720661 260.825717 
L 521.181818 263.021908 
L 521.642975 264.313751 
L 522.104132 263.700096 
L 522.565289 260.607724 
L 523.026446 258.435778 
L 523.487603 258.89601 
L 524.409917 266.090071 
L 524.871074 268.940242 
L 525.793388 265.403752 
L 526.254545 265.581384 
L 526.715702 263.853556 
L 527.17686 266.243494 
L 527.638017 275.294598 
L 528.099174 269.230936 
L 528.560331 273.865484 
L 529.021488 272.557453 
L 529.482645 277.05473 
L 529.943802 278.944112 
L 530.866116 288.528112 
L 531.327273 289.537392 
L 531.78843 292.217987 
L 532.249587 293.695556 
L 532.710744 298.313953 
L 533.171901 297.65188 
L 533.633058 300.929978 
L 534.094215 303.013108 
L 534.555372 301.357907 
L 535.016529 302.044226 
L 535.477686 308.802264 
L 535.938843 312.734379 
L 536.4 314.276555 
L 536.861157 312.984675 
L 537.322314 313.186516 
L 537.783471 312.661714 
L 538.705785 300.833105 
L 539.166942 299.977248 
L 539.628099 303.392581 
L 540.089256 309.020257 
L 540.550413 307.631504 
L 541.01157 316.036723 
L 541.933884 326.436182 
L 542.395041 325.434997 
L 542.856198 321.882356 
L 543.317355 316.359647 
L 543.778512 305.112389 
L 544.239669 298.09596 
L 544.700826 293.178812 
L 545.62314 267.712969 
L 546.084298 267.446521 
L 547.006612 259.130155 
L 547.467769 260.51085 
L 548.390083 277.070881 
L 548.85124 273.146862 
L 550.234711 257.733345 
L 550.695868 258.16933 
L 551.157025 261.479732 
L 552.079339 270.369356 
L 552.540496 278.177035 
L 553.46281 296.230823 
L 553.923967 302.900046 
L 554.385124 307.752624 
L 554.846281 308.648841 
L 555.307438 304.232286 
L 555.768595 289.480842 
L 556.229752 284.725175 
L 556.690909 281.89925 
L 557.613223 305.128504 
L 558.07438 313.138098 
L 558.535537 319.121001 
L 558.996694 306.178181 
L 559.457851 304.789428 
L 559.919008 317.054061 
L 560.380165 320.566304 
L 560.841322 328.696944 
L 561.302479 323.311506 
L 561.763636 306.953317 
L 562.224793 300.15488 
L 562.68595 295.964375 
L 563.147107 290.570844 
L 563.608264 286.905214 
L 564.069421 281.19678 
L 564.530579 273.703967 
L 564.991736 268.463858 
L 565.91405 268.488104 
L 566.375207 265.702504 
L 566.836364 263.910032 
L 567.297521 264.063455 
L 567.758678 265.9528 
L 568.219835 266.429184 
L 569.142149 268.463858 
L 569.603306 267.390008 
L 570.064463 270.062547 
L 570.52562 270.183666 
L 570.986777 267.898659 
L 571.447934 266.703689 
L 572.370248 262.618189 
L 572.831405 253.268334 
L 573.292562 266.655271 
L 573.753719 269.279354 
L 574.214876 248.004016 
L 574.676033 253.680111 
L 575.13719 267.357705 
L 575.598347 270.966859 
L 576.059504 277.022463 
L 576.520661 278.572697 
L 576.981818 277.119374 
L 577.904132 270.312843 
L 578.365289 274.269166 
L 578.826446 274.834366 
L 579.287603 274.107686 
L 579.74876 273.623245 
L 580.209917 281.253292 
L 580.671074 282.989252 
L 581.132231 285.637581 
L 581.593388 285.443797 
L 582.054545 283.505996 
L 582.515702 284.038892 
L 582.97686 283.69978 
L 583.438017 282.068788 
L 583.899174 283.489845 
L 584.360331 283.974286 
L 584.821488 281.188722 
L 585.282645 275.35111 
L 585.743802 282.24642 
L 586.204959 281.600499 
L 586.666116 278.104407 
L 587.127273 282.956948 
L 587.58843 286.558008 
L 588.049587 283.263757 
L 588.510744 281.019148 
L 588.971901 282.004218 
L 589.433058 283.514054 
L 589.894215 280.550858 
L 590.355372 275.205782 
L 590.816529 275.334959 
L 591.277686 282.682443 
L 592.2 280.195594 
L 592.661157 283.627079 
L 593.122314 291.555914 
L 593.583471 293.00118 
L 594.044628 288.156696 
L 594.505785 289.537392 
L 594.966942 296.489214 
L 595.428099 297.772999 
L 595.889256 298.510915 
L 596.350413 297.692241 
L 596.81157 295.924014 
L 597.272727 294.874374 
L 597.733884 292.145323 
L 598.195041 288.673441 
L 598.656198 292.11302 
L 599.117355 298.362408 
L 599.578512 296.674903 
L 600.039669 290.344793 
L 600.500826 293.065787 
L 600.961983 294.220358 
L 601.42314 292.072659 
L 602.345455 304.781334 
L 602.806612 305.427255 
L 603.267769 303.376429 
L 603.728926 293.44526 
L 604.190083 280.518555 
L 604.65124 290.02989 
L 605.112397 293.534076 
L 605.573554 295.867502 
L 606.034711 294.284965 
L 607.418182 286.283502 
L 607.879339 293.259534 
L 608.340496 297.490399 
L 608.801653 296.594145 
L 609.26281 290.013738 
L 609.723967 286.493401 
L 610.185124 299.081031 
L 610.646281 301.600109 
L 611.107438 300.655473 
L 611.568595 302.90814 
L 612.029752 301.269091 
L 612.490909 297.30471 
L 612.952066 288.423144 
L 613.413223 282.989252 
L 614.335537 289.739196 
L 614.796694 291.636636 
L 615.257851 292.710486 
L 615.719008 295.891711 
L 616.180165 295.609111 
L 616.641322 291.76585 
L 617.102479 299.161752 
L 617.563636 304.054691 
L 618.024793 306.234694 
L 618.48595 304.474525 
L 618.947107 296.319639 
L 619.408264 292.968876 
L 619.869421 296.868687 
L 620.330579 294.486806 
L 620.791736 293.404899 
L 621.71405 293.994308 
L 622.175207 296.327697 
L 622.636364 294.98581 
L 622.636364 294.98581 
" clip-path="url(#p5f8158de3c)" style="fill: none; stroke: #ff7f0e; stroke-width: 1.5; stroke-linecap: square"/>
   </g>
   <g id="patch_3">
    <path d="M 90 378 
L 90 51.84 
" style="fill: none; stroke: #000000; stroke-width: 0.8; stroke-linejoin: miter; stroke-linecap: square"/>
   </g>
   <g id="patch_4">
    <path d="M 648 378 
L 648 51.84 
" style="fill: none; stroke: #000000; stroke-width: 0.8; stroke-linejoin: miter; stroke-linecap: square"/>
   </g>
   <g id="patch_5">
    <path d="M 90 378 
L 648 378 
" style="fill: none; stroke: #000000; stroke-width: 0.8; stroke-linejoin: miter; stroke-linecap: square"/>
   </g>
   <g id="patch_6">
    <path d="M 90 51.84 
L 648 51.84 
" style="fill: none; stroke: #000000; stroke-width: 0.8; stroke-linejoin: miter; stroke-linecap: square"/>
   </g>
   <g id="text_21">
    <!-- Spring Stage LSTM: GW-SW Inputs -->
    <g transform="translate(265.745625 45.84)scale(0.12 -0.12)">
     <defs>
      <path id="DejaVuSans-4c" d="M 628 4666 
L 1259 4666 
L 1259 531 
L 3531 531 
L 3531 0 
L 628 0 
L 628 4666 
z
" transform="scale(0.015625)"/>
      <path id="DejaVuSans-54" d="M -19 4666 
L 3928 4666 
L 3928 4134 
L 2272 4134 
L 2272 0 
L 1638 0 
L 1638 4134 
L -19 4134 
L -19 4666 
z
" transform="scale(0.015625)"/>
      <path id="DejaVuSans-3a" d="M 750 794 
L 1409 794 
L 1409 0 
L 750 0 
L 750 794 
z
M 750 3309 
L 1409 3309 
L 1409 2516 
L 750 2516 
L 750 3309 
z
" transform="scale(0.015625)"/>
      <path id="DejaVuSans-47" d="M 3809 666 
L 3809 1919 
L 2778 1919 
L 2778 2438 
L 4434 2438 
L 4434 434 
Q 4069 175 3628 42 
Q 3188 -91 2688 -91 
Q 1594 -91 976 548 
Q 359 1188 359 2328 
Q 359 3472 976 4111 
Q 1594 4750 2688 4750 
Q 3144 4750 3555 4637 
Q 3966 4525 4313 4306 
L 4313 3634 
Q 3963 3931 3569 4081 
Q 3175 4231 2741 4231 
Q 1884 4231 1454 3753 
Q 1025 3275 1025 2328 
Q 1025 1384 1454 906 
Q 1884 428 2741 428 
Q 3075 428 3337 486 
Q 3600 544 3809 666 
z
" transform="scale(0.015625)"/>
      <path id="DejaVuSans-57" d="M 213 4666 
L 850 4666 
L 1831 722 
L 2809 4666 
L 3519 4666 
L 4500 722 
L 5478 4666 
L 6119 4666 
L 4947 0 
L 4153 0 
L 3169 4050 
L 2175 0 
L 1381 0 
L 213 4666 
z
" transform="scale(0.015625)"/>
      <path id="DejaVuSans-49" d="M 628 4666 
L 1259 4666 
L 1259 0 
L 628 0 
L 628 4666 
z
" transform="scale(0.015625)"/>
      <path id="DejaVuSans-75" d="M 544 1381 
L 544 3500 
L 1119 3500 
L 1119 1403 
Q 1119 906 1312 657 
Q 1506 409 1894 409 
Q 2359 409 2629 706 
Q 2900 1003 2900 1516 
L 2900 3500 
L 3475 3500 
L 3475 0 
L 2900 0 
L 2900 538 
Q 2691 219 2414 64 
Q 2138 -91 1772 -91 
Q 1169 -91 856 284 
Q 544 659 544 1381 
z
M 1991 3584 
L 1991 3584 
z
" transform="scale(0.015625)"/>
      <path id="DejaVuSans-73" d="M 2834 3397 
L 2834 2853 
Q 2591 2978 2328 3040 
Q 2066 3103 1784 3103 
Q 1356 3103 1142 2972 
Q 928 2841 928 2578 
Q 928 2378 1081 2264 
Q 1234 2150 1697 2047 
L 1894 2003 
Q 2506 1872 2764 1633 
Q 3022 1394 3022 966 
Q 3022 478 2636 193 
Q 2250 -91 1575 -91 
Q 1294 -91 989 -36 
Q 684 19 347 128 
L 347 722 
Q 666 556 975 473 
Q 1284 391 1588 391 
Q 1994 391 2212 530 
Q 2431 669 2431 922 
Q 2431 1156 2273 1281 
Q 2116 1406 1581 1522 
L 1381 1569 
Q 847 1681 609 1914 
Q 372 2147 372 2553 
Q 372 3047 722 3315 
Q 1072 3584 1716 3584 
Q 2034 3584 2315 3537 
Q 2597 3491 2834 3397 
z
" transform="scale(0.015625)"/>
     </defs>
     <use xlink:href="#DejaVuSans-53"/>
     <use xlink:href="#DejaVuSans-70" x="63.476562"/>
     <use xlink:href="#DejaVuSans-72" x="126.953125"/>
     <use xlink:href="#DejaVuSans-69" x="168.066406"/>
     <use xlink:href="#DejaVuSans-6e" x="195.849609"/>
     <use xlink:href="#DejaVuSans-67" x="259.228516"/>
     <use xlink:href="#DejaVuSans-20" x="322.705078"/>
     <use xlink:href="#DejaVuSans-53" x="354.492188"/>
     <use xlink:href="#DejaVuSans-74" x="417.96875"/>
     <use xlink:href="#DejaVuSans-61" x="457.177734"/>
     <use xlink:href="#DejaVuSans-67" x="518.457031"/>
     <use xlink:href="#DejaVuSans-65" x="581.933594"/>
     <use xlink:href="#DejaVuSans-20" x="643.457031"/>
     <use xlink:href="#DejaVuSans-4c" x="675.244141"/>
     <use xlink:href="#DejaVuSans-53" x="730.957031"/>
     <use xlink:href="#DejaVuSans-54" x="794.433594"/>
     <use xlink:href="#DejaVuSans-4d" x="855.517578"/>
     <use xlink:href="#DejaVuSans-3a" x="941.796875"/>
     <use xlink:href="#DejaVuSans-20" x="975.488281"/>
     <use xlink:href="#DejaVuSans-47" x="1007.275391"/>
     <use xlink:href="#DejaVuSans-57" x="1084.765625"/>
     <use xlink:href="#DejaVuSans-2d" x="1179.642578"/>
     <use xlink:href="#DejaVuSans-53" x="1215.726562"/>
     <use xlink:href="#DejaVuSans-57" x="1279.203125"/>
     <use xlink:href="#DejaVuSans-20" x="1378.080078"/>
     <use xlink:href="#DejaVuSans-49" x="1409.867188"/>
     <use xlink:href="#DejaVuSans-6e" x="1439.359375"/>
     <use xlink:href="#DejaVuSans-70" x="1502.738281"/>
     <use xlink:href="#DejaVuSans-75" x="1566.214844"/>
     <use xlink:href="#DejaVuSans-74" x="1629.59375"/>
     <use xlink:href="#DejaVuSans-73" x="1668.802734"/>
    </g>
   </g>
   <g id="legend_1">
    <g id="patch_7">
     <path d="M 550.267187 89.19625 
L 641 89.19625 
Q 643 89.19625 643 87.19625 
L 643 58.84 
Q 643 56.84 641 56.84 
L 550.267187 56.84 
Q 548.267187 56.84 548.267187 58.84 
L 548.267187 87.19625 
Q 548.267187 89.19625 550.267187 89.19625 
z
" style="fill: #ffffff; opacity: 0.8; stroke: #cccccc; stroke-linejoin: miter"/>
    </g>
    <g id="line2d_22">
     <path d="M 552.267187 64.938437 
L 562.267187 64.938437 
L 572.267187 64.938437 
" style="fill: none; stroke: #1f77b4; stroke-width: 1.5; stroke-linecap: square"/>
    </g>
    <g id="text_22">
     <!-- LSTM Stage -->
     <g transform="translate(580.267187 68.438437)scale(0.1 -0.1)">
      <use xlink:href="#DejaVuSans-4c"/>
      <use xlink:href="#DejaVuSans-53" x="55.712891"/>
      <use xlink:href="#DejaVuSans-54" x="119.189453"/>
      <use xlink:href="#DejaVuSans-4d" x="180.273438"/>
      <use xlink:href="#DejaVuSans-20" x="266.552734"/>
      <use xlink:href="#DejaVuSans-53" x="298.339844"/>
      <use xlink:href="#DejaVuSans-74" x="361.816406"/>
      <use xlink:href="#DejaVuSans-61" x="401.025391"/>
      <use xlink:href="#DejaVuSans-67" x="462.304688"/>
      <use xlink:href="#DejaVuSans-65" x="525.78125"/>
     </g>
    </g>
    <g id="line2d_23">
     <path d="M 552.267187 79.616562 
L 562.267187 79.616562 
L 572.267187 79.616562 
" style="fill: none; stroke: #ff7f0e; stroke-width: 1.5; stroke-linecap: square"/>
    </g>
    <g id="text_23">
     <!-- Measured -->
     <g transform="translate(580.267187 83.116562)scale(0.1 -0.1)">
      <defs>
       <path id="DejaVuSans-64" d="M 2906 2969 
L 2906 4863 
L 3481 4863 
L 3481 0 
L 2906 0 
L 2906 525 
Q 2725 213 2448 61 
Q 2172 -91 1784 -91 
Q 1150 -91 751 415 
Q 353 922 353 1747 
Q 353 2572 751 3078 
Q 1150 3584 1784 3584 
Q 2172 3584 2448 3432 
Q 2725 3281 2906 2969 
z
M 947 1747 
Q 947 1113 1208 752 
Q 1469 391 1925 391 
Q 2381 391 2643 752 
Q 2906 1113 2906 1747 
Q 2906 2381 2643 2742 
Q 2381 3103 1925 3103 
Q 1469 3103 1208 2742 
Q 947 2381 947 1747 
z
" transform="scale(0.015625)"/>
      </defs>
      <use xlink:href="#DejaVuSans-4d"/>
      <use xlink:href="#DejaVuSans-65" x="86.279297"/>
      <use xlink:href="#DejaVuSans-61" x="147.802734"/>
      <use xlink:href="#DejaVuSans-73" x="209.082031"/>
      <use xlink:href="#DejaVuSans-75" x="261.181641"/>
      <use xlink:href="#DejaVuSans-72" x="324.560547"/>
      <use xlink:href="#DejaVuSans-65" x="363.423828"/>
      <use xlink:href="#DejaVuSans-64" x="424.947266"/>
     </g>
    </g>
   </g>
  </g>
 </g>
 <defs>
  <clipPath id="p5f8158de3c">
   <rect x="90" y="51.84" width="558" height="326.16"/>
  </clipPath>
 </defs>
</svg>
