<?xml version="1.0" encoding="utf-8" standalone="no"?>
<!DOCTYPE svg PUBLIC "-//W3C//DTD SVG 1.1//EN"
  "http://www.w3.org/Graphics/SVG/1.1/DTD/svg11.dtd">
<svg xmlns:xlink="http://www.w3.org/1999/xlink" width="850.921538pt" height="565.465937pt" viewBox="0 0 850.921538 565.465937" xmlns="http://www.w3.org/2000/svg" version="1.1">
 <metadata>
  <rdf:RDF xmlns:dc="http://purl.org/dc/elements/1.1/" xmlns:cc="http://creativecommons.org/ns#" xmlns:rdf="http://www.w3.org/1999/02/22-rdf-syntax-ns#">
   <cc:Work>
    <dc:type rdf:resource="http://purl.org/dc/dcmitype/StillImage"/>
    <dc:date>2022-10-27T00:42:43.388034</dc:date>
    <dc:format>image/svg+xml</dc:format>
    <dc:creator>
     <cc:Agent>
      <dc:title>Matplotlib v3.5.1, https://matplotlib.org/</dc:title>
     </cc:Agent>
    </dc:creator>
   </cc:Work>
  </rdf:RDF>
 </metadata>
 <defs>
  <style type="text/css">*{stroke-linejoin: round; stroke-linecap: butt}</style>
 </defs>
 <g id="figure_1">
  <g id="patch_1">
   <path d="M 0 565.465937 
L 850.921538 565.465937 
L 850.921538 0 
L 0 0 
L 0 565.465937 
z
" style="fill: none"/>
  </g>
  <g id="axes_1">
   <g id="patch_2">
    <path d="M 383.142031 523.62 
L 829.542031 523.62 
L 829.542031 7.2 
L 383.142031 7.2 
z
" style="fill: #ffffff"/>
   </g>
   <g id="line2d_1">
    <path d="M 383.142031 523.62 
L 383.142031 7.2 
" clip-path="url(#p8d2d4bd819)" style="fill: none; stroke: #999999; stroke-width: 1.5; stroke-linecap: square"/>
   </g>
   <g id="patch_3">
    <path d="M 383.142031 507.635571 
L 445.640543 507.635571 
L 445.640543 490.421571 
L 383.142031 490.421571 
z
" clip-path="url(#p8d2d4bd819)" style="fill: #008bfb"/>
   </g>
   <g id="patch_4">
    <path d="M 383.142031 483.044143 
L 445.9682 483.044143 
L 445.9682 465.830143 
L 383.142031 465.830143 
z
" clip-path="url(#p8d2d4bd819)" style="fill: #008bfb"/>
   </g>
   <g id="patch_5">
    <path d="M 383.142031 458.452714 
L 446.552827 458.452714 
L 446.552827 441.238714 
L 383.142031 441.238714 
z
" clip-path="url(#p8d2d4bd819)" style="fill: #008bfb"/>
   </g>
   <g id="patch_6">
    <path d="M 383.142031 433.861286 
L 450.744309 433.861286 
L 450.744309 416.647286 
L 383.142031 416.647286 
z
" clip-path="url(#p8d2d4bd819)" style="fill: #008bfb"/>
   </g>
   <g id="patch_7">
    <path d="M 383.142031 409.269857 
L 453.726215 409.269857 
L 453.726215 392.055857 
L 383.142031 392.055857 
z
" clip-path="url(#p8d2d4bd819)" style="fill: #008bfb"/>
   </g>
   <g id="patch_8">
    <path d="M 383.142031 384.678429 
L 461.899512 384.678429 
L 461.899512 367.464429 
L 383.142031 367.464429 
z
" clip-path="url(#p8d2d4bd819)" style="fill: #008bfb"/>
   </g>
   <g id="patch_9">
    <path d="M 383.142031 360.087 
L 463.327159 360.087 
L 463.327159 342.873 
L 383.142031 342.873 
z
" clip-path="url(#p8d2d4bd819)" style="fill: #008bfb"/>
   </g>
   <g id="patch_10">
    <path d="M 383.142031 335.495571 
L 463.834107 335.495571 
L 463.834107 318.281571 
L 383.142031 318.281571 
z
" clip-path="url(#p8d2d4bd819)" style="fill: #008bfb"/>
   </g>
   <g id="patch_11">
    <path d="M 383.142031 310.904143 
L 464.817936 310.904143 
L 464.817936 293.690143 
L 383.142031 293.690143 
z
" clip-path="url(#p8d2d4bd819)" style="fill: #008bfb"/>
   </g>
   <g id="patch_12">
    <path d="M 383.142031 286.312714 
L 472.787114 286.312714 
L 472.787114 269.098714 
L 383.142031 269.098714 
z
" clip-path="url(#p8d2d4bd819)" style="fill: #008bfb"/>
   </g>
   <g id="patch_13">
    <path d="M 383.142031 261.721286 
L 478.554939 261.721286 
L 478.554939 244.507286 
L 383.142031 244.507286 
z
" clip-path="url(#p8d2d4bd819)" style="fill: #008bfb"/>
   </g>
   <g id="patch_14">
    <path d="M 383.142031 237.129857 
L 482.280383 237.129857 
L 482.280383 219.915857 
L 383.142031 219.915857 
z
" clip-path="url(#p8d2d4bd819)" style="fill: #008bfb"/>
   </g>
   <g id="patch_15">
    <path d="M 383.142031 212.538429 
L 490.804824 212.538429 
L 490.804824 195.324429 
L 383.142031 195.324429 
z
" clip-path="url(#p8d2d4bd819)" style="fill: #008bfb"/>
   </g>
   <g id="patch_16">
    <path d="M 383.142031 187.947 
L 493.584524 187.947 
L 493.584524 170.733 
L 383.142031 170.733 
z
" clip-path="url(#p8d2d4bd819)" style="fill: #008bfb"/>
   </g>
   <g id="patch_17">
    <path d="M 383.142031 163.355571 
L 497.518132 163.355571 
L 497.518132 146.141571 
L 383.142031 146.141571 
z
" clip-path="url(#p8d2d4bd819)" style="fill: #008bfb"/>
   </g>
   <g id="patch_18">
    <path d="M 383.142031 138.764143 
L 525.191855 138.764143 
L 525.191855 121.550143 
L 383.142031 121.550143 
z
" clip-path="url(#p8d2d4bd819)" style="fill: #008bfb"/>
   </g>
   <g id="patch_19">
    <path d="M 383.142031 114.172714 
L 528.093096 114.172714 
L 528.093096 96.958714 
L 383.142031 96.958714 
z
" clip-path="url(#p8d2d4bd819)" style="fill: #008bfb"/>
   </g>
   <g id="patch_20">
    <path d="M 383.142031 89.581286 
L 529.963352 89.581286 
L 529.963352 72.367286 
L 383.142031 72.367286 
z
" clip-path="url(#p8d2d4bd819)" style="fill: #008bfb"/>
   </g>
   <g id="patch_21">
    <path d="M 383.142031 64.989857 
L 567.284787 64.989857 
L 567.284787 47.775857 
L 383.142031 47.775857 
z
" clip-path="url(#p8d2d4bd819)" style="fill: #008bfb"/>
   </g>
   <g id="patch_22">
    <path d="M 383.142031 40.398429 
L 808.284888 40.398429 
L 808.284888 23.184429 
L 383.142031 23.184429 
z
" clip-path="url(#p8d2d4bd819)" style="fill: #008bfb"/>
   </g>
   <g id="matplotlib.axis_1">
    <g id="xtick_1">
     <g id="line2d_2">
      <defs>
       <path id="mda8ffc9a74" d="M 0 0 
L 0 3.5 
" style="stroke: #333333; stroke-width: 0.8"/>
      </defs>
      <g>
       <use xlink:href="#mda8ffc9a74" x="383.142031" y="523.62" style="fill: #333333; stroke: #333333; stroke-width: 0.8"/>
      </g>
     </g>
     <g id="text_1">
      <!-- 0.000 -->
      <g style="fill: #333333" transform="translate(367.396563 538.978281)scale(0.11 -0.11)">
       <defs>
        <path id="DejaVuSans-30" d="M 2034 4250 
Q 1547 4250 1301 3770 
Q 1056 3291 1056 2328 
Q 1056 1369 1301 889 
Q 1547 409 2034 409 
Q 2525 409 2770 889 
Q 3016 1369 3016 2328 
Q 3016 3291 2770 3770 
Q 2525 4250 2034 4250 
z
M 2034 4750 
Q 2819 4750 3233 4129 
Q 3647 3509 3647 2328 
Q 3647 1150 3233 529 
Q 2819 -91 2034 -91 
Q 1250 -91 836 529 
Q 422 1150 422 2328 
Q 422 3509 836 4129 
Q 1250 4750 2034 4750 
z
" transform="scale(0.015625)"/>
        <path id="DejaVuSans-2e" d="M 684 794 
L 1344 794 
L 1344 0 
L 684 0 
L 684 794 
z
" transform="scale(0.015625)"/>
       </defs>
       <use xlink:href="#DejaVuSans-30"/>
       <use xlink:href="#DejaVuSans-2e" x="63.623047"/>
       <use xlink:href="#DejaVuSans-30" x="95.410156"/>
       <use xlink:href="#DejaVuSans-30" x="159.033203"/>
       <use xlink:href="#DejaVuSans-30" x="222.65625"/>
      </g>
     </g>
    </g>
    <g id="xtick_2">
     <g id="line2d_3">
      <g>
       <use xlink:href="#mda8ffc9a74" x="446.689751" y="523.62" style="fill: #333333; stroke: #333333; stroke-width: 0.8"/>
      </g>
     </g>
     <g id="text_2">
      <!-- 0.005 -->
      <g style="fill: #333333" transform="translate(430.944282 538.978281)scale(0.11 -0.11)">
       <defs>
        <path id="DejaVuSans-35" d="M 691 4666 
L 3169 4666 
L 3169 4134 
L 1269 4134 
L 1269 2991 
Q 1406 3038 1543 3061 
Q 1681 3084 1819 3084 
Q 2600 3084 3056 2656 
Q 3513 2228 3513 1497 
Q 3513 744 3044 326 
Q 2575 -91 1722 -91 
Q 1428 -91 1123 -41 
Q 819 9 494 109 
L 494 744 
Q 775 591 1075 516 
Q 1375 441 1709 441 
Q 2250 441 2565 725 
Q 2881 1009 2881 1497 
Q 2881 1984 2565 2268 
Q 2250 2553 1709 2553 
Q 1456 2553 1204 2497 
Q 953 2441 691 2322 
L 691 4666 
z
" transform="scale(0.015625)"/>
       </defs>
       <use xlink:href="#DejaVuSans-30"/>
       <use xlink:href="#DejaVuSans-2e" x="63.623047"/>
       <use xlink:href="#DejaVuSans-30" x="95.410156"/>
       <use xlink:href="#DejaVuSans-30" x="159.033203"/>
       <use xlink:href="#DejaVuSans-35" x="222.65625"/>
      </g>
     </g>
    </g>
    <g id="xtick_3">
     <g id="line2d_4">
      <g>
       <use xlink:href="#mda8ffc9a74" x="510.237471" y="523.62" style="fill: #333333; stroke: #333333; stroke-width: 0.8"/>
      </g>
     </g>
     <g id="text_3">
      <!-- 0.010 -->
      <g style="fill: #333333" transform="translate(494.492002 538.978281)scale(0.11 -0.11)">
       <defs>
        <path id="DejaVuSans-31" d="M 794 531 
L 1825 531 
L 1825 4091 
L 703 3866 
L 703 4441 
L 1819 4666 
L 2450 4666 
L 2450 531 
L 3481 531 
L 3481 0 
L 794 0 
L 794 531 
z
" transform="scale(0.015625)"/>
       </defs>
       <use xlink:href="#DejaVuSans-30"/>
       <use xlink:href="#DejaVuSans-2e" x="63.623047"/>
       <use xlink:href="#DejaVuSans-30" x="95.410156"/>
       <use xlink:href="#DejaVuSans-31" x="159.033203"/>
       <use xlink:href="#DejaVuSans-30" x="222.65625"/>
      </g>
     </g>
    </g>
    <g id="xtick_4">
     <g id="line2d_5">
      <g>
       <use xlink:href="#mda8ffc9a74" x="573.785191" y="523.62" style="fill: #333333; stroke: #333333; stroke-width: 0.8"/>
      </g>
     </g>
     <g id="text_4">
      <!-- 0.015 -->
      <g style="fill: #333333" transform="translate(558.039722 538.978281)scale(0.11 -0.11)">
       <use xlink:href="#DejaVuSans-30"/>
       <use xlink:href="#DejaVuSans-2e" x="63.623047"/>
       <use xlink:href="#DejaVuSans-30" x="95.410156"/>
       <use xlink:href="#DejaVuSans-31" x="159.033203"/>
       <use xlink:href="#DejaVuSans-35" x="222.65625"/>
      </g>
     </g>
    </g>
    <g id="xtick_5">
     <g id="line2d_6">
      <g>
       <use xlink:href="#mda8ffc9a74" x="637.33291" y="523.62" style="fill: #333333; stroke: #333333; stroke-width: 0.8"/>
      </g>
     </g>
     <g id="text_5">
      <!-- 0.020 -->
      <g style="fill: #333333" transform="translate(621.587442 538.978281)scale(0.11 -0.11)">
       <defs>
        <path id="DejaVuSans-32" d="M 1228 531 
L 3431 531 
L 3431 0 
L 469 0 
L 469 531 
Q 828 903 1448 1529 
Q 2069 2156 2228 2338 
Q 2531 2678 2651 2914 
Q 2772 3150 2772 3378 
Q 2772 3750 2511 3984 
Q 2250 4219 1831 4219 
Q 1534 4219 1204 4116 
Q 875 4013 500 3803 
L 500 4441 
Q 881 4594 1212 4672 
Q 1544 4750 1819 4750 
Q 2544 4750 2975 4387 
Q 3406 4025 3406 3419 
Q 3406 3131 3298 2873 
Q 3191 2616 2906 2266 
Q 2828 2175 2409 1742 
Q 1991 1309 1228 531 
z
" transform="scale(0.015625)"/>
       </defs>
       <use xlink:href="#DejaVuSans-30"/>
       <use xlink:href="#DejaVuSans-2e" x="63.623047"/>
       <use xlink:href="#DejaVuSans-30" x="95.410156"/>
       <use xlink:href="#DejaVuSans-32" x="159.033203"/>
       <use xlink:href="#DejaVuSans-30" x="222.65625"/>
      </g>
     </g>
    </g>
    <g id="xtick_6">
     <g id="line2d_7">
      <g>
       <use xlink:href="#mda8ffc9a74" x="700.88063" y="523.62" style="fill: #333333; stroke: #333333; stroke-width: 0.8"/>
      </g>
     </g>
     <g id="text_6">
      <!-- 0.025 -->
      <g style="fill: #333333" transform="translate(685.135161 538.978281)scale(0.11 -0.11)">
       <use xlink:href="#DejaVuSans-30"/>
       <use xlink:href="#DejaVuSans-2e" x="63.623047"/>
       <use xlink:href="#DejaVuSans-30" x="95.410156"/>
       <use xlink:href="#DejaVuSans-32" x="159.033203"/>
       <use xlink:href="#DejaVuSans-35" x="222.65625"/>
      </g>
     </g>
    </g>
    <g id="xtick_7">
     <g id="line2d_8">
      <g>
       <use xlink:href="#mda8ffc9a74" x="764.42835" y="523.62" style="fill: #333333; stroke: #333333; stroke-width: 0.8"/>
      </g>
     </g>
     <g id="text_7">
      <!-- 0.030 -->
      <g style="fill: #333333" transform="translate(748.682881 538.978281)scale(0.11 -0.11)">
       <defs>
        <path id="DejaVuSans-33" d="M 2597 2516 
Q 3050 2419 3304 2112 
Q 3559 1806 3559 1356 
Q 3559 666 3084 287 
Q 2609 -91 1734 -91 
Q 1441 -91 1130 -33 
Q 819 25 488 141 
L 488 750 
Q 750 597 1062 519 
Q 1375 441 1716 441 
Q 2309 441 2620 675 
Q 2931 909 2931 1356 
Q 2931 1769 2642 2001 
Q 2353 2234 1838 2234 
L 1294 2234 
L 1294 2753 
L 1863 2753 
Q 2328 2753 2575 2939 
Q 2822 3125 2822 3475 
Q 2822 3834 2567 4026 
Q 2313 4219 1838 4219 
Q 1578 4219 1281 4162 
Q 984 4106 628 3988 
L 628 4550 
Q 988 4650 1302 4700 
Q 1616 4750 1894 4750 
Q 2613 4750 3031 4423 
Q 3450 4097 3450 3541 
Q 3450 3153 3228 2886 
Q 3006 2619 2597 2516 
z
" transform="scale(0.015625)"/>
       </defs>
       <use xlink:href="#DejaVuSans-30"/>
       <use xlink:href="#DejaVuSans-2e" x="63.623047"/>
       <use xlink:href="#DejaVuSans-30" x="95.410156"/>
       <use xlink:href="#DejaVuSans-33" x="159.033203"/>
       <use xlink:href="#DejaVuSans-30" x="222.65625"/>
      </g>
     </g>
    </g>
    <g id="xtick_8">
     <g id="line2d_9">
      <g>
       <use xlink:href="#mda8ffc9a74" x="827.97607" y="523.62" style="fill: #333333; stroke: #333333; stroke-width: 0.8"/>
      </g>
     </g>
     <g id="text_8">
      <!-- 0.035 -->
      <g style="fill: #333333" transform="translate(812.230601 538.978281)scale(0.11 -0.11)">
       <use xlink:href="#DejaVuSans-30"/>
       <use xlink:href="#DejaVuSans-2e" x="63.623047"/>
       <use xlink:href="#DejaVuSans-30" x="95.410156"/>
       <use xlink:href="#DejaVuSans-33" x="159.033203"/>
       <use xlink:href="#DejaVuSans-35" x="222.65625"/>
      </g>
     </g>
    </g>
    <g id="text_9">
     <!-- mean(|SHAP value|) (average impact on model output magnitude) -->
     <g transform="translate(389.872734 555.200781)scale(0.13 -0.13)">
      <defs>
       <path id="DejaVuSans-6d" d="M 3328 2828 
Q 3544 3216 3844 3400 
Q 4144 3584 4550 3584 
Q 5097 3584 5394 3201 
Q 5691 2819 5691 2113 
L 5691 0 
L 5113 0 
L 5113 2094 
Q 5113 2597 4934 2840 
Q 4756 3084 4391 3084 
Q 3944 3084 3684 2787 
Q 3425 2491 3425 1978 
L 3425 0 
L 2847 0 
L 2847 2094 
Q 2847 2600 2669 2842 
Q 2491 3084 2119 3084 
Q 1678 3084 1418 2786 
Q 1159 2488 1159 1978 
L 1159 0 
L 581 0 
L 581 3500 
L 1159 3500 
L 1159 2956 
Q 1356 3278 1631 3431 
Q 1906 3584 2284 3584 
Q 2666 3584 2933 3390 
Q 3200 3197 3328 2828 
z
" transform="scale(0.015625)"/>
       <path id="DejaVuSans-65" d="M 3597 1894 
L 3597 1613 
L 953 1613 
Q 991 1019 1311 708 
Q 1631 397 2203 397 
Q 2534 397 2845 478 
Q 3156 559 3463 722 
L 3463 178 
Q 3153 47 2828 -22 
Q 2503 -91 2169 -91 
Q 1331 -91 842 396 
Q 353 884 353 1716 
Q 353 2575 817 3079 
Q 1281 3584 2069 3584 
Q 2775 3584 3186 3129 
Q 3597 2675 3597 1894 
z
M 3022 2063 
Q 3016 2534 2758 2815 
Q 2500 3097 2075 3097 
Q 1594 3097 1305 2825 
Q 1016 2553 972 2059 
L 3022 2063 
z
" transform="scale(0.015625)"/>
       <path id="DejaVuSans-61" d="M 2194 1759 
Q 1497 1759 1228 1600 
Q 959 1441 959 1056 
Q 959 750 1161 570 
Q 1363 391 1709 391 
Q 2188 391 2477 730 
Q 2766 1069 2766 1631 
L 2766 1759 
L 2194 1759 
z
M 3341 1997 
L 3341 0 
L 2766 0 
L 2766 531 
Q 2569 213 2275 61 
Q 1981 -91 1556 -91 
Q 1019 -91 701 211 
Q 384 513 384 1019 
Q 384 1609 779 1909 
Q 1175 2209 1959 2209 
L 2766 2209 
L 2766 2266 
Q 2766 2663 2505 2880 
Q 2244 3097 1772 3097 
Q 1472 3097 1187 3025 
Q 903 2953 641 2809 
L 641 3341 
Q 956 3463 1253 3523 
Q 1550 3584 1831 3584 
Q 2591 3584 2966 3190 
Q 3341 2797 3341 1997 
z
" transform="scale(0.015625)"/>
       <path id="DejaVuSans-6e" d="M 3513 2113 
L 3513 0 
L 2938 0 
L 2938 2094 
Q 2938 2591 2744 2837 
Q 2550 3084 2163 3084 
Q 1697 3084 1428 2787 
Q 1159 2491 1159 1978 
L 1159 0 
L 581 0 
L 581 3500 
L 1159 3500 
L 1159 2956 
Q 1366 3272 1645 3428 
Q 1925 3584 2291 3584 
Q 2894 3584 3203 3211 
Q 3513 2838 3513 2113 
z
" transform="scale(0.015625)"/>
       <path id="DejaVuSans-28" d="M 1984 4856 
Q 1566 4138 1362 3434 
Q 1159 2731 1159 2009 
Q 1159 1288 1364 580 
Q 1569 -128 1984 -844 
L 1484 -844 
Q 1016 -109 783 600 
Q 550 1309 550 2009 
Q 550 2706 781 3412 
Q 1013 4119 1484 4856 
L 1984 4856 
z
" transform="scale(0.015625)"/>
       <path id="DejaVuSans-7c" d="M 1344 4891 
L 1344 -1509 
L 813 -1509 
L 813 4891 
L 1344 4891 
z
" transform="scale(0.015625)"/>
       <path id="DejaVuSans-53" d="M 3425 4513 
L 3425 3897 
Q 3066 4069 2747 4153 
Q 2428 4238 2131 4238 
Q 1616 4238 1336 4038 
Q 1056 3838 1056 3469 
Q 1056 3159 1242 3001 
Q 1428 2844 1947 2747 
L 2328 2669 
Q 3034 2534 3370 2195 
Q 3706 1856 3706 1288 
Q 3706 609 3251 259 
Q 2797 -91 1919 -91 
Q 1588 -91 1214 -16 
Q 841 59 441 206 
L 441 856 
Q 825 641 1194 531 
Q 1563 422 1919 422 
Q 2459 422 2753 634 
Q 3047 847 3047 1241 
Q 3047 1584 2836 1778 
Q 2625 1972 2144 2069 
L 1759 2144 
Q 1053 2284 737 2584 
Q 422 2884 422 3419 
Q 422 4038 858 4394 
Q 1294 4750 2059 4750 
Q 2388 4750 2728 4690 
Q 3069 4631 3425 4513 
z
" transform="scale(0.015625)"/>
       <path id="DejaVuSans-48" d="M 628 4666 
L 1259 4666 
L 1259 2753 
L 3553 2753 
L 3553 4666 
L 4184 4666 
L 4184 0 
L 3553 0 
L 3553 2222 
L 1259 2222 
L 1259 0 
L 628 0 
L 628 4666 
z
" transform="scale(0.015625)"/>
       <path id="DejaVuSans-41" d="M 2188 4044 
L 1331 1722 
L 3047 1722 
L 2188 4044 
z
M 1831 4666 
L 2547 4666 
L 4325 0 
L 3669 0 
L 3244 1197 
L 1141 1197 
L 716 0 
L 50 0 
L 1831 4666 
z
" transform="scale(0.015625)"/>
       <path id="DejaVuSans-50" d="M 1259 4147 
L 1259 2394 
L 2053 2394 
Q 2494 2394 2734 2622 
Q 2975 2850 2975 3272 
Q 2975 3691 2734 3919 
Q 2494 4147 2053 4147 
L 1259 4147 
z
M 628 4666 
L 2053 4666 
Q 2838 4666 3239 4311 
Q 3641 3956 3641 3272 
Q 3641 2581 3239 2228 
Q 2838 1875 2053 1875 
L 1259 1875 
L 1259 0 
L 628 0 
L 628 4666 
z
" transform="scale(0.015625)"/>
       <path id="DejaVuSans-20" transform="scale(0.015625)"/>
       <path id="DejaVuSans-76" d="M 191 3500 
L 800 3500 
L 1894 563 
L 2988 3500 
L 3597 3500 
L 2284 0 
L 1503 0 
L 191 3500 
z
" transform="scale(0.015625)"/>
       <path id="DejaVuSans-6c" d="M 603 4863 
L 1178 4863 
L 1178 0 
L 603 0 
L 603 4863 
z
" transform="scale(0.015625)"/>
       <path id="DejaVuSans-75" d="M 544 1381 
L 544 3500 
L 1119 3500 
L 1119 1403 
Q 1119 906 1312 657 
Q 1506 409 1894 409 
Q 2359 409 2629 706 
Q 2900 1003 2900 1516 
L 2900 3500 
L 3475 3500 
L 3475 0 
L 2900 0 
L 2900 538 
Q 2691 219 2414 64 
Q 2138 -91 1772 -91 
Q 1169 -91 856 284 
Q 544 659 544 1381 
z
M 1991 3584 
L 1991 3584 
z
" transform="scale(0.015625)"/>
       <path id="DejaVuSans-29" d="M 513 4856 
L 1013 4856 
Q 1481 4119 1714 3412 
Q 1947 2706 1947 2009 
Q 1947 1309 1714 600 
Q 1481 -109 1013 -844 
L 513 -844 
Q 928 -128 1133 580 
Q 1338 1288 1338 2009 
Q 1338 2731 1133 3434 
Q 928 4138 513 4856 
z
" transform="scale(0.015625)"/>
       <path id="DejaVuSans-72" d="M 2631 2963 
Q 2534 3019 2420 3045 
Q 2306 3072 2169 3072 
Q 1681 3072 1420 2755 
Q 1159 2438 1159 1844 
L 1159 0 
L 581 0 
L 581 3500 
L 1159 3500 
L 1159 2956 
Q 1341 3275 1631 3429 
Q 1922 3584 2338 3584 
Q 2397 3584 2469 3576 
Q 2541 3569 2628 3553 
L 2631 2963 
z
" transform="scale(0.015625)"/>
       <path id="DejaVuSans-67" d="M 2906 1791 
Q 2906 2416 2648 2759 
Q 2391 3103 1925 3103 
Q 1463 3103 1205 2759 
Q 947 2416 947 1791 
Q 947 1169 1205 825 
Q 1463 481 1925 481 
Q 2391 481 2648 825 
Q 2906 1169 2906 1791 
z
M 3481 434 
Q 3481 -459 3084 -895 
Q 2688 -1331 1869 -1331 
Q 1566 -1331 1297 -1286 
Q 1028 -1241 775 -1147 
L 775 -588 
Q 1028 -725 1275 -790 
Q 1522 -856 1778 -856 
Q 2344 -856 2625 -561 
Q 2906 -266 2906 331 
L 2906 616 
Q 2728 306 2450 153 
Q 2172 0 1784 0 
Q 1141 0 747 490 
Q 353 981 353 1791 
Q 353 2603 747 3093 
Q 1141 3584 1784 3584 
Q 2172 3584 2450 3431 
Q 2728 3278 2906 2969 
L 2906 3500 
L 3481 3500 
L 3481 434 
z
" transform="scale(0.015625)"/>
       <path id="DejaVuSans-69" d="M 603 3500 
L 1178 3500 
L 1178 0 
L 603 0 
L 603 3500 
z
M 603 4863 
L 1178 4863 
L 1178 4134 
L 603 4134 
L 603 4863 
z
" transform="scale(0.015625)"/>
       <path id="DejaVuSans-70" d="M 1159 525 
L 1159 -1331 
L 581 -1331 
L 581 3500 
L 1159 3500 
L 1159 2969 
Q 1341 3281 1617 3432 
Q 1894 3584 2278 3584 
Q 2916 3584 3314 3078 
Q 3713 2572 3713 1747 
Q 3713 922 3314 415 
Q 2916 -91 2278 -91 
Q 1894 -91 1617 61 
Q 1341 213 1159 525 
z
M 3116 1747 
Q 3116 2381 2855 2742 
Q 2594 3103 2138 3103 
Q 1681 3103 1420 2742 
Q 1159 2381 1159 1747 
Q 1159 1113 1420 752 
Q 1681 391 2138 391 
Q 2594 391 2855 752 
Q 3116 1113 3116 1747 
z
" transform="scale(0.015625)"/>
       <path id="DejaVuSans-63" d="M 3122 3366 
L 3122 2828 
Q 2878 2963 2633 3030 
Q 2388 3097 2138 3097 
Q 1578 3097 1268 2742 
Q 959 2388 959 1747 
Q 959 1106 1268 751 
Q 1578 397 2138 397 
Q 2388 397 2633 464 
Q 2878 531 3122 666 
L 3122 134 
Q 2881 22 2623 -34 
Q 2366 -91 2075 -91 
Q 1284 -91 818 406 
Q 353 903 353 1747 
Q 353 2603 823 3093 
Q 1294 3584 2113 3584 
Q 2378 3584 2631 3529 
Q 2884 3475 3122 3366 
z
" transform="scale(0.015625)"/>
       <path id="DejaVuSans-74" d="M 1172 4494 
L 1172 3500 
L 2356 3500 
L 2356 3053 
L 1172 3053 
L 1172 1153 
Q 1172 725 1289 603 
Q 1406 481 1766 481 
L 2356 481 
L 2356 0 
L 1766 0 
Q 1100 0 847 248 
Q 594 497 594 1153 
L 594 3053 
L 172 3053 
L 172 3500 
L 594 3500 
L 594 4494 
L 1172 4494 
z
" transform="scale(0.015625)"/>
       <path id="DejaVuSans-6f" d="M 1959 3097 
Q 1497 3097 1228 2736 
Q 959 2375 959 1747 
Q 959 1119 1226 758 
Q 1494 397 1959 397 
Q 2419 397 2687 759 
Q 2956 1122 2956 1747 
Q 2956 2369 2687 2733 
Q 2419 3097 1959 3097 
z
M 1959 3584 
Q 2709 3584 3137 3096 
Q 3566 2609 3566 1747 
Q 3566 888 3137 398 
Q 2709 -91 1959 -91 
Q 1206 -91 779 398 
Q 353 888 353 1747 
Q 353 2609 779 3096 
Q 1206 3584 1959 3584 
z
" transform="scale(0.015625)"/>
       <path id="DejaVuSans-64" d="M 2906 2969 
L 2906 4863 
L 3481 4863 
L 3481 0 
L 2906 0 
L 2906 525 
Q 2725 213 2448 61 
Q 2172 -91 1784 -91 
Q 1150 -91 751 415 
Q 353 922 353 1747 
Q 353 2572 751 3078 
Q 1150 3584 1784 3584 
Q 2172 3584 2448 3432 
Q 2725 3281 2906 2969 
z
M 947 1747 
Q 947 1113 1208 752 
Q 1469 391 1925 391 
Q 2381 391 2643 752 
Q 2906 1113 2906 1747 
Q 2906 2381 2643 2742 
Q 2381 3103 1925 3103 
Q 1469 3103 1208 2742 
Q 947 2381 947 1747 
z
" transform="scale(0.015625)"/>
      </defs>
      <use xlink:href="#DejaVuSans-6d"/>
      <use xlink:href="#DejaVuSans-65" x="97.412109"/>
      <use xlink:href="#DejaVuSans-61" x="158.935547"/>
      <use xlink:href="#DejaVuSans-6e" x="220.214844"/>
      <use xlink:href="#DejaVuSans-28" x="283.59375"/>
      <use xlink:href="#DejaVuSans-7c" x="322.607422"/>
      <use xlink:href="#DejaVuSans-53" x="356.298828"/>
      <use xlink:href="#DejaVuSans-48" x="419.775391"/>
      <use xlink:href="#DejaVuSans-41" x="494.970703"/>
      <use xlink:href="#DejaVuSans-50" x="563.378906"/>
      <use xlink:href="#DejaVuSans-20" x="623.681641"/>
      <use xlink:href="#DejaVuSans-76" x="655.46875"/>
      <use xlink:href="#DejaVuSans-61" x="714.648438"/>
      <use xlink:href="#DejaVuSans-6c" x="775.927734"/>
      <use xlink:href="#DejaVuSans-75" x="803.710938"/>
      <use xlink:href="#DejaVuSans-65" x="867.089844"/>
      <use xlink:href="#DejaVuSans-7c" x="928.613281"/>
      <use xlink:href="#DejaVuSans-29" x="962.304688"/>
      <use xlink:href="#DejaVuSans-20" x="1001.318359"/>
      <use xlink:href="#DejaVuSans-28" x="1033.105469"/>
      <use xlink:href="#DejaVuSans-61" x="1072.119141"/>
      <use xlink:href="#DejaVuSans-76" x="1133.398438"/>
      <use xlink:href="#DejaVuSans-65" x="1192.578125"/>
      <use xlink:href="#DejaVuSans-72" x="1254.101562"/>
      <use xlink:href="#DejaVuSans-61" x="1295.214844"/>
      <use xlink:href="#DejaVuSans-67" x="1356.494141"/>
      <use xlink:href="#DejaVuSans-65" x="1419.970703"/>
      <use xlink:href="#DejaVuSans-20" x="1481.494141"/>
      <use xlink:href="#DejaVuSans-69" x="1513.28125"/>
      <use xlink:href="#DejaVuSans-6d" x="1541.064453"/>
      <use xlink:href="#DejaVuSans-70" x="1638.476562"/>
      <use xlink:href="#DejaVuSans-61" x="1701.953125"/>
      <use xlink:href="#DejaVuSans-63" x="1763.232422"/>
      <use xlink:href="#DejaVuSans-74" x="1818.212891"/>
      <use xlink:href="#DejaVuSans-20" x="1857.421875"/>
      <use xlink:href="#DejaVuSans-6f" x="1889.208984"/>
      <use xlink:href="#DejaVuSans-6e" x="1950.390625"/>
      <use xlink:href="#DejaVuSans-20" x="2013.769531"/>
      <use xlink:href="#DejaVuSans-6d" x="2045.556641"/>
      <use xlink:href="#DejaVuSans-6f" x="2142.96875"/>
      <use xlink:href="#DejaVuSans-64" x="2204.150391"/>
      <use xlink:href="#DejaVuSans-65" x="2267.626953"/>
      <use xlink:href="#DejaVuSans-6c" x="2329.150391"/>
      <use xlink:href="#DejaVuSans-20" x="2356.933594"/>
      <use xlink:href="#DejaVuSans-6f" x="2388.720703"/>
      <use xlink:href="#DejaVuSans-75" x="2449.902344"/>
      <use xlink:href="#DejaVuSans-74" x="2513.28125"/>
      <use xlink:href="#DejaVuSans-70" x="2552.490234"/>
      <use xlink:href="#DejaVuSans-75" x="2615.966797"/>
      <use xlink:href="#DejaVuSans-74" x="2679.345703"/>
      <use xlink:href="#DejaVuSans-20" x="2718.554688"/>
      <use xlink:href="#DejaVuSans-6d" x="2750.341797"/>
      <use xlink:href="#DejaVuSans-61" x="2847.753906"/>
      <use xlink:href="#DejaVuSans-67" x="2909.033203"/>
      <use xlink:href="#DejaVuSans-6e" x="2972.509766"/>
      <use xlink:href="#DejaVuSans-69" x="3035.888672"/>
      <use xlink:href="#DejaVuSans-74" x="3063.671875"/>
      <use xlink:href="#DejaVuSans-75" x="3102.880859"/>
      <use xlink:href="#DejaVuSans-64" x="3166.259766"/>
      <use xlink:href="#DejaVuSans-65" x="3229.736328"/>
      <use xlink:href="#DejaVuSans-29" x="3291.259766"/>
     </g>
    </g>
   </g>
   <g id="matplotlib.axis_2">
    <g id="ytick_1">
     <g id="text_10">
      <!-- ST. MARKS RIVER @ TRAM RD -->
      <g style="fill: #333333" transform="translate(183.169219 503.967556)scale(0.13 -0.13)">
       <defs>
        <path id="DejaVuSans-54" d="M -19 4666 
L 3928 4666 
L 3928 4134 
L 2272 4134 
L 2272 0 
L 1638 0 
L 1638 4134 
L -19 4134 
L -19 4666 
z
" transform="scale(0.015625)"/>
        <path id="DejaVuSans-4d" d="M 628 4666 
L 1569 4666 
L 2759 1491 
L 3956 4666 
L 4897 4666 
L 4897 0 
L 4281 0 
L 4281 4097 
L 3078 897 
L 2444 897 
L 1241 4097 
L 1241 0 
L 628 0 
L 628 4666 
z
" transform="scale(0.015625)"/>
        <path id="DejaVuSans-52" d="M 2841 2188 
Q 3044 2119 3236 1894 
Q 3428 1669 3622 1275 
L 4263 0 
L 3584 0 
L 2988 1197 
Q 2756 1666 2539 1819 
Q 2322 1972 1947 1972 
L 1259 1972 
L 1259 0 
L 628 0 
L 628 4666 
L 2053 4666 
Q 2853 4666 3247 4331 
Q 3641 3997 3641 3322 
Q 3641 2881 3436 2590 
Q 3231 2300 2841 2188 
z
M 1259 4147 
L 1259 2491 
L 2053 2491 
Q 2509 2491 2742 2702 
Q 2975 2913 2975 3322 
Q 2975 3731 2742 3939 
Q 2509 4147 2053 4147 
L 1259 4147 
z
" transform="scale(0.015625)"/>
        <path id="DejaVuSans-4b" d="M 628 4666 
L 1259 4666 
L 1259 2694 
L 3353 4666 
L 4166 4666 
L 1850 2491 
L 4331 0 
L 3500 0 
L 1259 2247 
L 1259 0 
L 628 0 
L 628 4666 
z
" transform="scale(0.015625)"/>
        <path id="DejaVuSans-49" d="M 628 4666 
L 1259 4666 
L 1259 0 
L 628 0 
L 628 4666 
z
" transform="scale(0.015625)"/>
        <path id="DejaVuSans-56" d="M 1831 0 
L 50 4666 
L 709 4666 
L 2188 738 
L 3669 4666 
L 4325 4666 
L 2547 0 
L 1831 0 
z
" transform="scale(0.015625)"/>
        <path id="DejaVuSans-45" d="M 628 4666 
L 3578 4666 
L 3578 4134 
L 1259 4134 
L 1259 2753 
L 3481 2753 
L 3481 2222 
L 1259 2222 
L 1259 531 
L 3634 531 
L 3634 0 
L 628 0 
L 628 4666 
z
" transform="scale(0.015625)"/>
        <path id="DejaVuSans-40" d="M 2381 1678 
Q 2381 1231 2603 976 
Q 2825 722 3213 722 
Q 3597 722 3817 978 
Q 4038 1234 4038 1678 
Q 4038 2116 3813 2373 
Q 3588 2631 3206 2631 
Q 2828 2631 2604 2375 
Q 2381 2119 2381 1678 
z
M 4084 744 
Q 3897 503 3655 389 
Q 3413 275 3091 275 
Q 2553 275 2217 664 
Q 1881 1053 1881 1678 
Q 1881 2303 2218 2693 
Q 2556 3084 3091 3084 
Q 3413 3084 3656 2967 
Q 3900 2850 4084 2613 
L 4084 3022 
L 4531 3022 
L 4531 722 
Q 4988 791 5245 1139 
Q 5503 1488 5503 2041 
Q 5503 2375 5404 2669 
Q 5306 2963 5106 3213 
Q 4781 3622 4314 3839 
Q 3847 4056 3297 4056 
Q 2913 4056 2559 3954 
Q 2206 3853 1906 3653 
Q 1416 3334 1139 2817 
Q 863 2300 863 1697 
Q 863 1200 1042 765 
Q 1222 331 1563 0 
Q 1891 -325 2322 -495 
Q 2753 -666 3244 -666 
Q 3647 -666 4036 -530 
Q 4425 -394 4750 -141 
L 5031 -488 
Q 4641 -791 4180 -952 
Q 3719 -1113 3244 -1113 
Q 2666 -1113 2153 -908 
Q 1641 -703 1241 -313 
Q 841 78 631 592 
Q 422 1106 422 1697 
Q 422 2266 634 2781 
Q 847 3297 1241 3688 
Q 1644 4084 2172 4295 
Q 2700 4506 3291 4506 
Q 3953 4506 4520 4234 
Q 5088 3963 5472 3463 
Q 5706 3156 5829 2797 
Q 5953 2438 5953 2053 
Q 5953 1231 5456 756 
Q 4959 281 4084 263 
L 4084 744 
z
" transform="scale(0.015625)"/>
        <path id="DejaVuSans-44" d="M 1259 4147 
L 1259 519 
L 2022 519 
Q 2988 519 3436 956 
Q 3884 1394 3884 2338 
Q 3884 3275 3436 3711 
Q 2988 4147 2022 4147 
L 1259 4147 
z
M 628 4666 
L 1925 4666 
Q 3281 4666 3915 4102 
Q 4550 3538 4550 2338 
Q 4550 1131 3912 565 
Q 3275 0 1925 0 
L 628 0 
L 628 4666 
z
" transform="scale(0.015625)"/>
       </defs>
       <use xlink:href="#DejaVuSans-53"/>
       <use xlink:href="#DejaVuSans-54" x="63.476562"/>
       <use xlink:href="#DejaVuSans-2e" x="112.685547"/>
       <use xlink:href="#DejaVuSans-20" x="144.472656"/>
       <use xlink:href="#DejaVuSans-4d" x="176.259766"/>
       <use xlink:href="#DejaVuSans-41" x="262.539062"/>
       <use xlink:href="#DejaVuSans-52" x="330.947266"/>
       <use xlink:href="#DejaVuSans-4b" x="400.429688"/>
       <use xlink:href="#DejaVuSans-53" x="466.005859"/>
       <use xlink:href="#DejaVuSans-20" x="529.482422"/>
       <use xlink:href="#DejaVuSans-52" x="561.269531"/>
       <use xlink:href="#DejaVuSans-49" x="630.751953"/>
       <use xlink:href="#DejaVuSans-56" x="660.244141"/>
       <use xlink:href="#DejaVuSans-45" x="728.652344"/>
       <use xlink:href="#DejaVuSans-52" x="791.835938"/>
       <use xlink:href="#DejaVuSans-20" x="861.318359"/>
       <use xlink:href="#DejaVuSans-40" x="893.105469"/>
       <use xlink:href="#DejaVuSans-20" x="993.105469"/>
       <use xlink:href="#DejaVuSans-54" x="1024.892578"/>
       <use xlink:href="#DejaVuSans-52" x="1085.976562"/>
       <use xlink:href="#DejaVuSans-41" x="1151.458984"/>
       <use xlink:href="#DejaVuSans-4d" x="1219.867188"/>
       <use xlink:href="#DejaVuSans-20" x="1306.146484"/>
       <use xlink:href="#DejaVuSans-52" x="1337.933594"/>
       <use xlink:href="#DejaVuSans-44" x="1407.416016"/>
      </g>
     </g>
    </g>
    <g id="ytick_2">
     <g id="text_11">
      <!-- ST. MARKS RIVER - UPPER DISCHARGE BEFORE SWALLET -->
      <g style="fill: #333333" transform="translate(7.2 479.376127)scale(0.13 -0.13)">
       <defs>
        <path id="DejaVuSans-2d" d="M 313 2009 
L 1997 2009 
L 1997 1497 
L 313 1497 
L 313 2009 
z
" transform="scale(0.015625)"/>
        <path id="DejaVuSans-55" d="M 556 4666 
L 1191 4666 
L 1191 1831 
Q 1191 1081 1462 751 
Q 1734 422 2344 422 
Q 2950 422 3222 751 
Q 3494 1081 3494 1831 
L 3494 4666 
L 4128 4666 
L 4128 1753 
Q 4128 841 3676 375 
Q 3225 -91 2344 -91 
Q 1459 -91 1007 375 
Q 556 841 556 1753 
L 556 4666 
z
" transform="scale(0.015625)"/>
        <path id="DejaVuSans-43" d="M 4122 4306 
L 4122 3641 
Q 3803 3938 3442 4084 
Q 3081 4231 2675 4231 
Q 1875 4231 1450 3742 
Q 1025 3253 1025 2328 
Q 1025 1406 1450 917 
Q 1875 428 2675 428 
Q 3081 428 3442 575 
Q 3803 722 4122 1019 
L 4122 359 
Q 3791 134 3420 21 
Q 3050 -91 2638 -91 
Q 1578 -91 968 557 
Q 359 1206 359 2328 
Q 359 3453 968 4101 
Q 1578 4750 2638 4750 
Q 3056 4750 3426 4639 
Q 3797 4528 4122 4306 
z
" transform="scale(0.015625)"/>
        <path id="DejaVuSans-47" d="M 3809 666 
L 3809 1919 
L 2778 1919 
L 2778 2438 
L 4434 2438 
L 4434 434 
Q 4069 175 3628 42 
Q 3188 -91 2688 -91 
Q 1594 -91 976 548 
Q 359 1188 359 2328 
Q 359 3472 976 4111 
Q 1594 4750 2688 4750 
Q 3144 4750 3555 4637 
Q 3966 4525 4313 4306 
L 4313 3634 
Q 3963 3931 3569 4081 
Q 3175 4231 2741 4231 
Q 1884 4231 1454 3753 
Q 1025 3275 1025 2328 
Q 1025 1384 1454 906 
Q 1884 428 2741 428 
Q 3075 428 3337 486 
Q 3600 544 3809 666 
z
" transform="scale(0.015625)"/>
        <path id="DejaVuSans-42" d="M 1259 2228 
L 1259 519 
L 2272 519 
Q 2781 519 3026 730 
Q 3272 941 3272 1375 
Q 3272 1813 3026 2020 
Q 2781 2228 2272 2228 
L 1259 2228 
z
M 1259 4147 
L 1259 2741 
L 2194 2741 
Q 2656 2741 2882 2914 
Q 3109 3088 3109 3444 
Q 3109 3797 2882 3972 
Q 2656 4147 2194 4147 
L 1259 4147 
z
M 628 4666 
L 2241 4666 
Q 2963 4666 3353 4366 
Q 3744 4066 3744 3513 
Q 3744 3084 3544 2831 
Q 3344 2578 2956 2516 
Q 3422 2416 3680 2098 
Q 3938 1781 3938 1306 
Q 3938 681 3513 340 
Q 3088 0 2303 0 
L 628 0 
L 628 4666 
z
" transform="scale(0.015625)"/>
        <path id="DejaVuSans-46" d="M 628 4666 
L 3309 4666 
L 3309 4134 
L 1259 4134 
L 1259 2759 
L 3109 2759 
L 3109 2228 
L 1259 2228 
L 1259 0 
L 628 0 
L 628 4666 
z
" transform="scale(0.015625)"/>
        <path id="DejaVuSans-4f" d="M 2522 4238 
Q 1834 4238 1429 3725 
Q 1025 3213 1025 2328 
Q 1025 1447 1429 934 
Q 1834 422 2522 422 
Q 3209 422 3611 934 
Q 4013 1447 4013 2328 
Q 4013 3213 3611 3725 
Q 3209 4238 2522 4238 
z
M 2522 4750 
Q 3503 4750 4090 4092 
Q 4678 3434 4678 2328 
Q 4678 1225 4090 567 
Q 3503 -91 2522 -91 
Q 1538 -91 948 565 
Q 359 1222 359 2328 
Q 359 3434 948 4092 
Q 1538 4750 2522 4750 
z
" transform="scale(0.015625)"/>
        <path id="DejaVuSans-57" d="M 213 4666 
L 850 4666 
L 1831 722 
L 2809 4666 
L 3519 4666 
L 4500 722 
L 5478 4666 
L 6119 4666 
L 4947 0 
L 4153 0 
L 3169 4050 
L 2175 0 
L 1381 0 
L 213 4666 
z
" transform="scale(0.015625)"/>
        <path id="DejaVuSans-4c" d="M 628 4666 
L 1259 4666 
L 1259 531 
L 3531 531 
L 3531 0 
L 628 0 
L 628 4666 
z
" transform="scale(0.015625)"/>
       </defs>
       <use xlink:href="#DejaVuSans-53"/>
       <use xlink:href="#DejaVuSans-54" x="63.476562"/>
       <use xlink:href="#DejaVuSans-2e" x="112.685547"/>
       <use xlink:href="#DejaVuSans-20" x="144.472656"/>
       <use xlink:href="#DejaVuSans-4d" x="176.259766"/>
       <use xlink:href="#DejaVuSans-41" x="262.539062"/>
       <use xlink:href="#DejaVuSans-52" x="330.947266"/>
       <use xlink:href="#DejaVuSans-4b" x="400.429688"/>
       <use xlink:href="#DejaVuSans-53" x="466.005859"/>
       <use xlink:href="#DejaVuSans-20" x="529.482422"/>
       <use xlink:href="#DejaVuSans-52" x="561.269531"/>
       <use xlink:href="#DejaVuSans-49" x="630.751953"/>
       <use xlink:href="#DejaVuSans-56" x="660.244141"/>
       <use xlink:href="#DejaVuSans-45" x="728.652344"/>
       <use xlink:href="#DejaVuSans-52" x="791.835938"/>
       <use xlink:href="#DejaVuSans-20" x="861.318359"/>
       <use xlink:href="#DejaVuSans-2d" x="893.105469"/>
       <use xlink:href="#DejaVuSans-20" x="929.189453"/>
       <use xlink:href="#DejaVuSans-55" x="960.976562"/>
       <use xlink:href="#DejaVuSans-50" x="1034.169922"/>
       <use xlink:href="#DejaVuSans-50" x="1094.472656"/>
       <use xlink:href="#DejaVuSans-45" x="1154.775391"/>
       <use xlink:href="#DejaVuSans-52" x="1217.958984"/>
       <use xlink:href="#DejaVuSans-20" x="1287.441406"/>
       <use xlink:href="#DejaVuSans-44" x="1319.228516"/>
       <use xlink:href="#DejaVuSans-49" x="1396.230469"/>
       <use xlink:href="#DejaVuSans-53" x="1425.722656"/>
       <use xlink:href="#DejaVuSans-43" x="1489.199219"/>
       <use xlink:href="#DejaVuSans-48" x="1559.023438"/>
       <use xlink:href="#DejaVuSans-41" x="1634.21875"/>
       <use xlink:href="#DejaVuSans-52" x="1702.626953"/>
       <use xlink:href="#DejaVuSans-47" x="1772.109375"/>
       <use xlink:href="#DejaVuSans-45" x="1849.599609"/>
       <use xlink:href="#DejaVuSans-20" x="1912.783203"/>
       <use xlink:href="#DejaVuSans-42" x="1944.570312"/>
       <use xlink:href="#DejaVuSans-45" x="2013.173828"/>
       <use xlink:href="#DejaVuSans-46" x="2076.357422"/>
       <use xlink:href="#DejaVuSans-4f" x="2133.876953"/>
       <use xlink:href="#DejaVuSans-52" x="2212.587891"/>
       <use xlink:href="#DejaVuSans-45" x="2282.070312"/>
       <use xlink:href="#DejaVuSans-20" x="2345.253906"/>
       <use xlink:href="#DejaVuSans-53" x="2377.041016"/>
       <use xlink:href="#DejaVuSans-57" x="2440.517578"/>
       <use xlink:href="#DejaVuSans-41" x="2533.894531"/>
       <use xlink:href="#DejaVuSans-4c" x="2602.302734"/>
       <use xlink:href="#DejaVuSans-4c" x="2658.015625"/>
       <use xlink:href="#DejaVuSans-45" x="2713.728516"/>
       <use xlink:href="#DejaVuSans-54" x="2776.912109"/>
      </g>
     </g>
    </g>
    <g id="ytick_3">
     <g id="text_12">
      <!-- LAKE KILLARNY AT MCLAUGHLIN DRIVE -->
      <g style="fill: #333333" transform="translate(121.015 454.784699)scale(0.13 -0.13)">
       <defs>
        <path id="DejaVuSans-4e" d="M 628 4666 
L 1478 4666 
L 3547 763 
L 3547 4666 
L 4159 4666 
L 4159 0 
L 3309 0 
L 1241 3903 
L 1241 0 
L 628 0 
L 628 4666 
z
" transform="scale(0.015625)"/>
        <path id="DejaVuSans-59" d="M -13 4666 
L 666 4666 
L 1959 2747 
L 3244 4666 
L 3922 4666 
L 2272 2222 
L 2272 0 
L 1638 0 
L 1638 2222 
L -13 4666 
z
" transform="scale(0.015625)"/>
       </defs>
       <use xlink:href="#DejaVuSans-4c"/>
       <use xlink:href="#DejaVuSans-41" x="57.962891"/>
       <use xlink:href="#DejaVuSans-4b" x="126.371094"/>
       <use xlink:href="#DejaVuSans-45" x="191.947266"/>
       <use xlink:href="#DejaVuSans-20" x="255.130859"/>
       <use xlink:href="#DejaVuSans-4b" x="286.917969"/>
       <use xlink:href="#DejaVuSans-49" x="352.494141"/>
       <use xlink:href="#DejaVuSans-4c" x="381.986328"/>
       <use xlink:href="#DejaVuSans-4c" x="437.699219"/>
       <use xlink:href="#DejaVuSans-41" x="495.662109"/>
       <use xlink:href="#DejaVuSans-52" x="564.070312"/>
       <use xlink:href="#DejaVuSans-4e" x="633.552734"/>
       <use xlink:href="#DejaVuSans-59" x="708.357422"/>
       <use xlink:href="#DejaVuSans-20" x="769.441406"/>
       <use xlink:href="#DejaVuSans-41" x="801.228516"/>
       <use xlink:href="#DejaVuSans-54" x="861.886719"/>
       <use xlink:href="#DejaVuSans-20" x="922.970703"/>
       <use xlink:href="#DejaVuSans-4d" x="954.757812"/>
       <use xlink:href="#DejaVuSans-43" x="1041.037109"/>
       <use xlink:href="#DejaVuSans-4c" x="1110.861328"/>
       <use xlink:href="#DejaVuSans-41" x="1168.824219"/>
       <use xlink:href="#DejaVuSans-55" x="1237.232422"/>
       <use xlink:href="#DejaVuSans-47" x="1310.425781"/>
       <use xlink:href="#DejaVuSans-48" x="1387.916016"/>
       <use xlink:href="#DejaVuSans-4c" x="1463.111328"/>
       <use xlink:href="#DejaVuSans-49" x="1518.824219"/>
       <use xlink:href="#DejaVuSans-4e" x="1548.316406"/>
       <use xlink:href="#DejaVuSans-20" x="1623.121094"/>
       <use xlink:href="#DejaVuSans-44" x="1654.908203"/>
       <use xlink:href="#DejaVuSans-52" x="1731.910156"/>
       <use xlink:href="#DejaVuSans-49" x="1801.392578"/>
       <use xlink:href="#DejaVuSans-56" x="1830.884766"/>
       <use xlink:href="#DejaVuSans-45" x="1899.292969"/>
      </g>
     </g>
    </g>
    <g id="ytick_4">
     <g id="text_13">
      <!-- NWFWMD GW-5S (LEON CTY VFD) -->
      <g style="fill: #333333" transform="translate(154.959219 430.19327)scale(0.13 -0.13)">
       <use xlink:href="#DejaVuSans-4e"/>
       <use xlink:href="#DejaVuSans-57" x="74.804688"/>
       <use xlink:href="#DejaVuSans-46" x="173.681641"/>
       <use xlink:href="#DejaVuSans-57" x="231.201172"/>
       <use xlink:href="#DejaVuSans-4d" x="330.078125"/>
       <use xlink:href="#DejaVuSans-44" x="416.357422"/>
       <use xlink:href="#DejaVuSans-20" x="493.359375"/>
       <use xlink:href="#DejaVuSans-47" x="525.146484"/>
       <use xlink:href="#DejaVuSans-57" x="602.636719"/>
       <use xlink:href="#DejaVuSans-2d" x="697.513672"/>
       <use xlink:href="#DejaVuSans-35" x="733.597656"/>
       <use xlink:href="#DejaVuSans-53" x="797.220703"/>
       <use xlink:href="#DejaVuSans-20" x="860.697266"/>
       <use xlink:href="#DejaVuSans-28" x="892.484375"/>
       <use xlink:href="#DejaVuSans-4c" x="931.498047"/>
       <use xlink:href="#DejaVuSans-45" x="987.210938"/>
       <use xlink:href="#DejaVuSans-4f" x="1050.394531"/>
       <use xlink:href="#DejaVuSans-4e" x="1129.105469"/>
       <use xlink:href="#DejaVuSans-20" x="1203.910156"/>
       <use xlink:href="#DejaVuSans-43" x="1235.697266"/>
       <use xlink:href="#DejaVuSans-54" x="1305.521484"/>
       <use xlink:href="#DejaVuSans-59" x="1366.605469"/>
       <use xlink:href="#DejaVuSans-20" x="1427.689453"/>
       <use xlink:href="#DejaVuSans-56" x="1459.476562"/>
       <use xlink:href="#DejaVuSans-46" x="1527.884766"/>
       <use xlink:href="#DejaVuSans-44" x="1585.404297"/>
       <use xlink:href="#DejaVuSans-29" x="1662.40625"/>
      </g>
     </g>
    </g>
    <g id="ytick_5">
     <g id="text_14">
      <!-- AMES SINK/S555 -->
      <g style="fill: #333333" transform="translate(267.648906 405.601842)scale(0.13 -0.13)">
       <defs>
        <path id="DejaVuSans-2f" d="M 1625 4666 
L 2156 4666 
L 531 -594 
L 0 -594 
L 1625 4666 
z
" transform="scale(0.015625)"/>
       </defs>
       <use xlink:href="#DejaVuSans-41"/>
       <use xlink:href="#DejaVuSans-4d" x="68.408203"/>
       <use xlink:href="#DejaVuSans-45" x="154.6875"/>
       <use xlink:href="#DejaVuSans-53" x="217.871094"/>
       <use xlink:href="#DejaVuSans-20" x="281.347656"/>
       <use xlink:href="#DejaVuSans-53" x="313.134766"/>
       <use xlink:href="#DejaVuSans-49" x="376.611328"/>
       <use xlink:href="#DejaVuSans-4e" x="406.103516"/>
       <use xlink:href="#DejaVuSans-4b" x="480.908203"/>
       <use xlink:href="#DejaVuSans-2f" x="546.484375"/>
       <use xlink:href="#DejaVuSans-53" x="580.175781"/>
       <use xlink:href="#DejaVuSans-35" x="643.652344"/>
       <use xlink:href="#DejaVuSans-35" x="707.275391"/>
       <use xlink:href="#DejaVuSans-35" x="770.898438"/>
      </g>
     </g>
    </g>
    <g id="ytick_6">
     <g id="text_15">
      <!-- PARK AV D.D.@ VIOLET - S100 -->
      <g style="fill: #333333" transform="translate(179.667344 381.010413)scale(0.13 -0.13)">
       <use xlink:href="#DejaVuSans-50"/>
       <use xlink:href="#DejaVuSans-41" x="53.927734"/>
       <use xlink:href="#DejaVuSans-52" x="122.335938"/>
       <use xlink:href="#DejaVuSans-4b" x="191.818359"/>
       <use xlink:href="#DejaVuSans-20" x="257.394531"/>
       <use xlink:href="#DejaVuSans-41" x="289.181641"/>
       <use xlink:href="#DejaVuSans-56" x="351.214844"/>
       <use xlink:href="#DejaVuSans-20" x="419.623047"/>
       <use xlink:href="#DejaVuSans-44" x="451.410156"/>
       <use xlink:href="#DejaVuSans-2e" x="528.412109"/>
       <use xlink:href="#DejaVuSans-44" x="560.199219"/>
       <use xlink:href="#DejaVuSans-2e" x="637.201172"/>
       <use xlink:href="#DejaVuSans-40" x="668.988281"/>
       <use xlink:href="#DejaVuSans-20" x="768.988281"/>
       <use xlink:href="#DejaVuSans-56" x="800.775391"/>
       <use xlink:href="#DejaVuSans-49" x="869.183594"/>
       <use xlink:href="#DejaVuSans-4f" x="898.675781"/>
       <use xlink:href="#DejaVuSans-4c" x="977.386719"/>
       <use xlink:href="#DejaVuSans-45" x="1033.099609"/>
       <use xlink:href="#DejaVuSans-54" x="1096.283203"/>
       <use xlink:href="#DejaVuSans-20" x="1157.367188"/>
       <use xlink:href="#DejaVuSans-2d" x="1189.154297"/>
       <use xlink:href="#DejaVuSans-20" x="1225.238281"/>
       <use xlink:href="#DejaVuSans-53" x="1257.025391"/>
       <use xlink:href="#DejaVuSans-31" x="1320.501953"/>
       <use xlink:href="#DejaVuSans-30" x="1384.125"/>
       <use xlink:href="#DejaVuSans-30" x="1447.748047"/>
      </g>
     </g>
    </g>
    <g id="ytick_7">
     <g id="text_16">
      <!-- ALFORD ARM TRIB@BUCK -->
      <g style="fill: #333333" transform="translate(207.083125 356.418984)scale(0.13 -0.13)">
       <use xlink:href="#DejaVuSans-41"/>
       <use xlink:href="#DejaVuSans-4c" x="68.408203"/>
       <use xlink:href="#DejaVuSans-46" x="124.121094"/>
       <use xlink:href="#DejaVuSans-4f" x="181.640625"/>
       <use xlink:href="#DejaVuSans-52" x="260.351562"/>
       <use xlink:href="#DejaVuSans-44" x="329.833984"/>
       <use xlink:href="#DejaVuSans-20" x="406.835938"/>
       <use xlink:href="#DejaVuSans-41" x="438.623047"/>
       <use xlink:href="#DejaVuSans-52" x="507.03125"/>
       <use xlink:href="#DejaVuSans-4d" x="576.513672"/>
       <use xlink:href="#DejaVuSans-20" x="662.792969"/>
       <use xlink:href="#DejaVuSans-54" x="694.580078"/>
       <use xlink:href="#DejaVuSans-52" x="755.664062"/>
       <use xlink:href="#DejaVuSans-49" x="825.146484"/>
       <use xlink:href="#DejaVuSans-42" x="854.638672"/>
       <use xlink:href="#DejaVuSans-40" x="923.242188"/>
       <use xlink:href="#DejaVuSans-42" x="1023.242188"/>
       <use xlink:href="#DejaVuSans-55" x="1091.845703"/>
       <use xlink:href="#DejaVuSans-43" x="1165.039062"/>
       <use xlink:href="#DejaVuSans-4b" x="1234.863281"/>
      </g>
     </g>
    </g>
    <g id="ytick_8">
     <g id="text_17">
      <!-- USGS-OLSON RD./S677 -->
      <g style="fill: #333333" transform="translate(224.56 331.827556)scale(0.13 -0.13)">
       <defs>
        <path id="DejaVuSans-36" d="M 2113 2584 
Q 1688 2584 1439 2293 
Q 1191 2003 1191 1497 
Q 1191 994 1439 701 
Q 1688 409 2113 409 
Q 2538 409 2786 701 
Q 3034 994 3034 1497 
Q 3034 2003 2786 2293 
Q 2538 2584 2113 2584 
z
M 3366 4563 
L 3366 3988 
Q 3128 4100 2886 4159 
Q 2644 4219 2406 4219 
Q 1781 4219 1451 3797 
Q 1122 3375 1075 2522 
Q 1259 2794 1537 2939 
Q 1816 3084 2150 3084 
Q 2853 3084 3261 2657 
Q 3669 2231 3669 1497 
Q 3669 778 3244 343 
Q 2819 -91 2113 -91 
Q 1303 -91 875 529 
Q 447 1150 447 2328 
Q 447 3434 972 4092 
Q 1497 4750 2381 4750 
Q 2619 4750 2861 4703 
Q 3103 4656 3366 4563 
z
" transform="scale(0.015625)"/>
        <path id="DejaVuSans-37" d="M 525 4666 
L 3525 4666 
L 3525 4397 
L 1831 0 
L 1172 0 
L 2766 4134 
L 525 4134 
L 525 4666 
z
" transform="scale(0.015625)"/>
       </defs>
       <use xlink:href="#DejaVuSans-55"/>
       <use xlink:href="#DejaVuSans-53" x="73.193359"/>
       <use xlink:href="#DejaVuSans-47" x="136.669922"/>
       <use xlink:href="#DejaVuSans-53" x="214.160156"/>
       <use xlink:href="#DejaVuSans-2d" x="277.636719"/>
       <use xlink:href="#DejaVuSans-4f" x="316.470703"/>
       <use xlink:href="#DejaVuSans-4c" x="395.181641"/>
       <use xlink:href="#DejaVuSans-53" x="450.894531"/>
       <use xlink:href="#DejaVuSans-4f" x="514.371094"/>
       <use xlink:href="#DejaVuSans-4e" x="593.082031"/>
       <use xlink:href="#DejaVuSans-20" x="667.886719"/>
       <use xlink:href="#DejaVuSans-52" x="699.673828"/>
       <use xlink:href="#DejaVuSans-44" x="769.15625"/>
       <use xlink:href="#DejaVuSans-2e" x="846.158203"/>
       <use xlink:href="#DejaVuSans-2f" x="877.945312"/>
       <use xlink:href="#DejaVuSans-53" x="911.636719"/>
       <use xlink:href="#DejaVuSans-36" x="975.113281"/>
       <use xlink:href="#DejaVuSans-37" x="1038.736328"/>
       <use xlink:href="#DejaVuSans-37" x="1102.359375"/>
      </g>
     </g>
    </g>
    <g id="ytick_9">
     <g id="text_18">
      <!-- NWFWMD GW-2F-UZ (FT BRADEN)/S826 -->
      <g style="fill: #333333" transform="translate(116.828594 307.236127)scale(0.13 -0.13)">
       <defs>
        <path id="DejaVuSans-5a" d="M 359 4666 
L 4025 4666 
L 4025 4184 
L 1075 531 
L 4097 531 
L 4097 0 
L 288 0 
L 288 481 
L 3238 4134 
L 359 4134 
L 359 4666 
z
" transform="scale(0.015625)"/>
        <path id="DejaVuSans-38" d="M 2034 2216 
Q 1584 2216 1326 1975 
Q 1069 1734 1069 1313 
Q 1069 891 1326 650 
Q 1584 409 2034 409 
Q 2484 409 2743 651 
Q 3003 894 3003 1313 
Q 3003 1734 2745 1975 
Q 2488 2216 2034 2216 
z
M 1403 2484 
Q 997 2584 770 2862 
Q 544 3141 544 3541 
Q 544 4100 942 4425 
Q 1341 4750 2034 4750 
Q 2731 4750 3128 4425 
Q 3525 4100 3525 3541 
Q 3525 3141 3298 2862 
Q 3072 2584 2669 2484 
Q 3125 2378 3379 2068 
Q 3634 1759 3634 1313 
Q 3634 634 3220 271 
Q 2806 -91 2034 -91 
Q 1263 -91 848 271 
Q 434 634 434 1313 
Q 434 1759 690 2068 
Q 947 2378 1403 2484 
z
M 1172 3481 
Q 1172 3119 1398 2916 
Q 1625 2713 2034 2713 
Q 2441 2713 2670 2916 
Q 2900 3119 2900 3481 
Q 2900 3844 2670 4047 
Q 2441 4250 2034 4250 
Q 1625 4250 1398 4047 
Q 1172 3844 1172 3481 
z
" transform="scale(0.015625)"/>
       </defs>
       <use xlink:href="#DejaVuSans-4e"/>
       <use xlink:href="#DejaVuSans-57" x="74.804688"/>
       <use xlink:href="#DejaVuSans-46" x="173.681641"/>
       <use xlink:href="#DejaVuSans-57" x="231.201172"/>
       <use xlink:href="#DejaVuSans-4d" x="330.078125"/>
       <use xlink:href="#DejaVuSans-44" x="416.357422"/>
       <use xlink:href="#DejaVuSans-20" x="493.359375"/>
       <use xlink:href="#DejaVuSans-47" x="525.146484"/>
       <use xlink:href="#DejaVuSans-57" x="602.636719"/>
       <use xlink:href="#DejaVuSans-2d" x="697.513672"/>
       <use xlink:href="#DejaVuSans-32" x="733.597656"/>
       <use xlink:href="#DejaVuSans-46" x="797.220703"/>
       <use xlink:href="#DejaVuSans-2d" x="854.740234"/>
       <use xlink:href="#DejaVuSans-55" x="890.824219"/>
       <use xlink:href="#DejaVuSans-5a" x="962.267578"/>
       <use xlink:href="#DejaVuSans-20" x="1030.773438"/>
       <use xlink:href="#DejaVuSans-28" x="1062.560547"/>
       <use xlink:href="#DejaVuSans-46" x="1101.574219"/>
       <use xlink:href="#DejaVuSans-54" x="1157.34375"/>
       <use xlink:href="#DejaVuSans-20" x="1218.427734"/>
       <use xlink:href="#DejaVuSans-42" x="1250.214844"/>
       <use xlink:href="#DejaVuSans-52" x="1318.818359"/>
       <use xlink:href="#DejaVuSans-41" x="1384.300781"/>
       <use xlink:href="#DejaVuSans-44" x="1452.708984"/>
       <use xlink:href="#DejaVuSans-45" x="1529.710938"/>
       <use xlink:href="#DejaVuSans-4e" x="1592.894531"/>
       <use xlink:href="#DejaVuSans-29" x="1667.699219"/>
       <use xlink:href="#DejaVuSans-2f" x="1706.712891"/>
       <use xlink:href="#DejaVuSans-53" x="1740.404297"/>
       <use xlink:href="#DejaVuSans-38" x="1803.880859"/>
       <use xlink:href="#DejaVuSans-32" x="1867.503906"/>
       <use xlink:href="#DejaVuSans-36" x="1931.126953"/>
      </g>
     </g>
    </g>
    <g id="ytick_10">
     <g id="text_19">
      <!-- NWFWMD GW-3F-UZ (ANF FR-305) -->
      <g style="fill: #333333" transform="translate(152.15 282.644699)scale(0.13 -0.13)">
       <use xlink:href="#DejaVuSans-4e"/>
       <use xlink:href="#DejaVuSans-57" x="74.804688"/>
       <use xlink:href="#DejaVuSans-46" x="173.681641"/>
       <use xlink:href="#DejaVuSans-57" x="231.201172"/>
       <use xlink:href="#DejaVuSans-4d" x="330.078125"/>
       <use xlink:href="#DejaVuSans-44" x="416.357422"/>
       <use xlink:href="#DejaVuSans-20" x="493.359375"/>
       <use xlink:href="#DejaVuSans-47" x="525.146484"/>
       <use xlink:href="#DejaVuSans-57" x="602.636719"/>
       <use xlink:href="#DejaVuSans-2d" x="697.513672"/>
       <use xlink:href="#DejaVuSans-33" x="733.597656"/>
       <use xlink:href="#DejaVuSans-46" x="797.220703"/>
       <use xlink:href="#DejaVuSans-2d" x="854.740234"/>
       <use xlink:href="#DejaVuSans-55" x="890.824219"/>
       <use xlink:href="#DejaVuSans-5a" x="962.267578"/>
       <use xlink:href="#DejaVuSans-20" x="1030.773438"/>
       <use xlink:href="#DejaVuSans-28" x="1062.560547"/>
       <use xlink:href="#DejaVuSans-41" x="1101.574219"/>
       <use xlink:href="#DejaVuSans-4e" x="1169.982422"/>
       <use xlink:href="#DejaVuSans-46" x="1244.787109"/>
       <use xlink:href="#DejaVuSans-20" x="1302.306641"/>
       <use xlink:href="#DejaVuSans-46" x="1334.09375"/>
       <use xlink:href="#DejaVuSans-52" x="1391.613281"/>
       <use xlink:href="#DejaVuSans-2d" x="1457.095703"/>
       <use xlink:href="#DejaVuSans-33" x="1493.179688"/>
       <use xlink:href="#DejaVuSans-30" x="1556.802734"/>
       <use xlink:href="#DejaVuSans-35" x="1620.425781"/>
       <use xlink:href="#DejaVuSans-29" x="1684.048828"/>
      </g>
     </g>
    </g>
    <g id="ytick_11">
     <g id="text_20">
      <!-- LOST CREEK @ ARRAN RD (CR 368) -->
      <g style="fill: #333333" transform="translate(144.920781 258.05327)scale(0.13 -0.13)">
       <use xlink:href="#DejaVuSans-4c"/>
       <use xlink:href="#DejaVuSans-4f" x="52.087891"/>
       <use xlink:href="#DejaVuSans-53" x="130.798828"/>
       <use xlink:href="#DejaVuSans-54" x="194.275391"/>
       <use xlink:href="#DejaVuSans-20" x="255.359375"/>
       <use xlink:href="#DejaVuSans-43" x="287.146484"/>
       <use xlink:href="#DejaVuSans-52" x="356.970703"/>
       <use xlink:href="#DejaVuSans-45" x="426.453125"/>
       <use xlink:href="#DejaVuSans-45" x="489.636719"/>
       <use xlink:href="#DejaVuSans-4b" x="552.820312"/>
       <use xlink:href="#DejaVuSans-20" x="618.396484"/>
       <use xlink:href="#DejaVuSans-40" x="650.183594"/>
       <use xlink:href="#DejaVuSans-20" x="750.183594"/>
       <use xlink:href="#DejaVuSans-41" x="781.970703"/>
       <use xlink:href="#DejaVuSans-52" x="850.378906"/>
       <use xlink:href="#DejaVuSans-52" x="919.861328"/>
       <use xlink:href="#DejaVuSans-41" x="985.34375"/>
       <use xlink:href="#DejaVuSans-4e" x="1053.751953"/>
       <use xlink:href="#DejaVuSans-20" x="1128.556641"/>
       <use xlink:href="#DejaVuSans-52" x="1160.34375"/>
       <use xlink:href="#DejaVuSans-44" x="1229.826172"/>
       <use xlink:href="#DejaVuSans-20" x="1306.828125"/>
       <use xlink:href="#DejaVuSans-28" x="1338.615234"/>
       <use xlink:href="#DejaVuSans-43" x="1377.628906"/>
       <use xlink:href="#DejaVuSans-52" x="1447.453125"/>
       <use xlink:href="#DejaVuSans-20" x="1516.935547"/>
       <use xlink:href="#DejaVuSans-33" x="1548.722656"/>
       <use xlink:href="#DejaVuSans-36" x="1612.345703"/>
       <use xlink:href="#DejaVuSans-38" x="1675.96875"/>
       <use xlink:href="#DejaVuSans-29" x="1739.591797"/>
      </g>
     </g>
    </g>
    <g id="ytick_12">
     <g id="text_21">
      <!-- Regional Stormwater Facility - City of Tallahassee -->
      <g style="fill: #333333" transform="translate(56.717812 233.461842)scale(0.13 -0.13)">
       <defs>
        <path id="DejaVuSans-77" d="M 269 3500 
L 844 3500 
L 1563 769 
L 2278 3500 
L 2956 3500 
L 3675 769 
L 4391 3500 
L 4966 3500 
L 4050 0 
L 3372 0 
L 2619 2869 
L 1863 0 
L 1184 0 
L 269 3500 
z
" transform="scale(0.015625)"/>
        <path id="DejaVuSans-79" d="M 2059 -325 
Q 1816 -950 1584 -1140 
Q 1353 -1331 966 -1331 
L 506 -1331 
L 506 -850 
L 844 -850 
Q 1081 -850 1212 -737 
Q 1344 -625 1503 -206 
L 1606 56 
L 191 3500 
L 800 3500 
L 1894 763 
L 2988 3500 
L 3597 3500 
L 2059 -325 
z
" transform="scale(0.015625)"/>
        <path id="DejaVuSans-66" d="M 2375 4863 
L 2375 4384 
L 1825 4384 
Q 1516 4384 1395 4259 
Q 1275 4134 1275 3809 
L 1275 3500 
L 2222 3500 
L 2222 3053 
L 1275 3053 
L 1275 0 
L 697 0 
L 697 3053 
L 147 3053 
L 147 3500 
L 697 3500 
L 697 3744 
Q 697 4328 969 4595 
Q 1241 4863 1831 4863 
L 2375 4863 
z
" transform="scale(0.015625)"/>
        <path id="DejaVuSans-68" d="M 3513 2113 
L 3513 0 
L 2938 0 
L 2938 2094 
Q 2938 2591 2744 2837 
Q 2550 3084 2163 3084 
Q 1697 3084 1428 2787 
Q 1159 2491 1159 1978 
L 1159 0 
L 581 0 
L 581 4863 
L 1159 4863 
L 1159 2956 
Q 1366 3272 1645 3428 
Q 1925 3584 2291 3584 
Q 2894 3584 3203 3211 
Q 3513 2838 3513 2113 
z
" transform="scale(0.015625)"/>
        <path id="DejaVuSans-73" d="M 2834 3397 
L 2834 2853 
Q 2591 2978 2328 3040 
Q 2066 3103 1784 3103 
Q 1356 3103 1142 2972 
Q 928 2841 928 2578 
Q 928 2378 1081 2264 
Q 1234 2150 1697 2047 
L 1894 2003 
Q 2506 1872 2764 1633 
Q 3022 1394 3022 966 
Q 3022 478 2636 193 
Q 2250 -91 1575 -91 
Q 1294 -91 989 -36 
Q 684 19 347 128 
L 347 722 
Q 666 556 975 473 
Q 1284 391 1588 391 
Q 1994 391 2212 530 
Q 2431 669 2431 922 
Q 2431 1156 2273 1281 
Q 2116 1406 1581 1522 
L 1381 1569 
Q 847 1681 609 1914 
Q 372 2147 372 2553 
Q 372 3047 722 3315 
Q 1072 3584 1716 3584 
Q 2034 3584 2315 3537 
Q 2597 3491 2834 3397 
z
" transform="scale(0.015625)"/>
       </defs>
       <use xlink:href="#DejaVuSans-52"/>
       <use xlink:href="#DejaVuSans-65" x="64.982422"/>
       <use xlink:href="#DejaVuSans-67" x="126.505859"/>
       <use xlink:href="#DejaVuSans-69" x="189.982422"/>
       <use xlink:href="#DejaVuSans-6f" x="217.765625"/>
       <use xlink:href="#DejaVuSans-6e" x="278.947266"/>
       <use xlink:href="#DejaVuSans-61" x="342.326172"/>
       <use xlink:href="#DejaVuSans-6c" x="403.605469"/>
       <use xlink:href="#DejaVuSans-20" x="431.388672"/>
       <use xlink:href="#DejaVuSans-53" x="463.175781"/>
       <use xlink:href="#DejaVuSans-74" x="526.652344"/>
       <use xlink:href="#DejaVuSans-6f" x="565.861328"/>
       <use xlink:href="#DejaVuSans-72" x="627.042969"/>
       <use xlink:href="#DejaVuSans-6d" x="666.40625"/>
       <use xlink:href="#DejaVuSans-77" x="763.818359"/>
       <use xlink:href="#DejaVuSans-61" x="845.605469"/>
       <use xlink:href="#DejaVuSans-74" x="906.884766"/>
       <use xlink:href="#DejaVuSans-65" x="946.09375"/>
       <use xlink:href="#DejaVuSans-72" x="1007.617188"/>
       <use xlink:href="#DejaVuSans-20" x="1048.730469"/>
       <use xlink:href="#DejaVuSans-46" x="1080.517578"/>
       <use xlink:href="#DejaVuSans-61" x="1128.912109"/>
       <use xlink:href="#DejaVuSans-63" x="1190.191406"/>
       <use xlink:href="#DejaVuSans-69" x="1245.171875"/>
       <use xlink:href="#DejaVuSans-6c" x="1272.955078"/>
       <use xlink:href="#DejaVuSans-69" x="1300.738281"/>
       <use xlink:href="#DejaVuSans-74" x="1328.521484"/>
       <use xlink:href="#DejaVuSans-79" x="1367.730469"/>
       <use xlink:href="#DejaVuSans-20" x="1426.910156"/>
       <use xlink:href="#DejaVuSans-2d" x="1458.697266"/>
       <use xlink:href="#DejaVuSans-20" x="1494.78125"/>
       <use xlink:href="#DejaVuSans-43" x="1526.568359"/>
       <use xlink:href="#DejaVuSans-69" x="1596.392578"/>
       <use xlink:href="#DejaVuSans-74" x="1624.175781"/>
       <use xlink:href="#DejaVuSans-79" x="1663.384766"/>
       <use xlink:href="#DejaVuSans-20" x="1722.564453"/>
       <use xlink:href="#DejaVuSans-6f" x="1754.351562"/>
       <use xlink:href="#DejaVuSans-66" x="1815.533203"/>
       <use xlink:href="#DejaVuSans-20" x="1850.738281"/>
       <use xlink:href="#DejaVuSans-54" x="1882.525391"/>
       <use xlink:href="#DejaVuSans-61" x="1927.109375"/>
       <use xlink:href="#DejaVuSans-6c" x="1988.388672"/>
       <use xlink:href="#DejaVuSans-6c" x="2016.171875"/>
       <use xlink:href="#DejaVuSans-61" x="2043.955078"/>
       <use xlink:href="#DejaVuSans-68" x="2105.234375"/>
       <use xlink:href="#DejaVuSans-61" x="2168.613281"/>
       <use xlink:href="#DejaVuSans-73" x="2229.892578"/>
       <use xlink:href="#DejaVuSans-73" x="2281.992188"/>
       <use xlink:href="#DejaVuSans-65" x="2334.091797"/>
       <use xlink:href="#DejaVuSans-65" x="2395.615234"/>
      </g>
     </g>
    </g>
    <g id="ytick_13">
     <g id="text_22">
      <!-- FORDS ARM TRIB@MERD -->
      <g style="fill: #333333" transform="translate(212.528906 208.870413)scale(0.13 -0.13)">
       <use xlink:href="#DejaVuSans-46"/>
       <use xlink:href="#DejaVuSans-4f" x="57.519531"/>
       <use xlink:href="#DejaVuSans-52" x="136.230469"/>
       <use xlink:href="#DejaVuSans-44" x="205.712891"/>
       <use xlink:href="#DejaVuSans-53" x="282.714844"/>
       <use xlink:href="#DejaVuSans-20" x="346.191406"/>
       <use xlink:href="#DejaVuSans-41" x="377.978516"/>
       <use xlink:href="#DejaVuSans-52" x="446.386719"/>
       <use xlink:href="#DejaVuSans-4d" x="515.869141"/>
       <use xlink:href="#DejaVuSans-20" x="602.148438"/>
       <use xlink:href="#DejaVuSans-54" x="633.935547"/>
       <use xlink:href="#DejaVuSans-52" x="695.019531"/>
       <use xlink:href="#DejaVuSans-49" x="764.501953"/>
       <use xlink:href="#DejaVuSans-42" x="793.994141"/>
       <use xlink:href="#DejaVuSans-40" x="862.597656"/>
       <use xlink:href="#DejaVuSans-4d" x="962.597656"/>
       <use xlink:href="#DejaVuSans-45" x="1048.876953"/>
       <use xlink:href="#DejaVuSans-52" x="1112.060547"/>
       <use xlink:href="#DejaVuSans-44" x="1181.542969"/>
      </g>
     </g>
    </g>
    <g id="ytick_14">
     <g id="text_23">
      <!-- NWFWMD-NITRATE #5/S796 -->
      <g style="fill: #333333" transform="translate(192.519062 184.278984)scale(0.13 -0.13)">
       <defs>
        <path id="DejaVuSans-23" d="M 3272 2816 
L 2363 2816 
L 2100 1772 
L 3016 1772 
L 3272 2816 
z
M 2803 4594 
L 2478 3297 
L 3391 3297 
L 3719 4594 
L 4219 4594 
L 3897 3297 
L 4872 3297 
L 4872 2816 
L 3775 2816 
L 3519 1772 
L 4513 1772 
L 4513 1294 
L 3397 1294 
L 3072 0 
L 2572 0 
L 2894 1294 
L 1978 1294 
L 1656 0 
L 1153 0 
L 1478 1294 
L 494 1294 
L 494 1772 
L 1594 1772 
L 1856 2816 
L 850 2816 
L 850 3297 
L 1978 3297 
L 2297 4594 
L 2803 4594 
z
" transform="scale(0.015625)"/>
        <path id="DejaVuSans-39" d="M 703 97 
L 703 672 
Q 941 559 1184 500 
Q 1428 441 1663 441 
Q 2288 441 2617 861 
Q 2947 1281 2994 2138 
Q 2813 1869 2534 1725 
Q 2256 1581 1919 1581 
Q 1219 1581 811 2004 
Q 403 2428 403 3163 
Q 403 3881 828 4315 
Q 1253 4750 1959 4750 
Q 2769 4750 3195 4129 
Q 3622 3509 3622 2328 
Q 3622 1225 3098 567 
Q 2575 -91 1691 -91 
Q 1453 -91 1209 -44 
Q 966 3 703 97 
z
M 1959 2075 
Q 2384 2075 2632 2365 
Q 2881 2656 2881 3163 
Q 2881 3666 2632 3958 
Q 2384 4250 1959 4250 
Q 1534 4250 1286 3958 
Q 1038 3666 1038 3163 
Q 1038 2656 1286 2365 
Q 1534 2075 1959 2075 
z
" transform="scale(0.015625)"/>
       </defs>
       <use xlink:href="#DejaVuSans-4e"/>
       <use xlink:href="#DejaVuSans-57" x="74.804688"/>
       <use xlink:href="#DejaVuSans-46" x="173.681641"/>
       <use xlink:href="#DejaVuSans-57" x="231.201172"/>
       <use xlink:href="#DejaVuSans-4d" x="330.078125"/>
       <use xlink:href="#DejaVuSans-44" x="416.357422"/>
       <use xlink:href="#DejaVuSans-2d" x="493.359375"/>
       <use xlink:href="#DejaVuSans-4e" x="529.443359"/>
       <use xlink:href="#DejaVuSans-49" x="604.248047"/>
       <use xlink:href="#DejaVuSans-54" x="633.740234"/>
       <use xlink:href="#DejaVuSans-52" x="694.824219"/>
       <use xlink:href="#DejaVuSans-41" x="760.306641"/>
       <use xlink:href="#DejaVuSans-54" x="820.964844"/>
       <use xlink:href="#DejaVuSans-45" x="882.048828"/>
       <use xlink:href="#DejaVuSans-20" x="945.232422"/>
       <use xlink:href="#DejaVuSans-23" x="977.019531"/>
       <use xlink:href="#DejaVuSans-35" x="1060.808594"/>
       <use xlink:href="#DejaVuSans-2f" x="1124.431641"/>
       <use xlink:href="#DejaVuSans-53" x="1158.123047"/>
       <use xlink:href="#DejaVuSans-37" x="1221.599609"/>
       <use xlink:href="#DejaVuSans-39" x="1285.222656"/>
       <use xlink:href="#DejaVuSans-36" x="1348.845703"/>
      </g>
     </g>
    </g>
    <g id="ytick_15">
     <g id="text_24">
      <!-- LAKE KINSALE OUTFALL -->
      <g style="fill: #333333" transform="translate(222.419062 159.687556)scale(0.13 -0.13)">
       <use xlink:href="#DejaVuSans-4c"/>
       <use xlink:href="#DejaVuSans-41" x="57.962891"/>
       <use xlink:href="#DejaVuSans-4b" x="126.371094"/>
       <use xlink:href="#DejaVuSans-45" x="191.947266"/>
       <use xlink:href="#DejaVuSans-20" x="255.130859"/>
       <use xlink:href="#DejaVuSans-4b" x="286.917969"/>
       <use xlink:href="#DejaVuSans-49" x="352.494141"/>
       <use xlink:href="#DejaVuSans-4e" x="381.986328"/>
       <use xlink:href="#DejaVuSans-53" x="456.791016"/>
       <use xlink:href="#DejaVuSans-41" x="522.142578"/>
       <use xlink:href="#DejaVuSans-4c" x="590.550781"/>
       <use xlink:href="#DejaVuSans-45" x="646.263672"/>
       <use xlink:href="#DejaVuSans-20" x="709.447266"/>
       <use xlink:href="#DejaVuSans-4f" x="741.234375"/>
       <use xlink:href="#DejaVuSans-55" x="819.945312"/>
       <use xlink:href="#DejaVuSans-54" x="893.138672"/>
       <use xlink:href="#DejaVuSans-46" x="954.222656"/>
       <use xlink:href="#DejaVuSans-41" x="1002.617188"/>
       <use xlink:href="#DejaVuSans-4c" x="1071.025391"/>
       <use xlink:href="#DejaVuSans-4c" x="1126.738281"/>
      </g>
     </g>
    </g>
    <g id="ytick_16">
     <g id="text_25">
      <!-- BLACK CREEK @ CR 267 -->
      <g style="fill: #333333" transform="translate(217.903594 135.096127)scale(0.13 -0.13)">
       <use xlink:href="#DejaVuSans-42"/>
       <use xlink:href="#DejaVuSans-4c" x="68.603516"/>
       <use xlink:href="#DejaVuSans-41" x="126.566406"/>
       <use xlink:href="#DejaVuSans-43" x="193.224609"/>
       <use xlink:href="#DejaVuSans-4b" x="263.048828"/>
       <use xlink:href="#DejaVuSans-20" x="328.625"/>
       <use xlink:href="#DejaVuSans-43" x="360.412109"/>
       <use xlink:href="#DejaVuSans-52" x="430.236328"/>
       <use xlink:href="#DejaVuSans-45" x="499.71875"/>
       <use xlink:href="#DejaVuSans-45" x="562.902344"/>
       <use xlink:href="#DejaVuSans-4b" x="626.085938"/>
       <use xlink:href="#DejaVuSans-20" x="691.662109"/>
       <use xlink:href="#DejaVuSans-40" x="723.449219"/>
       <use xlink:href="#DejaVuSans-20" x="823.449219"/>
       <use xlink:href="#DejaVuSans-43" x="855.236328"/>
       <use xlink:href="#DejaVuSans-52" x="925.060547"/>
       <use xlink:href="#DejaVuSans-20" x="994.542969"/>
       <use xlink:href="#DejaVuSans-32" x="1026.330078"/>
       <use xlink:href="#DejaVuSans-36" x="1089.953125"/>
       <use xlink:href="#DejaVuSans-37" x="1153.576172"/>
      </g>
     </g>
    </g>
    <g id="ytick_17">
     <g id="text_26">
      <!-- LAKE LAFAYETTE OUTFALL -->
      <g style="fill: #333333" transform="translate(206.725625 110.504699)scale(0.13 -0.13)">
       <use xlink:href="#DejaVuSans-4c"/>
       <use xlink:href="#DejaVuSans-41" x="57.962891"/>
       <use xlink:href="#DejaVuSans-4b" x="126.371094"/>
       <use xlink:href="#DejaVuSans-45" x="191.947266"/>
       <use xlink:href="#DejaVuSans-20" x="255.130859"/>
       <use xlink:href="#DejaVuSans-4c" x="286.917969"/>
       <use xlink:href="#DejaVuSans-41" x="344.880859"/>
       <use xlink:href="#DejaVuSans-46" x="413.289062"/>
       <use xlink:href="#DejaVuSans-41" x="461.683594"/>
       <use xlink:href="#DejaVuSans-59" x="522.341797"/>
       <use xlink:href="#DejaVuSans-45" x="583.425781"/>
       <use xlink:href="#DejaVuSans-54" x="646.609375"/>
       <use xlink:href="#DejaVuSans-54" x="705.943359"/>
       <use xlink:href="#DejaVuSans-45" x="767.027344"/>
       <use xlink:href="#DejaVuSans-20" x="830.210938"/>
       <use xlink:href="#DejaVuSans-4f" x="861.998047"/>
       <use xlink:href="#DejaVuSans-55" x="940.708984"/>
       <use xlink:href="#DejaVuSans-54" x="1013.902344"/>
       <use xlink:href="#DejaVuSans-46" x="1074.986328"/>
       <use xlink:href="#DejaVuSans-41" x="1123.380859"/>
       <use xlink:href="#DejaVuSans-4c" x="1191.789062"/>
       <use xlink:href="#DejaVuSans-4c" x="1247.501953"/>
      </g>
     </g>
    </g>
    <g id="ytick_18">
     <g id="text_27">
      <!-- NWFWMD-HQ FLORIDAN OBS/S704 -->
      <g style="fill: #333333" transform="translate(148.666406 85.91327)scale(0.13 -0.13)">
       <defs>
        <path id="DejaVuSans-51" d="M 2522 4238 
Q 1834 4238 1429 3725 
Q 1025 3213 1025 2328 
Q 1025 1447 1429 934 
Q 1834 422 2522 422 
Q 3209 422 3611 934 
Q 4013 1447 4013 2328 
Q 4013 3213 3611 3725 
Q 3209 4238 2522 4238 
z
M 3406 84 
L 4238 -825 
L 3475 -825 
L 2784 -78 
Q 2681 -84 2626 -87 
Q 2572 -91 2522 -91 
Q 1538 -91 948 567 
Q 359 1225 359 2328 
Q 359 3434 948 4092 
Q 1538 4750 2522 4750 
Q 3503 4750 4090 4092 
Q 4678 3434 4678 2328 
Q 4678 1516 4351 937 
Q 4025 359 3406 84 
z
" transform="scale(0.015625)"/>
        <path id="DejaVuSans-34" d="M 2419 4116 
L 825 1625 
L 2419 1625 
L 2419 4116 
z
M 2253 4666 
L 3047 4666 
L 3047 1625 
L 3713 1625 
L 3713 1100 
L 3047 1100 
L 3047 0 
L 2419 0 
L 2419 1100 
L 313 1100 
L 313 1709 
L 2253 4666 
z
" transform="scale(0.015625)"/>
       </defs>
       <use xlink:href="#DejaVuSans-4e"/>
       <use xlink:href="#DejaVuSans-57" x="74.804688"/>
       <use xlink:href="#DejaVuSans-46" x="173.681641"/>
       <use xlink:href="#DejaVuSans-57" x="231.201172"/>
       <use xlink:href="#DejaVuSans-4d" x="330.078125"/>
       <use xlink:href="#DejaVuSans-44" x="416.357422"/>
       <use xlink:href="#DejaVuSans-2d" x="493.359375"/>
       <use xlink:href="#DejaVuSans-48" x="529.443359"/>
       <use xlink:href="#DejaVuSans-51" x="604.638672"/>
       <use xlink:href="#DejaVuSans-20" x="683.349609"/>
       <use xlink:href="#DejaVuSans-46" x="715.136719"/>
       <use xlink:href="#DejaVuSans-4c" x="772.65625"/>
       <use xlink:href="#DejaVuSans-4f" x="824.744141"/>
       <use xlink:href="#DejaVuSans-52" x="903.455078"/>
       <use xlink:href="#DejaVuSans-49" x="972.9375"/>
       <use xlink:href="#DejaVuSans-44" x="1002.429688"/>
       <use xlink:href="#DejaVuSans-41" x="1077.681641"/>
       <use xlink:href="#DejaVuSans-4e" x="1146.089844"/>
       <use xlink:href="#DejaVuSans-20" x="1220.894531"/>
       <use xlink:href="#DejaVuSans-4f" x="1252.681641"/>
       <use xlink:href="#DejaVuSans-42" x="1331.392578"/>
       <use xlink:href="#DejaVuSans-53" x="1398.246094"/>
       <use xlink:href="#DejaVuSans-2f" x="1461.722656"/>
       <use xlink:href="#DejaVuSans-53" x="1495.414062"/>
       <use xlink:href="#DejaVuSans-37" x="1558.890625"/>
       <use xlink:href="#DejaVuSans-30" x="1622.513672"/>
       <use xlink:href="#DejaVuSans-34" x="1686.136719"/>
      </g>
     </g>
    </g>
    <g id="ytick_19">
     <g id="text_28">
      <!-- NWFWMD-BIKE TRAIL / NITRATE POT. MAP/S795 -->
      <g style="fill: #333333" transform="translate(68.783437 61.321842)scale(0.13 -0.13)">
       <use xlink:href="#DejaVuSans-4e"/>
       <use xlink:href="#DejaVuSans-57" x="74.804688"/>
       <use xlink:href="#DejaVuSans-46" x="173.681641"/>
       <use xlink:href="#DejaVuSans-57" x="231.201172"/>
       <use xlink:href="#DejaVuSans-4d" x="330.078125"/>
       <use xlink:href="#DejaVuSans-44" x="416.357422"/>
       <use xlink:href="#DejaVuSans-2d" x="493.359375"/>
       <use xlink:href="#DejaVuSans-42" x="525.818359"/>
       <use xlink:href="#DejaVuSans-49" x="594.421875"/>
       <use xlink:href="#DejaVuSans-4b" x="623.914062"/>
       <use xlink:href="#DejaVuSans-45" x="689.490234"/>
       <use xlink:href="#DejaVuSans-20" x="752.673828"/>
       <use xlink:href="#DejaVuSans-54" x="784.460938"/>
       <use xlink:href="#DejaVuSans-52" x="845.544922"/>
       <use xlink:href="#DejaVuSans-41" x="911.027344"/>
       <use xlink:href="#DejaVuSans-49" x="979.435547"/>
       <use xlink:href="#DejaVuSans-4c" x="1008.927734"/>
       <use xlink:href="#DejaVuSans-20" x="1064.640625"/>
       <use xlink:href="#DejaVuSans-2f" x="1096.427734"/>
       <use xlink:href="#DejaVuSans-20" x="1130.119141"/>
       <use xlink:href="#DejaVuSans-4e" x="1161.90625"/>
       <use xlink:href="#DejaVuSans-49" x="1236.710938"/>
       <use xlink:href="#DejaVuSans-54" x="1266.203125"/>
       <use xlink:href="#DejaVuSans-52" x="1327.287109"/>
       <use xlink:href="#DejaVuSans-41" x="1392.769531"/>
       <use xlink:href="#DejaVuSans-54" x="1453.427734"/>
       <use xlink:href="#DejaVuSans-45" x="1514.511719"/>
       <use xlink:href="#DejaVuSans-20" x="1577.695312"/>
       <use xlink:href="#DejaVuSans-50" x="1609.482422"/>
       <use xlink:href="#DejaVuSans-4f" x="1669.785156"/>
       <use xlink:href="#DejaVuSans-54" x="1748.496094"/>
       <use xlink:href="#DejaVuSans-2e" x="1797.705078"/>
       <use xlink:href="#DejaVuSans-20" x="1829.492188"/>
       <use xlink:href="#DejaVuSans-4d" x="1861.279297"/>
       <use xlink:href="#DejaVuSans-41" x="1947.558594"/>
       <use xlink:href="#DejaVuSans-50" x="2015.966797"/>
       <use xlink:href="#DejaVuSans-2f" x="2076.269531"/>
       <use xlink:href="#DejaVuSans-53" x="2109.960938"/>
       <use xlink:href="#DejaVuSans-37" x="2173.4375"/>
       <use xlink:href="#DejaVuSans-39" x="2237.060547"/>
       <use xlink:href="#DejaVuSans-35" x="2300.683594"/>
      </g>
     </g>
    </g>
    <g id="ytick_20">
     <g id="text_29">
      <!-- FGS - SULLIVAN SINK #1 -->
      <g style="fill: #333333" transform="translate(216.847344 36.730413)scale(0.13 -0.13)">
       <use xlink:href="#DejaVuSans-46"/>
       <use xlink:href="#DejaVuSans-47" x="57.519531"/>
       <use xlink:href="#DejaVuSans-53" x="135.009766"/>
       <use xlink:href="#DejaVuSans-20" x="198.486328"/>
       <use xlink:href="#DejaVuSans-2d" x="230.273438"/>
       <use xlink:href="#DejaVuSans-20" x="266.357422"/>
       <use xlink:href="#DejaVuSans-53" x="298.144531"/>
       <use xlink:href="#DejaVuSans-55" x="361.621094"/>
       <use xlink:href="#DejaVuSans-4c" x="434.814453"/>
       <use xlink:href="#DejaVuSans-4c" x="490.527344"/>
       <use xlink:href="#DejaVuSans-49" x="546.240234"/>
       <use xlink:href="#DejaVuSans-56" x="575.732422"/>
       <use xlink:href="#DejaVuSans-41" x="637.765625"/>
       <use xlink:href="#DejaVuSans-4e" x="706.173828"/>
       <use xlink:href="#DejaVuSans-20" x="780.978516"/>
       <use xlink:href="#DejaVuSans-53" x="812.765625"/>
       <use xlink:href="#DejaVuSans-49" x="876.242188"/>
       <use xlink:href="#DejaVuSans-4e" x="905.734375"/>
       <use xlink:href="#DejaVuSans-4b" x="980.539062"/>
       <use xlink:href="#DejaVuSans-20" x="1046.115234"/>
       <use xlink:href="#DejaVuSans-23" x="1077.902344"/>
       <use xlink:href="#DejaVuSans-31" x="1161.691406"/>
      </g>
     </g>
    </g>
   </g>
   <g id="patch_23">
    <path d="M 383.142031 523.62 
L 829.542031 523.62 
" style="fill: none; stroke: #000000; stroke-width: 0.8; stroke-linejoin: miter; stroke-linecap: square"/>
   </g>
  </g>
 </g>
 <defs>
  <clipPath id="p8d2d4bd819">
   <rect x="383.142031" y="7.2" width="446.4" height="516.42"/>
  </clipPath>
 </defs>
</svg>
