<?xml version="1.0" encoding="utf-8" standalone="no"?>
<!DOCTYPE svg PUBLIC "-//W3C//DTD SVG 1.1//EN"
  "http://www.w3.org/Graphics/SVG/1.1/DTD/svg11.dtd">
<svg xmlns:xlink="http://www.w3.org/1999/xlink" width="720pt" height="432pt" viewBox="0 0 720 432" xmlns="http://www.w3.org/2000/svg" version="1.1">
 <metadata>
  <rdf:RDF xmlns:dc="http://purl.org/dc/elements/1.1/" xmlns:cc="http://creativecommons.org/ns#" xmlns:rdf="http://www.w3.org/1999/02/22-rdf-syntax-ns#">
   <cc:Work>
    <dc:type rdf:resource="http://purl.org/dc/dcmitype/StillImage"/>
    <dc:date>2022-11-01T15:50:05.386504</dc:date>
    <dc:format>image/svg+xml</dc:format>
    <dc:creator>
     <cc:Agent>
      <dc:title>Matplotlib v3.5.1, https://matplotlib.org/</dc:title>
     </cc:Agent>
    </dc:creator>
   </cc:Work>
  </rdf:RDF>
 </metadata>
 <defs>
  <style type="text/css">*{stroke-linejoin: round; stroke-linecap: butt}</style>
 </defs>
 <g id="figure_1">
  <g id="patch_1">
   <path d="M 0 432 
L 720 432 
L 720 0 
L 0 0 
L 0 432 
z
" style="fill: none"/>
  </g>
  <g id="axes_1">
   <g id="patch_2">
    <path d="M 90 378 
L 648 378 
L 648 51.84 
L 90 51.84 
z
" style="fill: #ffffff"/>
   </g>
   <g id="matplotlib.axis_1">
    <g id="xtick_1">
     <g id="line2d_1">
      <defs>
       <path id="m66579e3cfa" d="M 0 0 
L 0 3.5 
" style="stroke: #000000; stroke-width: 0.8"/>
      </defs>
      <g>
       <use xlink:href="#m66579e3cfa" x="103.373554" y="378" style="stroke: #000000; stroke-width: 0.8"/>
      </g>
     </g>
     <g id="text_1">
      <!-- 2017-01 -->
      <g transform="translate(82.482147 392.598437)scale(0.1 -0.1)">
       <defs>
        <path id="DejaVuSans-32" d="M 1228 531 
L 3431 531 
L 3431 0 
L 469 0 
L 469 531 
Q 828 903 1448 1529 
Q 2069 2156 2228 2338 
Q 2531 2678 2651 2914 
Q 2772 3150 2772 3378 
Q 2772 3750 2511 3984 
Q 2250 4219 1831 4219 
Q 1534 4219 1204 4116 
Q 875 4013 500 3803 
L 500 4441 
Q 881 4594 1212 4672 
Q 1544 4750 1819 4750 
Q 2544 4750 2975 4387 
Q 3406 4025 3406 3419 
Q 3406 3131 3298 2873 
Q 3191 2616 2906 2266 
Q 2828 2175 2409 1742 
Q 1991 1309 1228 531 
z
" transform="scale(0.015625)"/>
        <path id="DejaVuSans-30" d="M 2034 4250 
Q 1547 4250 1301 3770 
Q 1056 3291 1056 2328 
Q 1056 1369 1301 889 
Q 1547 409 2034 409 
Q 2525 409 2770 889 
Q 3016 1369 3016 2328 
Q 3016 3291 2770 3770 
Q 2525 4250 2034 4250 
z
M 2034 4750 
Q 2819 4750 3233 4129 
Q 3647 3509 3647 2328 
Q 3647 1150 3233 529 
Q 2819 -91 2034 -91 
Q 1250 -91 836 529 
Q 422 1150 422 2328 
Q 422 3509 836 4129 
Q 1250 4750 2034 4750 
z
" transform="scale(0.015625)"/>
        <path id="DejaVuSans-31" d="M 794 531 
L 1825 531 
L 1825 4091 
L 703 3866 
L 703 4441 
L 1819 4666 
L 2450 4666 
L 2450 531 
L 3481 531 
L 3481 0 
L 794 0 
L 794 531 
z
" transform="scale(0.015625)"/>
        <path id="DejaVuSans-37" d="M 525 4666 
L 3525 4666 
L 3525 4397 
L 1831 0 
L 1172 0 
L 2766 4134 
L 525 4134 
L 525 4666 
z
" transform="scale(0.015625)"/>
        <path id="DejaVuSans-2d" d="M 313 2009 
L 1997 2009 
L 1997 1497 
L 313 1497 
L 313 2009 
z
" transform="scale(0.015625)"/>
       </defs>
       <use xlink:href="#DejaVuSans-32"/>
       <use xlink:href="#DejaVuSans-30" x="63.623047"/>
       <use xlink:href="#DejaVuSans-31" x="127.246094"/>
       <use xlink:href="#DejaVuSans-37" x="190.869141"/>
       <use xlink:href="#DejaVuSans-2d" x="254.492188"/>
       <use xlink:href="#DejaVuSans-30" x="290.576172"/>
       <use xlink:href="#DejaVuSans-31" x="354.199219"/>
      </g>
     </g>
    </g>
    <g id="xtick_2">
     <g id="line2d_2">
      <g>
       <use xlink:href="#m66579e3cfa" x="158.712397" y="378" style="stroke: #000000; stroke-width: 0.8"/>
      </g>
     </g>
     <g id="text_2">
      <!-- 2017-05 -->
      <g transform="translate(137.82099 392.598437)scale(0.1 -0.1)">
       <defs>
        <path id="DejaVuSans-35" d="M 691 4666 
L 3169 4666 
L 3169 4134 
L 1269 4134 
L 1269 2991 
Q 1406 3038 1543 3061 
Q 1681 3084 1819 3084 
Q 2600 3084 3056 2656 
Q 3513 2228 3513 1497 
Q 3513 744 3044 326 
Q 2575 -91 1722 -91 
Q 1428 -91 1123 -41 
Q 819 9 494 109 
L 494 744 
Q 775 591 1075 516 
Q 1375 441 1709 441 
Q 2250 441 2565 725 
Q 2881 1009 2881 1497 
Q 2881 1984 2565 2268 
Q 2250 2553 1709 2553 
Q 1456 2553 1204 2497 
Q 953 2441 691 2322 
L 691 4666 
z
" transform="scale(0.015625)"/>
       </defs>
       <use xlink:href="#DejaVuSans-32"/>
       <use xlink:href="#DejaVuSans-30" x="63.623047"/>
       <use xlink:href="#DejaVuSans-31" x="127.246094"/>
       <use xlink:href="#DejaVuSans-37" x="190.869141"/>
       <use xlink:href="#DejaVuSans-2d" x="254.492188"/>
       <use xlink:href="#DejaVuSans-30" x="290.576172"/>
       <use xlink:href="#DejaVuSans-35" x="354.199219"/>
      </g>
     </g>
    </g>
    <g id="xtick_3">
     <g id="line2d_3">
      <g>
       <use xlink:href="#m66579e3cfa" x="215.434711" y="378" style="stroke: #000000; stroke-width: 0.8"/>
      </g>
     </g>
     <g id="text_3">
      <!-- 2017-09 -->
      <g transform="translate(194.543304 392.598437)scale(0.1 -0.1)">
       <defs>
        <path id="DejaVuSans-39" d="M 703 97 
L 703 672 
Q 941 559 1184 500 
Q 1428 441 1663 441 
Q 2288 441 2617 861 
Q 2947 1281 2994 2138 
Q 2813 1869 2534 1725 
Q 2256 1581 1919 1581 
Q 1219 1581 811 2004 
Q 403 2428 403 3163 
Q 403 3881 828 4315 
Q 1253 4750 1959 4750 
Q 2769 4750 3195 4129 
Q 3622 3509 3622 2328 
Q 3622 1225 3098 567 
Q 2575 -91 1691 -91 
Q 1453 -91 1209 -44 
Q 966 3 703 97 
z
M 1959 2075 
Q 2384 2075 2632 2365 
Q 2881 2656 2881 3163 
Q 2881 3666 2632 3958 
Q 2384 4250 1959 4250 
Q 1534 4250 1286 3958 
Q 1038 3666 1038 3163 
Q 1038 2656 1286 2365 
Q 1534 2075 1959 2075 
z
" transform="scale(0.015625)"/>
       </defs>
       <use xlink:href="#DejaVuSans-32"/>
       <use xlink:href="#DejaVuSans-30" x="63.623047"/>
       <use xlink:href="#DejaVuSans-31" x="127.246094"/>
       <use xlink:href="#DejaVuSans-37" x="190.869141"/>
       <use xlink:href="#DejaVuSans-2d" x="254.492188"/>
       <use xlink:href="#DejaVuSans-30" x="290.576172"/>
       <use xlink:href="#DejaVuSans-39" x="354.199219"/>
      </g>
     </g>
    </g>
    <g id="xtick_4">
     <g id="line2d_4">
      <g>
       <use xlink:href="#m66579e3cfa" x="271.695868" y="378" style="stroke: #000000; stroke-width: 0.8"/>
      </g>
     </g>
     <g id="text_4">
      <!-- 2018-01 -->
      <g transform="translate(250.804462 392.598437)scale(0.1 -0.1)">
       <defs>
        <path id="DejaVuSans-38" d="M 2034 2216 
Q 1584 2216 1326 1975 
Q 1069 1734 1069 1313 
Q 1069 891 1326 650 
Q 1584 409 2034 409 
Q 2484 409 2743 651 
Q 3003 894 3003 1313 
Q 3003 1734 2745 1975 
Q 2488 2216 2034 2216 
z
M 1403 2484 
Q 997 2584 770 2862 
Q 544 3141 544 3541 
Q 544 4100 942 4425 
Q 1341 4750 2034 4750 
Q 2731 4750 3128 4425 
Q 3525 4100 3525 3541 
Q 3525 3141 3298 2862 
Q 3072 2584 2669 2484 
Q 3125 2378 3379 2068 
Q 3634 1759 3634 1313 
Q 3634 634 3220 271 
Q 2806 -91 2034 -91 
Q 1263 -91 848 271 
Q 434 634 434 1313 
Q 434 1759 690 2068 
Q 947 2378 1403 2484 
z
M 1172 3481 
Q 1172 3119 1398 2916 
Q 1625 2713 2034 2713 
Q 2441 2713 2670 2916 
Q 2900 3119 2900 3481 
Q 2900 3844 2670 4047 
Q 2441 4250 2034 4250 
Q 1625 4250 1398 4047 
Q 1172 3844 1172 3481 
z
" transform="scale(0.015625)"/>
       </defs>
       <use xlink:href="#DejaVuSans-32"/>
       <use xlink:href="#DejaVuSans-30" x="63.623047"/>
       <use xlink:href="#DejaVuSans-31" x="127.246094"/>
       <use xlink:href="#DejaVuSans-38" x="190.869141"/>
       <use xlink:href="#DejaVuSans-2d" x="254.492188"/>
       <use xlink:href="#DejaVuSans-30" x="290.576172"/>
       <use xlink:href="#DejaVuSans-31" x="354.199219"/>
      </g>
     </g>
    </g>
    <g id="xtick_5">
     <g id="line2d_5">
      <g>
       <use xlink:href="#m66579e3cfa" x="327.034711" y="378" style="stroke: #000000; stroke-width: 0.8"/>
      </g>
     </g>
     <g id="text_5">
      <!-- 2018-05 -->
      <g transform="translate(306.143304 392.598437)scale(0.1 -0.1)">
       <use xlink:href="#DejaVuSans-32"/>
       <use xlink:href="#DejaVuSans-30" x="63.623047"/>
       <use xlink:href="#DejaVuSans-31" x="127.246094"/>
       <use xlink:href="#DejaVuSans-38" x="190.869141"/>
       <use xlink:href="#DejaVuSans-2d" x="254.492188"/>
       <use xlink:href="#DejaVuSans-30" x="290.576172"/>
       <use xlink:href="#DejaVuSans-35" x="354.199219"/>
      </g>
     </g>
    </g>
    <g id="xtick_6">
     <g id="line2d_6">
      <g>
       <use xlink:href="#m66579e3cfa" x="383.757025" y="378" style="stroke: #000000; stroke-width: 0.8"/>
      </g>
     </g>
     <g id="text_6">
      <!-- 2018-09 -->
      <g transform="translate(362.865619 392.598437)scale(0.1 -0.1)">
       <use xlink:href="#DejaVuSans-32"/>
       <use xlink:href="#DejaVuSans-30" x="63.623047"/>
       <use xlink:href="#DejaVuSans-31" x="127.246094"/>
       <use xlink:href="#DejaVuSans-38" x="190.869141"/>
       <use xlink:href="#DejaVuSans-2d" x="254.492188"/>
       <use xlink:href="#DejaVuSans-30" x="290.576172"/>
       <use xlink:href="#DejaVuSans-39" x="354.199219"/>
      </g>
     </g>
    </g>
    <g id="xtick_7">
     <g id="line2d_7">
      <g>
       <use xlink:href="#m66579e3cfa" x="440.018182" y="378" style="stroke: #000000; stroke-width: 0.8"/>
      </g>
     </g>
     <g id="text_7">
      <!-- 2019-01 -->
      <g transform="translate(419.126776 392.598437)scale(0.1 -0.1)">
       <use xlink:href="#DejaVuSans-32"/>
       <use xlink:href="#DejaVuSans-30" x="63.623047"/>
       <use xlink:href="#DejaVuSans-31" x="127.246094"/>
       <use xlink:href="#DejaVuSans-39" x="190.869141"/>
       <use xlink:href="#DejaVuSans-2d" x="254.492188"/>
       <use xlink:href="#DejaVuSans-30" x="290.576172"/>
       <use xlink:href="#DejaVuSans-31" x="354.199219"/>
      </g>
     </g>
    </g>
    <g id="xtick_8">
     <g id="line2d_8">
      <g>
       <use xlink:href="#m66579e3cfa" x="495.357025" y="378" style="stroke: #000000; stroke-width: 0.8"/>
      </g>
     </g>
     <g id="text_8">
      <!-- 2019-05 -->
      <g transform="translate(474.465619 392.598437)scale(0.1 -0.1)">
       <use xlink:href="#DejaVuSans-32"/>
       <use xlink:href="#DejaVuSans-30" x="63.623047"/>
       <use xlink:href="#DejaVuSans-31" x="127.246094"/>
       <use xlink:href="#DejaVuSans-39" x="190.869141"/>
       <use xlink:href="#DejaVuSans-2d" x="254.492188"/>
       <use xlink:href="#DejaVuSans-30" x="290.576172"/>
       <use xlink:href="#DejaVuSans-35" x="354.199219"/>
      </g>
     </g>
    </g>
    <g id="xtick_9">
     <g id="line2d_9">
      <g>
       <use xlink:href="#m66579e3cfa" x="552.079339" y="378" style="stroke: #000000; stroke-width: 0.8"/>
      </g>
     </g>
     <g id="text_9">
      <!-- 2019-09 -->
      <g transform="translate(531.187933 392.598437)scale(0.1 -0.1)">
       <use xlink:href="#DejaVuSans-32"/>
       <use xlink:href="#DejaVuSans-30" x="63.623047"/>
       <use xlink:href="#DejaVuSans-31" x="127.246094"/>
       <use xlink:href="#DejaVuSans-39" x="190.869141"/>
       <use xlink:href="#DejaVuSans-2d" x="254.492188"/>
       <use xlink:href="#DejaVuSans-30" x="290.576172"/>
       <use xlink:href="#DejaVuSans-39" x="354.199219"/>
      </g>
     </g>
    </g>
    <g id="xtick_10">
     <g id="line2d_10">
      <g>
       <use xlink:href="#m66579e3cfa" x="608.340496" y="378" style="stroke: #000000; stroke-width: 0.8"/>
      </g>
     </g>
     <g id="text_10">
      <!-- 2020-01 -->
      <g transform="translate(587.44909 392.598437)scale(0.1 -0.1)">
       <use xlink:href="#DejaVuSans-32"/>
       <use xlink:href="#DejaVuSans-30" x="63.623047"/>
       <use xlink:href="#DejaVuSans-32" x="127.246094"/>
       <use xlink:href="#DejaVuSans-30" x="190.869141"/>
       <use xlink:href="#DejaVuSans-2d" x="254.492188"/>
       <use xlink:href="#DejaVuSans-30" x="290.576172"/>
       <use xlink:href="#DejaVuSans-31" x="354.199219"/>
      </g>
     </g>
    </g>
    <g id="text_11">
     <!-- Date [Year-Month] -->
     <g transform="translate(323.814844 406.276563)scale(0.1 -0.1)">
      <defs>
       <path id="DejaVuSans-44" d="M 1259 4147 
L 1259 519 
L 2022 519 
Q 2988 519 3436 956 
Q 3884 1394 3884 2338 
Q 3884 3275 3436 3711 
Q 2988 4147 2022 4147 
L 1259 4147 
z
M 628 4666 
L 1925 4666 
Q 3281 4666 3915 4102 
Q 4550 3538 4550 2338 
Q 4550 1131 3912 565 
Q 3275 0 1925 0 
L 628 0 
L 628 4666 
z
" transform="scale(0.015625)"/>
       <path id="DejaVuSans-61" d="M 2194 1759 
Q 1497 1759 1228 1600 
Q 959 1441 959 1056 
Q 959 750 1161 570 
Q 1363 391 1709 391 
Q 2188 391 2477 730 
Q 2766 1069 2766 1631 
L 2766 1759 
L 2194 1759 
z
M 3341 1997 
L 3341 0 
L 2766 0 
L 2766 531 
Q 2569 213 2275 61 
Q 1981 -91 1556 -91 
Q 1019 -91 701 211 
Q 384 513 384 1019 
Q 384 1609 779 1909 
Q 1175 2209 1959 2209 
L 2766 2209 
L 2766 2266 
Q 2766 2663 2505 2880 
Q 2244 3097 1772 3097 
Q 1472 3097 1187 3025 
Q 903 2953 641 2809 
L 641 3341 
Q 956 3463 1253 3523 
Q 1550 3584 1831 3584 
Q 2591 3584 2966 3190 
Q 3341 2797 3341 1997 
z
" transform="scale(0.015625)"/>
       <path id="DejaVuSans-74" d="M 1172 4494 
L 1172 3500 
L 2356 3500 
L 2356 3053 
L 1172 3053 
L 1172 1153 
Q 1172 725 1289 603 
Q 1406 481 1766 481 
L 2356 481 
L 2356 0 
L 1766 0 
Q 1100 0 847 248 
Q 594 497 594 1153 
L 594 3053 
L 172 3053 
L 172 3500 
L 594 3500 
L 594 4494 
L 1172 4494 
z
" transform="scale(0.015625)"/>
       <path id="DejaVuSans-65" d="M 3597 1894 
L 3597 1613 
L 953 1613 
Q 991 1019 1311 708 
Q 1631 397 2203 397 
Q 2534 397 2845 478 
Q 3156 559 3463 722 
L 3463 178 
Q 3153 47 2828 -22 
Q 2503 -91 2169 -91 
Q 1331 -91 842 396 
Q 353 884 353 1716 
Q 353 2575 817 3079 
Q 1281 3584 2069 3584 
Q 2775 3584 3186 3129 
Q 3597 2675 3597 1894 
z
M 3022 2063 
Q 3016 2534 2758 2815 
Q 2500 3097 2075 3097 
Q 1594 3097 1305 2825 
Q 1016 2553 972 2059 
L 3022 2063 
z
" transform="scale(0.015625)"/>
       <path id="DejaVuSans-20" transform="scale(0.015625)"/>
       <path id="DejaVuSans-5b" d="M 550 4863 
L 1875 4863 
L 1875 4416 
L 1125 4416 
L 1125 -397 
L 1875 -397 
L 1875 -844 
L 550 -844 
L 550 4863 
z
" transform="scale(0.015625)"/>
       <path id="DejaVuSans-59" d="M -13 4666 
L 666 4666 
L 1959 2747 
L 3244 4666 
L 3922 4666 
L 2272 2222 
L 2272 0 
L 1638 0 
L 1638 2222 
L -13 4666 
z
" transform="scale(0.015625)"/>
       <path id="DejaVuSans-72" d="M 2631 2963 
Q 2534 3019 2420 3045 
Q 2306 3072 2169 3072 
Q 1681 3072 1420 2755 
Q 1159 2438 1159 1844 
L 1159 0 
L 581 0 
L 581 3500 
L 1159 3500 
L 1159 2956 
Q 1341 3275 1631 3429 
Q 1922 3584 2338 3584 
Q 2397 3584 2469 3576 
Q 2541 3569 2628 3553 
L 2631 2963 
z
" transform="scale(0.015625)"/>
       <path id="DejaVuSans-4d" d="M 628 4666 
L 1569 4666 
L 2759 1491 
L 3956 4666 
L 4897 4666 
L 4897 0 
L 4281 0 
L 4281 4097 
L 3078 897 
L 2444 897 
L 1241 4097 
L 1241 0 
L 628 0 
L 628 4666 
z
" transform="scale(0.015625)"/>
       <path id="DejaVuSans-6f" d="M 1959 3097 
Q 1497 3097 1228 2736 
Q 959 2375 959 1747 
Q 959 1119 1226 758 
Q 1494 397 1959 397 
Q 2419 397 2687 759 
Q 2956 1122 2956 1747 
Q 2956 2369 2687 2733 
Q 2419 3097 1959 3097 
z
M 1959 3584 
Q 2709 3584 3137 3096 
Q 3566 2609 3566 1747 
Q 3566 888 3137 398 
Q 2709 -91 1959 -91 
Q 1206 -91 779 398 
Q 353 888 353 1747 
Q 353 2609 779 3096 
Q 1206 3584 1959 3584 
z
" transform="scale(0.015625)"/>
       <path id="DejaVuSans-6e" d="M 3513 2113 
L 3513 0 
L 2938 0 
L 2938 2094 
Q 2938 2591 2744 2837 
Q 2550 3084 2163 3084 
Q 1697 3084 1428 2787 
Q 1159 2491 1159 1978 
L 1159 0 
L 581 0 
L 581 3500 
L 1159 3500 
L 1159 2956 
Q 1366 3272 1645 3428 
Q 1925 3584 2291 3584 
Q 2894 3584 3203 3211 
Q 3513 2838 3513 2113 
z
" transform="scale(0.015625)"/>
       <path id="DejaVuSans-68" d="M 3513 2113 
L 3513 0 
L 2938 0 
L 2938 2094 
Q 2938 2591 2744 2837 
Q 2550 3084 2163 3084 
Q 1697 3084 1428 2787 
Q 1159 2491 1159 1978 
L 1159 0 
L 581 0 
L 581 4863 
L 1159 4863 
L 1159 2956 
Q 1366 3272 1645 3428 
Q 1925 3584 2291 3584 
Q 2894 3584 3203 3211 
Q 3513 2838 3513 2113 
z
" transform="scale(0.015625)"/>
       <path id="DejaVuSans-5d" d="M 1947 4863 
L 1947 -844 
L 622 -844 
L 622 -397 
L 1369 -397 
L 1369 4416 
L 622 4416 
L 622 4863 
L 1947 4863 
z
" transform="scale(0.015625)"/>
      </defs>
      <use xlink:href="#DejaVuSans-44"/>
      <use xlink:href="#DejaVuSans-61" x="77.001953"/>
      <use xlink:href="#DejaVuSans-74" x="138.28125"/>
      <use xlink:href="#DejaVuSans-65" x="177.490234"/>
      <use xlink:href="#DejaVuSans-20" x="239.013672"/>
      <use xlink:href="#DejaVuSans-5b" x="270.800781"/>
      <use xlink:href="#DejaVuSans-59" x="309.814453"/>
      <use xlink:href="#DejaVuSans-65" x="357.648438"/>
      <use xlink:href="#DejaVuSans-61" x="419.171875"/>
      <use xlink:href="#DejaVuSans-72" x="480.451172"/>
      <use xlink:href="#DejaVuSans-2d" x="515.189453"/>
      <use xlink:href="#DejaVuSans-4d" x="551.273438"/>
      <use xlink:href="#DejaVuSans-6f" x="637.552734"/>
      <use xlink:href="#DejaVuSans-6e" x="698.734375"/>
      <use xlink:href="#DejaVuSans-74" x="762.113281"/>
      <use xlink:href="#DejaVuSans-68" x="801.322266"/>
      <use xlink:href="#DejaVuSans-5d" x="864.701172"/>
     </g>
    </g>
   </g>
   <g id="matplotlib.axis_2">
    <g id="ytick_1">
     <g id="line2d_11">
      <defs>
       <path id="m8e729dae4b" d="M 0 0 
L -3.5 0 
" style="stroke: #000000; stroke-width: 0.8"/>
      </defs>
      <g>
       <use xlink:href="#m8e729dae4b" x="90" y="374.309183" style="stroke: #000000; stroke-width: 0.8"/>
      </g>
     </g>
     <g id="text_12">
      <!-- 200 -->
      <g transform="translate(63.9125 378.108402)scale(0.1 -0.1)">
       <use xlink:href="#DejaVuSans-32"/>
       <use xlink:href="#DejaVuSans-30" x="63.623047"/>
       <use xlink:href="#DejaVuSans-30" x="127.246094"/>
      </g>
     </g>
    </g>
    <g id="ytick_2">
     <g id="line2d_12">
      <g>
       <use xlink:href="#m8e729dae4b" x="90" y="330.418861" style="stroke: #000000; stroke-width: 0.8"/>
      </g>
     </g>
     <g id="text_13">
      <!-- 300 -->
      <g transform="translate(63.9125 334.21808)scale(0.1 -0.1)">
       <defs>
        <path id="DejaVuSans-33" d="M 2597 2516 
Q 3050 2419 3304 2112 
Q 3559 1806 3559 1356 
Q 3559 666 3084 287 
Q 2609 -91 1734 -91 
Q 1441 -91 1130 -33 
Q 819 25 488 141 
L 488 750 
Q 750 597 1062 519 
Q 1375 441 1716 441 
Q 2309 441 2620 675 
Q 2931 909 2931 1356 
Q 2931 1769 2642 2001 
Q 2353 2234 1838 2234 
L 1294 2234 
L 1294 2753 
L 1863 2753 
Q 2328 2753 2575 2939 
Q 2822 3125 2822 3475 
Q 2822 3834 2567 4026 
Q 2313 4219 1838 4219 
Q 1578 4219 1281 4162 
Q 984 4106 628 3988 
L 628 4550 
Q 988 4650 1302 4700 
Q 1616 4750 1894 4750 
Q 2613 4750 3031 4423 
Q 3450 4097 3450 3541 
Q 3450 3153 3228 2886 
Q 3006 2619 2597 2516 
z
" transform="scale(0.015625)"/>
       </defs>
       <use xlink:href="#DejaVuSans-33"/>
       <use xlink:href="#DejaVuSans-30" x="63.623047"/>
       <use xlink:href="#DejaVuSans-30" x="127.246094"/>
      </g>
     </g>
    </g>
    <g id="ytick_3">
     <g id="line2d_13">
      <g>
       <use xlink:href="#m8e729dae4b" x="90" y="286.528538" style="stroke: #000000; stroke-width: 0.8"/>
      </g>
     </g>
     <g id="text_14">
      <!-- 400 -->
      <g transform="translate(63.9125 290.327757)scale(0.1 -0.1)">
       <defs>
        <path id="DejaVuSans-34" d="M 2419 4116 
L 825 1625 
L 2419 1625 
L 2419 4116 
z
M 2253 4666 
L 3047 4666 
L 3047 1625 
L 3713 1625 
L 3713 1100 
L 3047 1100 
L 3047 0 
L 2419 0 
L 2419 1100 
L 313 1100 
L 313 1709 
L 2253 4666 
z
" transform="scale(0.015625)"/>
       </defs>
       <use xlink:href="#DejaVuSans-34"/>
       <use xlink:href="#DejaVuSans-30" x="63.623047"/>
       <use xlink:href="#DejaVuSans-30" x="127.246094"/>
      </g>
     </g>
    </g>
    <g id="ytick_4">
     <g id="line2d_14">
      <g>
       <use xlink:href="#m8e729dae4b" x="90" y="242.638216" style="stroke: #000000; stroke-width: 0.8"/>
      </g>
     </g>
     <g id="text_15">
      <!-- 500 -->
      <g transform="translate(63.9125 246.437435)scale(0.1 -0.1)">
       <use xlink:href="#DejaVuSans-35"/>
       <use xlink:href="#DejaVuSans-30" x="63.623047"/>
       <use xlink:href="#DejaVuSans-30" x="127.246094"/>
      </g>
     </g>
    </g>
    <g id="ytick_5">
     <g id="line2d_15">
      <g>
       <use xlink:href="#m8e729dae4b" x="90" y="198.747894" style="stroke: #000000; stroke-width: 0.8"/>
      </g>
     </g>
     <g id="text_16">
      <!-- 600 -->
      <g transform="translate(63.9125 202.547112)scale(0.1 -0.1)">
       <defs>
        <path id="DejaVuSans-36" d="M 2113 2584 
Q 1688 2584 1439 2293 
Q 1191 2003 1191 1497 
Q 1191 994 1439 701 
Q 1688 409 2113 409 
Q 2538 409 2786 701 
Q 3034 994 3034 1497 
Q 3034 2003 2786 2293 
Q 2538 2584 2113 2584 
z
M 3366 4563 
L 3366 3988 
Q 3128 4100 2886 4159 
Q 2644 4219 2406 4219 
Q 1781 4219 1451 3797 
Q 1122 3375 1075 2522 
Q 1259 2794 1537 2939 
Q 1816 3084 2150 3084 
Q 2853 3084 3261 2657 
Q 3669 2231 3669 1497 
Q 3669 778 3244 343 
Q 2819 -91 2113 -91 
Q 1303 -91 875 529 
Q 447 1150 447 2328 
Q 447 3434 972 4092 
Q 1497 4750 2381 4750 
Q 2619 4750 2861 4703 
Q 3103 4656 3366 4563 
z
" transform="scale(0.015625)"/>
       </defs>
       <use xlink:href="#DejaVuSans-36"/>
       <use xlink:href="#DejaVuSans-30" x="63.623047"/>
       <use xlink:href="#DejaVuSans-30" x="127.246094"/>
      </g>
     </g>
    </g>
    <g id="ytick_6">
     <g id="line2d_16">
      <g>
       <use xlink:href="#m8e729dae4b" x="90" y="154.857571" style="stroke: #000000; stroke-width: 0.8"/>
      </g>
     </g>
     <g id="text_17">
      <!-- 700 -->
      <g transform="translate(63.9125 158.65679)scale(0.1 -0.1)">
       <use xlink:href="#DejaVuSans-37"/>
       <use xlink:href="#DejaVuSans-30" x="63.623047"/>
       <use xlink:href="#DejaVuSans-30" x="127.246094"/>
      </g>
     </g>
    </g>
    <g id="ytick_7">
     <g id="line2d_17">
      <g>
       <use xlink:href="#m8e729dae4b" x="90" y="110.967249" style="stroke: #000000; stroke-width: 0.8"/>
      </g>
     </g>
     <g id="text_18">
      <!-- 800 -->
      <g transform="translate(63.9125 114.766467)scale(0.1 -0.1)">
       <use xlink:href="#DejaVuSans-38"/>
       <use xlink:href="#DejaVuSans-30" x="63.623047"/>
       <use xlink:href="#DejaVuSans-30" x="127.246094"/>
      </g>
     </g>
    </g>
    <g id="ytick_8">
     <g id="line2d_18">
      <g>
       <use xlink:href="#m8e729dae4b" x="90" y="67.076926" style="stroke: #000000; stroke-width: 0.8"/>
      </g>
     </g>
     <g id="text_19">
      <!-- 900 -->
      <g transform="translate(63.9125 70.876145)scale(0.1 -0.1)">
       <use xlink:href="#DejaVuSans-39"/>
       <use xlink:href="#DejaVuSans-30" x="63.623047"/>
       <use xlink:href="#DejaVuSans-30" x="127.246094"/>
      </g>
     </g>
    </g>
    <g id="text_20">
     <!-- Spring SC [uS/cm] -->
     <g transform="translate(57.832812 260.448125)rotate(-90)scale(0.1 -0.1)">
      <defs>
       <path id="DejaVuSans-53" d="M 3425 4513 
L 3425 3897 
Q 3066 4069 2747 4153 
Q 2428 4238 2131 4238 
Q 1616 4238 1336 4038 
Q 1056 3838 1056 3469 
Q 1056 3159 1242 3001 
Q 1428 2844 1947 2747 
L 2328 2669 
Q 3034 2534 3370 2195 
Q 3706 1856 3706 1288 
Q 3706 609 3251 259 
Q 2797 -91 1919 -91 
Q 1588 -91 1214 -16 
Q 841 59 441 206 
L 441 856 
Q 825 641 1194 531 
Q 1563 422 1919 422 
Q 2459 422 2753 634 
Q 3047 847 3047 1241 
Q 3047 1584 2836 1778 
Q 2625 1972 2144 2069 
L 1759 2144 
Q 1053 2284 737 2584 
Q 422 2884 422 3419 
Q 422 4038 858 4394 
Q 1294 4750 2059 4750 
Q 2388 4750 2728 4690 
Q 3069 4631 3425 4513 
z
" transform="scale(0.015625)"/>
       <path id="DejaVuSans-70" d="M 1159 525 
L 1159 -1331 
L 581 -1331 
L 581 3500 
L 1159 3500 
L 1159 2969 
Q 1341 3281 1617 3432 
Q 1894 3584 2278 3584 
Q 2916 3584 3314 3078 
Q 3713 2572 3713 1747 
Q 3713 922 3314 415 
Q 2916 -91 2278 -91 
Q 1894 -91 1617 61 
Q 1341 213 1159 525 
z
M 3116 1747 
Q 3116 2381 2855 2742 
Q 2594 3103 2138 3103 
Q 1681 3103 1420 2742 
Q 1159 2381 1159 1747 
Q 1159 1113 1420 752 
Q 1681 391 2138 391 
Q 2594 391 2855 752 
Q 3116 1113 3116 1747 
z
" transform="scale(0.015625)"/>
       <path id="DejaVuSans-69" d="M 603 3500 
L 1178 3500 
L 1178 0 
L 603 0 
L 603 3500 
z
M 603 4863 
L 1178 4863 
L 1178 4134 
L 603 4134 
L 603 4863 
z
" transform="scale(0.015625)"/>
       <path id="DejaVuSans-67" d="M 2906 1791 
Q 2906 2416 2648 2759 
Q 2391 3103 1925 3103 
Q 1463 3103 1205 2759 
Q 947 2416 947 1791 
Q 947 1169 1205 825 
Q 1463 481 1925 481 
Q 2391 481 2648 825 
Q 2906 1169 2906 1791 
z
M 3481 434 
Q 3481 -459 3084 -895 
Q 2688 -1331 1869 -1331 
Q 1566 -1331 1297 -1286 
Q 1028 -1241 775 -1147 
L 775 -588 
Q 1028 -725 1275 -790 
Q 1522 -856 1778 -856 
Q 2344 -856 2625 -561 
Q 2906 -266 2906 331 
L 2906 616 
Q 2728 306 2450 153 
Q 2172 0 1784 0 
Q 1141 0 747 490 
Q 353 981 353 1791 
Q 353 2603 747 3093 
Q 1141 3584 1784 3584 
Q 2172 3584 2450 3431 
Q 2728 3278 2906 2969 
L 2906 3500 
L 3481 3500 
L 3481 434 
z
" transform="scale(0.015625)"/>
       <path id="DejaVuSans-43" d="M 4122 4306 
L 4122 3641 
Q 3803 3938 3442 4084 
Q 3081 4231 2675 4231 
Q 1875 4231 1450 3742 
Q 1025 3253 1025 2328 
Q 1025 1406 1450 917 
Q 1875 428 2675 428 
Q 3081 428 3442 575 
Q 3803 722 4122 1019 
L 4122 359 
Q 3791 134 3420 21 
Q 3050 -91 2638 -91 
Q 1578 -91 968 557 
Q 359 1206 359 2328 
Q 359 3453 968 4101 
Q 1578 4750 2638 4750 
Q 3056 4750 3426 4639 
Q 3797 4528 4122 4306 
z
" transform="scale(0.015625)"/>
       <path id="DejaVuSans-75" d="M 544 1381 
L 544 3500 
L 1119 3500 
L 1119 1403 
Q 1119 906 1312 657 
Q 1506 409 1894 409 
Q 2359 409 2629 706 
Q 2900 1003 2900 1516 
L 2900 3500 
L 3475 3500 
L 3475 0 
L 2900 0 
L 2900 538 
Q 2691 219 2414 64 
Q 2138 -91 1772 -91 
Q 1169 -91 856 284 
Q 544 659 544 1381 
z
M 1991 3584 
L 1991 3584 
z
" transform="scale(0.015625)"/>
       <path id="DejaVuSans-2f" d="M 1625 4666 
L 2156 4666 
L 531 -594 
L 0 -594 
L 1625 4666 
z
" transform="scale(0.015625)"/>
       <path id="DejaVuSans-63" d="M 3122 3366 
L 3122 2828 
Q 2878 2963 2633 3030 
Q 2388 3097 2138 3097 
Q 1578 3097 1268 2742 
Q 959 2388 959 1747 
Q 959 1106 1268 751 
Q 1578 397 2138 397 
Q 2388 397 2633 464 
Q 2878 531 3122 666 
L 3122 134 
Q 2881 22 2623 -34 
Q 2366 -91 2075 -91 
Q 1284 -91 818 406 
Q 353 903 353 1747 
Q 353 2603 823 3093 
Q 1294 3584 2113 3584 
Q 2378 3584 2631 3529 
Q 2884 3475 3122 3366 
z
" transform="scale(0.015625)"/>
       <path id="DejaVuSans-6d" d="M 3328 2828 
Q 3544 3216 3844 3400 
Q 4144 3584 4550 3584 
Q 5097 3584 5394 3201 
Q 5691 2819 5691 2113 
L 5691 0 
L 5113 0 
L 5113 2094 
Q 5113 2597 4934 2840 
Q 4756 3084 4391 3084 
Q 3944 3084 3684 2787 
Q 3425 2491 3425 1978 
L 3425 0 
L 2847 0 
L 2847 2094 
Q 2847 2600 2669 2842 
Q 2491 3084 2119 3084 
Q 1678 3084 1418 2786 
Q 1159 2488 1159 1978 
L 1159 0 
L 581 0 
L 581 3500 
L 1159 3500 
L 1159 2956 
Q 1356 3278 1631 3431 
Q 1906 3584 2284 3584 
Q 2666 3584 2933 3390 
Q 3200 3197 3328 2828 
z
" transform="scale(0.015625)"/>
      </defs>
      <use xlink:href="#DejaVuSans-53"/>
      <use xlink:href="#DejaVuSans-70" x="63.476562"/>
      <use xlink:href="#DejaVuSans-72" x="126.953125"/>
      <use xlink:href="#DejaVuSans-69" x="168.066406"/>
      <use xlink:href="#DejaVuSans-6e" x="195.849609"/>
      <use xlink:href="#DejaVuSans-67" x="259.228516"/>
      <use xlink:href="#DejaVuSans-20" x="322.705078"/>
      <use xlink:href="#DejaVuSans-53" x="354.492188"/>
      <use xlink:href="#DejaVuSans-43" x="417.96875"/>
      <use xlink:href="#DejaVuSans-20" x="487.792969"/>
      <use xlink:href="#DejaVuSans-5b" x="519.580078"/>
      <use xlink:href="#DejaVuSans-75" x="558.59375"/>
      <use xlink:href="#DejaVuSans-53" x="621.972656"/>
      <use xlink:href="#DejaVuSans-2f" x="685.449219"/>
      <use xlink:href="#DejaVuSans-63" x="719.140625"/>
      <use xlink:href="#DejaVuSans-6d" x="774.121094"/>
      <use xlink:href="#DejaVuSans-5d" x="871.533203"/>
     </g>
    </g>
   </g>
   <g id="line2d_19">
    <path d="M 470.454545 378 
L 470.454545 51.84 
" clip-path="url(#p8741bb9b81)" style="fill: none; stroke-dasharray: 5.55,2.4; stroke-dashoffset: 0; stroke: #ff0000; stroke-width: 1.5"/>
   </g>
   <g id="line2d_20">
    <path d="M 115.363636 321.516591 
L 115.824793 302.519454 
L 116.28595 309.565011 
L 116.747107 337.570634 
L 117.208264 335.841033 
L 117.669421 324.45761 
L 118.130579 329.575853 
L 118.591736 330.540266 
L 119.052893 362.510927 
L 119.975207 318.904482 
L 120.436364 337.67022 
L 120.897521 318.933414 
L 121.358678 321.139851 
L 121.819835 332.069155 
L 122.280992 334.364891 
L 122.742149 314.079239 
L 123.203306 333.350544 
L 123.664463 338.907181 
L 124.12562 327.593917 
L 124.586777 312.008231 
L 125.047934 337.393843 
L 125.509091 333.829911 
L 125.970248 339.412519 
L 126.431405 324.944826 
L 126.892562 325.892015 
L 127.353719 340.633768 
L 128.276033 315.443847 
L 129.198347 339.877876 
L 129.659504 340.949337 
L 130.120661 313.344524 
L 130.581818 331.531254 
L 131.042975 357.914511 
L 131.504132 320.811638 
L 131.965289 330.184528 
L 132.426446 342.039751 
L 132.887603 344.660633 
L 133.34876 336.339969 
L 133.809917 324.947237 
L 134.271074 321.350275 
L 134.732231 335.6932 
L 135.193388 330.866042 
L 136.115702 342.403833 
L 136.57686 329.976997 
L 137.038017 336.468594 
L 137.499174 334.819064 
L 137.960331 327.189397 
L 138.421488 325.527731 
L 138.882645 318.67244 
L 139.343802 324.147385 
L 139.804959 346.9748 
L 140.266116 332.370968 
L 140.727273 324.999944 
L 141.18843 337.842417 
L 141.649587 329.202113 
L 142.110744 313.627384 
L 142.571901 329.906008 
L 143.033058 312.75539 
L 143.955372 333.63994 
L 144.877686 314.273884 
L 145.338843 342.633157 
L 146.261157 297.657256 
L 146.722314 317.231713 
L 147.183471 345.807235 
L 147.644628 329.823432 
L 148.105785 326.19502 
L 148.566942 328.894366 
L 149.028099 321.22035 
L 149.489256 307.000599 
L 149.950413 337.920439 
L 150.41157 307.149503 
L 150.872727 325.195111 
L 151.795041 339.655116 
L 152.256198 336.246558 
L 152.717355 342.84559 
L 153.178512 323.200585 
L 153.639669 338.9642 
L 154.100826 325.689521 
L 154.561983 316.156555 
L 155.02314 338.395426 
L 155.484298 325.782838 
L 155.945455 305.221077 
L 156.406612 331.085976 
L 156.867769 335.365684 
L 157.328926 312.892039 
L 157.790083 325.102557 
L 158.25124 330.287744 
L 158.712397 327.631903 
L 159.173554 320.470673 
L 159.634711 327.366348 
L 160.095868 323.342953 
L 160.557025 316.74009 
L 161.018182 330.408145 
L 161.479339 324.507664 
L 161.940496 336.01635 
L 162.401653 332.412905 
L 162.86281 312.837109 
L 163.323967 337.422694 
L 163.785124 311.970687 
L 164.246281 311.0765 
L 164.707438 323.230762 
L 165.168595 302.986177 
L 165.629752 345.293056 
L 166.090909 323.780905 
L 166.552066 316.296485 
L 167.013223 296.706116 
L 167.47438 329.485642 
L 167.935537 338.250701 
L 168.396694 336.81063 
L 168.857851 307.284852 
L 169.319008 319.290974 
L 169.780165 320.18484 
L 170.241322 313.194977 
L 170.702479 317.136748 
L 171.163636 326.137237 
L 171.624793 326.283087 
L 172.08595 323.493477 
L 172.547107 331.523526 
L 173.008264 288.387354 
L 173.469421 293.620426 
L 173.930579 309.951261 
L 174.391736 315.827405 
L 174.852893 319.217841 
L 175.31405 318.387182 
L 175.775207 339.548913 
L 176.236364 304.961804 
L 176.697521 346.542621 
L 177.158678 314.454118 
L 177.619835 322.023055 
L 178.080992 321.851193 
L 178.542149 340.316204 
L 179.464463 305.323864 
L 179.92562 287.834265 
L 180.386777 296.644221 
L 180.847934 318.916939 
L 181.309091 330.507611 
L 181.770248 324.211062 
L 182.231405 330.332669 
L 182.692562 310.908951 
L 183.153719 316.468642 
L 183.614876 307.129076 
L 184.076033 313.135359 
L 184.53719 336.464201 
L 184.998347 325.802086 
L 185.459504 342.889764 
L 185.920661 322.920578 
L 186.381818 318.197319 
L 186.842975 325.162255 
L 187.304132 312.735647 
L 187.765289 342.470122 
L 188.226446 307.502147 
L 188.687603 332.961494 
L 189.14876 312.553458 
L 189.609917 337.291323 
L 190.071074 323.09457 
L 190.532231 337.206779 
L 190.993388 332.199066 
L 191.454545 333.448469 
L 191.915702 333.370421 
L 192.37686 332.048822 
L 192.838017 328.464089 
L 193.299174 316.167217 
L 193.760331 317.567534 
L 194.221488 330.847705 
L 194.682645 333.417448 
L 195.143802 346.957923 
L 195.604959 338.634219 
L 196.066116 333.907906 
L 196.527273 325.169502 
L 196.98843 341.597365 
L 197.449587 323.612352 
L 197.910744 323.95124 
L 198.371901 323.195696 
L 198.833058 349.557951 
L 199.294215 327.713528 
L 199.755372 343.79673 
L 200.216529 330.638232 
L 200.677686 335.925256 
L 201.138843 334.671071 
L 201.6 337.925944 
L 202.061157 320.475937 
L 202.522314 321.809403 
L 202.983471 313.798134 
L 204.366942 341.329721 
L 204.828099 321.944592 
L 205.289256 333.100861 
L 206.21157 343.453247 
L 207.133884 317.749482 
L 207.595041 328.465334 
L 208.056198 314.024349 
L 208.517355 323.22574 
L 208.978512 344.134466 
L 209.439669 343.353232 
L 209.900826 314.276697 
L 210.361983 319.038478 
L 210.82314 301.716039 
L 211.284298 329.888502 
L 211.745455 329.222324 
L 212.206612 341.154028 
L 212.667769 332.847053 
L 213.128926 342.23169 
L 213.590083 314.73008 
L 214.05124 304.980851 
L 214.512397 336.496307 
L 214.973554 319.65069 
L 215.434711 327.362598 
L 215.895868 314.933753 
L 216.357025 316.292239 
L 216.818182 340.259921 
L 217.279339 323.492339 
L 217.740496 328.033369 
L 218.201653 333.996321 
L 218.66281 331.89235 
L 219.123967 327.896373 
L 219.585124 327.599141 
L 220.046281 329.470842 
L 220.507438 327.620732 
L 220.968595 320.423994 
L 221.429752 333.821566 
L 221.890909 312.798011 
L 222.352066 314.447086 
L 222.813223 332.672901 
L 223.27438 310.893494 
L 223.735537 337.230755 
L 224.196694 327.329434 
L 224.657851 334.154615 
L 225.119008 293.234872 
L 225.580165 339.245453 
L 226.041322 352.535964 
L 226.502479 319.298354 
L 226.963636 340.524002 
L 227.424793 316.749479 
L 227.88595 335.296382 
L 228.347107 326.585476 
L 228.808264 329.193674 
L 229.269421 344.127809 
L 229.730579 339.907545 
L 230.191736 314.446456 
L 230.652893 332.452431 
L 231.11405 338.268395 
L 232.036364 341.757453 
L 232.497521 325.428721 
L 232.958678 323.464693 
L 233.419835 339.203046 
L 233.880992 328.261541 
L 234.342149 343.251503 
L 234.803306 322.737036 
L 235.264463 343.416266 
L 235.72562 336.638942 
L 236.647934 349.485247 
L 237.109091 322.953515 
L 237.570248 336.664592 
L 238.031405 314.747867 
L 238.492562 334.424161 
L 238.953719 330.842361 
L 239.414876 340.533954 
L 239.876033 329.120086 
L 240.33719 334.056676 
L 240.798347 336.067624 
L 241.259504 342.385323 
L 241.720661 342.904484 
L 242.181818 342.438096 
L 242.642975 325.225141 
L 243.104132 326.173268 
L 243.565289 334.56397 
L 244.026446 316.690357 
L 244.487603 319.83754 
L 244.94876 312.420681 
L 245.409917 323.474886 
L 245.871074 322.10026 
L 246.332231 333.050659 
L 247.254545 323.335264 
L 247.715702 344.627094 
L 248.17686 325.381948 
L 248.638017 330.212415 
L 249.099174 316.036462 
L 249.560331 333.877487 
L 250.021488 342.801214 
L 250.943802 311.571699 
L 251.404959 347.361894 
L 251.866116 315.280905 
L 252.327273 317.30001 
L 252.78843 337.178075 
L 253.249587 341.120475 
L 253.710744 303.347728 
L 254.633058 354.444158 
L 255.094215 327.810596 
L 255.555372 324.596897 
L 256.016529 317.08009 
L 256.477686 318.306268 
L 256.938843 347.554999 
L 257.4 355.06024 
L 257.861157 327.461113 
L 258.322314 324.038865 
L 258.783471 305.884388 
L 259.244628 326.067895 
L 259.705785 328.604166 
L 260.166942 326.311523 
L 260.628099 317.768421 
L 261.089256 328.056448 
L 261.550413 323.020593 
L 262.01157 291.812696 
L 262.472727 331.446161 
L 262.933884 285.137303 
L 263.395041 293.271224 
L 263.856198 297.810138 
L 264.317355 314.048499 
L 264.778512 318.357487 
L 265.239669 327.472498 
L 265.700826 321.310842 
L 266.161983 296.243532 
L 266.62314 301.542195 
L 267.084298 328.160575 
L 267.545455 295.243181 
L 268.006612 307.558818 
L 268.928926 324.897491 
L 269.390083 290.621799 
L 269.85124 317.67517 
L 270.312397 284.551505 
L 270.773554 288.770323 
L 271.234711 323.763318 
L 271.695868 317.105633 
L 272.157025 294.639127 
L 272.618182 253.842691 
L 273.079339 331.439397 
L 273.540496 309.130246 
L 274.001653 316.67644 
L 274.46281 301.18643 
L 274.923967 292.870923 
L 275.385124 307.256094 
L 275.846281 297.07344 
L 276.307438 293.712498 
L 276.768595 258.729897 
L 277.229752 328.139934 
L 277.690909 279.630345 
L 278.152066 283.622345 
L 278.613223 288.972027 
L 279.07438 258.04486 
L 279.535537 316.879926 
L 279.996694 303.170187 
L 280.457851 280.503959 
L 280.919008 306.469904 
L 281.380165 294.539848 
L 281.841322 296.566816 
L 282.302479 275.207881 
L 282.763636 264.732938 
L 283.224793 323.39286 
L 283.68595 276.691148 
L 284.147107 286.371692 
L 284.608264 285.857164 
L 285.069421 304.905722 
L 285.530579 295.829836 
L 285.991736 310.834653 
L 286.452893 273.002208 
L 286.91405 324.990434 
L 287.375207 276.283775 
L 287.836364 201.47518 
L 288.297521 296.132962 
L 288.758678 295.244788 
L 289.219835 253.264783 
L 289.680992 306.756582 
L 290.142149 290.787753 
L 290.603306 270.787024 
L 291.064463 298.908816 
L 291.986777 275.095543 
L 292.447934 288.014337 
L 292.909091 241.148252 
L 293.370248 315.292505 
L 293.831405 294.172176 
L 294.292562 310.171195 
L 294.753719 277.773927 
L 295.214876 310.544573 
L 295.676033 301.281904 
L 296.13719 287.164846 
L 296.598347 288.103248 
L 297.059504 309.345157 
L 297.520661 301.90076 
L 297.981818 291.652996 
L 298.442975 268.952573 
L 298.904132 300.326117 
L 299.365289 275.34457 
L 299.826446 324.850665 
L 300.287603 258.140201 
L 300.74876 314.077176 
L 301.209917 268.944911 
L 301.671074 286.936541 
L 302.132231 296.097561 
L 302.593388 316.840587 
L 303.054545 328.715419 
L 303.515702 298.863517 
L 303.97686 276.649546 
L 304.438017 276.282851 
L 304.899174 297.812737 
L 305.360331 296.817087 
L 305.821488 269.332139 
L 306.282645 273.110272 
L 306.743802 279.727306 
L 307.204959 325.591528 
L 307.666116 277.670925 
L 308.127273 321.376702 
L 309.049587 296.773623 
L 309.510744 303.994176 
L 309.971901 286.870856 
L 310.433058 325.499603 
L 310.894215 334.877342 
L 311.355372 323.760077 
L 311.816529 325.19325 
L 312.277686 289.102487 
L 312.738843 297.83102 
L 313.2 321.145691 
L 313.661157 319.959214 
L 314.122314 328.238007 
L 314.583471 307.782877 
L 315.044628 319.369598 
L 315.505785 327.371371 
L 315.966942 317.103972 
L 316.428099 327.737236 
L 316.889256 295.27818 
L 317.350413 327.871044 
L 318.272727 295.565206 
L 318.733884 312.037712 
L 319.195041 310.271263 
L 319.656198 284.806545 
L 320.117355 317.418295 
L 320.578512 261.239807 
L 321.039669 328.138648 
L 321.500826 313.179439 
L 321.961983 320.130044 
L 322.42314 321.75805 
L 322.884298 338.198437 
L 323.345455 302.327889 
L 323.806612 306.337408 
L 324.267769 325.52745 
L 324.728926 321.343671 
L 325.190083 328.5766 
L 325.65124 309.812831 
L 326.112397 322.582735 
L 326.573554 330.299103 
L 327.034711 290.297791 
L 327.495868 337.906843 
L 327.957025 329.334287 
L 328.418182 303.878342 
L 328.879339 315.915646 
L 329.801653 328.657596 
L 330.26281 327.344194 
L 331.646281 334.52648 
L 332.107438 326.418945 
L 332.568595 340.411517 
L 333.029752 291.76733 
L 333.490909 321.675836 
L 333.952066 318.332936 
L 334.413223 310.981374 
L 334.87438 315.51777 
L 335.335537 316.803632 
L 335.796694 336.286325 
L 336.257851 309.091456 
L 336.719008 307.350309 
L 337.180165 330.860255 
L 337.641322 335.194987 
L 338.102479 319.057297 
L 338.563636 297.305991 
L 339.024793 305.623722 
L 339.48595 326.039472 
L 339.947107 317.339992 
L 340.408264 333.606508 
L 340.869421 333.19872 
L 341.330579 312.160725 
L 342.252893 329.456818 
L 342.71405 347.382146 
L 343.175207 338.76851 
L 343.636364 340.328834 
L 344.558678 316.495524 
L 345.019835 325.825968 
L 345.480992 338.708758 
L 346.403306 311.594295 
L 346.864463 317.956664 
L 347.32562 303.984237 
L 347.786777 312.533903 
L 349.170248 357.79918 
L 349.631405 319.916111 
L 350.092562 343.323149 
L 350.553719 305.873525 
L 351.014876 337.678391 
L 351.476033 316.164632 
L 351.93719 331.475615 
L 352.398347 340.146873 
L 352.859504 326.12028 
L 353.320661 351.586445 
L 353.781818 333.634931 
L 354.242975 327.951731 
L 354.704132 337.770155 
L 355.165289 326.302188 
L 355.626446 343.28677 
L 356.087603 322.534301 
L 356.54876 318.983455 
L 357.009917 333.867696 
L 357.471074 317.071893 
L 357.932231 317.949297 
L 358.393388 341.300735 
L 358.854545 336.470027 
L 359.315702 312.608924 
L 359.77686 321.804769 
L 360.238017 317.46634 
L 360.699174 325.905155 
L 361.160331 342.779931 
L 361.621488 354.34569 
L 362.082645 330.765156 
L 362.543802 320.923239 
L 363.004959 331.426926 
L 363.466116 325.465234 
L 363.927273 311.038929 
L 364.38843 337.640726 
L 364.849587 319.320026 
L 365.310744 327.683471 
L 365.771901 338.573021 
L 366.233058 323.706433 
L 366.694215 325.747169 
L 367.155372 325.239098 
L 367.616529 319.749084 
L 368.077686 340.657664 
L 368.538843 321.828771 
L 369.461157 341.73183 
L 369.922314 323.264891 
L 370.383471 325.919299 
L 370.844628 353.890379 
L 371.766942 329.822629 
L 372.228099 329.130333 
L 372.689256 324.408627 
L 373.150413 334.734868 
L 373.61157 334.573212 
L 374.072727 340.393408 
L 374.533884 338.9099 
L 375.456198 308.544502 
L 375.917355 335.874773 
L 376.378512 334.687626 
L 376.839669 327.471574 
L 377.300826 323.819467 
L 377.761983 323.804157 
L 378.22314 343.261133 
L 378.684298 316.444103 
L 379.145455 310.202229 
L 379.606612 337.829545 
L 380.067769 323.916147 
L 380.528926 319.514189 
L 380.990083 340.029513 
L 381.45124 313.460143 
L 381.912397 333.472177 
L 382.373554 321.910597 
L 382.834711 314.070694 
L 383.295868 328.889316 
L 383.757025 324.751601 
L 384.679339 347.041169 
L 385.140496 337.310008 
L 385.601653 332.223349 
L 386.06281 352.898473 
L 386.523967 348.317923 
L 387.907438 311.770456 
L 388.368595 321.438463 
L 388.829752 322.361836 
L 389.290909 316.596852 
L 389.752066 337.370604 
L 390.213223 342.426269 
L 390.67438 331.078984 
L 391.135537 339.219173 
L 391.596694 310.523584 
L 392.057851 323.446839 
L 392.519008 326.297191 
L 392.980165 332.229738 
L 393.441322 320.601227 
L 393.902479 346.750526 
L 394.363636 329.872295 
L 394.824793 339.114939 
L 395.28595 326.671682 
L 395.747107 353.893118 
L 396.208264 328.052202 
L 396.669421 347.332896 
L 397.130579 320.863099 
L 397.591736 331.143986 
L 398.052893 344.539897 
L 398.51405 319.054672 
L 398.975207 336.835423 
L 399.436364 320.702649 
L 399.897521 337.127217 
L 400.358678 320.124418 
L 400.819835 349.28077 
L 401.280992 339.176271 
L 402.203306 294.111594 
L 403.12562 342.877589 
L 403.586777 314.182321 
L 404.047934 326.694291 
L 404.509091 320.255066 
L 404.970248 338.831945 
L 405.431405 317.604154 
L 405.892562 325.063285 
L 406.353719 334.595246 
L 406.814876 335.312267 
L 407.276033 313.365539 
L 407.73719 299.989345 
L 408.659504 317.788164 
L 409.120661 307.380246 
L 410.042975 340.594952 
L 410.504132 341.425463 
L 410.965289 320.047267 
L 411.426446 331.039538 
L 411.887603 333.546341 
L 412.34876 317.186387 
L 412.809917 341.204257 
L 413.271074 346.210845 
L 413.732231 332.939286 
L 414.193388 310.130396 
L 414.654545 337.794024 
L 415.115702 334.407445 
L 415.57686 333.230839 
L 416.038017 327.220204 
L 416.499174 312.154671 
L 416.960331 338.263144 
L 417.421488 338.792566 
L 417.882645 342.287477 
L 418.343802 315.267913 
L 418.804959 318.397416 
L 419.266116 339.182687 
L 419.727273 327.878933 
L 420.18843 342.82669 
L 420.649587 324.266768 
L 421.110744 346.165251 
L 421.571901 326.145957 
L 422.033058 342.044559 
L 422.494215 341.430499 
L 422.955372 338.708946 
L 423.416529 314.149211 
L 423.877686 325.968148 
L 424.8 342.625026 
L 425.261157 333.63481 
L 425.722314 319.255894 
L 426.183471 356.145738 
L 426.644628 314.547596 
L 427.105785 344.828503 
L 427.566942 339.81282 
L 428.028099 321.120362 
L 428.489256 327.512252 
L 428.950413 345.18392 
L 429.41157 352.967072 
L 429.872727 335.31062 
L 430.333884 359.264305 
L 430.795041 334.04738 
L 431.256198 330.309751 
L 431.717355 345.577711 
L 432.178512 347.867461 
L 432.639669 354.032659 
L 433.100826 329.152929 
L 433.561983 346.25514 
L 434.02314 357.124029 
L 434.484298 326.626289 
L 434.945455 320.8663 
L 435.406612 339.199752 
L 435.867769 329.393651 
L 436.328926 344.658624 
L 436.790083 333.346177 
L 437.25124 352.121238 
L 437.712397 352.660886 
L 438.173554 348.779061 
L 438.634711 334.85642 
L 439.095868 337.476861 
L 439.557025 326.903791 
L 440.018182 349.649835 
L 440.479339 330.795936 
L 440.940496 348.676072 
L 441.401653 343.295342 
L 441.86281 346.106838 
L 442.323967 345.266964 
L 442.785124 339.698259 
L 443.246281 340.306077 
L 443.707438 313.227953 
L 444.168595 333.5901 
L 444.629752 344.568266 
L 445.090909 322.548807 
L 445.552066 334.080625 
L 446.013223 333.973082 
L 446.47438 326.88682 
L 446.935537 333.616219 
L 447.396694 328.159141 
L 447.857851 320.014505 
L 448.319008 329.453858 
L 448.780165 334.704315 
L 449.241322 324.396398 
L 449.702479 304.838965 
L 450.163636 331.931582 
L 450.624793 321.399258 
L 451.547107 347.944049 
L 452.008264 335.338868 
L 452.469421 314.566897 
L 452.930579 322.307442 
L 453.391736 322.257495 
L 453.852893 334.704034 
L 454.31405 343.123159 
L 454.775207 343.93374 
L 455.236364 341.504355 
L 455.697521 318.756864 
L 456.158678 325.234598 
L 456.619835 341.464976 
L 457.080992 326.768589 
L 458.003306 339.613875 
L 458.464463 335.649696 
L 458.92562 324.477742 
L 459.386777 318.514535 
L 459.847934 323.665875 
L 460.309091 318.309027 
L 460.770248 310.235675 
L 461.231405 326.709976 
L 461.692562 327.688306 
L 462.153719 318.296021 
L 462.614876 335.724717 
L 463.076033 325.591461 
L 463.53719 338.568466 
L 464.459504 302.692066 
L 464.920661 325.593752 
L 465.381818 329.244988 
L 465.842975 344.441583 
L 466.304132 326.380865 
L 466.765289 318.194305 
L 467.226446 328.561679 
L 467.687603 327.63785 
L 468.14876 319.74015 
L 468.609917 322.170526 
L 469.071074 322.942585 
L 469.532231 346.098962 
L 469.993388 334.880905 
L 470.454545 328.397439 
L 470.915702 310.647843 
L 471.37686 319.266543 
L 471.838017 344.183784 
L 472.299174 332.813568 
L 472.760331 325.47181 
L 473.221488 312.256816 
L 473.682645 334.807143 
L 474.143802 328.077463 
L 474.604959 310.08077 
L 475.066116 323.040591 
L 475.98843 297.657926 
L 476.449587 326.94838 
L 476.910744 348.500956 
L 477.371901 328.247651 
L 477.833058 320.704671 
L 478.294215 318.219406 
L 478.755372 342.815479 
L 479.216529 321.279781 
L 479.677686 337.301101 
L 480.138843 339.429624 
L 480.6 346.439204 
L 481.061157 326.227126 
L 481.522314 323.802121 
L 481.983471 351.175462 
L 482.444628 350.522391 
L 482.905785 319.208398 
L 483.366942 323.048386 
L 483.828099 320.805088 
L 484.289256 335.626577 
L 484.750413 335.173918 
L 485.21157 332.726987 
L 485.672727 321.063396 
L 486.133884 328.522086 
L 486.595041 354.652834 
L 487.056198 322.758708 
L 487.517355 328.78389 
L 487.978512 321.242089 
L 488.439669 329.94315 
L 488.900826 329.249984 
L 489.361983 363.174545 
L 490.284298 324.286431 
L 490.745455 322.876203 
L 491.206612 346.435681 
L 491.667769 312.819643 
L 492.128926 341.797221 
L 492.590083 319.412004 
L 493.05124 325.326724 
L 493.512397 334.595072 
L 493.973554 317.339148 
L 494.434711 349.002946 
L 494.895868 340.578611 
L 495.357025 339.166025 
L 495.818182 317.493986 
L 496.279339 315.550666 
L 496.740496 339.036074 
L 497.201653 321.756684 
L 497.66281 324.913805 
L 498.123967 324.903974 
L 498.585124 319.551559 
L 499.046281 310.868152 
L 499.968595 352.81717 
L 500.429752 320.021591 
L 500.890909 300.903691 
L 501.352066 323.958124 
L 501.813223 309.363695 
L 502.27438 351.803599 
L 502.735537 329.313178 
L 503.196694 319.299894 
L 503.657851 304.128855 
L 504.119008 350.731174 
L 504.580165 322.118931 
L 505.041322 325.414054 
L 505.502479 336.526913 
L 505.963636 321.314057 
L 506.424793 328.885044 
L 506.88595 334.519809 
L 507.347107 327.56228 
L 507.808264 335.985021 
L 508.269421 335.030626 
L 508.730579 327.155509 
L 509.191736 338.611408 
L 509.652893 308.369532 
L 510.11405 347.789198 
L 510.575207 327.539965 
L 511.497521 350.17706 
L 511.958678 339.451778 
L 512.419835 321.835924 
L 513.342149 347.762088 
L 513.803306 319.28129 
L 514.264463 315.169867 
L 514.72562 327.207559 
L 515.186777 325.016231 
L 515.647934 340.715862 
L 516.109091 336.442998 
L 516.570248 336.252022 
L 517.031405 336.540977 
L 517.492562 312.312268 
L 517.953719 296.257462 
L 518.414876 330.934138 
L 518.876033 324.979946 
L 519.33719 339.749251 
L 519.798347 324.188358 
L 520.259504 334.090992 
L 520.720661 335.973569 
L 521.181818 335.244399 
L 521.642975 325.927657 
L 522.104132 330.467951 
L 522.565289 342.668625 
L 523.026446 340.989346 
L 523.487603 308.980003 
L 523.94876 325.010954 
L 524.409917 356.500372 
L 524.871074 346.560636 
L 525.332231 313.967638 
L 525.793388 325.799849 
L 526.254545 331.102102 
L 526.715702 310.117203 
L 527.17686 339.31296 
L 527.638017 330.435041 
L 528.560331 320.99964 
L 529.021488 325.075621 
L 529.482645 317.851157 
L 529.943802 320.207329 
L 530.404959 330.907149 
L 530.866116 328.881816 
L 531.327273 337.475481 
L 531.78843 341.585417 
L 532.249587 336.550192 
L 532.710744 344.73043 
L 533.171901 342.313529 
L 533.633058 328.87631 
L 534.094215 324.632043 
L 534.555372 319.134689 
L 535.016529 316.369939 
L 535.477686 329.214516 
L 535.938843 314.986473 
L 536.861157 332.772621 
L 537.322314 324.732661 
L 537.783471 319.633358 
L 538.244628 320.942192 
L 538.705785 344.75312 
L 539.166942 323.988503 
L 539.628099 331.979226 
L 540.089256 341.943982 
L 540.550413 324.984661 
L 541.01157 287.178174 
L 541.472727 307.030749 
L 542.395041 324.240167 
L 542.856198 344.08038 
L 543.317355 332.463669 
L 543.778512 326.651791 
L 544.239669 331.326322 
L 544.700826 337.221111 
L 545.161983 282.210281 
L 545.62314 338.454441 
L 546.084298 319.431305 
L 546.545455 292.177984 
L 547.006612 321.561087 
L 547.467769 312.273759 
L 547.928926 311.085367 
L 548.390083 312.584252 
L 548.85124 342.826007 
L 549.773554 287.498055 
L 550.234711 327.9127 
L 550.695868 313.551626 
L 551.157025 333.652638 
L 551.618182 342.198928 
L 552.540496 294.289469 
L 553.001653 323.494884 
L 553.46281 334.721031 
L 553.923967 322.100595 
L 554.385124 346.080894 
L 554.846281 337.532487 
L 555.307438 312.659822 
L 555.768595 309.671602 
L 556.229752 331.25027 
L 556.690909 334.854264 
L 557.152066 342.741021 
L 557.613223 330.918266 
L 558.07438 354.42199 
L 558.535537 331.953924 
L 558.996694 344.698204 
L 559.457851 320.367457 
L 559.919008 337.224473 
L 560.380165 342.261586 
L 560.841322 318.491323 
L 561.302479 322.195078 
L 561.763636 352.627956 
L 562.224793 344.120523 
L 562.68595 325.493871 
L 563.147107 346.695141 
L 563.608264 317.331969 
L 564.069421 336.898885 
L 564.530579 328.142854 
L 564.991736 351.893321 
L 565.452893 327.88634 
L 565.91405 322.306639 
L 566.375207 312.70413 
L 566.836364 342.996891 
L 567.297521 345.042852 
L 567.758678 329.501568 
L 568.219835 329.106102 
L 568.680992 324.2987 
L 569.142149 323.957682 
L 569.603306 317.029098 
L 570.064463 316.769062 
L 570.52562 304.68327 
L 570.986777 339.284564 
L 571.447934 300.224575 
L 571.909091 324.41957 
L 572.370248 296.760389 
L 572.831405 297.159833 
L 573.292562 290.850251 
L 573.753719 339.599209 
L 574.214876 321.876509 
L 574.676033 315.810582 
L 575.13719 317.021168 
L 575.598347 335.534304 
L 576.059504 336.995833 
L 576.520661 311.779069 
L 576.981818 326.24624 
L 577.442975 301.797262 
L 577.904132 322.343714 
L 578.365289 333.263856 
L 578.826446 311.978885 
L 579.74876 348.347511 
L 580.209917 313.631964 
L 580.671074 334.306733 
L 581.132231 329.339524 
L 581.593388 330.594299 
L 582.054545 308.604468 
L 582.515702 314.964439 
L 582.97686 291.795846 
L 583.438017 323.485414 
L 583.899174 313.723849 
L 584.821488 329.972698 
L 585.282645 308.315259 
L 586.204959 342.144293 
L 586.666116 279.895713 
L 587.127273 303.852197 
L 587.58843 293.078266 
L 588.049587 311.797191 
L 588.510744 320.284654 
L 589.433058 290.826101 
L 589.894215 343.151367 
L 590.355372 309.922879 
L 590.816529 332.922584 
L 591.277686 298.004288 
L 591.738843 311.784976 
L 592.2 311.248482 
L 592.661157 295.787644 
L 593.122314 322.809821 
L 593.583471 321.837987 
L 594.044628 318.707279 
L 594.505785 312.151604 
L 594.966942 312.921653 
L 595.428099 319.650878 
L 595.889256 296.901605 
L 596.350413 256.465369 
L 596.81157 288.689555 
L 597.272727 333.594962 
L 597.733884 315.807621 
L 598.195041 329.709099 
L 598.656198 303.356569 
L 599.117355 317.226971 
L 599.578512 290.165349 
L 600.039669 309.45357 
L 600.500826 289.258678 
L 600.961983 318.921466 
L 601.42314 307.12846 
L 601.884298 315.699958 
L 602.345455 306.536407 
L 602.806612 281.667278 
L 603.267769 277.482723 
L 603.728926 320.158989 
L 604.190083 287.070698 
L 604.65124 315.505058 
L 605.112397 302.771882 
L 605.573554 304.659147 
L 606.034711 307.647086 
L 606.495868 303.423727 
L 606.957025 317.581437 
L 607.418182 282.191235 
L 607.879339 310.426409 
L 608.340496 302.755099 
L 609.26281 327.629345 
L 609.723967 289.837444 
L 610.185124 299.545713 
L 610.646281 294.21414 
L 611.107438 320.824403 
L 611.568595 294.165425 
L 612.029752 286.078076 
L 612.952066 311.217139 
L 613.413223 305.487837 
L 613.87438 292.613284 
L 614.335537 305.198615 
L 614.796694 347.804883 
L 615.257851 294.053195 
L 615.719008 280.87707 
L 616.180165 275.628729 
L 616.641322 285.270094 
L 617.102479 301.994305 
L 617.563636 303.999426 
L 618.024793 307.491833 
L 618.48595 286.823078 
L 618.947107 304.537943 
L 619.408264 327.006471 
L 619.869421 307.134956 
L 620.330579 295.710065 
L 620.791736 275.893641 
L 621.252893 250.376189 
L 621.71405 309.479435 
L 622.175207 279.132106 
L 622.636364 283.603767 
L 622.636364 283.603767 
" clip-path="url(#p8741bb9b81)" style="fill: none; stroke: #1f77b4; stroke-width: 1.5; stroke-linecap: square"/>
   </g>
   <g id="line2d_21">
    <path d="M 115.363636 331.228089 
L 116.28595 332.965418 
L 116.747107 333.120859 
L 117.208264 332.841977 
L 117.669421 332.791681 
L 118.130579 332.629048 
L 118.591736 331.982454 
L 119.975207 329.454193 
L 120.436364 329.353602 
L 120.897521 329.504488 
L 121.358678 329.32617 
L 121.819835 327.858588 
L 122.280992 327.319107 
L 122.742149 327.232245 
L 123.203306 326.637901 
L 123.664463 326.349858 
L 124.12562 326.340709 
L 125.047934 325.714367 
L 125.509091 325.376041 
L 125.970248 325.63664 
L 126.892562 325.147441 
L 127.353719 325.700651 
L 127.814876 326.468732 
L 128.276033 325.654937 
L 128.73719 325.389757 
L 129.198347 324.772549 
L 129.659504 324.502802 
L 130.581818 325.115442 
L 131.042975 324.662823 
L 131.965289 322.363162 
L 132.426446 321.969974 
L 132.887603 323.167809 
L 133.34876 324.868559 
L 133.809917 325.074309 
L 134.732231 323.560998 
L 135.193388 322.94379 
L 135.654545 322.75177 
L 136.115702 322.902643 
L 136.57686 323.583849 
L 137.038017 322.943348 
L 137.499174 321.529865 
L 137.960331 320.877484 
L 138.421488 320.973307 
L 138.882645 321.302484 
L 139.343802 320.909295 
L 140.266116 321.100606 
L 140.727273 322.029404 
L 141.18843 321.820132 
L 141.649587 322.212289 
L 142.110744 323.638711 
L 142.571901 324.669775 
L 143.033058 324.2223 
L 144.416529 325.073478 
L 144.877686 324.819376 
L 145.338843 324.287931 
L 145.8 324.967221 
L 146.261157 325.97439 
L 146.722314 326.18985 
L 147.183471 325.824093 
L 147.644628 324.667391 
L 148.105785 323.926755 
L 149.028099 324.22392 
L 149.489256 324.35651 
L 149.950413 324.188345 
L 150.872727 324.686357 
L 151.333884 324.293517 
L 151.795041 324.655363 
L 152.717355 324.284918 
L 153.639669 323.743669 
L 154.100826 323.570039 
L 154.561983 324.138813 
L 155.02314 324.526349 
L 155.484298 323.731748 
L 155.945455 323.181632 
L 156.406612 322.8786 
L 156.867769 323.567092 
L 157.328926 323.625398 
L 157.790083 323.278419 
L 158.25124 323.321602 
L 159.173554 322.595767 
L 159.634711 321.85548 
L 160.557025 322.22113 
L 161.018182 320.906108 
L 161.479339 320.081784 
L 162.401653 319.670835 
L 162.86281 319.204125 
L 163.323967 319.279307 
L 163.785124 318.988076 
L 164.246281 318.873113 
L 164.707438 320.046611 
L 165.629752 319.549845 
L 166.090909 319.437145 
L 166.552066 320.167012 
L 167.013223 321.435355 
L 167.47438 321.565293 
L 167.935537 321.013114 
L 168.396694 319.931394 
L 169.319008 323.296662 
L 169.780165 322.528689 
L 170.241322 322.417704 
L 170.702479 321.761372 
L 171.624793 321.870213 
L 172.547107 320.938549 
L 173.008264 319.921763 
L 173.469421 320.818429 
L 173.930579 322.272631 
L 174.391736 321.941096 
L 174.852893 320.333329 
L 175.31405 320.104635 
L 176.236364 321.822409 
L 176.697521 323.542715 
L 177.158678 323.078912 
L 177.619835 324.745118 
L 178.080992 325.105825 
L 179.003306 327.276098 
L 179.464463 328.105069 
L 180.386777 328.52013 
L 180.847934 327.502287 
L 181.309091 328.540543 
L 181.770248 328.498659 
L 182.231405 329.129877 
L 182.692562 330.327418 
L 183.153719 330.085116 
L 183.614876 330.645237 
L 184.998347 332.922061 
L 185.459504 333.45814 
L 185.920661 333.215704 
L 186.842975 332.248397 
L 187.304132 331.662424 
L 188.226446 329.262159 
L 189.14876 326.706467 
L 190.071074 325.001149 
L 190.532231 324.973396 
L 190.993388 324.731991 
L 191.454545 323.78862 
L 191.915702 323.592997 
L 192.37686 323.625009 
L 193.760331 324.634213 
L 195.143802 325.037729 
L 196.527273 324.694836 
L 197.449587 325.028581 
L 199.294215 324.461668 
L 200.216529 324.16449 
L 200.677686 324.158717 
L 201.138843 323.830584 
L 202.061157 323.588429 
L 203.905785 323.467037 
L 204.828099 323.149526 
L 205.289256 323.330335 
L 206.21157 323.451272 
L 208.978512 323.926755 
L 210.82314 323.510716 
L 211.284298 323.725587 
L 211.745455 322.802066 
L 212.206612 322.651755 
L 212.667769 321.822074 
L 213.128926 321.713942 
L 213.590083 320.920131 
L 214.05124 321.043144 
L 214.512397 322.513982 
L 214.973554 322.676026 
L 215.434711 322.007357 
L 216.818182 320.904715 
L 217.740496 321.329902 
L 218.201653 321.165313 
L 218.66281 321.392721 
L 219.123967 321.033795 
L 219.585124 320.127499 
L 220.046281 318.975378 
L 220.507438 320.093089 
L 220.968595 323.447227 
L 221.429752 325.822177 
L 221.890909 326.639669 
L 222.352066 326.636816 
L 223.27438 325.138306 
L 223.735537 325.440052 
L 224.196694 325.3524 
L 224.657851 325.127899 
L 225.119008 325.348623 
L 225.580165 324.806222 
L 226.041322 324.520429 
L 226.502479 324.602241 
L 226.963636 325.714367 
L 227.88595 325.920103 
L 228.808264 326.4413 
L 229.269421 326.267577 
L 229.730579 325.796661 
L 230.191736 326.098407 
L 230.652893 324.525666 
L 231.11405 323.579281 
L 231.575207 324.041048 
L 232.036364 324.809129 
L 232.958678 325.796661 
L 233.419835 326.807058 
L 234.342149 326.756762 
L 234.803306 326.432152 
L 235.264463 326.336142 
L 236.186777 326.400153 
L 238.031405 325.754349 
L 238.953719 325.90182 
L 239.876033 326.733898 
L 240.33719 326.715615 
L 240.798347 325.746366 
L 241.259504 325.467645 
L 241.720661 326.930486 
L 242.181818 327.977462 
L 242.642975 327.2048 
L 243.104132 327.14537 
L 243.565289 327.520275 
L 244.026446 327.684851 
L 244.94876 326.57389 
L 246.332231 328.078039 
L 247.254545 328.827837 
L 247.715702 329.019857 
L 249.099174 329.102151 
L 252.327273 329.102151 
L 252.78843 328.795838 
L 253.710744 328.543543 
L 254.171901 328.224345 
L 254.633058 328.114619 
L 255.094215 327.812873 
L 255.555372 327.785441 
L 256.477686 327.346538 
L 256.938843 327.305391 
L 257.4 326.96965 
L 258.322314 326.783711 
L 258.783471 326.520099 
L 259.244628 326.384683 
L 259.705785 326.05726 
L 260.628099 325.188602 
L 261.089256 325.416358 
L 261.550413 324.3676 
L 262.472727 323.777436 
L 263.395041 322.376878 
L 264.778512 318.472464 
L 265.700826 317.046028 
L 266.62314 316.3158 
L 267.084298 315.377277 
L 267.545455 313.228489 
L 268.467769 306.196889 
L 268.928926 304.784169 
L 269.390083 303.865216 
L 269.85124 303.536038 
L 270.773554 305.789985 
L 271.234711 305.968303 
L 271.695868 306.306615 
L 272.157025 307.381009 
L 272.618182 309.04976 
L 274.001653 310.613353 
L 274.46281 309.557229 
L 274.923967 307.952515 
L 275.385124 304.281255 
L 277.229752 277.915076 
L 277.690909 276.223461 
L 278.152066 273.507747 
L 278.613223 275.030193 
L 279.07438 275.619969 
L 279.996694 283.245913 
L 280.457851 286.368517 
L 280.919008 286.203942 
L 281.380165 283.02188 
L 281.841322 278.632861 
L 282.302479 275.437084 
L 282.763636 273.292876 
L 283.68595 263.170657 
L 284.147107 260.88928 
L 285.069421 250.451612 
L 285.530579 248.348525 
L 285.991736 243.154846 
L 286.452893 241.618685 
L 286.91405 242.011873 
L 287.375207 241.339803 
L 287.836364 237.174803 
L 288.297521 243.520603 
L 288.758678 234.020159 
L 289.219835 229.036797 
L 289.680992 230.9851 
L 290.142149 230.760397 
L 291.064463 231.583341 
L 291.52562 226.57252 
L 291.986777 218.224224 
L 292.447934 207.57624 
L 292.909091 192.091186 
L 293.831405 153.042515 
L 294.292562 146.678445 
L 294.753719 160.398724 
L 296.13719 223.262476 
L 297.059504 253.752521 
L 297.520661 263.650708 
L 298.442975 276.749239 
L 299.365289 282.002349 
L 300.287603 294.529374 
L 301.671074 312.67986 
L 302.132231 314.087999 
L 303.054545 314.234304 
L 303.515702 317.914686 
L 304.438017 309.027097 
L 304.899174 308.981181 
L 305.360331 308.007365 
L 305.821488 308.597155 
L 306.282645 307.952515 
L 306.743802 306.718087 
L 307.204959 303.860648 
L 308.127273 295.667793 
L 308.58843 295.000289 
L 309.049587 302.452496 
L 309.510744 314.70522 
L 309.971901 323.008538 
L 310.433058 326.976214 
L 311.355372 330.663494 
L 312.277686 334.510715 
L 313.2 332.631674 
L 313.661157 332.224756 
L 315.044628 329.120448 
L 315.505785 327.803725 
L 315.966942 327.397892 
L 316.428099 327.584273 
L 316.889256 327.241393 
L 317.350413 327.697655 
L 317.81157 327.785441 
L 318.272727 327.575138 
L 318.733884 326.47788 
L 319.195041 326.400153 
L 319.656198 326.688183 
L 320.117355 325.956669 
L 320.578512 325.015481 
L 321.039669 324.754266 
L 321.961983 324.941705 
L 322.884298 324.397657 
L 323.345455 324.731402 
L 323.806612 324.388509 
L 324.267769 323.821449 
L 324.728926 323.483271 
L 325.190083 324.357381 
L 325.65124 324.306215 
L 326.573554 323.142307 
L 327.034711 323.259252 
L 327.495868 323.853596 
L 327.957025 323.628197 
L 329.340496 322.404296 
L 329.801653 321.784021 
L 330.26281 321.398494 
L 330.723967 321.297903 
L 331.185124 321.312771 
L 332.107438 322.939209 
L 332.568595 323.625009 
L 333.029752 323.830691 
L 333.490909 324.473254 
L 333.952066 324.144532 
L 334.413223 324.792493 
L 334.87438 324.87314 
L 336.257851 326.509879 
L 336.719008 326.006482 
L 337.180165 325.942043 
L 337.641322 326.610457 
L 338.102479 326.272626 
L 338.563636 326.165231 
L 339.024793 325.348623 
L 339.48595 325.988681 
L 339.947107 326.103752 
L 340.408264 325.992874 
L 340.869421 326.274689 
L 341.330579 325.447714 
L 342.252893 324.841128 
L 342.71405 325.65432 
L 343.175207 325.824093 
L 344.097521 328.384366 
L 344.558678 328.97871 
L 345.019835 328.951667 
L 346.864463 327.346538 
L 347.32562 327.198599 
L 349.170248 325.970398 
L 349.631405 325.508631 
L 350.553719 324.900572 
L 351.014876 324.83656 
L 351.476033 325.010297 
L 352.859504 326.000562 
L 353.320661 326.24928 
L 353.781818 326.697332 
L 354.242975 327.479115 
L 354.704132 327.456264 
L 355.165289 327.800577 
L 355.626446 327.724203 
L 356.54876 326.516965 
L 357.009917 325.38081 
L 357.932231 325.214038 
L 358.393388 324.575962 
L 358.854545 324.219353 
L 359.315702 324.288079 
L 360.238017 324.90972 
L 360.699174 324.804562 
L 361.621488 324.393076 
L 362.082645 324.64083 
L 362.543802 325.030389 
L 363.004959 324.373963 
L 363.466116 324.148819 
L 363.927273 324.859424 
L 364.38843 325.147441 
L 364.849587 324.767982 
L 365.771901 325.225945 
L 366.233058 325.426337 
L 366.694215 325.846957 
L 367.155372 326.084691 
L 367.616529 326.02068 
L 368.077686 326.413869 
L 369 328.146618 
L 369.461157 328.590102 
L 370.383471 331.081783 
L 370.844628 332.252201 
L 371.766942 337.445893 
L 372.228099 339.059768 
L 372.689256 341.080547 
L 373.150413 342.552925 
L 373.61157 342.827025 
L 374.072727 342.840741 
L 374.533884 342.290397 
L 374.995041 341.203989 
L 377.300826 332.910555 
L 377.761983 332.081209 
L 378.22314 330.978339 
L 378.684298 330.272555 
L 379.145455 329.792505 
L 380.528926 329.083868 
L 383.295868 327.922599 
L 385.140496 327.04936 
L 386.06281 326.880204 
L 386.523967 326.756762 
L 387.446281 326.86192 
L 387.907438 327.131667 
L 388.829752 327.152496 
L 389.290909 327.090507 
L 391.596694 325.590925 
L 392.519008 325.270896 
L 392.980165 325.248032 
L 393.441322 325.357169 
L 393.902479 325.058637 
L 394.363636 325.353191 
L 395.28595 324.96915 
L 395.747107 325.046864 
L 396.669421 324.717686 
L 397.130579 324.447939 
L 398.052893 323.657008 
L 398.51405 323.789598 
L 398.975207 324.361077 
L 399.436364 324.507383 
L 399.897521 324.930213 
L 400.358678 325.128676 
L 400.819835 324.895991 
L 401.280992 325.321178 
L 401.742149 326.633321 
L 402.203306 326.180702 
L 402.664463 327.608008 
L 403.12562 328.167714 
L 403.586777 327.730003 
L 404.970248 325.543215 
L 405.892562 324.713119 
L 406.353719 325.216033 
L 406.814876 326.038977 
L 407.276033 325.526914 
L 408.198347 327.680283 
L 408.659504 327.634569 
L 409.120661 328.544374 
L 409.581818 328.113467 
L 410.042975 326.76591 
L 410.504132 325.784258 
L 410.965289 325.449201 
L 411.426446 325.915535 
L 411.887603 328.114619 
L 412.34876 328.061604 
L 412.809917 327.297221 
L 413.271074 325.881996 
L 413.732231 326.081463 
L 414.193388 326.688183 
L 414.654545 326.569309 
L 415.57686 326.157851 
L 416.038017 325.646954 
L 416.499174 324.964583 
L 416.960331 324.722361 
L 417.421488 325.716322 
L 417.882645 325.789147 
L 418.343802 325.549778 
L 418.804959 325.152022 
L 419.266116 325.485767 
L 419.727273 326.102988 
L 420.18843 327.501992 
L 421.110744 329.819936 
L 421.571901 330.213125 
L 422.033058 330.77547 
L 422.494215 331.934609 
L 423.877686 332.837396 
L 424.8 330.209388 
L 425.261157 329.788527 
L 425.722314 332.064748 
L 426.183471 333.134575 
L 426.644628 332.966637 
L 427.105785 333.934667 
L 427.566942 333.911803 
L 428.489256 337.413881 
L 428.950413 341.318295 
L 429.41157 346.557703 
L 429.872727 348.967089 
L 430.333884 347.906411 
L 431.717355 342.920664 
L 432.178512 342.689868 
L 432.639669 341.955742 
L 433.100826 340.632509 
L 433.561983 341.510302 
L 434.484298 345.529023 
L 434.945455 345.697309 
L 435.406612 345.09012 
L 435.867769 345.190697 
L 436.328926 344.431752 
L 437.712397 341.386874 
L 438.634711 339.494104 
L 439.557025 338.076803 
L 440.018182 338.136247 
L 440.479339 338.506572 
L 440.940496 339.023188 
L 441.401653 339.160346 
L 441.86281 338.758022 
L 442.323967 338.148168 
L 442.785124 337.761355 
L 443.246281 337.907647 
L 443.707438 338.25054 
L 444.168595 337.752207 
L 445.090909 337.647048 
L 445.552066 337.295007 
L 446.47438 335.196501 
L 447.396694 333.994098 
L 447.857851 333.523182 
L 448.319008 333.413456 
L 448.780165 333.472887 
L 449.241322 331.758435 
L 449.702479 331.104647 
L 450.163636 331.077216 
L 450.624793 331.831581 
L 451.08595 331.191509 
L 451.547107 329.929676 
L 452.008264 329.143298 
L 452.469421 328.768393 
L 453.391736 328.643746 
L 453.852893 328.315787 
L 454.31405 328.626668 
L 455.236364 330.528587 
L 455.697521 331.790433 
L 456.158678 331.552699 
L 456.619835 330.962922 
L 457.542149 330.725174 
L 458.464463 328.686112 
L 458.92562 328.585534 
L 459.386777 329.614214 
L 459.847934 329.792505 
L 460.309091 328.352354 
L 460.770248 327.959165 
L 461.231405 327.886032 
L 461.692562 328.402649 
L 462.153719 328.622101 
L 462.614876 327.634569 
L 463.076033 326.989929 
L 463.53719 327.154518 
L 463.998347 327.063075 
L 465.842975 325.316611 
L 466.304132 325.430904 
L 466.765289 325.73265 
L 467.687603 325.316611 
L 468.14876 325.184034 
L 468.609917 325.426337 
L 469.071074 325.06516 
L 469.532231 324.960002 
L 469.993388 325.110875 
L 470.915702 326.221849 
L 472.299174 329.527339 
L 472.760331 330.780037 
L 473.221488 331.625845 
L 473.682645 332.709387 
L 474.143802 332.49907 
L 474.604959 330.940058 
L 475.527273 329.979958 
L 475.98843 328.98542 
L 476.449587 329.13415 
L 476.910744 329.024424 
L 477.371901 328.635816 
L 477.833058 329.138731 
L 478.294215 330.418861 
L 478.755372 330.386849 
L 479.216529 329.509055 
L 479.677686 327.515694 
L 480.138843 326.825341 
L 480.6 327.873227 
L 481.061157 328.398068 
L 481.522314 328.288343 
L 481.983471 327.533978 
L 482.905785 328.364221 
L 483.366942 327.675716 
L 483.828099 327.483696 
L 484.750413 328.439229 
L 485.21157 328.484944 
L 485.672727 328.411797 
L 486.133884 327.83117 
L 487.056198 326.203566 
L 487.517355 326.505298 
L 487.978512 326.075543 
L 488.439669 325.31203 
L 488.900826 325.110875 
L 489.361983 325.357758 
L 489.82314 326.194417 
L 490.745455 325.193169 
L 491.206612 324.955435 
L 491.667769 324.530247 
L 492.128926 324.475384 
L 492.590083 325.15659 
L 493.05124 326.112123 
L 493.512397 325.76923 
L 493.973554 325.078876 
L 494.434711 324.813696 
L 494.895868 325.453768 
L 495.357025 325.796661 
L 495.818182 325.632073 
L 496.279339 325.659504 
L 496.740496 325.99783 
L 497.201653 326.121258 
L 497.66281 326.391005 
L 498.123967 326.331575 
L 498.585124 326.715615 
L 499.046281 326.505298 
L 499.507438 326.994497 
L 499.968595 326.226416 
L 500.429752 326.4413 
L 500.890909 325.842376 
L 501.352066 326.386437 
L 501.813223 325.462916 
L 502.27438 325.993262 
L 502.735537 325.965817 
L 503.196694 326.34529 
L 503.657851 326.505298 
L 504.119008 325.63664 
L 505.041322 326.011532 
L 505.502479 326.555594 
L 505.963636 327.273392 
L 506.424793 327.012793 
L 506.88595 325.828674 
L 507.347107 325.76923 
L 507.808264 326.715615 
L 508.269421 328.014028 
L 508.730579 327.684851 
L 509.191736 327.122519 
L 509.652893 327.524843 
L 510.11405 328.5311 
L 510.575207 328.983277 
L 511.497521 329.102151 
L 511.958678 329.792505 
L 512.419835 331.260088 
L 512.880992 330.725174 
L 513.342149 328.539806 
L 513.803306 328.452945 
L 514.72562 328.100903 
L 515.186777 327.401401 
L 516.109091 328.407217 
L 517.031405 327.835737 
L 517.492562 328.078039 
L 517.953719 327.771726 
L 518.414876 328.544374 
L 518.876033 328.08262 
L 519.798347 327.707715 
L 520.259504 328.192346 
L 520.720661 328.283775 
L 521.181818 328.260924 
L 522.104132 326.400153 
L 522.565289 326.336142 
L 523.487603 326.029829 
L 523.94876 325.965817 
L 524.409917 325.467484 
L 526.254545 325.019446 
L 526.715702 324.973718 
L 527.17686 324.498235 
L 527.638017 324.635392 
L 528.099174 325.275464 
L 528.560331 325.248032 
L 529.021488 325.06058 
L 529.943802 325.632073 
L 530.866116 325.362325 
L 531.78843 325.814944 
L 534.094215 327.044792 
L 534.555372 327.026509 
L 535.016529 327.305391 
L 535.477686 327.044792 
L 536.4 326.971646 
L 536.861157 327.053941 
L 537.322314 326.971646 
L 537.783471 327.072224 
L 538.705785 327.579706 
L 539.628099 327.69858 
L 540.089256 327.492844 
L 540.550413 327.460832 
L 541.01157 326.887691 
L 542.395041 325.705219 
L 543.317355 325.613789 
L 543.778512 325.888104 
L 545.161983 326.080124 
L 545.62314 325.970398 
L 546.084298 326.002397 
L 546.545455 325.915535 
L 547.006612 325.590925 
L 547.467769 325.590925 
L 547.928926 325.856092 
L 550.234711 328.804986 
L 550.695868 328.754691 
L 551.157025 329.157014 
L 551.618182 329.911379 
L 552.079339 330.405145 
L 552.540496 330.578882 
L 553.001653 330.496574 
L 553.46281 330.130831 
L 554.385124 328.727259 
L 554.846281 328.288343 
L 555.307438 328.658667 
L 555.768595 330.629164 
L 556.229752 330.848629 
L 556.690909 330.482872 
L 557.152066 329.87938 
L 557.613223 329.883948 
L 558.07438 329.582202 
L 558.535537 329.029005 
L 558.996694 329.463327 
L 559.457851 329.042707 
L 559.919008 328.443796 
L 560.380165 328.068891 
L 560.841322 325.4812 
L 561.302479 325.353191 
L 561.763636 326.048125 
L 563.147107 325.906387 
L 563.608264 326.340709 
L 564.530579 327.460832 
L 564.991736 327.799157 
L 565.452893 327.790009 
L 565.91405 328.018609 
L 566.375207 327.849439 
L 566.836364 327.931747 
L 567.297521 327.863168 
L 568.219835 328.356935 
L 568.680992 327.863168 
L 569.142149 327.776307 
L 570.064463 327.785441 
L 570.52562 327.643717 
L 570.986777 327.922599 
L 571.909091 327.405969 
L 572.370248 327.383118 
L 573.292562 326.857353 
L 573.753719 326.519027 
L 574.214876 325.970398 
L 575.13719 324.132478 
L 575.598347 323.451272 
L 576.059504 322.975803 
L 576.981818 323.021517 
L 577.442975 322.683192 
L 578.826446 321.009873 
L 579.287603 319.894948 
L 580.671074 314.051419 
L 581.132231 312.867313 
L 581.593388 313.073049 
L 582.054545 313.991989 
L 582.515702 313.86398 
L 582.97686 311.605453 
L 583.438017 307.925071 
L 583.899174 302.585072 
L 584.360331 300.020245 
L 584.821488 299.494467 
L 585.282645 295.448328 
L 585.743802 287.877247 
L 586.204959 287.03602 
L 586.666116 284.727211 
L 587.127273 280.17359 
L 587.58843 277.425877 
L 589.433058 242.075885 
L 589.894215 229.343097 
L 591.738843 153.220846 
L 592.2 142.152255 
L 592.661157 139.372517 
L 593.122314 144.909089 
L 593.583471 159.630671 
L 594.505785 169.963166 
L 594.966942 188.031331 
L 595.428099 189.265746 
L 595.889256 193.237761 
L 596.350413 201.129822 
L 596.81157 201.568779 
L 598.195041 169.688852 
L 598.656198 164.38542 
L 599.117355 172.587424 
L 600.039669 148.694656 
L 600.500826 148.475205 
L 600.961983 145.585767 
L 601.42314 123.613148 
L 601.884298 124.230356 
L 602.345455 154.921596 
L 603.267769 194.880059 
L 603.728926 210.996037 
L 604.190083 195.195521 
L 604.65124 168.60989 
L 605.112397 171.252444 
L 605.573554 148.895811 
L 606.034711 149.371281 
L 606.495868 144.93194 
L 606.957025 138.192964 
L 607.418182 127.988491 
L 607.879339 120.906596 
L 608.340496 137.411168 
L 608.801653 129.753239 
L 609.723967 76.636787 
L 610.185124 85.803473 
L 610.646281 139.729126 
L 611.107438 132.409509 
L 611.568595 122.694194 
L 612.029752 141.8002 
L 614.796694 71.591382 
L 615.257851 87.920275 
L 616.180165 139.459392 
L 616.641322 137.187162 
L 617.102479 141.585329 
L 617.563636 171.476477 
L 618.48595 200.887547 
L 618.947107 193.860514 
L 619.408264 164.202561 
L 620.330579 128.569106 
L 620.791736 92.313862 
L 621.252893 86.484705 
L 621.71405 71.93232 
L 622.175207 66.665455 
L 622.636364 68.305877 
L 622.636364 68.305877 
" clip-path="url(#p8741bb9b81)" style="fill: none; stroke: #ff7f0e; stroke-width: 1.5; stroke-linecap: square"/>
   </g>
   <g id="patch_3">
    <path d="M 90 378 
L 90 51.84 
" style="fill: none; stroke: #000000; stroke-width: 0.8; stroke-linejoin: miter; stroke-linecap: square"/>
   </g>
   <g id="patch_4">
    <path d="M 648 378 
L 648 51.84 
" style="fill: none; stroke: #000000; stroke-width: 0.8; stroke-linejoin: miter; stroke-linecap: square"/>
   </g>
   <g id="patch_5">
    <path d="M 90 378 
L 648 378 
" style="fill: none; stroke: #000000; stroke-width: 0.8; stroke-linejoin: miter; stroke-linecap: square"/>
   </g>
   <g id="patch_6">
    <path d="M 90 51.84 
L 648 51.84 
" style="fill: none; stroke: #000000; stroke-width: 0.8; stroke-linejoin: miter; stroke-linecap: square"/>
   </g>
   <g id="text_21">
    <!-- Spring Specific Conductivity: GW-SW Inputs -->
    <g transform="translate(238.444688 45.84)scale(0.12 -0.12)">
     <defs>
      <path id="DejaVuSans-66" d="M 2375 4863 
L 2375 4384 
L 1825 4384 
Q 1516 4384 1395 4259 
Q 1275 4134 1275 3809 
L 1275 3500 
L 2222 3500 
L 2222 3053 
L 1275 3053 
L 1275 0 
L 697 0 
L 697 3053 
L 147 3053 
L 147 3500 
L 697 3500 
L 697 3744 
Q 697 4328 969 4595 
Q 1241 4863 1831 4863 
L 2375 4863 
z
" transform="scale(0.015625)"/>
      <path id="DejaVuSans-64" d="M 2906 2969 
L 2906 4863 
L 3481 4863 
L 3481 0 
L 2906 0 
L 2906 525 
Q 2725 213 2448 61 
Q 2172 -91 1784 -91 
Q 1150 -91 751 415 
Q 353 922 353 1747 
Q 353 2572 751 3078 
Q 1150 3584 1784 3584 
Q 2172 3584 2448 3432 
Q 2725 3281 2906 2969 
z
M 947 1747 
Q 947 1113 1208 752 
Q 1469 391 1925 391 
Q 2381 391 2643 752 
Q 2906 1113 2906 1747 
Q 2906 2381 2643 2742 
Q 2381 3103 1925 3103 
Q 1469 3103 1208 2742 
Q 947 2381 947 1747 
z
" transform="scale(0.015625)"/>
      <path id="DejaVuSans-76" d="M 191 3500 
L 800 3500 
L 1894 563 
L 2988 3500 
L 3597 3500 
L 2284 0 
L 1503 0 
L 191 3500 
z
" transform="scale(0.015625)"/>
      <path id="DejaVuSans-79" d="M 2059 -325 
Q 1816 -950 1584 -1140 
Q 1353 -1331 966 -1331 
L 506 -1331 
L 506 -850 
L 844 -850 
Q 1081 -850 1212 -737 
Q 1344 -625 1503 -206 
L 1606 56 
L 191 3500 
L 800 3500 
L 1894 763 
L 2988 3500 
L 3597 3500 
L 2059 -325 
z
" transform="scale(0.015625)"/>
      <path id="DejaVuSans-3a" d="M 750 794 
L 1409 794 
L 1409 0 
L 750 0 
L 750 794 
z
M 750 3309 
L 1409 3309 
L 1409 2516 
L 750 2516 
L 750 3309 
z
" transform="scale(0.015625)"/>
      <path id="DejaVuSans-47" d="M 3809 666 
L 3809 1919 
L 2778 1919 
L 2778 2438 
L 4434 2438 
L 4434 434 
Q 4069 175 3628 42 
Q 3188 -91 2688 -91 
Q 1594 -91 976 548 
Q 359 1188 359 2328 
Q 359 3472 976 4111 
Q 1594 4750 2688 4750 
Q 3144 4750 3555 4637 
Q 3966 4525 4313 4306 
L 4313 3634 
Q 3963 3931 3569 4081 
Q 3175 4231 2741 4231 
Q 1884 4231 1454 3753 
Q 1025 3275 1025 2328 
Q 1025 1384 1454 906 
Q 1884 428 2741 428 
Q 3075 428 3337 486 
Q 3600 544 3809 666 
z
" transform="scale(0.015625)"/>
      <path id="DejaVuSans-57" d="M 213 4666 
L 850 4666 
L 1831 722 
L 2809 4666 
L 3519 4666 
L 4500 722 
L 5478 4666 
L 6119 4666 
L 4947 0 
L 4153 0 
L 3169 4050 
L 2175 0 
L 1381 0 
L 213 4666 
z
" transform="scale(0.015625)"/>
      <path id="DejaVuSans-49" d="M 628 4666 
L 1259 4666 
L 1259 0 
L 628 0 
L 628 4666 
z
" transform="scale(0.015625)"/>
      <path id="DejaVuSans-73" d="M 2834 3397 
L 2834 2853 
Q 2591 2978 2328 3040 
Q 2066 3103 1784 3103 
Q 1356 3103 1142 2972 
Q 928 2841 928 2578 
Q 928 2378 1081 2264 
Q 1234 2150 1697 2047 
L 1894 2003 
Q 2506 1872 2764 1633 
Q 3022 1394 3022 966 
Q 3022 478 2636 193 
Q 2250 -91 1575 -91 
Q 1294 -91 989 -36 
Q 684 19 347 128 
L 347 722 
Q 666 556 975 473 
Q 1284 391 1588 391 
Q 1994 391 2212 530 
Q 2431 669 2431 922 
Q 2431 1156 2273 1281 
Q 2116 1406 1581 1522 
L 1381 1569 
Q 847 1681 609 1914 
Q 372 2147 372 2553 
Q 372 3047 722 3315 
Q 1072 3584 1716 3584 
Q 2034 3584 2315 3537 
Q 2597 3491 2834 3397 
z
" transform="scale(0.015625)"/>
     </defs>
     <use xlink:href="#DejaVuSans-53"/>
     <use xlink:href="#DejaVuSans-70" x="63.476562"/>
     <use xlink:href="#DejaVuSans-72" x="126.953125"/>
     <use xlink:href="#DejaVuSans-69" x="168.066406"/>
     <use xlink:href="#DejaVuSans-6e" x="195.849609"/>
     <use xlink:href="#DejaVuSans-67" x="259.228516"/>
     <use xlink:href="#DejaVuSans-20" x="322.705078"/>
     <use xlink:href="#DejaVuSans-53" x="354.492188"/>
     <use xlink:href="#DejaVuSans-70" x="417.96875"/>
     <use xlink:href="#DejaVuSans-65" x="481.445312"/>
     <use xlink:href="#DejaVuSans-63" x="542.96875"/>
     <use xlink:href="#DejaVuSans-69" x="597.949219"/>
     <use xlink:href="#DejaVuSans-66" x="625.732422"/>
     <use xlink:href="#DejaVuSans-69" x="660.9375"/>
     <use xlink:href="#DejaVuSans-63" x="688.720703"/>
     <use xlink:href="#DejaVuSans-20" x="743.701172"/>
     <use xlink:href="#DejaVuSans-43" x="775.488281"/>
     <use xlink:href="#DejaVuSans-6f" x="845.3125"/>
     <use xlink:href="#DejaVuSans-6e" x="906.494141"/>
     <use xlink:href="#DejaVuSans-64" x="969.873047"/>
     <use xlink:href="#DejaVuSans-75" x="1033.349609"/>
     <use xlink:href="#DejaVuSans-63" x="1096.728516"/>
     <use xlink:href="#DejaVuSans-74" x="1151.708984"/>
     <use xlink:href="#DejaVuSans-69" x="1190.917969"/>
     <use xlink:href="#DejaVuSans-76" x="1218.701172"/>
     <use xlink:href="#DejaVuSans-69" x="1277.880859"/>
     <use xlink:href="#DejaVuSans-74" x="1305.664062"/>
     <use xlink:href="#DejaVuSans-79" x="1344.873047"/>
     <use xlink:href="#DejaVuSans-3a" x="1396.802734"/>
     <use xlink:href="#DejaVuSans-20" x="1430.494141"/>
     <use xlink:href="#DejaVuSans-47" x="1462.28125"/>
     <use xlink:href="#DejaVuSans-57" x="1539.771484"/>
     <use xlink:href="#DejaVuSans-2d" x="1634.648438"/>
     <use xlink:href="#DejaVuSans-53" x="1670.732422"/>
     <use xlink:href="#DejaVuSans-57" x="1734.208984"/>
     <use xlink:href="#DejaVuSans-20" x="1833.085938"/>
     <use xlink:href="#DejaVuSans-49" x="1864.873047"/>
     <use xlink:href="#DejaVuSans-6e" x="1894.365234"/>
     <use xlink:href="#DejaVuSans-70" x="1957.744141"/>
     <use xlink:href="#DejaVuSans-75" x="2021.220703"/>
     <use xlink:href="#DejaVuSans-74" x="2084.599609"/>
     <use xlink:href="#DejaVuSans-73" x="2123.808594"/>
    </g>
   </g>
   <g id="legend_1">
    <g id="patch_7">
     <path d="M 97 89.19625 
L 177.84375 89.19625 
Q 179.84375 89.19625 179.84375 87.19625 
L 179.84375 58.84 
Q 179.84375 56.84 177.84375 56.84 
L 97 56.84 
Q 95 56.84 95 58.84 
L 95 87.19625 
Q 95 89.19625 97 89.19625 
z
" style="fill: #ffffff; opacity: 0.8; stroke: #cccccc; stroke-linejoin: miter"/>
    </g>
    <g id="line2d_22">
     <path d="M 99 64.938437 
L 109 64.938437 
L 119 64.938437 
" style="fill: none; stroke: #1f77b4; stroke-width: 1.5; stroke-linecap: square"/>
    </g>
    <g id="text_22">
     <!-- LSTM SC -->
     <g transform="translate(127 68.438437)scale(0.1 -0.1)">
      <defs>
       <path id="DejaVuSans-4c" d="M 628 4666 
L 1259 4666 
L 1259 531 
L 3531 531 
L 3531 0 
L 628 0 
L 628 4666 
z
" transform="scale(0.015625)"/>
       <path id="DejaVuSans-54" d="M -19 4666 
L 3928 4666 
L 3928 4134 
L 2272 4134 
L 2272 0 
L 1638 0 
L 1638 4134 
L -19 4134 
L -19 4666 
z
" transform="scale(0.015625)"/>
      </defs>
      <use xlink:href="#DejaVuSans-4c"/>
      <use xlink:href="#DejaVuSans-53" x="55.712891"/>
      <use xlink:href="#DejaVuSans-54" x="119.189453"/>
      <use xlink:href="#DejaVuSans-4d" x="180.273438"/>
      <use xlink:href="#DejaVuSans-20" x="266.552734"/>
      <use xlink:href="#DejaVuSans-53" x="298.339844"/>
      <use xlink:href="#DejaVuSans-43" x="361.816406"/>
     </g>
    </g>
    <g id="line2d_23">
     <path d="M 99 79.616562 
L 109 79.616562 
L 119 79.616562 
" style="fill: none; stroke: #ff7f0e; stroke-width: 1.5; stroke-linecap: square"/>
    </g>
    <g id="text_23">
     <!-- Measured -->
     <g transform="translate(127 83.116562)scale(0.1 -0.1)">
      <use xlink:href="#DejaVuSans-4d"/>
      <use xlink:href="#DejaVuSans-65" x="86.279297"/>
      <use xlink:href="#DejaVuSans-61" x="147.802734"/>
      <use xlink:href="#DejaVuSans-73" x="209.082031"/>
      <use xlink:href="#DejaVuSans-75" x="261.181641"/>
      <use xlink:href="#DejaVuSans-72" x="324.560547"/>
      <use xlink:href="#DejaVuSans-65" x="363.423828"/>
      <use xlink:href="#DejaVuSans-64" x="424.947266"/>
     </g>
    </g>
   </g>
  </g>
 </g>
 <defs>
  <clipPath id="p8741bb9b81">
   <rect x="90" y="51.84" width="558" height="326.16"/>
  </clipPath>
 </defs>
</svg>
