<?xml version="1.0" encoding="utf-8" standalone="no"?>
<!DOCTYPE svg PUBLIC "-//W3C//DTD SVG 1.1//EN"
  "http://www.w3.org/Graphics/SVG/1.1/DTD/svg11.dtd">
<svg xmlns:xlink="http://www.w3.org/1999/xlink" width="720pt" height="432pt" viewBox="0 0 720 432" xmlns="http://www.w3.org/2000/svg" version="1.1">
 <metadata>
  <rdf:RDF xmlns:dc="http://purl.org/dc/elements/1.1/" xmlns:cc="http://creativecommons.org/ns#" xmlns:rdf="http://www.w3.org/1999/02/22-rdf-syntax-ns#">
   <cc:Work>
    <dc:type rdf:resource="http://purl.org/dc/dcmitype/StillImage"/>
    <dc:date>2022-11-01T15:55:46.038220</dc:date>
    <dc:format>image/svg+xml</dc:format>
    <dc:creator>
     <cc:Agent>
      <dc:title>Matplotlib v3.5.1, https://matplotlib.org/</dc:title>
     </cc:Agent>
    </dc:creator>
   </cc:Work>
  </rdf:RDF>
 </metadata>
 <defs>
  <style type="text/css">*{stroke-linejoin: round; stroke-linecap: butt}</style>
 </defs>
 <g id="figure_1">
  <g id="patch_1">
   <path d="M 0 432 
L 720 432 
L 720 0 
L 0 0 
L 0 432 
z
" style="fill: none"/>
  </g>
  <g id="axes_1">
   <g id="patch_2">
    <path d="M 90 378 
L 648 378 
L 648 51.84 
L 90 51.84 
z
" style="fill: #ffffff"/>
   </g>
   <g id="matplotlib.axis_1">
    <g id="xtick_1">
     <g id="line2d_1">
      <defs>
       <path id="m7686df8513" d="M 0 0 
L 0 3.5 
" style="stroke: #000000; stroke-width: 0.8"/>
      </defs>
      <g>
       <use xlink:href="#m7686df8513" x="103.373554" y="378" style="stroke: #000000; stroke-width: 0.8"/>
      </g>
     </g>
     <g id="text_1">
      <!-- 2017-01 -->
      <g transform="translate(82.482147 392.598437)scale(0.1 -0.1)">
       <defs>
        <path id="DejaVuSans-32" d="M 1228 531 
L 3431 531 
L 3431 0 
L 469 0 
L 469 531 
Q 828 903 1448 1529 
Q 2069 2156 2228 2338 
Q 2531 2678 2651 2914 
Q 2772 3150 2772 3378 
Q 2772 3750 2511 3984 
Q 2250 4219 1831 4219 
Q 1534 4219 1204 4116 
Q 875 4013 500 3803 
L 500 4441 
Q 881 4594 1212 4672 
Q 1544 4750 1819 4750 
Q 2544 4750 2975 4387 
Q 3406 4025 3406 3419 
Q 3406 3131 3298 2873 
Q 3191 2616 2906 2266 
Q 2828 2175 2409 1742 
Q 1991 1309 1228 531 
z
" transform="scale(0.015625)"/>
        <path id="DejaVuSans-30" d="M 2034 4250 
Q 1547 4250 1301 3770 
Q 1056 3291 1056 2328 
Q 1056 1369 1301 889 
Q 1547 409 2034 409 
Q 2525 409 2770 889 
Q 3016 1369 3016 2328 
Q 3016 3291 2770 3770 
Q 2525 4250 2034 4250 
z
M 2034 4750 
Q 2819 4750 3233 4129 
Q 3647 3509 3647 2328 
Q 3647 1150 3233 529 
Q 2819 -91 2034 -91 
Q 1250 -91 836 529 
Q 422 1150 422 2328 
Q 422 3509 836 4129 
Q 1250 4750 2034 4750 
z
" transform="scale(0.015625)"/>
        <path id="DejaVuSans-31" d="M 794 531 
L 1825 531 
L 1825 4091 
L 703 3866 
L 703 4441 
L 1819 4666 
L 2450 4666 
L 2450 531 
L 3481 531 
L 3481 0 
L 794 0 
L 794 531 
z
" transform="scale(0.015625)"/>
        <path id="DejaVuSans-37" d="M 525 4666 
L 3525 4666 
L 3525 4397 
L 1831 0 
L 1172 0 
L 2766 4134 
L 525 4134 
L 525 4666 
z
" transform="scale(0.015625)"/>
        <path id="DejaVuSans-2d" d="M 313 2009 
L 1997 2009 
L 1997 1497 
L 313 1497 
L 313 2009 
z
" transform="scale(0.015625)"/>
       </defs>
       <use xlink:href="#DejaVuSans-32"/>
       <use xlink:href="#DejaVuSans-30" x="63.623047"/>
       <use xlink:href="#DejaVuSans-31" x="127.246094"/>
       <use xlink:href="#DejaVuSans-37" x="190.869141"/>
       <use xlink:href="#DejaVuSans-2d" x="254.492188"/>
       <use xlink:href="#DejaVuSans-30" x="290.576172"/>
       <use xlink:href="#DejaVuSans-31" x="354.199219"/>
      </g>
     </g>
    </g>
    <g id="xtick_2">
     <g id="line2d_2">
      <g>
       <use xlink:href="#m7686df8513" x="158.712397" y="378" style="stroke: #000000; stroke-width: 0.8"/>
      </g>
     </g>
     <g id="text_2">
      <!-- 2017-05 -->
      <g transform="translate(137.82099 392.598437)scale(0.1 -0.1)">
       <defs>
        <path id="DejaVuSans-35" d="M 691 4666 
L 3169 4666 
L 3169 4134 
L 1269 4134 
L 1269 2991 
Q 1406 3038 1543 3061 
Q 1681 3084 1819 3084 
Q 2600 3084 3056 2656 
Q 3513 2228 3513 1497 
Q 3513 744 3044 326 
Q 2575 -91 1722 -91 
Q 1428 -91 1123 -41 
Q 819 9 494 109 
L 494 744 
Q 775 591 1075 516 
Q 1375 441 1709 441 
Q 2250 441 2565 725 
Q 2881 1009 2881 1497 
Q 2881 1984 2565 2268 
Q 2250 2553 1709 2553 
Q 1456 2553 1204 2497 
Q 953 2441 691 2322 
L 691 4666 
z
" transform="scale(0.015625)"/>
       </defs>
       <use xlink:href="#DejaVuSans-32"/>
       <use xlink:href="#DejaVuSans-30" x="63.623047"/>
       <use xlink:href="#DejaVuSans-31" x="127.246094"/>
       <use xlink:href="#DejaVuSans-37" x="190.869141"/>
       <use xlink:href="#DejaVuSans-2d" x="254.492188"/>
       <use xlink:href="#DejaVuSans-30" x="290.576172"/>
       <use xlink:href="#DejaVuSans-35" x="354.199219"/>
      </g>
     </g>
    </g>
    <g id="xtick_3">
     <g id="line2d_3">
      <g>
       <use xlink:href="#m7686df8513" x="215.434711" y="378" style="stroke: #000000; stroke-width: 0.8"/>
      </g>
     </g>
     <g id="text_3">
      <!-- 2017-09 -->
      <g transform="translate(194.543304 392.598437)scale(0.1 -0.1)">
       <defs>
        <path id="DejaVuSans-39" d="M 703 97 
L 703 672 
Q 941 559 1184 500 
Q 1428 441 1663 441 
Q 2288 441 2617 861 
Q 2947 1281 2994 2138 
Q 2813 1869 2534 1725 
Q 2256 1581 1919 1581 
Q 1219 1581 811 2004 
Q 403 2428 403 3163 
Q 403 3881 828 4315 
Q 1253 4750 1959 4750 
Q 2769 4750 3195 4129 
Q 3622 3509 3622 2328 
Q 3622 1225 3098 567 
Q 2575 -91 1691 -91 
Q 1453 -91 1209 -44 
Q 966 3 703 97 
z
M 1959 2075 
Q 2384 2075 2632 2365 
Q 2881 2656 2881 3163 
Q 2881 3666 2632 3958 
Q 2384 4250 1959 4250 
Q 1534 4250 1286 3958 
Q 1038 3666 1038 3163 
Q 1038 2656 1286 2365 
Q 1534 2075 1959 2075 
z
" transform="scale(0.015625)"/>
       </defs>
       <use xlink:href="#DejaVuSans-32"/>
       <use xlink:href="#DejaVuSans-30" x="63.623047"/>
       <use xlink:href="#DejaVuSans-31" x="127.246094"/>
       <use xlink:href="#DejaVuSans-37" x="190.869141"/>
       <use xlink:href="#DejaVuSans-2d" x="254.492188"/>
       <use xlink:href="#DejaVuSans-30" x="290.576172"/>
       <use xlink:href="#DejaVuSans-39" x="354.199219"/>
      </g>
     </g>
    </g>
    <g id="xtick_4">
     <g id="line2d_4">
      <g>
       <use xlink:href="#m7686df8513" x="271.695868" y="378" style="stroke: #000000; stroke-width: 0.8"/>
      </g>
     </g>
     <g id="text_4">
      <!-- 2018-01 -->
      <g transform="translate(250.804462 392.598437)scale(0.1 -0.1)">
       <defs>
        <path id="DejaVuSans-38" d="M 2034 2216 
Q 1584 2216 1326 1975 
Q 1069 1734 1069 1313 
Q 1069 891 1326 650 
Q 1584 409 2034 409 
Q 2484 409 2743 651 
Q 3003 894 3003 1313 
Q 3003 1734 2745 1975 
Q 2488 2216 2034 2216 
z
M 1403 2484 
Q 997 2584 770 2862 
Q 544 3141 544 3541 
Q 544 4100 942 4425 
Q 1341 4750 2034 4750 
Q 2731 4750 3128 4425 
Q 3525 4100 3525 3541 
Q 3525 3141 3298 2862 
Q 3072 2584 2669 2484 
Q 3125 2378 3379 2068 
Q 3634 1759 3634 1313 
Q 3634 634 3220 271 
Q 2806 -91 2034 -91 
Q 1263 -91 848 271 
Q 434 634 434 1313 
Q 434 1759 690 2068 
Q 947 2378 1403 2484 
z
M 1172 3481 
Q 1172 3119 1398 2916 
Q 1625 2713 2034 2713 
Q 2441 2713 2670 2916 
Q 2900 3119 2900 3481 
Q 2900 3844 2670 4047 
Q 2441 4250 2034 4250 
Q 1625 4250 1398 4047 
Q 1172 3844 1172 3481 
z
" transform="scale(0.015625)"/>
       </defs>
       <use xlink:href="#DejaVuSans-32"/>
       <use xlink:href="#DejaVuSans-30" x="63.623047"/>
       <use xlink:href="#DejaVuSans-31" x="127.246094"/>
       <use xlink:href="#DejaVuSans-38" x="190.869141"/>
       <use xlink:href="#DejaVuSans-2d" x="254.492188"/>
       <use xlink:href="#DejaVuSans-30" x="290.576172"/>
       <use xlink:href="#DejaVuSans-31" x="354.199219"/>
      </g>
     </g>
    </g>
    <g id="xtick_5">
     <g id="line2d_5">
      <g>
       <use xlink:href="#m7686df8513" x="327.034711" y="378" style="stroke: #000000; stroke-width: 0.8"/>
      </g>
     </g>
     <g id="text_5">
      <!-- 2018-05 -->
      <g transform="translate(306.143304 392.598437)scale(0.1 -0.1)">
       <use xlink:href="#DejaVuSans-32"/>
       <use xlink:href="#DejaVuSans-30" x="63.623047"/>
       <use xlink:href="#DejaVuSans-31" x="127.246094"/>
       <use xlink:href="#DejaVuSans-38" x="190.869141"/>
       <use xlink:href="#DejaVuSans-2d" x="254.492188"/>
       <use xlink:href="#DejaVuSans-30" x="290.576172"/>
       <use xlink:href="#DejaVuSans-35" x="354.199219"/>
      </g>
     </g>
    </g>
    <g id="xtick_6">
     <g id="line2d_6">
      <g>
       <use xlink:href="#m7686df8513" x="383.757025" y="378" style="stroke: #000000; stroke-width: 0.8"/>
      </g>
     </g>
     <g id="text_6">
      <!-- 2018-09 -->
      <g transform="translate(362.865619 392.598437)scale(0.1 -0.1)">
       <use xlink:href="#DejaVuSans-32"/>
       <use xlink:href="#DejaVuSans-30" x="63.623047"/>
       <use xlink:href="#DejaVuSans-31" x="127.246094"/>
       <use xlink:href="#DejaVuSans-38" x="190.869141"/>
       <use xlink:href="#DejaVuSans-2d" x="254.492188"/>
       <use xlink:href="#DejaVuSans-30" x="290.576172"/>
       <use xlink:href="#DejaVuSans-39" x="354.199219"/>
      </g>
     </g>
    </g>
    <g id="xtick_7">
     <g id="line2d_7">
      <g>
       <use xlink:href="#m7686df8513" x="440.018182" y="378" style="stroke: #000000; stroke-width: 0.8"/>
      </g>
     </g>
     <g id="text_7">
      <!-- 2019-01 -->
      <g transform="translate(419.126776 392.598437)scale(0.1 -0.1)">
       <use xlink:href="#DejaVuSans-32"/>
       <use xlink:href="#DejaVuSans-30" x="63.623047"/>
       <use xlink:href="#DejaVuSans-31" x="127.246094"/>
       <use xlink:href="#DejaVuSans-39" x="190.869141"/>
       <use xlink:href="#DejaVuSans-2d" x="254.492188"/>
       <use xlink:href="#DejaVuSans-30" x="290.576172"/>
       <use xlink:href="#DejaVuSans-31" x="354.199219"/>
      </g>
     </g>
    </g>
    <g id="xtick_8">
     <g id="line2d_8">
      <g>
       <use xlink:href="#m7686df8513" x="495.357025" y="378" style="stroke: #000000; stroke-width: 0.8"/>
      </g>
     </g>
     <g id="text_8">
      <!-- 2019-05 -->
      <g transform="translate(474.465619 392.598437)scale(0.1 -0.1)">
       <use xlink:href="#DejaVuSans-32"/>
       <use xlink:href="#DejaVuSans-30" x="63.623047"/>
       <use xlink:href="#DejaVuSans-31" x="127.246094"/>
       <use xlink:href="#DejaVuSans-39" x="190.869141"/>
       <use xlink:href="#DejaVuSans-2d" x="254.492188"/>
       <use xlink:href="#DejaVuSans-30" x="290.576172"/>
       <use xlink:href="#DejaVuSans-35" x="354.199219"/>
      </g>
     </g>
    </g>
    <g id="xtick_9">
     <g id="line2d_9">
      <g>
       <use xlink:href="#m7686df8513" x="552.079339" y="378" style="stroke: #000000; stroke-width: 0.8"/>
      </g>
     </g>
     <g id="text_9">
      <!-- 2019-09 -->
      <g transform="translate(531.187933 392.598437)scale(0.1 -0.1)">
       <use xlink:href="#DejaVuSans-32"/>
       <use xlink:href="#DejaVuSans-30" x="63.623047"/>
       <use xlink:href="#DejaVuSans-31" x="127.246094"/>
       <use xlink:href="#DejaVuSans-39" x="190.869141"/>
       <use xlink:href="#DejaVuSans-2d" x="254.492188"/>
       <use xlink:href="#DejaVuSans-30" x="290.576172"/>
       <use xlink:href="#DejaVuSans-39" x="354.199219"/>
      </g>
     </g>
    </g>
    <g id="xtick_10">
     <g id="line2d_10">
      <g>
       <use xlink:href="#m7686df8513" x="608.340496" y="378" style="stroke: #000000; stroke-width: 0.8"/>
      </g>
     </g>
     <g id="text_10">
      <!-- 2020-01 -->
      <g transform="translate(587.44909 392.598437)scale(0.1 -0.1)">
       <use xlink:href="#DejaVuSans-32"/>
       <use xlink:href="#DejaVuSans-30" x="63.623047"/>
       <use xlink:href="#DejaVuSans-32" x="127.246094"/>
       <use xlink:href="#DejaVuSans-30" x="190.869141"/>
       <use xlink:href="#DejaVuSans-2d" x="254.492188"/>
       <use xlink:href="#DejaVuSans-30" x="290.576172"/>
       <use xlink:href="#DejaVuSans-31" x="354.199219"/>
      </g>
     </g>
    </g>
    <g id="text_11">
     <!-- Date [Year-Month] -->
     <g transform="translate(323.814844 406.276563)scale(0.1 -0.1)">
      <defs>
       <path id="DejaVuSans-44" d="M 1259 4147 
L 1259 519 
L 2022 519 
Q 2988 519 3436 956 
Q 3884 1394 3884 2338 
Q 3884 3275 3436 3711 
Q 2988 4147 2022 4147 
L 1259 4147 
z
M 628 4666 
L 1925 4666 
Q 3281 4666 3915 4102 
Q 4550 3538 4550 2338 
Q 4550 1131 3912 565 
Q 3275 0 1925 0 
L 628 0 
L 628 4666 
z
" transform="scale(0.015625)"/>
       <path id="DejaVuSans-61" d="M 2194 1759 
Q 1497 1759 1228 1600 
Q 959 1441 959 1056 
Q 959 750 1161 570 
Q 1363 391 1709 391 
Q 2188 391 2477 730 
Q 2766 1069 2766 1631 
L 2766 1759 
L 2194 1759 
z
M 3341 1997 
L 3341 0 
L 2766 0 
L 2766 531 
Q 2569 213 2275 61 
Q 1981 -91 1556 -91 
Q 1019 -91 701 211 
Q 384 513 384 1019 
Q 384 1609 779 1909 
Q 1175 2209 1959 2209 
L 2766 2209 
L 2766 2266 
Q 2766 2663 2505 2880 
Q 2244 3097 1772 3097 
Q 1472 3097 1187 3025 
Q 903 2953 641 2809 
L 641 3341 
Q 956 3463 1253 3523 
Q 1550 3584 1831 3584 
Q 2591 3584 2966 3190 
Q 3341 2797 3341 1997 
z
" transform="scale(0.015625)"/>
       <path id="DejaVuSans-74" d="M 1172 4494 
L 1172 3500 
L 2356 3500 
L 2356 3053 
L 1172 3053 
L 1172 1153 
Q 1172 725 1289 603 
Q 1406 481 1766 481 
L 2356 481 
L 2356 0 
L 1766 0 
Q 1100 0 847 248 
Q 594 497 594 1153 
L 594 3053 
L 172 3053 
L 172 3500 
L 594 3500 
L 594 4494 
L 1172 4494 
z
" transform="scale(0.015625)"/>
       <path id="DejaVuSans-65" d="M 3597 1894 
L 3597 1613 
L 953 1613 
Q 991 1019 1311 708 
Q 1631 397 2203 397 
Q 2534 397 2845 478 
Q 3156 559 3463 722 
L 3463 178 
Q 3153 47 2828 -22 
Q 2503 -91 2169 -91 
Q 1331 -91 842 396 
Q 353 884 353 1716 
Q 353 2575 817 3079 
Q 1281 3584 2069 3584 
Q 2775 3584 3186 3129 
Q 3597 2675 3597 1894 
z
M 3022 2063 
Q 3016 2534 2758 2815 
Q 2500 3097 2075 3097 
Q 1594 3097 1305 2825 
Q 1016 2553 972 2059 
L 3022 2063 
z
" transform="scale(0.015625)"/>
       <path id="DejaVuSans-20" transform="scale(0.015625)"/>
       <path id="DejaVuSans-5b" d="M 550 4863 
L 1875 4863 
L 1875 4416 
L 1125 4416 
L 1125 -397 
L 1875 -397 
L 1875 -844 
L 550 -844 
L 550 4863 
z
" transform="scale(0.015625)"/>
       <path id="DejaVuSans-59" d="M -13 4666 
L 666 4666 
L 1959 2747 
L 3244 4666 
L 3922 4666 
L 2272 2222 
L 2272 0 
L 1638 0 
L 1638 2222 
L -13 4666 
z
" transform="scale(0.015625)"/>
       <path id="DejaVuSans-72" d="M 2631 2963 
Q 2534 3019 2420 3045 
Q 2306 3072 2169 3072 
Q 1681 3072 1420 2755 
Q 1159 2438 1159 1844 
L 1159 0 
L 581 0 
L 581 3500 
L 1159 3500 
L 1159 2956 
Q 1341 3275 1631 3429 
Q 1922 3584 2338 3584 
Q 2397 3584 2469 3576 
Q 2541 3569 2628 3553 
L 2631 2963 
z
" transform="scale(0.015625)"/>
       <path id="DejaVuSans-4d" d="M 628 4666 
L 1569 4666 
L 2759 1491 
L 3956 4666 
L 4897 4666 
L 4897 0 
L 4281 0 
L 4281 4097 
L 3078 897 
L 2444 897 
L 1241 4097 
L 1241 0 
L 628 0 
L 628 4666 
z
" transform="scale(0.015625)"/>
       <path id="DejaVuSans-6f" d="M 1959 3097 
Q 1497 3097 1228 2736 
Q 959 2375 959 1747 
Q 959 1119 1226 758 
Q 1494 397 1959 397 
Q 2419 397 2687 759 
Q 2956 1122 2956 1747 
Q 2956 2369 2687 2733 
Q 2419 3097 1959 3097 
z
M 1959 3584 
Q 2709 3584 3137 3096 
Q 3566 2609 3566 1747 
Q 3566 888 3137 398 
Q 2709 -91 1959 -91 
Q 1206 -91 779 398 
Q 353 888 353 1747 
Q 353 2609 779 3096 
Q 1206 3584 1959 3584 
z
" transform="scale(0.015625)"/>
       <path id="DejaVuSans-6e" d="M 3513 2113 
L 3513 0 
L 2938 0 
L 2938 2094 
Q 2938 2591 2744 2837 
Q 2550 3084 2163 3084 
Q 1697 3084 1428 2787 
Q 1159 2491 1159 1978 
L 1159 0 
L 581 0 
L 581 3500 
L 1159 3500 
L 1159 2956 
Q 1366 3272 1645 3428 
Q 1925 3584 2291 3584 
Q 2894 3584 3203 3211 
Q 3513 2838 3513 2113 
z
" transform="scale(0.015625)"/>
       <path id="DejaVuSans-68" d="M 3513 2113 
L 3513 0 
L 2938 0 
L 2938 2094 
Q 2938 2591 2744 2837 
Q 2550 3084 2163 3084 
Q 1697 3084 1428 2787 
Q 1159 2491 1159 1978 
L 1159 0 
L 581 0 
L 581 4863 
L 1159 4863 
L 1159 2956 
Q 1366 3272 1645 3428 
Q 1925 3584 2291 3584 
Q 2894 3584 3203 3211 
Q 3513 2838 3513 2113 
z
" transform="scale(0.015625)"/>
       <path id="DejaVuSans-5d" d="M 1947 4863 
L 1947 -844 
L 622 -844 
L 622 -397 
L 1369 -397 
L 1369 4416 
L 622 4416 
L 622 4863 
L 1947 4863 
z
" transform="scale(0.015625)"/>
      </defs>
      <use xlink:href="#DejaVuSans-44"/>
      <use xlink:href="#DejaVuSans-61" x="77.001953"/>
      <use xlink:href="#DejaVuSans-74" x="138.28125"/>
      <use xlink:href="#DejaVuSans-65" x="177.490234"/>
      <use xlink:href="#DejaVuSans-20" x="239.013672"/>
      <use xlink:href="#DejaVuSans-5b" x="270.800781"/>
      <use xlink:href="#DejaVuSans-59" x="309.814453"/>
      <use xlink:href="#DejaVuSans-65" x="357.648438"/>
      <use xlink:href="#DejaVuSans-61" x="419.171875"/>
      <use xlink:href="#DejaVuSans-72" x="480.451172"/>
      <use xlink:href="#DejaVuSans-2d" x="515.189453"/>
      <use xlink:href="#DejaVuSans-4d" x="551.273438"/>
      <use xlink:href="#DejaVuSans-6f" x="637.552734"/>
      <use xlink:href="#DejaVuSans-6e" x="698.734375"/>
      <use xlink:href="#DejaVuSans-74" x="762.113281"/>
      <use xlink:href="#DejaVuSans-68" x="801.322266"/>
      <use xlink:href="#DejaVuSans-5d" x="864.701172"/>
     </g>
    </g>
   </g>
   <g id="matplotlib.axis_2">
    <g id="ytick_1">
     <g id="line2d_11">
      <defs>
       <path id="mff25bc4f38" d="M 0 0 
L -3.5 0 
" style="stroke: #000000; stroke-width: 0.8"/>
      </defs>
      <g>
       <use xlink:href="#mff25bc4f38" x="90" y="317.780151" style="stroke: #000000; stroke-width: 0.8"/>
      </g>
     </g>
     <g id="text_12">
      <!-- 0.35 -->
      <g transform="translate(60.734375 321.57937)scale(0.1 -0.1)">
       <defs>
        <path id="DejaVuSans-2e" d="M 684 794 
L 1344 794 
L 1344 0 
L 684 0 
L 684 794 
z
" transform="scale(0.015625)"/>
        <path id="DejaVuSans-33" d="M 2597 2516 
Q 3050 2419 3304 2112 
Q 3559 1806 3559 1356 
Q 3559 666 3084 287 
Q 2609 -91 1734 -91 
Q 1441 -91 1130 -33 
Q 819 25 488 141 
L 488 750 
Q 750 597 1062 519 
Q 1375 441 1716 441 
Q 2309 441 2620 675 
Q 2931 909 2931 1356 
Q 2931 1769 2642 2001 
Q 2353 2234 1838 2234 
L 1294 2234 
L 1294 2753 
L 1863 2753 
Q 2328 2753 2575 2939 
Q 2822 3125 2822 3475 
Q 2822 3834 2567 4026 
Q 2313 4219 1838 4219 
Q 1578 4219 1281 4162 
Q 984 4106 628 3988 
L 628 4550 
Q 988 4650 1302 4700 
Q 1616 4750 1894 4750 
Q 2613 4750 3031 4423 
Q 3450 4097 3450 3541 
Q 3450 3153 3228 2886 
Q 3006 2619 2597 2516 
z
" transform="scale(0.015625)"/>
       </defs>
       <use xlink:href="#DejaVuSans-30"/>
       <use xlink:href="#DejaVuSans-2e" x="63.623047"/>
       <use xlink:href="#DejaVuSans-33" x="95.410156"/>
       <use xlink:href="#DejaVuSans-35" x="159.033203"/>
      </g>
     </g>
    </g>
    <g id="ytick_2">
     <g id="line2d_12">
      <g>
       <use xlink:href="#mff25bc4f38" x="90" y="255.229523" style="stroke: #000000; stroke-width: 0.8"/>
      </g>
     </g>
     <g id="text_13">
      <!-- 0.40 -->
      <g transform="translate(60.734375 259.028741)scale(0.1 -0.1)">
       <defs>
        <path id="DejaVuSans-34" d="M 2419 4116 
L 825 1625 
L 2419 1625 
L 2419 4116 
z
M 2253 4666 
L 3047 4666 
L 3047 1625 
L 3713 1625 
L 3713 1100 
L 3047 1100 
L 3047 0 
L 2419 0 
L 2419 1100 
L 313 1100 
L 313 1709 
L 2253 4666 
z
" transform="scale(0.015625)"/>
       </defs>
       <use xlink:href="#DejaVuSans-30"/>
       <use xlink:href="#DejaVuSans-2e" x="63.623047"/>
       <use xlink:href="#DejaVuSans-34" x="95.410156"/>
       <use xlink:href="#DejaVuSans-30" x="159.033203"/>
      </g>
     </g>
    </g>
    <g id="ytick_3">
     <g id="line2d_13">
      <g>
       <use xlink:href="#mff25bc4f38" x="90" y="192.678894" style="stroke: #000000; stroke-width: 0.8"/>
      </g>
     </g>
     <g id="text_14">
      <!-- 0.45 -->
      <g transform="translate(60.734375 196.478113)scale(0.1 -0.1)">
       <use xlink:href="#DejaVuSans-30"/>
       <use xlink:href="#DejaVuSans-2e" x="63.623047"/>
       <use xlink:href="#DejaVuSans-34" x="95.410156"/>
       <use xlink:href="#DejaVuSans-35" x="159.033203"/>
      </g>
     </g>
    </g>
    <g id="ytick_4">
     <g id="line2d_14">
      <g>
       <use xlink:href="#mff25bc4f38" x="90" y="130.128266" style="stroke: #000000; stroke-width: 0.8"/>
      </g>
     </g>
     <g id="text_15">
      <!-- 0.50 -->
      <g transform="translate(60.734375 133.927485)scale(0.1 -0.1)">
       <use xlink:href="#DejaVuSans-30"/>
       <use xlink:href="#DejaVuSans-2e" x="63.623047"/>
       <use xlink:href="#DejaVuSans-35" x="95.410156"/>
       <use xlink:href="#DejaVuSans-30" x="159.033203"/>
      </g>
     </g>
    </g>
    <g id="ytick_5">
     <g id="line2d_15">
      <g>
       <use xlink:href="#mff25bc4f38" x="90" y="67.577637" style="stroke: #000000; stroke-width: 0.8"/>
      </g>
     </g>
     <g id="text_16">
      <!-- 0.55 -->
      <g transform="translate(60.734375 71.376856)scale(0.1 -0.1)">
       <use xlink:href="#DejaVuSans-30"/>
       <use xlink:href="#DejaVuSans-2e" x="63.623047"/>
       <use xlink:href="#DejaVuSans-35" x="95.410156"/>
       <use xlink:href="#DejaVuSans-35" x="159.033203"/>
      </g>
     </g>
    </g>
    <g id="text_17">
     <!-- Spring NO3-NO2 -->
     <g transform="translate(54.654687 256.164531)rotate(-90)scale(0.1 -0.1)">
      <defs>
       <path id="DejaVuSans-53" d="M 3425 4513 
L 3425 3897 
Q 3066 4069 2747 4153 
Q 2428 4238 2131 4238 
Q 1616 4238 1336 4038 
Q 1056 3838 1056 3469 
Q 1056 3159 1242 3001 
Q 1428 2844 1947 2747 
L 2328 2669 
Q 3034 2534 3370 2195 
Q 3706 1856 3706 1288 
Q 3706 609 3251 259 
Q 2797 -91 1919 -91 
Q 1588 -91 1214 -16 
Q 841 59 441 206 
L 441 856 
Q 825 641 1194 531 
Q 1563 422 1919 422 
Q 2459 422 2753 634 
Q 3047 847 3047 1241 
Q 3047 1584 2836 1778 
Q 2625 1972 2144 2069 
L 1759 2144 
Q 1053 2284 737 2584 
Q 422 2884 422 3419 
Q 422 4038 858 4394 
Q 1294 4750 2059 4750 
Q 2388 4750 2728 4690 
Q 3069 4631 3425 4513 
z
" transform="scale(0.015625)"/>
       <path id="DejaVuSans-70" d="M 1159 525 
L 1159 -1331 
L 581 -1331 
L 581 3500 
L 1159 3500 
L 1159 2969 
Q 1341 3281 1617 3432 
Q 1894 3584 2278 3584 
Q 2916 3584 3314 3078 
Q 3713 2572 3713 1747 
Q 3713 922 3314 415 
Q 2916 -91 2278 -91 
Q 1894 -91 1617 61 
Q 1341 213 1159 525 
z
M 3116 1747 
Q 3116 2381 2855 2742 
Q 2594 3103 2138 3103 
Q 1681 3103 1420 2742 
Q 1159 2381 1159 1747 
Q 1159 1113 1420 752 
Q 1681 391 2138 391 
Q 2594 391 2855 752 
Q 3116 1113 3116 1747 
z
" transform="scale(0.015625)"/>
       <path id="DejaVuSans-69" d="M 603 3500 
L 1178 3500 
L 1178 0 
L 603 0 
L 603 3500 
z
M 603 4863 
L 1178 4863 
L 1178 4134 
L 603 4134 
L 603 4863 
z
" transform="scale(0.015625)"/>
       <path id="DejaVuSans-67" d="M 2906 1791 
Q 2906 2416 2648 2759 
Q 2391 3103 1925 3103 
Q 1463 3103 1205 2759 
Q 947 2416 947 1791 
Q 947 1169 1205 825 
Q 1463 481 1925 481 
Q 2391 481 2648 825 
Q 2906 1169 2906 1791 
z
M 3481 434 
Q 3481 -459 3084 -895 
Q 2688 -1331 1869 -1331 
Q 1566 -1331 1297 -1286 
Q 1028 -1241 775 -1147 
L 775 -588 
Q 1028 -725 1275 -790 
Q 1522 -856 1778 -856 
Q 2344 -856 2625 -561 
Q 2906 -266 2906 331 
L 2906 616 
Q 2728 306 2450 153 
Q 2172 0 1784 0 
Q 1141 0 747 490 
Q 353 981 353 1791 
Q 353 2603 747 3093 
Q 1141 3584 1784 3584 
Q 2172 3584 2450 3431 
Q 2728 3278 2906 2969 
L 2906 3500 
L 3481 3500 
L 3481 434 
z
" transform="scale(0.015625)"/>
       <path id="DejaVuSans-4e" d="M 628 4666 
L 1478 4666 
L 3547 763 
L 3547 4666 
L 4159 4666 
L 4159 0 
L 3309 0 
L 1241 3903 
L 1241 0 
L 628 0 
L 628 4666 
z
" transform="scale(0.015625)"/>
       <path id="DejaVuSans-4f" d="M 2522 4238 
Q 1834 4238 1429 3725 
Q 1025 3213 1025 2328 
Q 1025 1447 1429 934 
Q 1834 422 2522 422 
Q 3209 422 3611 934 
Q 4013 1447 4013 2328 
Q 4013 3213 3611 3725 
Q 3209 4238 2522 4238 
z
M 2522 4750 
Q 3503 4750 4090 4092 
Q 4678 3434 4678 2328 
Q 4678 1225 4090 567 
Q 3503 -91 2522 -91 
Q 1538 -91 948 565 
Q 359 1222 359 2328 
Q 359 3434 948 4092 
Q 1538 4750 2522 4750 
z
" transform="scale(0.015625)"/>
      </defs>
      <use xlink:href="#DejaVuSans-53"/>
      <use xlink:href="#DejaVuSans-70" x="63.476562"/>
      <use xlink:href="#DejaVuSans-72" x="126.953125"/>
      <use xlink:href="#DejaVuSans-69" x="168.066406"/>
      <use xlink:href="#DejaVuSans-6e" x="195.849609"/>
      <use xlink:href="#DejaVuSans-67" x="259.228516"/>
      <use xlink:href="#DejaVuSans-20" x="322.705078"/>
      <use xlink:href="#DejaVuSans-4e" x="354.492188"/>
      <use xlink:href="#DejaVuSans-4f" x="429.296875"/>
      <use xlink:href="#DejaVuSans-33" x="508.007812"/>
      <use xlink:href="#DejaVuSans-2d" x="571.630859"/>
      <use xlink:href="#DejaVuSans-4e" x="607.714844"/>
      <use xlink:href="#DejaVuSans-4f" x="682.519531"/>
      <use xlink:href="#DejaVuSans-32" x="761.230469"/>
     </g>
    </g>
   </g>
   <g id="line2d_16">
    <path d="M 470.454545 378 
L 470.454545 51.84 
" clip-path="url(#p92b0483574)" style="fill: none; stroke-dasharray: 5.55,2.4; stroke-dashoffset: 0; stroke: #ff0000; stroke-width: 1.5"/>
   </g>
   <g id="line2d_17">
    <path d="M 115.363636 271.540751 
L 115.824793 221.740548 
L 116.28595 226.322937 
L 116.747107 227.752407 
L 117.208264 169.662684 
L 117.669421 159.842992 
L 118.130579 189.727543 
L 118.591736 184.731536 
L 119.052893 140.278062 
L 119.51405 251.43324 
L 119.975207 247.379749 
L 120.436364 196.696124 
L 120.897521 245.248686 
L 121.358678 259.235918 
L 121.819835 179.810244 
L 122.280992 246.043076 
L 122.742149 153.032902 
L 123.203306 169.865281 
L 123.664463 216.824066 
L 124.12562 284.692283 
L 124.586777 263.183376 
L 125.047934 172.225933 
L 125.509091 118.998372 
L 125.970248 221.77373 
L 126.431405 225.60397 
L 126.892562 169.565264 
L 127.353719 215.751058 
L 127.814876 226.669558 
L 128.276033 253.931952 
L 128.73719 218.895849 
L 129.198347 211.589782 
L 129.659504 196.940216 
L 130.120661 220.26082 
L 130.581818 220.847805 
L 131.042975 247.057698 
L 131.504132 222.892856 
L 131.965289 191.095758 
L 132.426446 277.793757 
L 132.887603 219.830238 
L 133.34876 141.449422 
L 133.809917 204.854109 
L 134.271074 212.676174 
L 134.732231 179.198019 
L 135.193388 163.791382 
L 135.654545 171.834424 
L 136.115702 167.332529 
L 136.57686 182.327038 
L 137.038017 221.780776 
L 137.960331 138.067623 
L 138.421488 178.94207 
L 138.882645 174.240264 
L 139.343802 98.32908 
L 139.804959 155.744724 
L 140.266116 253.865812 
L 140.727273 196.316694 
L 141.18843 159.737742 
L 141.649587 139.409478 
L 142.110744 229.44066 
L 142.571901 150.369175 
L 143.033058 195.578899 
L 143.494215 189.538704 
L 143.955372 167.815494 
L 144.416529 203.723872 
L 144.877686 184.181089 
L 145.338843 223.051197 
L 145.8 221.032729 
L 146.261157 174.643219 
L 146.722314 232.555326 
L 147.183471 214.820659 
L 147.644628 267.052204 
L 148.105785 243.60439 
L 148.566942 164.122158 
L 149.028099 231.004014 
L 149.489256 189.141677 
L 149.950413 170.338515 
L 150.41157 185.105448 
L 150.872727 179.621219 
L 151.333884 250.354678 
L 151.795041 192.77551 
L 152.256198 216.677245 
L 152.717355 230.541256 
L 153.178512 154.075673 
L 153.639669 195.591501 
L 154.100826 180.872588 
L 154.561983 122.551002 
L 155.02314 175.911403 
L 155.484298 249.523004 
L 155.945455 138.905299 
L 156.406612 138.479228 
L 156.867769 226.798594 
L 157.328926 251.569995 
L 157.790083 184.794209 
L 158.25124 84.8033 
L 158.712397 139.428642 
L 160.095868 232.13041 
L 160.557025 250.914446 
L 161.018182 253.616612 
L 161.479339 197.745232 
L 161.940496 165.059231 
L 162.401653 170.107248 
L 162.86281 145.038739 
L 163.323967 205.03441 
L 163.785124 172.479048 
L 164.246281 189.242602 
L 164.707438 110.989668 
L 165.168595 196.005492 
L 165.629752 162.268518 
L 166.090909 203.164179 
L 166.552066 127.993959 
L 167.013223 99.433553 
L 167.47438 137.290532 
L 167.935537 209.123842 
L 168.396694 179.133631 
L 168.857851 181.527913 
L 169.319008 101.159313 
L 169.780165 177.867385 
L 170.241322 151.540461 
L 170.702479 192.638867 
L 171.624793 185.797832 
L 172.08595 171.308099 
L 172.547107 194.356685 
L 173.008264 208.901225 
L 173.469421 176.065308 
L 173.930579 230.168276 
L 174.391736 220.835725 
L 174.852893 230.344476 
L 175.31405 226.056139 
L 175.775207 188.049544 
L 176.236364 183.689623 
L 176.697521 200.794354 
L 177.158678 222.956088 
L 177.619835 254.918798 
L 178.080992 215.901347 
L 179.003306 208.161155 
L 179.464463 260.625495 
L 179.92562 241.445178 
L 180.386777 254.963575 
L 180.847934 275.972814 
L 181.309091 187.446788 
L 181.770248 250.023306 
L 182.231405 238.093317 
L 182.692562 255.080644 
L 183.153719 252.290863 
L 183.614876 234.580878 
L 184.076033 255.60037 
L 184.53719 213.621524 
L 184.998347 227.371262 
L 185.459504 226.698564 
L 185.920661 245.048513 
L 186.381818 180.083566 
L 187.304132 253.961704 
L 187.765289 254.626089 
L 188.226446 228.647127 
L 188.687603 177.829692 
L 189.14876 233.849048 
L 189.609917 225.822896 
L 190.071074 260.278576 
L 190.993388 193.226187 
L 191.454545 245.448337 
L 191.915702 245.99472 
L 192.37686 256.777956 
L 192.838017 214.293476 
L 193.299174 242.576123 
L 193.760331 280.45301 
L 194.221488 253.989107 
L 194.682645 266.590117 
L 195.143802 264.048418 
L 195.604959 228.846106 
L 196.066116 269.569855 
L 196.527273 279.305847 
L 196.98843 261.217327 
L 197.449587 257.112385 
L 197.910744 212.354197 
L 198.371901 310.205877 
L 198.833058 272.171096 
L 199.755372 256.417466 
L 200.216529 278.576292 
L 200.677686 252.567876 
L 201.138843 242.763768 
L 202.061157 284.86125 
L 202.522314 257.129349 
L 202.983471 242.898659 
L 203.444628 235.396147 
L 203.905785 219.0911 
L 204.366942 248.410887 
L 204.828099 244.820191 
L 205.289256 245.318852 
L 205.750413 236.301231 
L 206.21157 267.421343 
L 206.672727 200.165389 
L 207.133884 203.583166 
L 207.595041 254.973865 
L 208.056198 276.427668 
L 208.517355 229.954719 
L 209.439669 278.348306 
L 209.900826 240.050045 
L 210.82314 247.192103 
L 211.284298 233.325258 
L 211.745455 269.95238 
L 212.206612 246.447523 
L 212.667769 197.822595 
L 213.128926 266.442663 
L 213.590083 252.657095 
L 214.05124 258.282888 
L 214.512397 253.260484 
L 214.973554 259.50115 
L 215.434711 260.330102 
L 215.895868 199.754753 
L 216.357025 285.386382 
L 216.818182 234.894615 
L 217.279339 242.969273 
L 217.740496 242.928821 
L 218.201653 201.820609 
L 218.66281 254.230403 
L 219.123967 213.173977 
L 219.585124 269.401895 
L 220.046281 231.075336 
L 220.507438 260.30322 
L 220.968595 253.407789 
L 221.429752 272.623787 
L 222.352066 236.511508 
L 222.813223 190.788806 
L 223.27438 217.829702 
L 223.735537 223.40438 
L 224.196694 233.561148 
L 224.657851 238.804529 
L 225.119008 264.096737 
L 225.580165 249.072326 
L 226.041322 239.72639 
L 226.502479 255.559247 
L 226.963636 248.263545 
L 227.424793 235.225353 
L 227.88595 244.946096 
L 228.347107 225.50476 
L 228.808264 249.914663 
L 229.269421 255.072665 
L 229.730579 279.237507 
L 230.191736 203.808654 
L 230.652893 301.506542 
L 231.11405 201.206854 
L 231.575207 236.67231 
L 232.036364 234.755549 
L 232.497521 232.026428 
L 232.958678 210.027472 
L 233.419835 233.086982 
L 233.880992 228.88764 
L 234.342149 237.023516 
L 234.803306 230.249479 
L 235.264463 225.945334 
L 235.72562 231.693341 
L 236.186777 240.132664 
L 236.647934 229.956359 
L 237.109091 232.910074 
L 237.570248 216.415853 
L 238.031405 213.978434 
L 238.492562 258.248252 
L 238.953719 257.064104 
L 239.414876 276.747706 
L 239.876033 291.674322 
L 240.33719 253.56848 
L 241.259504 221.608678 
L 241.720661 224.623723 
L 242.181818 209.211532 
L 242.642975 269.600539 
L 243.104132 215.201133 
L 243.565289 271.914998 
L 244.026446 248.843818 
L 244.487603 264.691178 
L 244.94876 247.221744 
L 245.409917 236.075221 
L 245.871074 269.940971 
L 246.332231 251.92698 
L 246.793388 213.659552 
L 247.254545 220.872896 
L 247.715702 269.397869 
L 248.17686 189.321009 
L 248.638017 268.712904 
L 249.099174 293.005403 
L 249.560331 270.417449 
L 250.021488 274.694266 
L 250.482645 230.162609 
L 250.943802 274.349584 
L 251.404959 279.767262 
L 251.866116 215.620083 
L 252.327273 273.115551 
L 252.78843 275.136518 
L 253.249587 265.149387 
L 253.710744 269.369683 
L 254.171901 232.033623 
L 254.633058 208.905549 
L 255.094215 234.889246 
L 255.555372 293.454068 
L 256.016529 281.748001 
L 256.477686 273.343872 
L 256.938843 276.179363 
L 257.861157 259.163141 
L 258.322314 270.767761 
L 258.783471 235.727258 
L 259.244628 283.215985 
L 259.705785 301.43041 
L 260.166942 259.307501 
L 260.628099 272.229519 
L 261.089256 273.514517 
L 261.550413 229.477868 
L 262.01157 265.268767 
L 262.472727 290.414005 
L 262.933884 276.976438 
L 263.395041 243.532695 
L 263.856198 287.093761 
L 264.317355 265.120493 
L 264.778512 262.760287 
L 265.239669 284.511907 
L 265.700826 285.137144 
L 266.161983 246.523842 
L 266.62314 279.667307 
L 267.084298 274.542784 
L 267.545455 237.91186 
L 268.006612 273.986968 
L 268.467769 241.182183 
L 269.390083 302.150048 
L 269.85124 278.583674 
L 270.312397 277.52092 
L 270.773554 283.896736 
L 271.234711 299.577291 
L 271.695868 294.543516 
L 272.157025 266.156068 
L 272.618182 291.399994 
L 273.079339 262.172482 
L 273.540496 285.672082 
L 274.001653 290.523356 
L 274.923967 258.100238 
L 275.385124 289.579796 
L 275.846281 273.401326 
L 276.307438 291.93001 
L 276.768595 269.729315 
L 277.229752 278.595232 
L 277.690909 276.638094 
L 278.152066 263.822669 
L 278.613223 276.27011 
L 279.07438 285.063287 
L 279.535537 297.417259 
L 280.457851 262.243096 
L 280.919008 263.846791 
L 281.380165 280.248177 
L 281.841322 264.792439 
L 282.302479 304.622401 
L 282.763636 278.570177 
L 283.224793 312.50807 
L 283.68595 248.850567 
L 284.147107 277.153942 
L 284.608264 268.310023 
L 285.069421 293.808816 
L 285.530579 263.587823 
L 285.991736 291.711792 
L 286.452893 304.546231 
L 286.91405 277.887897 
L 287.375207 315.591866 
L 288.297521 278.001871 
L 288.758678 270.890758 
L 289.219835 304.984792 
L 289.680992 307.470865 
L 290.142149 304.825668 
L 290.603306 249.669713 
L 291.064463 280.777 
L 291.52562 255.549889 
L 291.986777 298.394411 
L 292.447934 271.061253 
L 292.909091 261.970632 
L 293.370248 285.138934 
L 293.831405 256.266768 
L 294.292562 271.014724 
L 294.753719 279.340595 
L 295.214876 294.167442 
L 295.676033 274.36569 
L 296.13719 262.283735 
L 297.059504 279.958338 
L 297.520661 242.191734 
L 297.981818 275.956969 
L 298.442975 289.156969 
L 298.904132 294.996357 
L 299.365289 232.095588 
L 299.826446 260.635114 
L 300.287603 235.000238 
L 300.74876 266.576993 
L 301.209917 272.504519 
L 301.671074 271.344493 
L 302.132231 282.113449 
L 302.593388 271.615839 
L 303.515702 272.799353 
L 303.97686 263.776699 
L 304.438017 267.41288 
L 304.899174 293.677505 
L 305.360331 276.237412 
L 305.821488 263.611833 
L 306.282645 298.158894 
L 306.743802 255.022594 
L 307.204959 225.65941 
L 307.666116 275.677756 
L 308.127273 271.535979 
L 308.58843 283.961423 
L 309.049587 261.617859 
L 309.510744 290.713724 
L 309.971901 289.096309 
L 310.433058 255.991246 
L 310.894215 286.00118 
L 311.355372 210.936396 
L 311.816529 232.633956 
L 312.277686 277.439754 
L 312.738843 227.426814 
L 313.2 264.363646 
L 313.661157 244.987779 
L 314.122314 288.174075 
L 314.583471 240.281722 
L 315.044628 244.78809 
L 315.966942 228.77538 
L 316.428099 281.655278 
L 316.889256 214.323676 
L 317.350413 245.36307 
L 317.81157 241.015304 
L 318.272727 266.603166 
L 318.733884 227.104129 
L 319.195041 244.391958 
L 319.656198 275.99675 
L 320.117355 254.12478 
L 320.578512 289.815313 
L 321.039669 260.318656 
L 321.500826 273.925712 
L 321.961983 211.259007 
L 322.42314 189.770232 
L 322.884298 177.799568 
L 323.345455 282.746367 
L 323.806612 223.591578 
L 324.267769 245.410979 
L 324.728926 239.936257 
L 325.190083 253.187633 
L 325.65124 191.664809 
L 326.112397 212.412806 
L 327.034711 237.562369 
L 327.495868 245.399943 
L 327.957025 266.917463 
L 328.418182 213.914718 
L 328.879339 232.346876 
L 329.340496 238.690816 
L 329.801653 184.601754 
L 330.26281 214.047483 
L 330.723967 211.672476 
L 331.185124 162.125388 
L 331.646281 232.753336 
L 332.107438 174.537261 
L 332.568595 235.356441 
L 333.029752 264.783603 
L 333.490909 236.393097 
L 333.952066 247.473516 
L 334.413223 288.450529 
L 334.87438 222.617744 
L 335.335537 251.812185 
L 335.796694 186.910732 
L 336.257851 298.008606 
L 337.180165 176.201055 
L 337.641322 210.650733 
L 338.102479 222.816463 
L 338.563636 278.838317 
L 339.024793 238.096262 
L 339.48595 219.102919 
L 339.947107 234.54695 
L 340.408264 288.411307 
L 340.869421 299.232348 
L 341.330579 266.329732 
L 341.791736 267.090381 
L 342.252893 260.936772 
L 342.71405 233.317205 
L 343.175207 213.547927 
L 343.636364 226.141704 
L 344.097521 247.42941 
L 344.558678 217.642616 
L 345.019835 231.227601 
L 345.480992 226.339192 
L 345.942149 228.852892 
L 346.403306 241.407447 
L 346.864463 200.588403 
L 347.32562 189.722286 
L 347.786777 210.910149 
L 348.247934 213.302641 
L 348.709091 161.864257 
L 349.170248 157.427683 
L 349.631405 217.704953 
L 350.092562 218.344544 
L 350.553719 272.95378 
L 351.014876 208.354207 
L 351.476033 202.275909 
L 351.93719 150.6334 
L 352.398347 226.185549 
L 352.859504 226.955146 
L 353.320661 239.088328 
L 353.781818 217.923954 
L 354.242975 230.883068 
L 354.704132 287.669038 
L 355.165289 159.390935 
L 356.087603 192.42736 
L 356.54876 258.703739 
L 357.471074 237.402424 
L 357.932231 245.989351 
L 358.393388 205.832193 
L 358.854545 290.596543 
L 359.315702 170.834119 
L 359.77686 230.045764 
L 360.238017 220.970242 
L 360.699174 232.388968 
L 361.160331 247.133606 
L 361.621488 235.126553 
L 362.082645 281.223353 
L 362.543802 243.050475 
L 363.927273 210.02229 
L 364.38843 215.982102 
L 364.849587 287.070011 
L 365.310744 220.618887 
L 365.771901 269.283894 
L 366.233058 196.223262 
L 366.694215 286.623024 
L 367.155372 243.703824 
L 367.616529 262.876834 
L 368.077686 272.350017 
L 368.538843 251.380149 
L 369 264.565646 
L 369.922314 243.631159 
L 370.383471 303.78368 
L 370.844628 254.782528 
L 371.305785 317.572007 
L 371.766942 262.407962 
L 372.228099 242.932474 
L 372.689256 270.64495 
L 373.61157 258.675926 
L 374.072727 249.76225 
L 374.533884 200.17978 
L 374.995041 197.68804 
L 375.456198 238.405563 
L 375.917355 261.245886 
L 376.378512 211.00757 
L 376.839669 264.318124 
L 377.300826 224.003445 
L 377.761983 243.157217 
L 378.22314 267.246859 
L 378.684298 254.409064 
L 379.145455 287.273838 
L 379.606612 268.607318 
L 380.067769 264.771001 
L 380.528926 235.99633 
L 380.990083 251.015371 
L 381.45124 246.037633 
L 381.912397 243.73585 
L 382.373554 276.548092 
L 382.834711 252.071638 
L 383.295868 256.25946 
L 384.218182 224.438874 
L 384.679339 270.948509 
L 385.140496 270.863765 
L 385.601653 254.57132 
L 386.06281 232.939229 
L 386.523967 246.933657 
L 386.985124 242.35742 
L 387.446281 206.488674 
L 387.907438 259.771713 
L 388.368595 234.678 
L 388.829752 244.004848 
L 389.290909 261.803678 
L 389.752066 204.971849 
L 390.213223 245.622859 
L 390.67438 247.385789 
L 391.596694 208.132373 
L 392.057851 223.129977 
L 392.519008 256.300211 
L 392.980165 237.375394 
L 393.441322 246.301001 
L 393.902479 229.813863 
L 394.363636 196.580546 
L 394.824793 191.050533 
L 395.28595 238.69816 
L 395.747107 209.407976 
L 396.208264 223.464145 
L 396.669421 166.141521 
L 397.130579 203.224354 
L 397.591736 265.807135 
L 398.052893 214.328075 
L 398.51405 150.08985 
L 398.975207 204.786739 
L 399.436364 218.915013 
L 399.897521 209.580485 
L 400.358678 194.657187 
L 400.819835 251.783105 
L 401.280992 199.203336 
L 401.742149 194.251696 
L 402.203306 241.034877 
L 402.664463 167.961756 
L 403.12562 233.946357 
L 403.586777 234.820571 
L 404.047934 238.193086 
L 404.509091 210.202516 
L 404.970248 220.081675 
L 405.431405 174.16305 
L 405.892562 201.556793 
L 406.353719 186.158285 
L 406.814876 241.721967 
L 407.276033 248.545069 
L 407.73719 224.954349 
L 408.198347 113.659211 
L 408.659504 219.419117 
L 409.120661 185.289477 
L 409.581818 243.881925 
L 410.042975 242.774841 
L 410.504132 200.870114 
L 410.965289 198.288149 
L 411.426446 210.367755 
L 411.887603 230.078387 
L 412.809917 217.027743 
L 413.271074 239.451428 
L 413.732231 185.566528 
L 414.193388 222.999523 
L 414.654545 227.557007 
L 415.115702 261.837829 
L 415.57686 258.482203 
L 416.038017 238.484081 
L 416.499174 194.249906 
L 416.960331 200.342819 
L 417.421488 259.083766 
L 417.882645 138.701025 
L 418.343802 268.382091 
L 418.804959 255.176275 
L 419.266116 197.180916 
L 419.727273 271.427932 
L 420.18843 287.965886 
L 421.110744 209.134207 
L 421.571901 215.29229 
L 422.033058 250.134932 
L 422.494215 214.806864 
L 422.955372 260.783389 
L 423.416529 245.544601 
L 423.877686 261.132322 
L 424.338843 229.390738 
L 424.8 265.82559 
L 425.261157 239.282386 
L 425.722314 245.694629 
L 426.183471 270.947391 
L 426.644628 286.206721 
L 427.566942 331.397804 
L 428.028099 330.314283 
L 428.489256 333.742797 
L 428.950413 257.496215 
L 429.41157 293.161172 
L 429.872727 275.716493 
L 430.333884 305.995201 
L 430.795041 227.664345 
L 431.256198 327.532033 
L 431.717355 316.168635 
L 432.178512 282.737941 
L 432.639669 321.19801 
L 433.100826 286.113514 
L 433.561983 284.428169 
L 434.02314 300.218001 
L 434.484298 308.600654 
L 435.406612 259.294527 
L 435.867769 263.263833 
L 436.328926 301.18326 
L 436.790083 305.567452 
L 437.25124 277.114758 
L 437.712397 234.953821 
L 438.173554 269.251272 
L 438.634711 274.458599 
L 439.095868 363.174545 
L 439.557025 353.864066 
L 440.018182 254.357539 
L 440.479339 299.67762 
L 440.940496 271.756583 
L 441.401653 266.226794 
L 441.86281 268.842612 
L 442.785124 345.771475 
L 443.246281 292.648045 
L 443.707438 314.523482 
L 444.168595 261.105441 
L 444.629752 245.487409 
L 445.090909 280.094943 
L 445.552066 257.775092 
L 446.013223 248.778834 
L 446.47438 245.420449 
L 446.935537 275.983887 
L 447.396694 264.75579 
L 447.857851 276.199346 
L 448.319008 241.912409 
L 449.241322 280.869499 
L 449.702479 228.451838 
L 450.163636 248.793822 
L 450.624793 222.207146 
L 451.08595 303.582575 
L 451.547107 260.974502 
L 452.008264 301.465679 
L 452.469421 264.588538 
L 452.930579 268.629166 
L 453.391736 264.72779 
L 453.852893 253.205044 
L 454.31405 269.52862 
L 454.775207 257.579468 
L 455.236364 239.682732 
L 455.697521 288.23205 
L 456.619835 244.931891 
L 457.080992 275.002671 
L 457.542149 229.171923 
L 458.003306 284.02637 
L 458.464463 203.622873 
L 458.92562 221.587874 
L 459.386777 186.829828 
L 459.847934 212.155255 
L 460.309091 203.318121 
L 460.770248 281.24632 
L 461.231405 277.345652 
L 461.692562 249.100923 
L 462.153719 192.471914 
L 462.614876 239.310535 
L 463.076033 153.287583 
L 463.53719 273.938351 
L 463.998347 307.966693 
L 464.459504 261.419662 
L 464.920661 183.443667 
L 465.381818 198.484444 
L 465.842975 253.647221 
L 466.304132 247.721971 
L 466.765289 255.803004 
L 467.226446 273.468995 
L 467.687603 268.201529 
L 468.14876 282.390724 
L 468.609917 236.316443 
L 469.071074 274.355549 
L 469.532231 293.929725 
L 469.993388 272.602424 
L 470.454545 216.026357 
L 470.915702 239.444232 
L 471.37686 273.766663 
L 471.838017 285.678979 
L 472.299174 224.143442 
L 472.760331 143.35112 
L 473.221488 228.433756 
L 473.682645 217.061298 
L 474.143802 225.689497 
L 475.066116 305.364595 
L 475.527273 259.783047 
L 475.98843 261.521296 
L 476.449587 289.703986 
L 476.910744 266.068117 
L 477.371901 267.828251 
L 477.833058 237.175818 
L 478.294215 239.575916 
L 478.755372 225.06262 
L 479.216529 234.41851 
L 479.677686 246.457179 
L 480.138843 242.667764 
L 480.6 217.602014 
L 481.061157 222.909857 
L 481.522314 256.985399 
L 481.983471 259.334606 
L 482.444628 286.719401 
L 482.905785 265.140626 
L 483.366942 297.327108 
L 483.828099 248.594134 
L 484.289256 264.59756 
L 484.750413 221.320032 
L 485.21157 212.311881 
L 485.672727 235.512023 
L 486.133884 282.220228 
L 486.595041 221.478001 
L 487.056198 249.125567 
L 487.517355 223.631695 
L 487.978512 279.352898 
L 488.439669 207.582187 
L 488.900826 234.460044 
L 489.361983 198.016019 
L 489.82314 246.719354 
L 490.284298 262.625919 
L 490.745455 185.412064 
L 491.206612 281.443696 
L 491.667769 269.521798 
L 492.128926 224.561647 
L 492.590083 244.974506 
L 493.05124 285.288663 
L 493.512397 268.558701 
L 493.973554 267.320045 
L 494.434711 213.000238 
L 494.895868 266.523641 
L 495.357025 253.772082 
L 495.818182 280.772675 
L 496.279339 205.001564 
L 496.740496 266.605627 
L 497.201653 256.373994 
L 497.66281 268.184267 
L 498.123967 265.752441 
L 498.585124 206.428872 
L 499.507438 231.891985 
L 499.968595 252.415202 
L 500.429752 243.192226 
L 500.890909 272.086873 
L 501.352066 280.711606 
L 501.813223 233.482332 
L 502.27438 230.135505 
L 502.735537 201.869188 
L 503.196694 239.265534 
L 503.657851 256.243429 
L 504.119008 184.060702 
L 504.580165 200.195998 
L 505.041322 170.099717 
L 505.502479 253.427736 
L 505.963636 242.070676 
L 506.424793 247.348655 
L 506.88595 231.520347 
L 507.347107 184.237535 
L 507.808264 258.251421 
L 508.269421 224.009261 
L 508.730579 246.57272 
L 509.191736 218.748432 
L 509.652893 173.036132 
L 510.11405 233.214304 
L 510.575207 273.942452 
L 511.036364 218.854875 
L 511.497521 258.976129 
L 511.958678 221.128845 
L 512.419835 213.463816 
L 512.880992 288.167066 
L 513.342149 260.978715 
L 513.803306 278.621964 
L 514.264463 246.653997 
L 514.72562 298.056738 
L 515.186777 289.471563 
L 515.647934 296.148404 
L 516.109091 275.705681 
L 516.570248 276.230627 
L 517.031405 247.415131 
L 517.492562 247.750343 
L 517.953719 248.506668 
L 518.414876 257.383583 
L 518.876033 293.934199 
L 519.33719 238.043022 
L 519.798347 272.776871 
L 520.259504 289.521187 
L 520.720661 261.114202 
L 521.181818 277.598879 
L 521.642975 270.831217 
L 522.104132 301.578162 
L 522.565289 262.680763 
L 523.026446 305.030837 
L 523.487603 261.285518 
L 523.94876 252.125363 
L 524.409917 284.52175 
L 524.871074 288.646377 
L 525.332231 295.115737 
L 525.793388 279.121296 
L 526.254545 237.065348 
L 526.715702 292.475648 
L 527.17686 292.617659 
L 527.638017 257.687402 
L 528.560331 309.737826 
L 529.021488 244.395612 
L 529.482645 309.516178 
L 529.943802 292.69737 
L 530.404959 291.379115 
L 530.866116 279.2022 
L 531.327273 234.871015 
L 531.78843 287.143086 
L 532.249587 294.179783 
L 532.710744 290.90081 
L 533.171901 256.545981 
L 533.633058 277.610362 
L 534.094215 278.097018 
L 534.555372 276.065314 
L 535.016529 273.44189 
L 535.477686 270.036416 
L 535.938843 278.432752 
L 536.4 274.638639 
L 536.861157 283.417761 
L 537.322314 264.788338 
L 537.783471 234.770686 
L 538.244628 276.057559 
L 538.705785 268.002698 
L 539.166942 228.688884 
L 539.628099 271.998177 
L 540.089256 249.319364 
L 540.550413 244.706776 
L 541.01157 273.554224 
L 541.472727 262.132888 
L 541.933884 269.440483 
L 542.395041 220.210711 
L 542.856198 245.271056 
L 543.317355 253.66288 
L 543.778512 281.724251 
L 544.239669 260.429573 
L 544.700826 311.050264 
L 545.161983 274.608738 
L 545.62314 280.877664 
L 546.084298 275.267605 
L 546.545455 280.442161 
L 547.006612 310.35445 
L 547.467769 256.081434 
L 547.928926 277.678515 
L 548.390083 269.741208 
L 548.85124 279.421797 
L 549.312397 274.891456 
L 549.773554 271.730671 
L 550.234711 286.349777 
L 550.695868 314.843221 
L 551.157025 273.918815 
L 551.618182 274.267113 
L 552.079339 273.941669 
L 552.540496 295.698434 
L 553.001653 260.181901 
L 553.46281 284.619767 
L 553.923967 272.850095 
L 554.385124 280.577349 
L 554.846281 273.571523 
L 555.307438 298.666615 
L 555.768595 261.900129 
L 556.229752 305.743726 
L 556.690909 288.462124 
L 557.152066 294.525322 
L 557.613223 302.595916 
L 558.07438 257.067832 
L 558.535537 271.286368 
L 559.457851 241.11306 
L 559.919008 254.391168 
L 560.380165 224.844924 
L 560.841322 204.792145 
L 561.302479 267.129044 
L 561.763636 282.958769 
L 562.224793 206.441623 
L 562.68595 246.922211 
L 563.147107 247.54894 
L 563.608264 218.382088 
L 564.069421 245.624984 
L 564.530579 220.448801 
L 564.991736 238.7687 
L 565.452893 273.597696 
L 565.91405 246.121781 
L 566.375207 251.607539 
L 566.836364 224.570222 
L 567.297521 229.71387 
L 567.758678 237.54272 
L 568.219835 248.526689 
L 568.680992 232.06949 
L 569.142149 193.170822 
L 569.603306 255.899194 
L 570.064463 254.020798 
L 570.52562 228.294727 
L 570.986777 245.150146 
L 571.447934 233.186342 
L 571.909091 212.034607 
L 572.370248 214.968748 
L 572.831405 231.659525 
L 573.292562 281.609755 
L 573.753719 268.312521 
L 574.214876 207.16387 
L 574.676033 242.366704 
L 575.13719 240.449906 
L 575.598347 272.907623 
L 576.059504 253.056061 
L 576.520661 303.98143 
L 576.981818 233.184217 
L 577.904132 270.134545 
L 578.365289 265.395269 
L 578.826446 230.587525 
L 579.287603 261.307552 
L 579.74876 253.833637 
L 580.209917 284.32538 
L 580.671074 231.752397 
L 581.132231 300.73206 
L 581.593388 248.577655 
L 582.054545 228.724265 
L 582.515702 269.450811 
L 582.97686 252.244818 
L 583.438017 282.39777 
L 583.899174 257.780125 
L 584.821488 237.9566 
L 585.282645 284.755254 
L 585.743802 282.62296 
L 586.204959 218.953004 
L 586.666116 239.315233 
L 587.127273 239.585684 
L 587.58843 264.772306 
L 588.049587 228.068009 
L 588.510744 230.636179 
L 588.971901 265.12355 
L 589.433058 272.454708 
L 589.894215 200.887711 
L 590.355372 222.032102 
L 590.816529 262.902299 
L 591.277686 242.816487 
L 591.738843 235.721218 
L 592.2 289.812741 
L 592.661157 257.31789 
L 593.122314 258.048153 
L 593.583471 249.723811 
L 594.044628 265.556891 
L 594.505785 257.569401 
L 594.966942 279.004078 
L 595.428099 226.346127 
L 595.889256 287.373495 
L 596.350413 282.195696 
L 596.81157 231.003753 
L 597.272727 269.211751 
L 597.733884 248.940083 
L 598.195041 285.154146 
L 598.656198 277.488856 
L 599.117355 272.155623 
L 599.578512 260.743347 
L 600.039669 301.6877 
L 600.500826 239.510671 
L 600.961983 272.131315 
L 601.42314 254.866602 
L 601.884298 277.597574 
L 602.345455 271.417679 
L 602.806612 258.651655 
L 603.267769 272.252187 
L 603.728926 302.811561 
L 604.190083 254.091748 
L 604.65124 279.034986 
L 605.112397 247.969829 
L 605.573554 260.698309 
L 606.034711 281.532579 
L 606.495868 248.457752 
L 606.957025 245.516826 
L 607.418182 283.837829 
L 607.879339 287.118889 
L 608.340496 224.865355 
L 608.801653 248.750163 
L 609.26281 236.071083 
L 609.723967 279.683264 
L 610.185124 268.06869 
L 610.646281 273.627559 
L 611.107438 280.920577 
L 611.568595 279.95323 
L 612.029752 254.370998 
L 612.490909 242.847879 
L 612.952066 281.013077 
L 613.413223 219.99831 
L 613.87438 261.586019 
L 614.796694 291.65322 
L 615.257851 280.679617 
L 615.719008 253.770517 
L 616.180165 235.153136 
L 616.641322 249.863511 
L 617.102479 259.95563 
L 617.563636 304.641862 
L 618.024793 269.359803 
L 618.48595 289.92116 
L 618.947107 316.79596 
L 619.408264 282.37842 
L 619.869421 258.909243 
L 620.330579 258.390822 
L 620.791736 296.84351 
L 621.252893 241.167344 
L 621.71405 283.10037 
L 622.175207 264.579739 
L 622.636364 251.105559 
L 622.636364 251.105559 
" clip-path="url(#p92b0483574)" style="fill: none; stroke: #1f77b4; stroke-width: 1.5; stroke-linecap: square"/>
   </g>
   <g id="line2d_18">
    <path d="M 115.363636 230.20925 
L 116.28595 215.092863 
L 116.747107 206.492178 
L 117.208264 203.013369 
L 117.669421 200.888681 
L 118.130579 197.761152 
L 118.591736 192.02735 
L 119.51405 177.692789 
L 119.975207 174.956173 
L 120.436364 180.038454 
L 120.897521 190.072635 
L 121.358678 190.59389 
L 121.819835 173.1318 
L 122.280992 168.310241 
L 122.742149 171.82872 
L 123.664463 159.970165 
L 124.12562 162.837085 
L 124.586777 155.018226 
L 125.047934 143.420318 
L 125.509091 138.468342 
L 125.970248 152.802828 
L 126.431405 147.069101 
L 126.892562 139.510888 
L 127.814876 177.171571 
L 128.276033 162.967314 
L 128.73719 159.05796 
L 129.198347 144.984045 
L 129.659504 139.641193 
L 130.120661 153.454462 
L 130.581818 162.446097 
L 131.042975 152.020965 
L 131.965289 97.28918 
L 132.426446 92.206974 
L 132.887603 119.572829 
L 133.34876 154.366667 
L 133.809917 162.315793 
L 134.271074 138.468342 
L 134.732231 120.74568 
L 135.193388 110.581194 
L 135.654545 108.105225 
L 136.115702 109.408343 
L 136.57686 125.306669 
L 137.038017 107.714275 
L 137.499174 80.999979 
L 137.960331 70.705151 
L 138.421488 71.878002 
L 138.882645 75.917773 
L 139.343802 68.620206 
L 139.804959 66.665455 
L 140.266116 69.792983 
L 140.727273 94.813211 
L 141.18843 84.518383 
L 141.649587 98.462031 
L 142.110744 127.261346 
L 143.494215 173.653093 
L 143.955372 179.386932 
L 144.877686 212.616894 
L 145.338843 210.40157 
L 145.8 207.013433 
L 146.722314 235.812748 
L 147.644628 186.293511 
L 148.105785 168.049595 
L 148.566942 160.621724 
L 149.028099 156.19104 
L 149.489256 154.236325 
L 149.950413 151.10876 
L 150.41157 151.910607 
L 151.333884 140.553398 
L 151.795041 139.119901 
L 152.256198 133.777049 
L 152.717355 129.737315 
L 153.178512 127.391688 
L 153.639669 123.482259 
L 154.100826 120.74568 
L 155.02314 147.069101 
L 155.945455 124.915718 
L 156.406612 128.955415 
L 156.867769 146.938759 
L 157.328926 160.361041 
L 158.25124 147.850964 
L 158.712397 152.411953 
L 159.173554 146.156896 
L 159.634711 137.461773 
L 185.920661 292.447163 
L 186.381818 290.544571 
L 186.842975 291.456776 
L 187.304132 284.159172 
L 187.765289 280.24978 
L 188.226446 277.904115 
L 188.687603 268.651834 
L 189.14876 266.436511 
L 189.609917 262.527082 
L 190.071074 259.920808 
L 190.532231 261.354268 
L 190.993388 268.000275 
L 191.454545 270.085294 
L 191.915702 276.340351 
L 192.37686 279.989134 
L 192.838017 279.467917 
L 193.299174 280.119438 
L 193.760331 280.24978 
L 194.221488 284.55016 
L 194.682645 291.19613 
L 195.143802 292.108335 
L 195.604959 287.677651 
L 196.066116 281.813507 
L 196.527273 281.031644 
L 196.98843 282.074153 
L 197.449587 290.283925 
L 198.371901 280.771035 
L 198.833058 280.119438 
L 199.755372 269.824648 
L 200.216529 267.869971 
L 200.677686 267.739666 
L 201.6 263.830237 
L 202.061157 263.699933 
L 202.522314 266.69712 
L 202.983471 267.218374 
L 203.444628 267.218374 
L 203.905785 262.735569 
L 204.366942 254.577956 
L 204.828099 250.016968 
L 205.289256 248.583508 
L 206.21157 242.719402 
L 206.672727 242.719402 
L 207.133884 241.025333 
L 207.595041 237.506817 
L 208.056198 238.158413 
L 208.517355 236.985599 
L 208.978512 233.336779 
L 209.439669 230.753173 
L 209.900826 230.469896 
L 210.82314 239.591873 
L 211.284298 239.863816 
L 211.745455 232.294307 
L 212.206612 229.166741 
L 213.128926 213.789745 
L 213.590083 205.840582 
L 214.05124 211.053167 
L 214.512397 234.379326 
L 214.973554 250.538223 
L 215.434711 236.073394 
L 215.895868 217.829478 
L 216.357025 208.577197 
L 216.818182 209.489365 
L 217.279339 217.308186 
L 217.740496 218.611342 
L 218.201653 216.13541 
L 218.66281 215.874764 
L 219.123967 204.667768 
L 219.585124 183.166019 
L 220.046281 149.023815 
L 220.507438 173.1318 
L 221.429752 243.501265 
L 221.890909 270.085294 
L 222.352066 279.337575 
L 222.813223 261.484572 
L 223.27438 230.078946 
L 223.735537 217.568832 
L 224.196694 211.852031 
L 224.657851 208.316551 
L 225.119008 213.529099 
L 225.580165 210.371781 
L 226.041322 210.922825 
L 226.502479 210.588135 
L 226.963636 231.773052 
L 227.424793 244.674116 
L 227.88595 247.671303 
L 228.347107 251.711074 
L 228.808264 258.61769 
L 229.269421 255.75077 
L 229.730579 258.61769 
L 230.191736 271.909704 
L 230.652893 266.827461 
L 231.11405 235.291494 
L 231.575207 224.736094 
L 232.036364 262.787728 
L 232.497521 312.306965 
L 232.958678 319.734836 
L 233.880992 302.663734 
L 234.342149 299.666547 
L 234.803306 298.493696 
L 235.264463 296.539019 
L 235.72562 302.794076 
L 236.186777 305.009399 
L 237.109091 293.802403 
L 237.570248 293.150844 
L 238.031405 290.023316 
L 238.492562 292.368981 
L 238.953719 296.669286 
L 239.414876 311.655406 
L 239.876033 313.610121 
L 240.33719 302.142479 
L 241.259504 234.66689 
L 241.720661 224.084498 
L 242.181818 253.014192 
L 243.104132 231.773052 
L 243.565289 239.331227 
L 244.94876 278.946662 
L 245.871074 285.983582 
L 246.793388 288.980806 
L 247.254545 294.193354 
L 247.715702 292.108335 
L 248.17686 292.629589 
L 248.638017 292.759894 
L 249.560331 295.626814 
L 250.021488 299.927156 
L 250.482645 305.270045 
L 250.943802 306.964113 
L 251.404959 315.434531 
L 251.866116 317.910463 
L 252.327273 317.780159 
L 252.78843 317.780159 
L 253.249587 321.950197 
L 253.710744 319.474227 
L 254.171901 317.910463 
L 254.633058 317.780159 
L 256.938843 317.780159 
L 257.4 317.910463 
L 258.783471 328.074949 
L 259.705785 333.026888 
L 260.166942 329.378105 
L 260.628099 330.29031 
L 261.089256 330.29031 
L 261.550413 323.774607 
L 262.01157 323.750895 
L 262.472727 328.761256 
L 262.933884 330.29031 
L 263.395041 329.899322 
L 263.856198 330.29031 
L 264.317355 330.420577 
L 264.778512 330.420577 
L 265.239669 335.111869 
L 265.700826 334.330006 
L 266.161983 331.475427 
L 266.62314 333.036395 
L 267.084298 330.681223 
L 267.545455 330.29031 
L 268.006612 330.29031 
L 268.467769 327.553657 
L 268.928926 317.910463 
L 269.390083 317.910463 
L 269.85124 317.780159 
L 270.312397 317.780159 
L 270.773554 315.564798 
L 271.695868 313.610121 
L 272.157025 304.879095 
L 272.618182 305.009399 
L 273.079339 305.270045 
L 273.540496 305.138324 
L 274.001653 305.270045 
L 274.46281 308.267232 
L 274.923967 316.086053 
L 275.385124 321.819892 
L 275.846281 329.899322 
L 276.307438 330.29031 
L 276.768595 330.29031 
L 277.229752 325.59898 
L 277.690909 317.780159 
L 278.152066 317.780159 
L 278.613223 316.346699 
L 279.07438 313.870729 
L 279.535537 305.660958 
L 279.996694 305.270045 
L 280.457851 309.049095 
L 280.919008 315.541496 
L 281.380165 317.780159 
L 281.841322 317.910463 
L 282.302479 317.910463 
L 282.763636 317.780159 
L 283.68595 317.780159 
L 284.147107 319.865178 
L 284.608264 324.55647 
L 285.069421 317.910463 
L 285.530579 317.121739 
L 285.991736 317.780159 
L 286.452893 321.072292 
L 286.91405 317.780159 
L 287.375207 318.822668 
L 287.836364 326.603088 
L 288.297521 317.910463 
L 288.758678 318.711751 
L 289.219835 320.516737 
L 290.142149 318.171109 
L 291.064463 319.083314 
L 291.52562 321.559246 
L 291.986777 328.465899 
L 292.909091 332.505633 
L 293.370248 341.757914 
L 293.831405 342.800386 
L 295.676033 342.800386 
L 296.13719 342.670082 
L 296.598347 340.976013 
L 297.059504 340.324454 
L 297.520661 338.239398 
L 297.981818 332.766242 
L 298.442975 330.29031 
L 298.904132 330.159968 
L 299.365289 328.596204 
L 300.287603 305.530654 
L 300.74876 303.966852 
L 301.671074 315.564798 
L 302.132231 302.92438 
L 302.593388 294.193354 
L 303.054545 303.966852 
L 303.515702 309.440083 
L 303.97686 317.780159 
L 304.438017 313.088866 
L 304.899174 306.442859 
L 305.360331 307.094418 
L 306.282645 317.389208 
L 307.204959 319.213619 
L 307.666116 327.162744 
L 308.127273 330.029664 
L 308.58843 326.380881 
L 309.510744 269.433735 
L 309.971901 253.014192 
L 310.433058 243.501265 
L 310.894215 239.461531 
L 311.355372 241.807196 
L 312.277686 255.620466 
L 312.738843 239.722177 
L 313.2 232.685257 
L 313.661157 233.206512 
L 314.122314 231.382102 
L 314.583471 225.257349 
L 315.044628 220.696361 
L 315.505785 207.795297 
L 315.966942 212.095639 
L 316.428099 221.34792 
L 316.889256 221.217616 
L 317.350413 248.844154 
L 317.81157 266.827461 
L 318.272727 255.881112 
L 318.733884 241.807196 
L 319.195041 239.461531 
L 319.656198 244.02252 
L 320.117355 232.163965 
L 320.578512 206.041985 
L 321.039669 197.370202 
L 321.500826 202.191799 
L 321.961983 204.016209 
L 322.884298 193.200127 
L 323.345455 196.067046 
L 324.728926 170.264955 
L 325.190083 185.251001 
L 325.65124 180.690013 
L 326.573554 166.485868 
L 327.034711 167.91929 
L 327.495868 178.86564 
L 327.957025 177.171571 
L 328.879339 167.528303 
L 329.340496 160.100469 
L 329.801653 146.156896 
L 330.26281 144.332523 
L 330.723967 141.98682 
L 331.185124 141.465603 
L 331.646281 161.142941 
L 332.107438 171.17716 
L 332.568595 184.208492 
L 333.029752 190.333281 
L 333.490909 211.053167 
L 333.952066 249.104763 
L 334.413223 271.649058 
L 334.87438 275.558487 
L 335.335537 271.127804 
L 335.796694 270.997499 
L 336.719008 279.728525 
L 337.180165 280.24978 
L 337.641322 280.24978 
L 338.102479 277.643506 
L 338.563636 277.513202 
L 339.024793 279.207271 
L 339.48595 283.637917 
L 339.947107 292.499248 
L 340.408264 292.759894 
L 340.869421 288.72016 
L 342.252893 240.243432 
L 342.71405 231.072056 
L 343.175207 226.430163 
L 343.636364 219.784193 
L 344.097521 217.699137 
L 344.558678 217.438528 
L 345.019835 207.664992 
L 345.480992 206.492178 
L 345.942149 206.752787 
L 346.403306 207.143738 
L 346.864463 207.925638 
L 347.786777 213.007844 
L 348.247934 215.874764 
L 348.709091 217.308186 
L 349.170248 208.96811 
L 349.631405 204.407122 
L 350.092562 196.979251 
L 351.014876 189.030089 
L 351.476033 191.375754 
L 351.93719 195.285183 
L 352.398347 195.676133 
L 352.859504 197.761152 
L 353.320661 198.021761 
L 353.781818 209.359061 
L 354.704132 238.288755 
L 355.165289 238.288755 
L 355.626446 220.566056 
L 356.087603 207.404384 
L 356.54876 203.625259 
L 357.009917 202.061494 
L 357.471074 206.883129 
L 357.932231 208.446856 
L 358.393388 205.189023 
L 358.854545 196.588301 
L 359.315702 196.718643 
L 359.77686 205.319327 
L 360.238017 208.446856 
L 360.699174 208.96811 
L 361.160331 205.319327 
L 361.621488 200.628035 
L 362.082645 207.274042 
L 362.543802 222.78138 
L 363.466116 199.194575 
L 363.927273 199.585562 
L 364.38843 205.189023 
L 364.849587 200.237084 
L 365.310744 200.237084 
L 365.771901 205.189023 
L 366.233058 207.404384 
L 366.694215 208.837806 
L 367.155372 209.359061 
L 367.616529 201.670544 
L 368.077686 198.803624 
L 368.538843 205.058719 
L 369.461157 211.83503 
L 369.922314 231.773052 
L 370.844628 322.992706 
L 371.305785 329.899322 
L 372.689256 292.759894 
L 373.150413 291.887097 
L 373.61157 287.026092 
L 374.072727 280.24978 
L 374.533884 277.122252 
L 374.995041 273.082518 
L 375.456198 271.127804 
L 375.917355 270.215636 
L 376.378512 268.52153 
L 376.839669 268.391225 
L 377.300826 267.869971 
L 377.761983 267.739666 
L 378.22314 267.739666 
L 379.145455 266.566815 
L 379.606612 266.566815 
L 380.067769 262.266473 
L 380.528926 260.702709 
L 380.990083 261.614877 
L 381.912397 254.187006 
L 382.373554 255.229515 
L 382.834711 253.274801 
L 383.295868 250.277614 
L 383.757025 244.152861 
L 384.218182 242.198147 
L 384.679339 242.719402 
L 385.140496 244.543774 
L 385.601653 251.320086 
L 386.06281 252.101987 
L 386.523967 247.671303 
L 386.985124 247.410694 
L 387.446281 248.453204 
L 387.907438 247.671303 
L 388.829752 242.58906 
L 389.290909 242.458793 
L 389.752066 241.807196 
L 390.67438 230.469896 
L 391.135537 229.427387 
L 392.519008 224.345144 
L 392.980165 225.517958 
L 393.441322 231.382102 
L 393.902479 232.685257 
L 394.363636 236.33404 
L 394.824793 231.64271 
L 395.28595 228.254536 
L 395.747107 229.036474 
L 396.669421 217.959783 
L 398.052893 194.633586 
L 398.975207 197.370202 
L 399.436364 199.846171 
L 400.358678 213.659403 
L 400.819835 216.917273 
L 401.280992 228.775828 
L 401.742149 270.345903 
L 402.203306 276.340351 
L 402.664463 300.187802 
L 403.12562 284.680427 
L 403.586777 256.532671 
L 404.509091 223.823889 
L 404.970248 216.396018 
L 405.431405 205.189023 
L 405.892562 204.928414 
L 406.353719 208.316551 
L 406.814876 223.432976 
L 407.276033 209.489365 
L 407.73719 213.26849 
L 408.198347 227.472672 
L 408.659504 233.336779 
L 409.581818 253.405142 
L 410.504132 197.500506 
L 410.965289 188.769443 
L 411.426446 198.933966 
L 412.34876 262.005827 
L 412.809917 256.14172 
L 413.271074 216.265677 
L 413.732231 213.668127 
L 414.193388 232.945866 
L 414.654545 245.45598 
L 415.115702 236.855295 
L 416.038017 213.529099 
L 416.499174 202.322141 
L 416.960331 197.630848 
L 417.882645 250.407881 
L 418.804959 193.721419 
L 419.266116 190.854499 
L 419.727273 202.843395 
L 420.18843 223.56328 
L 420.649587 264.481796 
L 421.110744 276.991947 
L 421.571901 277.513202 
L 422.033058 273.473468 
L 422.494215 279.85883 
L 422.955372 297.451224 
L 423.416529 310.221946 
L 423.877686 302.272784 
L 424.338843 257.314572 
L 424.8 227.993927 
L 425.261157 233.858034 
L 425.722314 281.813507 
L 426.183471 317.519513 
L 426.644628 330.29031 
L 427.105785 330.420577 
L 427.566942 342.279169 
L 428.028099 331.584405 
L 428.489256 311.785748 
L 428.950413 299.927156 
L 430.333884 280.380084 
L 430.795041 280.24978 
L 431.256198 283.768222 
L 431.717355 296.539019 
L 432.639669 325.208067 
L 433.561983 342.148827 
L 434.02314 340.063808 
L 434.484298 342.670082 
L 434.945455 342.930728 
L 435.406612 334.720956 
L 435.867769 330.29031 
L 436.328926 329.508372 
L 436.790083 327.944645 
L 437.25124 324.035216 
L 437.712397 318.040767 
L 438.634711 317.780159 
L 439.095868 317.780159 
L 439.557025 318.562022 
L 440.018182 321.689551 
L 440.479339 318.952973 
L 440.940496 317.780159 
L 441.401653 317.519513 
L 441.86281 312.697916 
L 442.323967 306.442859 
L 442.785124 307.745977 
L 443.246281 307.485368 
L 443.707438 303.966852 
L 444.168595 294.453962 
L 444.629752 292.238639 
L 445.090909 292.759894 
L 445.552066 292.759894 
L 446.013223 288.980806 
L 446.47438 280.380084 
L 447.396694 277.773811 
L 447.857851 278.164724 
L 448.319008 283.507613 
L 448.780165 294.323658 
L 449.241322 274.125028 
L 449.702479 264.872747 
L 450.163636 273.473468 
L 450.624793 289.371719 
L 451.08595 280.510389 
L 451.547107 262.005827 
L 452.469421 245.977234 
L 452.930579 244.80442 
L 453.391736 244.968391 
L 453.852893 242.198147 
L 454.31405 242.719402 
L 454.775207 252.362596 
L 455.697521 280.771035 
L 456.619835 259.00864 
L 457.080992 256.402329 
L 457.542149 251.580732 
L 458.003306 240.113128 
L 458.464463 224.605753 
L 458.92562 233.858034 
L 459.386777 268.260921 
L 459.847934 267.47902 
L 460.309091 235.94309 
L 460.770248 237.767463 
L 461.231405 245.195371 
L 461.692562 256.923584 
L 462.153719 260.572367 
L 462.614876 244.543774 
L 463.076033 233.858034 
L 463.53719 237.506817 
L 463.998347 238.679668 
L 464.459504 234.50963 
L 465.381818 209.098452 
L 465.842975 202.9737 
L 466.304132 208.707502 
L 466.765289 218.090087 
L 467.226446 213.920049 
L 467.687603 213.007844 
L 468.14876 211.574421 
L 468.609917 220.696361 
L 469.071074 216.005068 
L 469.532231 206.90095 
L 469.993388 205.710278 
L 470.454545 219.132597 
L 470.915702 239.295547 
L 471.37686 244.674116 
L 471.838017 236.724953 
L 472.299174 232.685257 
L 472.760331 227.212064 
L 473.221488 239.461531 
L 473.682645 243.501265 
L 474.143802 235.030885 
L 474.604959 218.871988 
L 475.066116 219.653851 
L 475.527273 213.26849 
L 475.98843 210.922825 
L 476.449587 221.34792 
L 476.910744 225.257349 
L 477.371901 227.081759 
L 478.294215 264.742405 
L 478.755372 276.861606 
L 479.216529 263.048336 
L 479.677686 225.517958 
L 480.138843 212.616894 
L 481.061157 273.994686 
L 481.522314 267.739666 
L 481.983471 252.492937 
L 482.444628 273.603773 
L 482.905785 278.720764 
L 483.828099 297.842137 
L 484.289256 298.624 
L 484.750413 296.148031 
L 485.21157 298.233087 
L 485.672727 296.278373 
L 486.133884 281.29229 
L 487.056198 236.073394 
L 487.517355 242.849706 
L 487.978512 232.163965 
L 488.439669 202.713054 
L 488.900826 196.979251 
L 489.361983 204.667768 
L 489.82314 224.866399 
L 490.284298 228.124269 
L 490.745455 201.149289 
L 491.667769 183.687237 
L 492.128926 184.99043 
L 492.590083 201.670544 
L 493.05124 230.730542 
L 493.512397 236.464345 
L 493.973554 209.619707 
L 494.434711 196.457997 
L 495.357025 238.81001 
L 495.818182 234.770239 
L 496.279339 226.430163 
L 496.740496 240.243432 
L 497.201653 249.495713 
L 497.66281 252.492937 
L 498.123967 243.631607 
L 498.585124 239.591873 
L 499.046281 247.28039 
L 499.507438 247.671303 
L 499.968595 243.892253 
L 500.429752 244.02252 
L 501.352066 247.541036 
L 501.813223 228.124269 
L 502.27438 230.20925 
L 502.735537 246.759098 
L 503.196694 258.226739 
L 503.657851 265.915256 
L 504.119008 271.127804 
L 504.580165 267.348716 
L 505.041322 268.260921 
L 505.502479 274.385674 
L 505.963636 277.38286 
L 506.424793 265.65461 
L 506.88595 235.291494 
L 507.808264 259.00864 
L 508.269421 266.69712 
L 508.730579 277.513202 
L 509.191736 283.1167 
L 509.652893 283.637917 
L 510.11405 280.510389 
L 510.575207 285.983582 
L 511.497521 299.796851 
L 511.958678 302.272784 
L 512.419835 310.482555 
L 512.880992 316.086053 
L 513.342149 318.301376 
L 513.803306 317.910463 
L 514.264463 317.780159 
L 514.72562 317.780159 
L 515.186777 317.389208 
L 515.647934 309.049095 
L 516.109091 310.352288 
L 516.570248 309.700692 
L 517.031405 313.349475 
L 518.414876 317.1286 
L 518.876033 315.825444 
L 519.33719 316.867954 
L 519.798347 319.343923 
L 520.259504 325.208067 
L 520.720661 328.074949 
L 521.181818 324.947421 
L 521.642975 322.897932 
L 522.104132 324.16552 
L 523.026446 329.638713 
L 523.487603 331.072173 
L 523.94876 329.378105 
L 524.871074 323.644265 
L 525.332231 324.035216 
L 525.793388 324.947421 
L 526.715702 319.865178 
L 527.17686 311.134151 
L 527.638017 293.020503 
L 528.099174 294.193354 
L 528.560331 289.241415 
L 529.021488 280.380084 
L 529.482645 269.042785 
L 529.943802 267.609325 
L 530.404959 258.487385 
L 530.866116 252.492937 
L 531.327273 250.407881 
L 531.78843 245.84693 
L 532.249587 244.543774 
L 532.710744 240.113128 
L 533.171901 239.722177 
L 533.633058 237.767463 
L 534.094215 233.858034 
L 534.555372 235.291494 
L 535.016529 242.58906 
L 535.477686 232.163965 
L 535.938843 227.212064 
L 536.4 227.603014 
L 537.322314 232.294307 
L 538.244628 241.546588 
L 539.166942 262.266473 
L 539.628099 261.745218 
L 540.089256 252.883888 
L 540.550413 253.144534 
L 541.01157 240.391931 
L 541.472727 235.421835 
L 541.933884 224.605753 
L 542.395041 223.954231 
L 543.317355 237.506817 
L 544.239669 273.212822 
L 544.700826 279.467917 
L 545.161983 294.844913 
L 545.62314 301.621262 
L 546.084298 285.592632 
L 546.545455 280.380084 
L 547.467769 293.541795 
L 547.928926 289.893011 
L 548.85124 266.827461 
L 549.312397 265.915256 
L 549.773554 270.345903 
L 550.234711 277.513202 
L 550.695868 280.24978 
L 551.157025 280.24978 
L 551.618182 278.164724 
L 552.079339 270.997499 
L 552.540496 265.65461 
L 553.923967 242.719402 
L 554.385124 242.719402 
L 554.846281 242.198147 
L 555.307438 245.977234 
L 555.768595 271.258108 
L 556.229752 289.241415 
L 556.690909 298.233087 
L 557.152066 287.547346 
L 558.07438 253.405142 
L 558.535537 244.41347 
L 558.996694 252.362596 
L 559.457851 272.430959 
L 560.380165 245.065029 
L 560.841322 234.248984 
L 561.302479 231.251797 
L 562.224793 281.68324 
L 563.147107 304.227535 
L 563.608264 306.442859 
L 564.069421 310.352288 
L 564.991736 321.689551 
L 565.452893 322.862402 
L 565.91405 321.559246 
L 566.375207 322.341147 
L 566.836364 327.162744 
L 567.297521 330.029664 
L 567.758678 330.29031 
L 568.219835 330.29031 
L 568.680992 329.899322 
L 569.142149 329.247763 
L 569.603306 330.29031 
L 570.52562 330.029664 
L 570.986777 331.332782 
L 571.447934 331.854037 
L 571.909091 334.199702 
L 572.370248 334.981565 
L 572.831405 337.848485 
L 573.292562 332.6359 
L 573.753719 330.941832 
L 574.676033 349.446393 
L 575.598347 330.941832 
L 576.059504 330.29031 
L 578.365289 330.29031 
L 578.826446 328.074949 
L 579.287603 327.338459 
L 579.74876 327.814303 
L 580.209917 318.822668 
L 580.671074 317.780159 
L 581.132231 317.1286 
L 581.593388 315.69514 
L 582.054545 317.258904 
L 582.515702 317.649854 
L 582.97686 317.780159 
L 584.821488 317.780159 
L 585.282645 324.947421 
L 585.743802 321.168296 
L 586.204959 318.952973 
L 586.666116 327.03244 
L 587.127273 321.559246 
L 587.58843 317.780159 
L 588.510744 330.29031 
L 589.433058 330.29031 
L 589.894215 333.157155 
L 590.355372 340.845709 
L 590.816529 342.800386 
L 591.277686 337.718143 
L 591.738843 339.412249 
L 592.2 342.670082 
L 592.661157 342.539777 
L 593.122314 332.244987 
L 593.583471 330.29031 
L 594.044628 331.202478 
L 594.505785 333.808751 
L 594.966942 322.210805 
L 595.428099 317.910463 
L 595.889256 317.780159 
L 596.81157 322.601756 
L 597.272727 322.210805 
L 597.733884 327.683999 
L 598.195041 330.159968 
L 598.656198 325.729284 
L 599.117355 317.780159 
L 599.578512 317.780159 
L 600.039669 325.729284 
L 600.500826 324.686812 
L 600.961983 323.253352 
L 601.42314 328.335595 
L 601.884298 321.950197 
L 602.345455 312.176661 
L 602.806612 305.270045 
L 603.267769 308.788486 
L 603.728926 316.737649 
L 604.190083 321.819892 
L 605.112397 310.873543 
L 606.034711 316.737649 
L 606.957025 319.083314 
L 607.418182 325.729284 
L 607.879339 323.644265 
L 608.340496 317.780159 
L 608.801653 317.780159 
L 609.26281 328.596204 
L 609.723967 330.420577 
L 610.185124 325.338334 
L 610.646281 317.780159 
L 611.568595 317.780159 
L 612.029752 317.519513 
L 612.490909 325.59898 
L 612.952066 330.29031 
L 613.413223 339.672858 
L 613.87438 342.539777 
L 614.335537 340.845709 
L 614.796694 332.766242 
L 615.257851 330.420577 
L 616.180165 318.431718 
L 616.641322 329.508372 
L 617.102479 322.992706 
L 617.563636 312.567611 
L 618.024793 305.270045 
L 618.48595 305.400312 
L 619.408264 330.29031 
L 619.869421 330.29031 
L 620.330579 330.029664 
L 620.791736 330.811527 
L 621.71405 335.89377 
L 622.175207 331.072173 
L 622.636364 330.29031 
L 622.636364 330.29031 
" clip-path="url(#p92b0483574)" style="fill: none; stroke: #ff7f0e; stroke-width: 1.5; stroke-linecap: square"/>
   </g>
   <g id="patch_3">
    <path d="M 90 378 
L 90 51.84 
" style="fill: none; stroke: #000000; stroke-width: 0.8; stroke-linejoin: miter; stroke-linecap: square"/>
   </g>
   <g id="patch_4">
    <path d="M 648 378 
L 648 51.84 
" style="fill: none; stroke: #000000; stroke-width: 0.8; stroke-linejoin: miter; stroke-linecap: square"/>
   </g>
   <g id="patch_5">
    <path d="M 90 378 
L 648 378 
" style="fill: none; stroke: #000000; stroke-width: 0.8; stroke-linejoin: miter; stroke-linecap: square"/>
   </g>
   <g id="patch_6">
    <path d="M 90 51.84 
L 648 51.84 
" style="fill: none; stroke: #000000; stroke-width: 0.8; stroke-linejoin: miter; stroke-linecap: square"/>
   </g>
   <g id="text_18">
    <!-- Spring Nitrate-Nitrite: GW-SW Inputs -->
    <g transform="translate(259.44 45.84)scale(0.12 -0.12)">
     <defs>
      <path id="DejaVuSans-3a" d="M 750 794 
L 1409 794 
L 1409 0 
L 750 0 
L 750 794 
z
M 750 3309 
L 1409 3309 
L 1409 2516 
L 750 2516 
L 750 3309 
z
" transform="scale(0.015625)"/>
      <path id="DejaVuSans-47" d="M 3809 666 
L 3809 1919 
L 2778 1919 
L 2778 2438 
L 4434 2438 
L 4434 434 
Q 4069 175 3628 42 
Q 3188 -91 2688 -91 
Q 1594 -91 976 548 
Q 359 1188 359 2328 
Q 359 3472 976 4111 
Q 1594 4750 2688 4750 
Q 3144 4750 3555 4637 
Q 3966 4525 4313 4306 
L 4313 3634 
Q 3963 3931 3569 4081 
Q 3175 4231 2741 4231 
Q 1884 4231 1454 3753 
Q 1025 3275 1025 2328 
Q 1025 1384 1454 906 
Q 1884 428 2741 428 
Q 3075 428 3337 486 
Q 3600 544 3809 666 
z
" transform="scale(0.015625)"/>
      <path id="DejaVuSans-57" d="M 213 4666 
L 850 4666 
L 1831 722 
L 2809 4666 
L 3519 4666 
L 4500 722 
L 5478 4666 
L 6119 4666 
L 4947 0 
L 4153 0 
L 3169 4050 
L 2175 0 
L 1381 0 
L 213 4666 
z
" transform="scale(0.015625)"/>
      <path id="DejaVuSans-49" d="M 628 4666 
L 1259 4666 
L 1259 0 
L 628 0 
L 628 4666 
z
" transform="scale(0.015625)"/>
      <path id="DejaVuSans-75" d="M 544 1381 
L 544 3500 
L 1119 3500 
L 1119 1403 
Q 1119 906 1312 657 
Q 1506 409 1894 409 
Q 2359 409 2629 706 
Q 2900 1003 2900 1516 
L 2900 3500 
L 3475 3500 
L 3475 0 
L 2900 0 
L 2900 538 
Q 2691 219 2414 64 
Q 2138 -91 1772 -91 
Q 1169 -91 856 284 
Q 544 659 544 1381 
z
M 1991 3584 
L 1991 3584 
z
" transform="scale(0.015625)"/>
      <path id="DejaVuSans-73" d="M 2834 3397 
L 2834 2853 
Q 2591 2978 2328 3040 
Q 2066 3103 1784 3103 
Q 1356 3103 1142 2972 
Q 928 2841 928 2578 
Q 928 2378 1081 2264 
Q 1234 2150 1697 2047 
L 1894 2003 
Q 2506 1872 2764 1633 
Q 3022 1394 3022 966 
Q 3022 478 2636 193 
Q 2250 -91 1575 -91 
Q 1294 -91 989 -36 
Q 684 19 347 128 
L 347 722 
Q 666 556 975 473 
Q 1284 391 1588 391 
Q 1994 391 2212 530 
Q 2431 669 2431 922 
Q 2431 1156 2273 1281 
Q 2116 1406 1581 1522 
L 1381 1569 
Q 847 1681 609 1914 
Q 372 2147 372 2553 
Q 372 3047 722 3315 
Q 1072 3584 1716 3584 
Q 2034 3584 2315 3537 
Q 2597 3491 2834 3397 
z
" transform="scale(0.015625)"/>
     </defs>
     <use xlink:href="#DejaVuSans-53"/>
     <use xlink:href="#DejaVuSans-70" x="63.476562"/>
     <use xlink:href="#DejaVuSans-72" x="126.953125"/>
     <use xlink:href="#DejaVuSans-69" x="168.066406"/>
     <use xlink:href="#DejaVuSans-6e" x="195.849609"/>
     <use xlink:href="#DejaVuSans-67" x="259.228516"/>
     <use xlink:href="#DejaVuSans-20" x="322.705078"/>
     <use xlink:href="#DejaVuSans-4e" x="354.492188"/>
     <use xlink:href="#DejaVuSans-69" x="429.296875"/>
     <use xlink:href="#DejaVuSans-74" x="457.080078"/>
     <use xlink:href="#DejaVuSans-72" x="496.289062"/>
     <use xlink:href="#DejaVuSans-61" x="537.402344"/>
     <use xlink:href="#DejaVuSans-74" x="598.681641"/>
     <use xlink:href="#DejaVuSans-65" x="637.890625"/>
     <use xlink:href="#DejaVuSans-2d" x="699.414062"/>
     <use xlink:href="#DejaVuSans-4e" x="735.498047"/>
     <use xlink:href="#DejaVuSans-69" x="810.302734"/>
     <use xlink:href="#DejaVuSans-74" x="838.085938"/>
     <use xlink:href="#DejaVuSans-72" x="877.294922"/>
     <use xlink:href="#DejaVuSans-69" x="918.408203"/>
     <use xlink:href="#DejaVuSans-74" x="946.191406"/>
     <use xlink:href="#DejaVuSans-65" x="985.400391"/>
     <use xlink:href="#DejaVuSans-3a" x="1046.923828"/>
     <use xlink:href="#DejaVuSans-20" x="1080.615234"/>
     <use xlink:href="#DejaVuSans-47" x="1112.402344"/>
     <use xlink:href="#DejaVuSans-57" x="1189.892578"/>
     <use xlink:href="#DejaVuSans-2d" x="1284.769531"/>
     <use xlink:href="#DejaVuSans-53" x="1320.853516"/>
     <use xlink:href="#DejaVuSans-57" x="1384.330078"/>
     <use xlink:href="#DejaVuSans-20" x="1483.207031"/>
     <use xlink:href="#DejaVuSans-49" x="1514.994141"/>
     <use xlink:href="#DejaVuSans-6e" x="1544.486328"/>
     <use xlink:href="#DejaVuSans-70" x="1607.865234"/>
     <use xlink:href="#DejaVuSans-75" x="1671.341797"/>
     <use xlink:href="#DejaVuSans-74" x="1734.720703"/>
     <use xlink:href="#DejaVuSans-73" x="1773.929688"/>
    </g>
   </g>
   <g id="legend_1">
    <g id="patch_7">
     <path d="M 532.126562 89.19625 
L 641 89.19625 
Q 643 89.19625 643 87.19625 
L 643 58.84 
Q 643 56.84 641 56.84 
L 532.126562 56.84 
Q 530.126562 56.84 530.126562 58.84 
L 530.126562 87.19625 
Q 530.126562 89.19625 532.126562 89.19625 
z
" style="fill: #ffffff; opacity: 0.8; stroke: #cccccc; stroke-linejoin: miter"/>
    </g>
    <g id="line2d_19">
     <path d="M 534.126562 64.938437 
L 544.126562 64.938437 
L 554.126562 64.938437 
" style="fill: none; stroke: #1f77b4; stroke-width: 1.5; stroke-linecap: square"/>
    </g>
    <g id="text_19">
     <!-- LSTM NO3-NO2 -->
     <g transform="translate(562.126562 68.438437)scale(0.1 -0.1)">
      <defs>
       <path id="DejaVuSans-4c" d="M 628 4666 
L 1259 4666 
L 1259 531 
L 3531 531 
L 3531 0 
L 628 0 
L 628 4666 
z
" transform="scale(0.015625)"/>
       <path id="DejaVuSans-54" d="M -19 4666 
L 3928 4666 
L 3928 4134 
L 2272 4134 
L 2272 0 
L 1638 0 
L 1638 4134 
L -19 4134 
L -19 4666 
z
" transform="scale(0.015625)"/>
      </defs>
      <use xlink:href="#DejaVuSans-4c"/>
      <use xlink:href="#DejaVuSans-53" x="55.712891"/>
      <use xlink:href="#DejaVuSans-54" x="119.189453"/>
      <use xlink:href="#DejaVuSans-4d" x="180.273438"/>
      <use xlink:href="#DejaVuSans-20" x="266.552734"/>
      <use xlink:href="#DejaVuSans-4e" x="298.339844"/>
      <use xlink:href="#DejaVuSans-4f" x="373.144531"/>
      <use xlink:href="#DejaVuSans-33" x="451.855469"/>
      <use xlink:href="#DejaVuSans-2d" x="515.478516"/>
      <use xlink:href="#DejaVuSans-4e" x="551.5625"/>
      <use xlink:href="#DejaVuSans-4f" x="626.367188"/>
      <use xlink:href="#DejaVuSans-32" x="705.078125"/>
     </g>
    </g>
    <g id="line2d_20">
     <path d="M 534.126562 79.616562 
L 544.126562 79.616562 
L 554.126562 79.616562 
" style="fill: none; stroke: #ff7f0e; stroke-width: 1.5; stroke-linecap: square"/>
    </g>
    <g id="text_20">
     <!-- Measured -->
     <g transform="translate(562.126562 83.116562)scale(0.1 -0.1)">
      <defs>
       <path id="DejaVuSans-64" d="M 2906 2969 
L 2906 4863 
L 3481 4863 
L 3481 0 
L 2906 0 
L 2906 525 
Q 2725 213 2448 61 
Q 2172 -91 1784 -91 
Q 1150 -91 751 415 
Q 353 922 353 1747 
Q 353 2572 751 3078 
Q 1150 3584 1784 3584 
Q 2172 3584 2448 3432 
Q 2725 3281 2906 2969 
z
M 947 1747 
Q 947 1113 1208 752 
Q 1469 391 1925 391 
Q 2381 391 2643 752 
Q 2906 1113 2906 1747 
Q 2906 2381 2643 2742 
Q 2381 3103 1925 3103 
Q 1469 3103 1208 2742 
Q 947 2381 947 1747 
z
" transform="scale(0.015625)"/>
      </defs>
      <use xlink:href="#DejaVuSans-4d"/>
      <use xlink:href="#DejaVuSans-65" x="86.279297"/>
      <use xlink:href="#DejaVuSans-61" x="147.802734"/>
      <use xlink:href="#DejaVuSans-73" x="209.082031"/>
      <use xlink:href="#DejaVuSans-75" x="261.181641"/>
      <use xlink:href="#DejaVuSans-72" x="324.560547"/>
      <use xlink:href="#DejaVuSans-65" x="363.423828"/>
      <use xlink:href="#DejaVuSans-64" x="424.947266"/>
     </g>
    </g>
   </g>
  </g>
 </g>
 <defs>
  <clipPath id="p92b0483574">
   <rect x="90" y="51.84" width="558" height="326.16"/>
  </clipPath>
 </defs>
</svg>
