<?xml version="1.0" encoding="utf-8" standalone="no"?>
<!DOCTYPE svg PUBLIC "-//W3C//DTD SVG 1.1//EN"
  "http://www.w3.org/Graphics/SVG/1.1/DTD/svg11.dtd">
<svg xmlns:xlink="http://www.w3.org/1999/xlink" width="720pt" height="432pt" viewBox="0 0 720 432" xmlns="http://www.w3.org/2000/svg" version="1.1">
 <metadata>
  <rdf:RDF xmlns:dc="http://purl.org/dc/elements/1.1/" xmlns:cc="http://creativecommons.org/ns#" xmlns:rdf="http://www.w3.org/1999/02/22-rdf-syntax-ns#">
   <cc:Work>
    <dc:type rdf:resource="http://purl.org/dc/dcmitype/StillImage"/>
    <dc:date>2022-11-01T15:56:46.485467</dc:date>
    <dc:format>image/svg+xml</dc:format>
    <dc:creator>
     <cc:Agent>
      <dc:title>Matplotlib v3.5.1, https://matplotlib.org/</dc:title>
     </cc:Agent>
    </dc:creator>
   </cc:Work>
  </rdf:RDF>
 </metadata>
 <defs>
  <style type="text/css">*{stroke-linejoin: round; stroke-linecap: butt}</style>
 </defs>
 <g id="figure_1">
  <g id="patch_1">
   <path d="M 0 432 
L 720 432 
L 720 0 
L 0 0 
L 0 432 
z
" style="fill: none"/>
  </g>
  <g id="axes_1">
   <g id="patch_2">
    <path d="M 90 378 
L 648 378 
L 648 51.84 
L 90 51.84 
z
" style="fill: #ffffff"/>
   </g>
   <g id="matplotlib.axis_1">
    <g id="xtick_1">
     <g id="line2d_1">
      <defs>
       <path id="m50ddf9a687" d="M 0 0 
L 0 3.5 
" style="stroke: #000000; stroke-width: 0.8"/>
      </defs>
      <g>
       <use xlink:href="#m50ddf9a687" x="103.373554" y="378" style="stroke: #000000; stroke-width: 0.8"/>
      </g>
     </g>
     <g id="text_1">
      <!-- 2017-01 -->
      <g transform="translate(82.482147 392.598437)scale(0.1 -0.1)">
       <defs>
        <path id="DejaVuSans-32" d="M 1228 531 
L 3431 531 
L 3431 0 
L 469 0 
L 469 531 
Q 828 903 1448 1529 
Q 2069 2156 2228 2338 
Q 2531 2678 2651 2914 
Q 2772 3150 2772 3378 
Q 2772 3750 2511 3984 
Q 2250 4219 1831 4219 
Q 1534 4219 1204 4116 
Q 875 4013 500 3803 
L 500 4441 
Q 881 4594 1212 4672 
Q 1544 4750 1819 4750 
Q 2544 4750 2975 4387 
Q 3406 4025 3406 3419 
Q 3406 3131 3298 2873 
Q 3191 2616 2906 2266 
Q 2828 2175 2409 1742 
Q 1991 1309 1228 531 
z
" transform="scale(0.015625)"/>
        <path id="DejaVuSans-30" d="M 2034 4250 
Q 1547 4250 1301 3770 
Q 1056 3291 1056 2328 
Q 1056 1369 1301 889 
Q 1547 409 2034 409 
Q 2525 409 2770 889 
Q 3016 1369 3016 2328 
Q 3016 3291 2770 3770 
Q 2525 4250 2034 4250 
z
M 2034 4750 
Q 2819 4750 3233 4129 
Q 3647 3509 3647 2328 
Q 3647 1150 3233 529 
Q 2819 -91 2034 -91 
Q 1250 -91 836 529 
Q 422 1150 422 2328 
Q 422 3509 836 4129 
Q 1250 4750 2034 4750 
z
" transform="scale(0.015625)"/>
        <path id="DejaVuSans-31" d="M 794 531 
L 1825 531 
L 1825 4091 
L 703 3866 
L 703 4441 
L 1819 4666 
L 2450 4666 
L 2450 531 
L 3481 531 
L 3481 0 
L 794 0 
L 794 531 
z
" transform="scale(0.015625)"/>
        <path id="DejaVuSans-37" d="M 525 4666 
L 3525 4666 
L 3525 4397 
L 1831 0 
L 1172 0 
L 2766 4134 
L 525 4134 
L 525 4666 
z
" transform="scale(0.015625)"/>
        <path id="DejaVuSans-2d" d="M 313 2009 
L 1997 2009 
L 1997 1497 
L 313 1497 
L 313 2009 
z
" transform="scale(0.015625)"/>
       </defs>
       <use xlink:href="#DejaVuSans-32"/>
       <use xlink:href="#DejaVuSans-30" x="63.623047"/>
       <use xlink:href="#DejaVuSans-31" x="127.246094"/>
       <use xlink:href="#DejaVuSans-37" x="190.869141"/>
       <use xlink:href="#DejaVuSans-2d" x="254.492188"/>
       <use xlink:href="#DejaVuSans-30" x="290.576172"/>
       <use xlink:href="#DejaVuSans-31" x="354.199219"/>
      </g>
     </g>
    </g>
    <g id="xtick_2">
     <g id="line2d_2">
      <g>
       <use xlink:href="#m50ddf9a687" x="158.712397" y="378" style="stroke: #000000; stroke-width: 0.8"/>
      </g>
     </g>
     <g id="text_2">
      <!-- 2017-05 -->
      <g transform="translate(137.82099 392.598437)scale(0.1 -0.1)">
       <defs>
        <path id="DejaVuSans-35" d="M 691 4666 
L 3169 4666 
L 3169 4134 
L 1269 4134 
L 1269 2991 
Q 1406 3038 1543 3061 
Q 1681 3084 1819 3084 
Q 2600 3084 3056 2656 
Q 3513 2228 3513 1497 
Q 3513 744 3044 326 
Q 2575 -91 1722 -91 
Q 1428 -91 1123 -41 
Q 819 9 494 109 
L 494 744 
Q 775 591 1075 516 
Q 1375 441 1709 441 
Q 2250 441 2565 725 
Q 2881 1009 2881 1497 
Q 2881 1984 2565 2268 
Q 2250 2553 1709 2553 
Q 1456 2553 1204 2497 
Q 953 2441 691 2322 
L 691 4666 
z
" transform="scale(0.015625)"/>
       </defs>
       <use xlink:href="#DejaVuSans-32"/>
       <use xlink:href="#DejaVuSans-30" x="63.623047"/>
       <use xlink:href="#DejaVuSans-31" x="127.246094"/>
       <use xlink:href="#DejaVuSans-37" x="190.869141"/>
       <use xlink:href="#DejaVuSans-2d" x="254.492188"/>
       <use xlink:href="#DejaVuSans-30" x="290.576172"/>
       <use xlink:href="#DejaVuSans-35" x="354.199219"/>
      </g>
     </g>
    </g>
    <g id="xtick_3">
     <g id="line2d_3">
      <g>
       <use xlink:href="#m50ddf9a687" x="215.434711" y="378" style="stroke: #000000; stroke-width: 0.8"/>
      </g>
     </g>
     <g id="text_3">
      <!-- 2017-09 -->
      <g transform="translate(194.543304 392.598437)scale(0.1 -0.1)">
       <defs>
        <path id="DejaVuSans-39" d="M 703 97 
L 703 672 
Q 941 559 1184 500 
Q 1428 441 1663 441 
Q 2288 441 2617 861 
Q 2947 1281 2994 2138 
Q 2813 1869 2534 1725 
Q 2256 1581 1919 1581 
Q 1219 1581 811 2004 
Q 403 2428 403 3163 
Q 403 3881 828 4315 
Q 1253 4750 1959 4750 
Q 2769 4750 3195 4129 
Q 3622 3509 3622 2328 
Q 3622 1225 3098 567 
Q 2575 -91 1691 -91 
Q 1453 -91 1209 -44 
Q 966 3 703 97 
z
M 1959 2075 
Q 2384 2075 2632 2365 
Q 2881 2656 2881 3163 
Q 2881 3666 2632 3958 
Q 2384 4250 1959 4250 
Q 1534 4250 1286 3958 
Q 1038 3666 1038 3163 
Q 1038 2656 1286 2365 
Q 1534 2075 1959 2075 
z
" transform="scale(0.015625)"/>
       </defs>
       <use xlink:href="#DejaVuSans-32"/>
       <use xlink:href="#DejaVuSans-30" x="63.623047"/>
       <use xlink:href="#DejaVuSans-31" x="127.246094"/>
       <use xlink:href="#DejaVuSans-37" x="190.869141"/>
       <use xlink:href="#DejaVuSans-2d" x="254.492188"/>
       <use xlink:href="#DejaVuSans-30" x="290.576172"/>
       <use xlink:href="#DejaVuSans-39" x="354.199219"/>
      </g>
     </g>
    </g>
    <g id="xtick_4">
     <g id="line2d_4">
      <g>
       <use xlink:href="#m50ddf9a687" x="271.695868" y="378" style="stroke: #000000; stroke-width: 0.8"/>
      </g>
     </g>
     <g id="text_4">
      <!-- 2018-01 -->
      <g transform="translate(250.804462 392.598437)scale(0.1 -0.1)">
       <defs>
        <path id="DejaVuSans-38" d="M 2034 2216 
Q 1584 2216 1326 1975 
Q 1069 1734 1069 1313 
Q 1069 891 1326 650 
Q 1584 409 2034 409 
Q 2484 409 2743 651 
Q 3003 894 3003 1313 
Q 3003 1734 2745 1975 
Q 2488 2216 2034 2216 
z
M 1403 2484 
Q 997 2584 770 2862 
Q 544 3141 544 3541 
Q 544 4100 942 4425 
Q 1341 4750 2034 4750 
Q 2731 4750 3128 4425 
Q 3525 4100 3525 3541 
Q 3525 3141 3298 2862 
Q 3072 2584 2669 2484 
Q 3125 2378 3379 2068 
Q 3634 1759 3634 1313 
Q 3634 634 3220 271 
Q 2806 -91 2034 -91 
Q 1263 -91 848 271 
Q 434 634 434 1313 
Q 434 1759 690 2068 
Q 947 2378 1403 2484 
z
M 1172 3481 
Q 1172 3119 1398 2916 
Q 1625 2713 2034 2713 
Q 2441 2713 2670 2916 
Q 2900 3119 2900 3481 
Q 2900 3844 2670 4047 
Q 2441 4250 2034 4250 
Q 1625 4250 1398 4047 
Q 1172 3844 1172 3481 
z
" transform="scale(0.015625)"/>
       </defs>
       <use xlink:href="#DejaVuSans-32"/>
       <use xlink:href="#DejaVuSans-30" x="63.623047"/>
       <use xlink:href="#DejaVuSans-31" x="127.246094"/>
       <use xlink:href="#DejaVuSans-38" x="190.869141"/>
       <use xlink:href="#DejaVuSans-2d" x="254.492188"/>
       <use xlink:href="#DejaVuSans-30" x="290.576172"/>
       <use xlink:href="#DejaVuSans-31" x="354.199219"/>
      </g>
     </g>
    </g>
    <g id="xtick_5">
     <g id="line2d_5">
      <g>
       <use xlink:href="#m50ddf9a687" x="327.034711" y="378" style="stroke: #000000; stroke-width: 0.8"/>
      </g>
     </g>
     <g id="text_5">
      <!-- 2018-05 -->
      <g transform="translate(306.143304 392.598437)scale(0.1 -0.1)">
       <use xlink:href="#DejaVuSans-32"/>
       <use xlink:href="#DejaVuSans-30" x="63.623047"/>
       <use xlink:href="#DejaVuSans-31" x="127.246094"/>
       <use xlink:href="#DejaVuSans-38" x="190.869141"/>
       <use xlink:href="#DejaVuSans-2d" x="254.492188"/>
       <use xlink:href="#DejaVuSans-30" x="290.576172"/>
       <use xlink:href="#DejaVuSans-35" x="354.199219"/>
      </g>
     </g>
    </g>
    <g id="xtick_6">
     <g id="line2d_6">
      <g>
       <use xlink:href="#m50ddf9a687" x="383.757025" y="378" style="stroke: #000000; stroke-width: 0.8"/>
      </g>
     </g>
     <g id="text_6">
      <!-- 2018-09 -->
      <g transform="translate(362.865619 392.598437)scale(0.1 -0.1)">
       <use xlink:href="#DejaVuSans-32"/>
       <use xlink:href="#DejaVuSans-30" x="63.623047"/>
       <use xlink:href="#DejaVuSans-31" x="127.246094"/>
       <use xlink:href="#DejaVuSans-38" x="190.869141"/>
       <use xlink:href="#DejaVuSans-2d" x="254.492188"/>
       <use xlink:href="#DejaVuSans-30" x="290.576172"/>
       <use xlink:href="#DejaVuSans-39" x="354.199219"/>
      </g>
     </g>
    </g>
    <g id="xtick_7">
     <g id="line2d_7">
      <g>
       <use xlink:href="#m50ddf9a687" x="440.018182" y="378" style="stroke: #000000; stroke-width: 0.8"/>
      </g>
     </g>
     <g id="text_7">
      <!-- 2019-01 -->
      <g transform="translate(419.126776 392.598437)scale(0.1 -0.1)">
       <use xlink:href="#DejaVuSans-32"/>
       <use xlink:href="#DejaVuSans-30" x="63.623047"/>
       <use xlink:href="#DejaVuSans-31" x="127.246094"/>
       <use xlink:href="#DejaVuSans-39" x="190.869141"/>
       <use xlink:href="#DejaVuSans-2d" x="254.492188"/>
       <use xlink:href="#DejaVuSans-30" x="290.576172"/>
       <use xlink:href="#DejaVuSans-31" x="354.199219"/>
      </g>
     </g>
    </g>
    <g id="xtick_8">
     <g id="line2d_8">
      <g>
       <use xlink:href="#m50ddf9a687" x="495.357025" y="378" style="stroke: #000000; stroke-width: 0.8"/>
      </g>
     </g>
     <g id="text_8">
      <!-- 2019-05 -->
      <g transform="translate(474.465619 392.598437)scale(0.1 -0.1)">
       <use xlink:href="#DejaVuSans-32"/>
       <use xlink:href="#DejaVuSans-30" x="63.623047"/>
       <use xlink:href="#DejaVuSans-31" x="127.246094"/>
       <use xlink:href="#DejaVuSans-39" x="190.869141"/>
       <use xlink:href="#DejaVuSans-2d" x="254.492188"/>
       <use xlink:href="#DejaVuSans-30" x="290.576172"/>
       <use xlink:href="#DejaVuSans-35" x="354.199219"/>
      </g>
     </g>
    </g>
    <g id="xtick_9">
     <g id="line2d_9">
      <g>
       <use xlink:href="#m50ddf9a687" x="552.079339" y="378" style="stroke: #000000; stroke-width: 0.8"/>
      </g>
     </g>
     <g id="text_9">
      <!-- 2019-09 -->
      <g transform="translate(531.187933 392.598437)scale(0.1 -0.1)">
       <use xlink:href="#DejaVuSans-32"/>
       <use xlink:href="#DejaVuSans-30" x="63.623047"/>
       <use xlink:href="#DejaVuSans-31" x="127.246094"/>
       <use xlink:href="#DejaVuSans-39" x="190.869141"/>
       <use xlink:href="#DejaVuSans-2d" x="254.492188"/>
       <use xlink:href="#DejaVuSans-30" x="290.576172"/>
       <use xlink:href="#DejaVuSans-39" x="354.199219"/>
      </g>
     </g>
    </g>
    <g id="xtick_10">
     <g id="line2d_10">
      <g>
       <use xlink:href="#m50ddf9a687" x="608.340496" y="378" style="stroke: #000000; stroke-width: 0.8"/>
      </g>
     </g>
     <g id="text_10">
      <!-- 2020-01 -->
      <g transform="translate(587.44909 392.598437)scale(0.1 -0.1)">
       <use xlink:href="#DejaVuSans-32"/>
       <use xlink:href="#DejaVuSans-30" x="63.623047"/>
       <use xlink:href="#DejaVuSans-32" x="127.246094"/>
       <use xlink:href="#DejaVuSans-30" x="190.869141"/>
       <use xlink:href="#DejaVuSans-2d" x="254.492188"/>
       <use xlink:href="#DejaVuSans-30" x="290.576172"/>
       <use xlink:href="#DejaVuSans-31" x="354.199219"/>
      </g>
     </g>
    </g>
    <g id="text_11">
     <!-- Date [Year-Month] -->
     <g transform="translate(323.814844 406.276563)scale(0.1 -0.1)">
      <defs>
       <path id="DejaVuSans-44" d="M 1259 4147 
L 1259 519 
L 2022 519 
Q 2988 519 3436 956 
Q 3884 1394 3884 2338 
Q 3884 3275 3436 3711 
Q 2988 4147 2022 4147 
L 1259 4147 
z
M 628 4666 
L 1925 4666 
Q 3281 4666 3915 4102 
Q 4550 3538 4550 2338 
Q 4550 1131 3912 565 
Q 3275 0 1925 0 
L 628 0 
L 628 4666 
z
" transform="scale(0.015625)"/>
       <path id="DejaVuSans-61" d="M 2194 1759 
Q 1497 1759 1228 1600 
Q 959 1441 959 1056 
Q 959 750 1161 570 
Q 1363 391 1709 391 
Q 2188 391 2477 730 
Q 2766 1069 2766 1631 
L 2766 1759 
L 2194 1759 
z
M 3341 1997 
L 3341 0 
L 2766 0 
L 2766 531 
Q 2569 213 2275 61 
Q 1981 -91 1556 -91 
Q 1019 -91 701 211 
Q 384 513 384 1019 
Q 384 1609 779 1909 
Q 1175 2209 1959 2209 
L 2766 2209 
L 2766 2266 
Q 2766 2663 2505 2880 
Q 2244 3097 1772 3097 
Q 1472 3097 1187 3025 
Q 903 2953 641 2809 
L 641 3341 
Q 956 3463 1253 3523 
Q 1550 3584 1831 3584 
Q 2591 3584 2966 3190 
Q 3341 2797 3341 1997 
z
" transform="scale(0.015625)"/>
       <path id="DejaVuSans-74" d="M 1172 4494 
L 1172 3500 
L 2356 3500 
L 2356 3053 
L 1172 3053 
L 1172 1153 
Q 1172 725 1289 603 
Q 1406 481 1766 481 
L 2356 481 
L 2356 0 
L 1766 0 
Q 1100 0 847 248 
Q 594 497 594 1153 
L 594 3053 
L 172 3053 
L 172 3500 
L 594 3500 
L 594 4494 
L 1172 4494 
z
" transform="scale(0.015625)"/>
       <path id="DejaVuSans-65" d="M 3597 1894 
L 3597 1613 
L 953 1613 
Q 991 1019 1311 708 
Q 1631 397 2203 397 
Q 2534 397 2845 478 
Q 3156 559 3463 722 
L 3463 178 
Q 3153 47 2828 -22 
Q 2503 -91 2169 -91 
Q 1331 -91 842 396 
Q 353 884 353 1716 
Q 353 2575 817 3079 
Q 1281 3584 2069 3584 
Q 2775 3584 3186 3129 
Q 3597 2675 3597 1894 
z
M 3022 2063 
Q 3016 2534 2758 2815 
Q 2500 3097 2075 3097 
Q 1594 3097 1305 2825 
Q 1016 2553 972 2059 
L 3022 2063 
z
" transform="scale(0.015625)"/>
       <path id="DejaVuSans-20" transform="scale(0.015625)"/>
       <path id="DejaVuSans-5b" d="M 550 4863 
L 1875 4863 
L 1875 4416 
L 1125 4416 
L 1125 -397 
L 1875 -397 
L 1875 -844 
L 550 -844 
L 550 4863 
z
" transform="scale(0.015625)"/>
       <path id="DejaVuSans-59" d="M -13 4666 
L 666 4666 
L 1959 2747 
L 3244 4666 
L 3922 4666 
L 2272 2222 
L 2272 0 
L 1638 0 
L 1638 2222 
L -13 4666 
z
" transform="scale(0.015625)"/>
       <path id="DejaVuSans-72" d="M 2631 2963 
Q 2534 3019 2420 3045 
Q 2306 3072 2169 3072 
Q 1681 3072 1420 2755 
Q 1159 2438 1159 1844 
L 1159 0 
L 581 0 
L 581 3500 
L 1159 3500 
L 1159 2956 
Q 1341 3275 1631 3429 
Q 1922 3584 2338 3584 
Q 2397 3584 2469 3576 
Q 2541 3569 2628 3553 
L 2631 2963 
z
" transform="scale(0.015625)"/>
       <path id="DejaVuSans-4d" d="M 628 4666 
L 1569 4666 
L 2759 1491 
L 3956 4666 
L 4897 4666 
L 4897 0 
L 4281 0 
L 4281 4097 
L 3078 897 
L 2444 897 
L 1241 4097 
L 1241 0 
L 628 0 
L 628 4666 
z
" transform="scale(0.015625)"/>
       <path id="DejaVuSans-6f" d="M 1959 3097 
Q 1497 3097 1228 2736 
Q 959 2375 959 1747 
Q 959 1119 1226 758 
Q 1494 397 1959 397 
Q 2419 397 2687 759 
Q 2956 1122 2956 1747 
Q 2956 2369 2687 2733 
Q 2419 3097 1959 3097 
z
M 1959 3584 
Q 2709 3584 3137 3096 
Q 3566 2609 3566 1747 
Q 3566 888 3137 398 
Q 2709 -91 1959 -91 
Q 1206 -91 779 398 
Q 353 888 353 1747 
Q 353 2609 779 3096 
Q 1206 3584 1959 3584 
z
" transform="scale(0.015625)"/>
       <path id="DejaVuSans-6e" d="M 3513 2113 
L 3513 0 
L 2938 0 
L 2938 2094 
Q 2938 2591 2744 2837 
Q 2550 3084 2163 3084 
Q 1697 3084 1428 2787 
Q 1159 2491 1159 1978 
L 1159 0 
L 581 0 
L 581 3500 
L 1159 3500 
L 1159 2956 
Q 1366 3272 1645 3428 
Q 1925 3584 2291 3584 
Q 2894 3584 3203 3211 
Q 3513 2838 3513 2113 
z
" transform="scale(0.015625)"/>
       <path id="DejaVuSans-68" d="M 3513 2113 
L 3513 0 
L 2938 0 
L 2938 2094 
Q 2938 2591 2744 2837 
Q 2550 3084 2163 3084 
Q 1697 3084 1428 2787 
Q 1159 2491 1159 1978 
L 1159 0 
L 581 0 
L 581 4863 
L 1159 4863 
L 1159 2956 
Q 1366 3272 1645 3428 
Q 1925 3584 2291 3584 
Q 2894 3584 3203 3211 
Q 3513 2838 3513 2113 
z
" transform="scale(0.015625)"/>
       <path id="DejaVuSans-5d" d="M 1947 4863 
L 1947 -844 
L 622 -844 
L 622 -397 
L 1369 -397 
L 1369 4416 
L 622 4416 
L 622 4863 
L 1947 4863 
z
" transform="scale(0.015625)"/>
      </defs>
      <use xlink:href="#DejaVuSans-44"/>
      <use xlink:href="#DejaVuSans-61" x="77.001953"/>
      <use xlink:href="#DejaVuSans-74" x="138.28125"/>
      <use xlink:href="#DejaVuSans-65" x="177.490234"/>
      <use xlink:href="#DejaVuSans-20" x="239.013672"/>
      <use xlink:href="#DejaVuSans-5b" x="270.800781"/>
      <use xlink:href="#DejaVuSans-59" x="309.814453"/>
      <use xlink:href="#DejaVuSans-65" x="357.648438"/>
      <use xlink:href="#DejaVuSans-61" x="419.171875"/>
      <use xlink:href="#DejaVuSans-72" x="480.451172"/>
      <use xlink:href="#DejaVuSans-2d" x="515.189453"/>
      <use xlink:href="#DejaVuSans-4d" x="551.273438"/>
      <use xlink:href="#DejaVuSans-6f" x="637.552734"/>
      <use xlink:href="#DejaVuSans-6e" x="698.734375"/>
      <use xlink:href="#DejaVuSans-74" x="762.113281"/>
      <use xlink:href="#DejaVuSans-68" x="801.322266"/>
      <use xlink:href="#DejaVuSans-5d" x="864.701172"/>
     </g>
    </g>
   </g>
   <g id="matplotlib.axis_2">
    <g id="ytick_1">
     <g id="line2d_11">
      <defs>
       <path id="m48ebd13d4f" d="M 0 0 
L -3.5 0 
" style="stroke: #000000; stroke-width: 0.8"/>
      </defs>
      <g>
       <use xlink:href="#m48ebd13d4f" x="90" y="377.944968" style="stroke: #000000; stroke-width: 0.8"/>
      </g>
     </g>
     <g id="text_12">
      <!-- 19.5 -->
      <g transform="translate(60.734375 381.744187)scale(0.1 -0.1)">
       <defs>
        <path id="DejaVuSans-2e" d="M 684 794 
L 1344 794 
L 1344 0 
L 684 0 
L 684 794 
z
" transform="scale(0.015625)"/>
       </defs>
       <use xlink:href="#DejaVuSans-31"/>
       <use xlink:href="#DejaVuSans-39" x="63.623047"/>
       <use xlink:href="#DejaVuSans-2e" x="127.246094"/>
       <use xlink:href="#DejaVuSans-35" x="159.033203"/>
      </g>
     </g>
    </g>
    <g id="ytick_2">
     <g id="line2d_12">
      <g>
       <use xlink:href="#m48ebd13d4f" x="90" y="321.226822" style="stroke: #000000; stroke-width: 0.8"/>
      </g>
     </g>
     <g id="text_13">
      <!-- 20.0 -->
      <g transform="translate(60.734375 325.026041)scale(0.1 -0.1)">
       <use xlink:href="#DejaVuSans-32"/>
       <use xlink:href="#DejaVuSans-30" x="63.623047"/>
       <use xlink:href="#DejaVuSans-2e" x="127.246094"/>
       <use xlink:href="#DejaVuSans-30" x="159.033203"/>
      </g>
     </g>
    </g>
    <g id="ytick_3">
     <g id="line2d_13">
      <g>
       <use xlink:href="#m48ebd13d4f" x="90" y="264.508676" style="stroke: #000000; stroke-width: 0.8"/>
      </g>
     </g>
     <g id="text_14">
      <!-- 20.5 -->
      <g transform="translate(60.734375 268.307894)scale(0.1 -0.1)">
       <use xlink:href="#DejaVuSans-32"/>
       <use xlink:href="#DejaVuSans-30" x="63.623047"/>
       <use xlink:href="#DejaVuSans-2e" x="127.246094"/>
       <use xlink:href="#DejaVuSans-35" x="159.033203"/>
      </g>
     </g>
    </g>
    <g id="ytick_4">
     <g id="line2d_14">
      <g>
       <use xlink:href="#m48ebd13d4f" x="90" y="207.790529" style="stroke: #000000; stroke-width: 0.8"/>
      </g>
     </g>
     <g id="text_15">
      <!-- 21.0 -->
      <g transform="translate(60.734375 211.589748)scale(0.1 -0.1)">
       <use xlink:href="#DejaVuSans-32"/>
       <use xlink:href="#DejaVuSans-31" x="63.623047"/>
       <use xlink:href="#DejaVuSans-2e" x="127.246094"/>
       <use xlink:href="#DejaVuSans-30" x="159.033203"/>
      </g>
     </g>
    </g>
    <g id="ytick_5">
     <g id="line2d_15">
      <g>
       <use xlink:href="#m48ebd13d4f" x="90" y="151.072383" style="stroke: #000000; stroke-width: 0.8"/>
      </g>
     </g>
     <g id="text_16">
      <!-- 21.5 -->
      <g transform="translate(60.734375 154.871602)scale(0.1 -0.1)">
       <use xlink:href="#DejaVuSans-32"/>
       <use xlink:href="#DejaVuSans-31" x="63.623047"/>
       <use xlink:href="#DejaVuSans-2e" x="127.246094"/>
       <use xlink:href="#DejaVuSans-35" x="159.033203"/>
      </g>
     </g>
    </g>
    <g id="ytick_6">
     <g id="line2d_16">
      <g>
       <use xlink:href="#m48ebd13d4f" x="90" y="94.354237" style="stroke: #000000; stroke-width: 0.8"/>
      </g>
     </g>
     <g id="text_17">
      <!-- 22.0 -->
      <g transform="translate(60.734375 98.153455)scale(0.1 -0.1)">
       <use xlink:href="#DejaVuSans-32"/>
       <use xlink:href="#DejaVuSans-32" x="63.623047"/>
       <use xlink:href="#DejaVuSans-2e" x="127.246094"/>
       <use xlink:href="#DejaVuSans-30" x="159.033203"/>
      </g>
     </g>
    </g>
    <g id="text_18">
     <!-- Spring Temp [C] -->
     <g transform="translate(54.654687 254.952031)rotate(-90)scale(0.1 -0.1)">
      <defs>
       <path id="DejaVuSans-53" d="M 3425 4513 
L 3425 3897 
Q 3066 4069 2747 4153 
Q 2428 4238 2131 4238 
Q 1616 4238 1336 4038 
Q 1056 3838 1056 3469 
Q 1056 3159 1242 3001 
Q 1428 2844 1947 2747 
L 2328 2669 
Q 3034 2534 3370 2195 
Q 3706 1856 3706 1288 
Q 3706 609 3251 259 
Q 2797 -91 1919 -91 
Q 1588 -91 1214 -16 
Q 841 59 441 206 
L 441 856 
Q 825 641 1194 531 
Q 1563 422 1919 422 
Q 2459 422 2753 634 
Q 3047 847 3047 1241 
Q 3047 1584 2836 1778 
Q 2625 1972 2144 2069 
L 1759 2144 
Q 1053 2284 737 2584 
Q 422 2884 422 3419 
Q 422 4038 858 4394 
Q 1294 4750 2059 4750 
Q 2388 4750 2728 4690 
Q 3069 4631 3425 4513 
z
" transform="scale(0.015625)"/>
       <path id="DejaVuSans-70" d="M 1159 525 
L 1159 -1331 
L 581 -1331 
L 581 3500 
L 1159 3500 
L 1159 2969 
Q 1341 3281 1617 3432 
Q 1894 3584 2278 3584 
Q 2916 3584 3314 3078 
Q 3713 2572 3713 1747 
Q 3713 922 3314 415 
Q 2916 -91 2278 -91 
Q 1894 -91 1617 61 
Q 1341 213 1159 525 
z
M 3116 1747 
Q 3116 2381 2855 2742 
Q 2594 3103 2138 3103 
Q 1681 3103 1420 2742 
Q 1159 2381 1159 1747 
Q 1159 1113 1420 752 
Q 1681 391 2138 391 
Q 2594 391 2855 752 
Q 3116 1113 3116 1747 
z
" transform="scale(0.015625)"/>
       <path id="DejaVuSans-69" d="M 603 3500 
L 1178 3500 
L 1178 0 
L 603 0 
L 603 3500 
z
M 603 4863 
L 1178 4863 
L 1178 4134 
L 603 4134 
L 603 4863 
z
" transform="scale(0.015625)"/>
       <path id="DejaVuSans-67" d="M 2906 1791 
Q 2906 2416 2648 2759 
Q 2391 3103 1925 3103 
Q 1463 3103 1205 2759 
Q 947 2416 947 1791 
Q 947 1169 1205 825 
Q 1463 481 1925 481 
Q 2391 481 2648 825 
Q 2906 1169 2906 1791 
z
M 3481 434 
Q 3481 -459 3084 -895 
Q 2688 -1331 1869 -1331 
Q 1566 -1331 1297 -1286 
Q 1028 -1241 775 -1147 
L 775 -588 
Q 1028 -725 1275 -790 
Q 1522 -856 1778 -856 
Q 2344 -856 2625 -561 
Q 2906 -266 2906 331 
L 2906 616 
Q 2728 306 2450 153 
Q 2172 0 1784 0 
Q 1141 0 747 490 
Q 353 981 353 1791 
Q 353 2603 747 3093 
Q 1141 3584 1784 3584 
Q 2172 3584 2450 3431 
Q 2728 3278 2906 2969 
L 2906 3500 
L 3481 3500 
L 3481 434 
z
" transform="scale(0.015625)"/>
       <path id="DejaVuSans-54" d="M -19 4666 
L 3928 4666 
L 3928 4134 
L 2272 4134 
L 2272 0 
L 1638 0 
L 1638 4134 
L -19 4134 
L -19 4666 
z
" transform="scale(0.015625)"/>
       <path id="DejaVuSans-6d" d="M 3328 2828 
Q 3544 3216 3844 3400 
Q 4144 3584 4550 3584 
Q 5097 3584 5394 3201 
Q 5691 2819 5691 2113 
L 5691 0 
L 5113 0 
L 5113 2094 
Q 5113 2597 4934 2840 
Q 4756 3084 4391 3084 
Q 3944 3084 3684 2787 
Q 3425 2491 3425 1978 
L 3425 0 
L 2847 0 
L 2847 2094 
Q 2847 2600 2669 2842 
Q 2491 3084 2119 3084 
Q 1678 3084 1418 2786 
Q 1159 2488 1159 1978 
L 1159 0 
L 581 0 
L 581 3500 
L 1159 3500 
L 1159 2956 
Q 1356 3278 1631 3431 
Q 1906 3584 2284 3584 
Q 2666 3584 2933 3390 
Q 3200 3197 3328 2828 
z
" transform="scale(0.015625)"/>
       <path id="DejaVuSans-43" d="M 4122 4306 
L 4122 3641 
Q 3803 3938 3442 4084 
Q 3081 4231 2675 4231 
Q 1875 4231 1450 3742 
Q 1025 3253 1025 2328 
Q 1025 1406 1450 917 
Q 1875 428 2675 428 
Q 3081 428 3442 575 
Q 3803 722 4122 1019 
L 4122 359 
Q 3791 134 3420 21 
Q 3050 -91 2638 -91 
Q 1578 -91 968 557 
Q 359 1206 359 2328 
Q 359 3453 968 4101 
Q 1578 4750 2638 4750 
Q 3056 4750 3426 4639 
Q 3797 4528 4122 4306 
z
" transform="scale(0.015625)"/>
      </defs>
      <use xlink:href="#DejaVuSans-53"/>
      <use xlink:href="#DejaVuSans-70" x="63.476562"/>
      <use xlink:href="#DejaVuSans-72" x="126.953125"/>
      <use xlink:href="#DejaVuSans-69" x="168.066406"/>
      <use xlink:href="#DejaVuSans-6e" x="195.849609"/>
      <use xlink:href="#DejaVuSans-67" x="259.228516"/>
      <use xlink:href="#DejaVuSans-20" x="322.705078"/>
      <use xlink:href="#DejaVuSans-54" x="354.492188"/>
      <use xlink:href="#DejaVuSans-65" x="398.576172"/>
      <use xlink:href="#DejaVuSans-6d" x="460.099609"/>
      <use xlink:href="#DejaVuSans-70" x="557.511719"/>
      <use xlink:href="#DejaVuSans-20" x="620.988281"/>
      <use xlink:href="#DejaVuSans-5b" x="652.775391"/>
      <use xlink:href="#DejaVuSans-43" x="691.789062"/>
      <use xlink:href="#DejaVuSans-5d" x="761.613281"/>
     </g>
    </g>
   </g>
   <g id="line2d_17">
    <path d="M 470.454545 378 
L 470.454545 51.84 
" clip-path="url(#p432b54efd6)" style="fill: none; stroke-dasharray: 5.55,2.4; stroke-dashoffset: 0; stroke: #ff0000; stroke-width: 1.5"/>
   </g>
   <g id="line2d_18">
    <path d="M 115.363636 245.446701 
L 115.824793 258.212741 
L 116.28595 256.046952 
L 116.747107 296.801869 
L 117.208264 277.500382 
L 117.669421 272.45048 
L 118.130579 226.883876 
L 118.591736 273.165558 
L 119.052893 264.437709 
L 119.51405 289.840187 
L 119.975207 276.608968 
L 120.436364 283.769703 
L 120.897521 243.997938 
L 121.358678 235.857729 
L 121.819835 281.491189 
L 122.280992 272.128748 
L 122.742149 232.647125 
L 123.203306 257.579448 
L 123.664463 260.566117 
L 124.586777 240.723074 
L 125.047934 231.377293 
L 125.509091 289.486867 
L 125.970248 263.103617 
L 126.431405 265.007824 
L 126.892562 257.667941 
L 127.353719 228.478251 
L 127.814876 243.320939 
L 128.276033 266.656723 
L 128.73719 247.389637 
L 129.198347 249.183499 
L 129.659504 217.549779 
L 130.581818 257.563654 
L 131.042975 203.723562 
L 131.504132 271.54695 
L 132.426446 246.717399 
L 132.887603 242.654543 
L 133.34876 290.282432 
L 133.809917 297.181369 
L 134.271074 228.982809 
L 134.732231 218.546994 
L 135.193388 197.641827 
L 135.654545 197.898 
L 136.115702 240.465386 
L 136.57686 241.989877 
L 137.038017 211.071884 
L 137.499174 262.642765 
L 137.960331 232.655347 
L 138.421488 240.938571 
L 138.882645 264.887526 
L 139.804959 253.235104 
L 140.266116 249.864609 
L 140.727273 266.02343 
L 141.18843 211.582932 
L 141.649587 262.068322 
L 142.110744 220.097448 
L 142.571901 266.532531 
L 143.033058 266.052639 
L 143.494215 220.790024 
L 143.955372 249.964135 
L 144.416529 230.136887 
L 144.877686 289.929545 
L 145.338843 247.763512 
L 145.8 269.157441 
L 146.261157 199.509036 
L 146.722314 160.507954 
L 147.183471 278.081531 
L 147.644628 265.386891 
L 148.105785 194.610371 
L 148.566942 189.293694 
L 149.489256 263.422968 
L 149.950413 191.680606 
L 150.41157 286.747068 
L 150.872727 234.552198 
L 151.333884 288.712073 
L 151.795041 270.343757 
L 152.256198 272.65624 
L 152.717355 259.299747 
L 153.178512 279.19991 
L 153.639669 205.488215 
L 154.100826 231.404555 
L 154.561983 226.814423 
L 155.02314 235.517607 
L 155.484298 182.465075 
L 155.945455 225.225457 
L 156.406612 201.066414 
L 156.867769 229.51571 
L 157.328926 234.176159 
L 157.790083 223.802008 
L 158.25124 196.148276 
L 158.712397 211.098929 
L 159.173554 210.698875 
L 159.634711 264.232164 
L 160.095868 195.408749 
L 160.557025 255.589345 
L 161.018182 263.814801 
L 161.479339 244.599858 
L 161.940496 210.967381 
L 162.401653 279.90417 
L 162.86281 223.580452 
L 163.323967 240.661627 
L 163.785124 251.507017 
L 164.246281 311.695186 
L 164.707438 275.13251 
L 165.168595 215.372739 
L 165.629752 227.307297 
L 166.090909 254.76284 
L 166.552066 230.324473 
L 167.935537 184.669161 
L 168.396694 253.986964 
L 168.857851 226.895127 
L 170.241322 255.664856 
L 170.702479 218.875432 
L 171.163636 208.50842 
L 171.624793 264.384051 
L 172.08595 209.078103 
L 172.547107 210.904419 
L 173.008264 204.385415 
L 173.469421 191.60899 
L 173.930579 239.50928 
L 174.391736 210.160132 
L 174.852893 282.146551 
L 175.31405 206.751989 
L 175.775207 210.861363 
L 176.236364 254.919703 
L 176.697521 161.425115 
L 177.158678 253.984368 
L 177.619835 231.988085 
L 178.080992 129.812165 
L 178.542149 152.227975 
L 179.003306 207.193801 
L 179.464463 181.032106 
L 179.92562 201.787983 
L 180.386777 256.997217 
L 180.847934 273.855105 
L 181.309091 238.985466 
L 181.770248 236.321827 
L 182.231405 165.084888 
L 183.153719 178.95178 
L 183.614876 138.501069 
L 184.53719 230.982432 
L 184.998347 161.266737 
L 185.459504 191.507732 
L 185.920661 173.719917 
L 186.381818 169.117886 
L 186.842975 198.872497 
L 187.304132 188.72531 
L 187.765289 238.157663 
L 188.226446 194.75858 
L 188.687603 216.596702 
L 189.14876 127.2738 
L 189.609917 244.798912 
L 190.071074 232.813075 
L 190.532231 103.82832 
L 190.993388 213.949722 
L 191.454545 235.203882 
L 191.915702 180.430835 
L 192.838017 248.007569 
L 193.299174 145.165685 
L 193.760331 142.572363 
L 194.221488 223.961034 
L 194.682645 251.124704 
L 195.143802 207.355857 
L 195.604959 194.125286 
L 196.066116 225.722658 
L 196.527273 165.704334 
L 196.98843 147.643685 
L 197.449587 219.549618 
L 197.910744 148.402902 
L 198.371901 185.215909 
L 198.833058 196.047668 
L 199.294215 233.292535 
L 199.755372 138.458878 
L 200.216529 207.020711 
L 200.677686 125.203859 
L 201.138843 201.832337 
L 201.6 206.847188 
L 202.061157 228.788515 
L 202.522314 219.771389 
L 202.983471 175.349344 
L 203.444628 185.766335 
L 203.905785 253.425071 
L 204.366942 165.820304 
L 204.828099 193.249234 
L 205.289256 244.807566 
L 205.750413 254.84138 
L 206.21157 249.532492 
L 206.672727 258.907698 
L 207.133884 214.619148 
L 207.595041 137.15075 
L 208.056198 231.031979 
L 208.517355 196.375673 
L 208.978512 219.349699 
L 209.439669 222.188592 
L 209.900826 220.169713 
L 210.361983 228.68055 
L 210.82314 186.19668 
L 211.284298 174.098984 
L 211.745455 202.981222 
L 212.206612 211.66039 
L 212.667769 158.396039 
L 213.128926 227.520631 
L 213.590083 237.87769 
L 214.05124 192.204852 
L 214.512397 231.024622 
L 214.973554 206.138385 
L 215.434711 249.415007 
L 215.895868 208.296168 
L 216.357025 246.283159 
L 216.818182 188.519765 
L 217.740496 223.889634 
L 218.201653 229.352573 
L 218.66281 153.298104 
L 219.123967 251.3058 
L 219.585124 259.470024 
L 220.046281 238.086913 
L 220.507438 182.689227 
L 220.968595 258.964385 
L 221.429752 249.317211 
L 221.890909 202.034852 
L 222.352066 198.301949 
L 222.813223 215.559892 
L 223.27438 250.921756 
L 223.735537 221.441925 
L 224.196694 148.871327 
L 224.657851 178.089575 
L 225.119008 247.014032 
L 225.580165 278.356745 
L 226.041322 232.362825 
L 226.502479 164.452676 
L 226.963636 223.268457 
L 227.424793 199.574377 
L 228.347107 231.908247 
L 228.808264 207.338115 
L 229.269421 214.043623 
L 229.730579 205.533219 
L 230.191736 221.235731 
L 230.652893 221.541884 
L 231.11405 214.399973 
L 231.575207 235.287181 
L 232.036364 177.101015 
L 232.497521 231.526151 
L 233.419835 190.359063 
L 233.880992 253.044273 
L 234.342149 275.721449 
L 234.803306 181.997949 
L 235.264463 237.907981 
L 235.72562 269.486313 
L 236.186777 136.651169 
L 236.647934 202.619031 
L 237.109091 94.641133 
L 237.570248 175.308884 
L 238.031405 200.444155 
L 238.492562 187.964579 
L 238.953719 240.650376 
L 239.414876 200.168293 
L 239.876033 204.494462 
L 240.33719 215.795727 
L 240.798347 266.679225 
L 241.259504 217.090657 
L 241.720661 235.183544 
L 242.181818 233.07336 
L 242.642975 252.696578 
L 243.104132 187.097831 
L 243.565289 219.298421 
L 244.026446 261.063535 
L 244.487603 259.980856 
L 244.94876 202.767023 
L 245.409917 198.662842 
L 245.871074 262.06313 
L 246.332231 167.460116 
L 247.254545 242.514556 
L 247.715702 195.447911 
L 248.17686 183.094258 
L 248.638017 175.564841 
L 249.099174 231.821702 
L 249.560331 201.232147 
L 250.021488 242.757098 
L 250.482645 190.154817 
L 250.943802 184.292041 
L 251.404959 236.322909 
L 251.866116 164.864198 
L 252.327273 212.458335 
L 252.78843 225.179155 
L 253.249587 259.597462 
L 253.710744 206.111339 
L 254.171901 232.043474 
L 254.633058 214.509668 
L 255.094215 178.121381 
L 255.555372 179.357893 
L 256.477686 234.169669 
L 256.938843 157.687019 
L 257.4 175.178417 
L 257.861157 147.153191 
L 258.322314 183.176692 
L 258.783471 241.044156 
L 259.244628 267.693965 
L 259.705785 224.398735 
L 260.166942 221.241357 
L 260.628099 175.288329 
L 261.089256 225.972773 
L 261.550413 189.854073 
L 262.01157 210.754263 
L 262.472727 220.267942 
L 262.933884 182.131444 
L 263.395041 239.129564 
L 263.856198 235.440366 
L 264.778512 265.616885 
L 265.239669 224.944185 
L 265.700826 215.787289 
L 266.161983 232.458024 
L 266.62314 253.490845 
L 267.084298 238.972485 
L 267.545455 205.462252 
L 268.006612 241.519937 
L 268.467769 242.805996 
L 268.928926 206.785741 
L 269.85124 272.575104 
L 270.312397 253.865369 
L 270.773554 215.101204 
L 271.234711 219.017366 
L 271.695868 229.217346 
L 272.157025 165.95077 
L 272.618182 288.039402 
L 273.079339 235.908358 
L 273.540496 229.905812 
L 274.001653 217.122679 
L 274.46281 240.222411 
L 274.923967 246.193152 
L 275.385124 254.116133 
L 276.307438 199.869712 
L 276.768595 254.92706 
L 277.229752 243.8824 
L 277.690909 206.088405 
L 278.152066 284.248513 
L 278.613223 274.228547 
L 279.07438 255.327114 
L 279.535537 217.456959 
L 279.996694 216.203571 
L 280.457851 223.898289 
L 280.919008 257.014093 
L 281.380165 228.411179 
L 281.841322 236.106546 
L 282.763636 266.424566 
L 283.224793 207.329677 
L 283.68595 239.359557 
L 284.147107 244.757587 
L 284.608264 184.51814 
L 285.069421 229.572181 
L 285.530579 245.989771 
L 285.991736 273.836065 
L 286.452893 292.270804 
L 286.91405 225.700373 
L 287.375207 187.834545 
L 287.836364 254.269317 
L 288.297521 218.439029 
L 288.758678 233.481203 
L 289.219835 184.739046 
L 289.680992 269.23901 
L 290.142149 224.918006 
L 290.603306 224.270432 
L 291.064463 199.804587 
L 291.52562 216.117459 
L 291.986777 252.705665 
L 292.447934 207.999103 
L 292.909091 271.646476 
L 293.370248 215.907371 
L 293.831405 267.35341 
L 294.292562 265.99725 
L 294.753719 237.804127 
L 295.214876 236.429143 
L 295.676033 221.028889 
L 296.13719 214.241162 
L 296.598347 252.444732 
L 297.059504 217.903748 
L 297.520661 203.953123 
L 297.981818 289.923703 
L 298.442975 231.623947 
L 298.904132 279.710958 
L 299.365289 210.836049 
L 299.826446 216.788832 
L 300.287603 176.40476 
L 300.74876 210.904203 
L 301.671074 236.657189 
L 302.132231 187.097181 
L 302.593388 253.962299 
L 303.054545 240.316745 
L 303.515702 202.340573 
L 303.97686 251.709748 
L 304.438017 249.721593 
L 304.899174 216.145153 
L 305.360331 239.462546 
L 305.821488 249.128976 
L 306.282645 201.263304 
L 307.204959 264.380373 
L 308.127273 193.328207 
L 308.58843 210.928652 
L 309.049587 235.928047 
L 309.510744 197.423517 
L 310.433058 257.305101 
L 310.894215 178.321949 
L 311.355372 276.57911 
L 311.816529 291.859066 
L 312.277686 204.749553 
L 312.738843 241.778923 
L 313.2 250.516293 
L 313.661157 241.27588 
L 314.122314 248.899415 
L 314.583471 225.40309 
L 315.044628 227.080333 
L 315.505785 274.457675 
L 315.966942 246.396317 
L 316.428099 266.452909 
L 317.350413 213.263636 
L 317.81157 247.9617 
L 318.272727 197.266438 
L 318.733884 203.593745 
L 319.195041 230.213046 
L 319.656198 271.529641 
L 320.117355 157.425437 
L 320.578512 218.289522 
L 321.039669 259.667563 
L 321.961983 227.467406 
L 322.42314 218.495716 
L 322.884298 258.533823 
L 323.345455 246.94155 
L 323.806612 229.002498 
L 324.267769 240.361532 
L 324.728926 281.048944 
L 325.190083 235.547682 
L 325.65124 270.767179 
L 326.112397 229.542539 
L 326.573554 256.662287 
L 327.034711 263.029837 
L 327.495868 253.967924 
L 327.957025 188.034248 
L 328.418182 240.108388 
L 328.879339 179.807061 
L 329.340496 262.491311 
L 329.801653 206.491488 
L 330.26281 207.554694 
L 330.723967 254.136254 
L 331.185124 265.429731 
L 331.646281 220.618882 
L 332.107438 239.579165 
L 332.568595 188.636168 
L 333.029752 280.015596 
L 333.490909 253.013549 
L 333.952066 254.980501 
L 334.413223 230.62327 
L 334.87438 252.785936 
L 335.335537 197.804315 
L 335.796694 219.56195 
L 336.257851 277.632146 
L 336.719008 198.615891 
L 337.180165 257.017338 
L 337.641322 155.386003 
L 338.102479 242.126618 
L 338.563636 269.17951 
L 339.024793 257.352268 
L 339.947107 201.474041 
L 340.408264 198.21151 
L 340.869421 153.079146 
L 341.330579 149.688528 
L 341.791736 203.06344 
L 342.252893 188.824187 
L 342.71405 211.235021 
L 343.175207 190.651153 
L 343.636364 257.424749 
L 344.097521 276.658731 
L 344.558678 195.531859 
L 345.019835 236.919853 
L 345.480992 191.172803 
L 345.942149 185.086524 
L 346.403306 201.418003 
L 346.864463 181.042059 
L 347.32562 252.7286 
L 347.786777 204.629256 
L 348.247934 198.405587 
L 348.709091 236.393659 
L 349.170248 187.20017 
L 349.631405 201.491566 
L 350.092562 252.438674 
L 350.553719 209.012545 
L 351.014876 129.340278 
L 351.476033 240.99872 
L 351.93719 196.698703 
L 352.398347 195.178107 
L 353.320661 248.131328 
L 353.781818 229.621511 
L 354.242975 259.385643 
L 354.704132 201.647563 
L 355.165289 217.713132 
L 355.626446 224.441143 
L 356.54876 142.841302 
L 357.009917 144.103994 
L 357.471074 131.74147 
L 357.932231 232.496104 
L 358.393388 284.489758 
L 358.854545 191.497779 
L 359.315702 258.421531 
L 360.238017 140.87197 
L 360.699174 188.869624 
L 361.160331 211.803622 
L 361.621488 246.035424 
L 362.082645 167.840048 
L 362.543802 167.797858 
L 363.004959 171.871316 
L 363.466116 237.355607 
L 363.927273 262.169147 
L 364.38843 260.791567 
L 364.849587 199.358015 
L 365.310744 265.562361 
L 365.771901 252.19981 
L 366.233058 206.735978 
L 366.694215 234.128127 
L 367.155372 194.245368 
L 367.616529 234.320473 
L 368.077686 213.332656 
L 368.538843 266.108244 
L 369 201.741898 
L 369.461157 207.623497 
L 369.922314 233.392711 
L 370.383471 187.323929 
L 370.844628 107.869756 
L 371.305785 230.856509 
L 371.766942 130.462335 
L 372.228099 66.665455 
L 373.150413 168.925539 
L 373.61157 159.551199 
L 374.072727 223.094502 
L 374.533884 213.990398 
L 374.995041 134.263608 
L 375.456198 148.175937 
L 375.917355 243.659979 
L 376.378512 187.371962 
L 376.839669 146.368444 
L 377.300826 196.403368 
L 377.761983 136.517241 
L 378.22314 169.196858 
L 378.684298 94.18569 
L 379.145455 272.136321 
L 379.606612 184.881412 
L 380.067769 267.246311 
L 380.528926 148.913517 
L 380.990083 133.103689 
L 381.45124 168.610083 
L 381.912397 155.057998 
L 382.373554 229.961417 
L 382.834711 172.715129 
L 383.295868 161.198151 
L 383.757025 145.360844 
L 384.218182 183.806523 
L 384.679339 198.091428 
L 385.140496 193.74795 
L 385.601653 232.543488 
L 386.06281 191.67498 
L 386.523967 195.633983 
L 386.985124 153.150545 
L 387.446281 202.30444 
L 387.907438 152.295264 
L 388.368595 220.965494 
L 389.290909 154.349627 
L 389.752066 211.730059 
L 390.213223 206.841779 
L 390.67438 253.300446 
L 391.135537 172.256441 
L 391.596694 213.424827 
L 392.057851 217.580286 
L 392.519008 210.910261 
L 392.980165 248.851383 
L 393.441322 171.854223 
L 393.902479 240.490484 
L 394.363636 216.094741 
L 394.824793 205.947769 
L 395.28595 189.576264 
L 395.747107 220.760815 
L 396.208264 177.484193 
L 396.669421 223.943509 
L 397.130579 195.608019 
L 397.591736 218.724411 
L 398.052893 170.997644 
L 398.51405 208.336845 
L 398.975207 181.230294 
L 399.436364 203.269417 
L 399.897521 246.277101 
L 400.358678 170.583093 
L 400.819835 140.827616 
L 401.280992 184.408011 
L 401.742149 177.182584 
L 402.203306 183.318193 
L 402.664463 160.598177 
L 403.12562 164.769647 
L 403.586777 177.137797 
L 404.047934 129.40086 
L 404.509091 200.688428 
L 404.970248 198.269928 
L 405.431405 223.492609 
L 405.892562 207.272341 
L 406.353719 155.597173 
L 406.814876 214.214766 
L 407.276033 196.277661 
L 407.73719 202.759018 
L 408.198347 148.901617 
L 408.659504 265.307053 
L 409.120661 212.459417 
L 409.581818 204.460926 
L 410.042975 224.397437 
L 410.504132 203.33411 
L 410.965289 245.328135 
L 411.426446 170.754452 
L 411.887603 178.74299 
L 412.34876 213.97482 
L 412.809917 224.28428 
L 413.271074 238.681693 
L 413.732231 240.098219 
L 414.193388 198.734025 
L 414.654545 173.053737 
L 415.115702 244.56113 
L 415.57686 233.062109 
L 416.038017 158.656323 
L 416.499174 235.99209 
L 417.421488 254.063773 
L 417.882645 218.938394 
L 418.343802 235.330237 
L 418.804959 297.966549 
L 419.266116 248.704472 
L 420.18843 231.629789 
L 420.649587 216.21612 
L 421.110744 231.839011 
L 421.571901 240.591742 
L 422.033058 271.695807 
L 422.494215 218.95051 
L 422.955372 237.234877 
L 423.416529 201.051485 
L 423.877686 258.835649 
L 424.338843 202.953528 
L 424.8 284.682537 
L 425.722314 213.221446 
L 426.183471 256.271537 
L 426.644628 227.886067 
L 427.105785 249.883865 
L 427.566942 306.793925 
L 428.028099 289.355968 
L 428.489256 246.11894 
L 428.950413 298.537962 
L 429.41157 329.396239 
L 429.872727 331.309533 
L 430.333884 333.71224 
L 430.795041 302.28904 
L 431.256198 307.931343 
L 431.717355 338.508132 
L 432.178512 324.799617 
L 432.639669 291.498823 
L 433.100826 318.577895 
L 433.561983 313.44729 
L 434.02314 323.235315 
L 434.484298 307.498401 
L 434.945455 317.764155 
L 435.406612 319.931026 
L 435.867769 306.350165 
L 436.328926 326.42861 
L 436.790083 304.625972 
L 437.25124 307.848692 
L 437.712397 314.607426 
L 438.173554 304.438602 
L 438.634711 325.912802 
L 439.095868 302.484848 
L 439.557025 329.07321 
L 440.018182 310.173075 
L 440.479339 300.638626 
L 440.940496 318.537003 
L 441.401653 315.35128 
L 441.86281 282.892786 
L 442.323967 306.479983 
L 442.785124 305.486662 
L 443.246281 336.69523 
L 443.707438 304.163821 
L 444.168595 280.872392 
L 445.090909 318.295758 
L 445.552066 274.192847 
L 446.013223 304.087878 
L 446.47438 299.707835 
L 446.935537 300.009228 
L 447.396694 298.924818 
L 447.857851 272.470169 
L 448.319008 284.231421 
L 448.780165 275.181624 
L 449.241322 277.956474 
L 449.702479 278.380545 
L 450.163636 282.068012 
L 450.624793 303.713355 
L 451.547107 272.024029 
L 452.008264 280.620979 
L 452.469421 283.224037 
L 452.930579 275.655674 
L 453.391736 280.531837 
L 453.852893 248.809625 
L 454.31405 318.663575 
L 454.775207 304.454396 
L 455.236364 278.03999 
L 455.697521 316.296568 
L 456.158678 291.283975 
L 456.619835 272.468221 
L 457.080992 237.590793 
L 457.542149 267.222727 
L 458.003306 286.654465 
L 458.464463 275.748061 
L 458.92562 257.828265 
L 459.386777 297.738503 
L 459.847934 296.852065 
L 460.309091 228.628623 
L 460.770248 289.912669 
L 461.231405 267.806474 
L 461.692562 269.282499 
L 462.153719 276.429171 
L 462.614876 267.125364 
L 463.076033 249.795805 
L 463.53719 279.117475 
L 463.998347 278.167427 
L 464.459504 284.514423 
L 464.920661 262.208309 
L 465.381818 223.179316 
L 465.842975 207.039535 
L 466.304132 264.416072 
L 466.765289 261.585617 
L 467.226446 294.805059 
L 467.687603 270.966232 
L 468.14876 270.332723 
L 468.609917 261.332906 
L 469.071074 238.150091 
L 469.532231 274.480826 
L 469.993388 284.727107 
L 470.454545 277.989361 
L 470.915702 284.29633 
L 471.37686 295.917379 
L 471.838017 262.680628 
L 472.299174 260.944968 
L 472.760331 236.833308 
L 473.221488 287.608191 
L 473.682645 266.887149 
L 474.143802 224.998709 
L 474.604959 242.455705 
L 475.066116 301.108566 
L 475.527273 281.406808 
L 475.98843 290.800621 
L 476.449587 275.544031 
L 476.910744 296.83454 
L 477.371901 278.621356 
L 477.833058 252.444083 
L 478.294215 260.569579 
L 478.755372 259.235055 
L 479.216529 317.074175 
L 479.677686 256.440948 
L 480.138843 281.575354 
L 480.6 279.827794 
L 481.061157 212.442973 
L 481.522314 260.92939 
L 481.983471 239.926644 
L 482.444628 250.604136 
L 482.905785 269.117631 
L 483.366942 264.665755 
L 483.828099 202.090458 
L 484.289256 272.666193 
L 484.750413 251.881108 
L 485.21157 307.717793 
L 485.672727 269.750275 
L 486.133884 258.265101 
L 486.595041 285.283376 
L 487.056198 297.078164 
L 487.517355 252.93977 
L 487.978512 296.869374 
L 488.439669 287.156859 
L 488.900826 301.886822 
L 489.361983 292.795267 
L 489.82314 293.140798 
L 490.284298 292.076294 
L 491.206612 254.34353 
L 491.667769 294.429021 
L 492.128926 270.027435 
L 492.590083 276.685993 
L 493.05124 311.816132 
L 493.512397 277.327075 
L 493.973554 286.811328 
L 494.434711 260.885035 
L 494.895868 287.328651 
L 495.357025 271.429465 
L 495.818182 288.922377 
L 496.279339 286.827772 
L 496.740496 298.364223 
L 497.201653 287.776738 
L 497.66281 282.726836 
L 498.123967 245.667824 
L 498.585124 300.020478 
L 499.046281 267.442119 
L 499.507438 277.589307 
L 499.968595 310.082203 
L 500.429752 280.708173 
L 500.890909 280.530539 
L 501.352066 304.499616 
L 501.813223 289.532303 
L 502.27438 287.849652 
L 502.735537 298.951431 
L 503.196694 265.325011 
L 503.657851 264.710325 
L 504.119008 290.598971 
L 504.580165 285.418819 
L 505.041322 322.332218 
L 505.963636 285.976601 
L 506.424793 333.949157 
L 506.88595 291.78269 
L 507.347107 273.380839 
L 507.808264 318.675475 
L 508.269421 287.370842 
L 509.191736 268.303242 
L 509.652893 316.158096 
L 510.11405 316.132349 
L 510.575207 293.2466 
L 511.036364 299.933501 
L 511.497521 302.248364 
L 511.958678 281.509363 
L 512.419835 294.470346 
L 512.880992 273.8114 
L 513.342149 272.850967 
L 513.803306 259.283087 
L 514.264463 252.90169 
L 515.186777 287.728489 
L 515.647934 303.906999 
L 516.570248 321.99664 
L 517.031405 308.354331 
L 517.492562 273.975187 
L 517.953719 281.081831 
L 518.414876 294.918 
L 518.876033 303.297506 
L 519.33719 301.289445 
L 519.798347 293.098824 
L 520.259504 321.565646 
L 520.720661 280.249268 
L 521.181818 308.892425 
L 521.642975 277.782735 
L 522.104132 296.53055 
L 522.565289 290.876564 
L 523.026446 316.653783 
L 523.487603 315.543627 
L 523.94876 293.992618 
L 524.409917 307.261917 
L 524.871074 304.450718 
L 525.332231 299.269484 
L 525.793388 235.780704 
L 526.254545 295.949617 
L 526.715702 272.293617 
L 527.17686 288.545474 
L 527.638017 312.683314 
L 528.099174 253.671075 
L 528.560331 287.562539 
L 529.021488 249.818091 
L 529.482645 315.109171 
L 529.943802 289.4159 
L 530.404959 296.182207 
L 530.866116 294.942882 
L 531.327273 310.762447 
L 531.78843 304.599792 
L 532.249587 293.71113 
L 532.710744 286.273883 
L 533.171901 304.804255 
L 533.633058 294.506911 
L 534.094215 273.581623 
L 534.555372 271.158146 
L 535.016529 293.476377 
L 535.477686 287.762241 
L 535.938843 303.829541 
L 536.4 309.274305 
L 536.861157 292.90691 
L 537.322314 292.74096 
L 537.783471 297.311403 
L 538.244628 285.399779 
L 538.705785 310.509735 
L 539.166942 301.085415 
L 539.628099 306.211044 
L 540.089256 293.548425 
L 540.550413 291.156754 
L 541.01157 297.516947 
L 541.472727 297.570822 
L 541.933884 289.387557 
L 542.395041 278.210267 
L 542.856198 304.051529 
L 543.317355 276.109819 
L 543.778512 303.437925 
L 544.239669 279.017083 
L 544.700826 222.753298 
L 545.161983 278.435717 
L 545.62314 244.267958 
L 546.084298 266.112571 
L 546.545455 269.708733 
L 547.006612 269.948679 
L 547.467769 273.556958 
L 547.928926 307.469409 
L 548.390083 312.096106 
L 548.85124 287.277373 
L 549.312397 313.74825 
L 549.773554 315.69032 
L 550.234711 271.547166 
L 550.695868 289.15302 
L 551.157025 311.672684 
L 551.618182 289.481458 
L 552.079339 289.785015 
L 552.540496 294.860881 
L 553.001653 274.445126 
L 553.923967 306.29932 
L 554.385124 308.295697 
L 554.846281 301.853935 
L 555.307438 287.489408 
L 555.768595 294.830806 
L 556.229752 277.819516 
L 556.690909 311.511927 
L 557.152066 266.899698 
L 557.613223 274.223354 
L 558.535537 310.059485 
L 558.996694 305.750192 
L 559.457851 265.682875 
L 559.919008 259.691147 
L 560.380165 277.978759 
L 560.841322 249.164892 
L 561.302479 283.436938 
L 561.763636 272.884503 
L 562.224793 293.527222 
L 562.68595 291.195699 
L 563.147107 245.032151 
L 563.608264 282.313799 
L 564.069421 232.751196 
L 564.530579 241.476881 
L 564.991736 291.623231 
L 565.452893 277.538029 
L 565.91405 286.34485 
L 566.375207 249.191721 
L 567.297521 277.364722 
L 567.758678 282.685943 
L 568.219835 269.19617 
L 568.680992 250.262499 
L 569.142149 247.463633 
L 569.603306 296.253174 
L 570.064463 225.515383 
L 570.52562 312.244314 
L 570.986777 233.73002 
L 571.447934 261.574799 
L 571.909091 247.331868 
L 572.370248 265.140671 
L 572.831405 269.311924 
L 573.292562 229.695724 
L 574.214876 288.64327 
L 574.676033 224.904591 
L 575.13719 243.866173 
L 575.598347 267.963986 
L 576.059504 252.050303 
L 576.520661 285.35391 
L 576.981818 266.515655 
L 577.442975 294.5504 
L 577.904132 265.434058 
L 578.365289 248.109908 
L 578.826446 298.597895 
L 579.287603 278.918638 
L 579.74876 271.717443 
L 580.209917 304.254261 
L 580.671074 272.834307 
L 581.132231 306.61218 
L 581.593388 267.187677 
L 582.515702 307.375291 
L 582.97686 282.232014 
L 583.438017 266.358359 
L 583.899174 261.61461 
L 584.360331 277.831416 
L 585.282645 296.292552 
L 585.743802 252.219282 
L 586.204959 299.209984 
L 586.666116 286.597778 
L 587.127273 231.989167 
L 587.58843 273.040284 
L 588.049587 295.7484 
L 588.510744 262.198572 
L 588.971901 282.946444 
L 589.433058 271.363474 
L 589.894215 226.784565 
L 590.355372 284.451678 
L 590.816529 277.45884 
L 591.277686 283.065876 
L 591.738843 238.60813 
L 592.2 278.813053 
L 592.661157 255.245545 
L 593.122314 243.041615 
L 593.583471 226.071434 
L 594.044628 291.997538 
L 594.505785 262.606849 
L 594.966942 263.079817 
L 595.428099 287.42623 
L 595.889256 265.353571 
L 596.350413 294.349183 
L 597.272727 272.577484 
L 597.733884 277.160692 
L 598.195041 309.187544 
L 598.656198 304.844498 
L 599.117355 241.320018 
L 599.578512 258.629456 
L 600.039669 255.57658 
L 600.500826 253.45428 
L 600.961983 268.971153 
L 601.42314 268.766691 
L 601.884298 215.1038 
L 602.345455 272.026625 
L 602.806612 242.86766 
L 603.267769 273.793009 
L 603.728926 267.993627 
L 604.190083 217.151672 
L 604.65124 278.777137 
L 605.112397 253.635808 
L 605.573554 258.459395 
L 606.034711 269.90519 
L 606.495868 270.913873 
L 606.957025 283.99234 
L 607.418182 244.247187 
L 607.879339 216.877108 
L 608.340496 211.312263 
L 609.26281 302.269784 
L 609.723967 253.422691 
L 610.185124 276.221463 
L 610.646281 310.54457 
L 611.107438 274.724017 
L 611.568595 266.650448 
L 612.029752 248.077021 
L 612.490909 288.946394 
L 612.952066 282.909229 
L 613.413223 243.757775 
L 613.87438 267.164093 
L 614.335537 269.971397 
L 614.796694 290.228775 
L 615.257851 333.593673 
L 615.719008 273.128993 
L 616.180165 281.8748 
L 616.641322 268.240497 
L 617.102479 300.621534 
L 617.563636 293.336606 
L 618.024793 253.476781 
L 618.48595 289.34515 
L 618.947107 274.325261 
L 619.408264 264.513219 
L 619.869421 269.957334 
L 620.330579 262.609445 
L 620.791736 260.785076 
L 621.252893 284.176465 
L 621.71405 274.12664 
L 622.175207 303.48877 
L 622.636364 258.717732 
L 622.636364 258.717732 
" clip-path="url(#p432b54efd6)" style="fill: none; stroke: #1f77b4; stroke-width: 1.5; stroke-linecap: square"/>
   </g>
   <g id="line2d_19">
    <path d="M 115.363636 257.418907 
L 115.824793 263.445254 
L 116.28595 262.027213 
L 116.747107 261.436544 
L 117.208264 261.436544 
L 117.669421 263.32712 
L 118.130579 263.208769 
L 118.591736 269.826002 
L 119.052893 273.489236 
L 119.975207 272.662082 
L 120.436364 273.961556 
L 120.897521 274.670792 
L 121.358678 273.607154 
L 121.819835 269.707868 
L 122.280992 261.436544 
L 122.742149 260.727307 
L 123.203306 259.782235 
L 123.664463 257.182639 
L 124.12562 251.865097 
L 124.586777 255.882733 
L 125.047934 250.329139 
L 125.509091 251.038159 
L 125.970248 248.202295 
L 126.431405 247.493059 
L 126.892562 248.792965 
L 127.353719 249.738469 
L 127.814876 248.911315 
L 128.276033 245.720833 
L 128.73719 241.585063 
L 129.198347 246.075235 
L 129.659504 244.657194 
L 130.120661 238.630848 
L 131.042975 239.81262 
L 131.504132 244.184659 
L 131.965289 242.884969 
L 132.426446 238.040178 
L 132.887603 237.449292 
L 133.34876 237.09489 
L 133.809917 237.567643 
L 134.271074 235.322448 
L 134.732231 236.976756 
L 135.193388 236.149602 
L 135.654545 237.685777 
L 136.115702 241.82133 
L 136.57686 238.040178 
L 137.038017 237.922044 
L 137.499174 239.81262 
L 137.960331 236.149602 
L 138.421488 234.613428 
L 138.882645 234.849912 
L 139.343802 234.613428 
L 139.804959 233.904408 
L 140.266116 231.068544 
L 140.727273 233.78649 
L 141.18843 232.840986 
L 142.110744 226.460238 
L 142.571901 225.3966 
L 143.033058 227.287392 
L 143.494215 227.287392 
L 143.955372 227.52366 
L 144.416529 226.814856 
L 144.877686 227.405526 
L 145.338843 228.9417 
L 145.8 228.823566 
L 146.261157 227.52366 
L 147.183471 227.169258 
L 147.644628 227.050908 
L 148.105785 226.696506 
L 148.566942 226.578372 
L 149.489256 225.51495 
L 149.950413 227.169258 
L 150.41157 227.236763 
L 150.872727 225.751434 
L 151.333884 225.51495 
L 151.795041 225.751434 
L 152.256198 225.160548 
L 152.717355 225.987702 
L 153.178512 226.578372 
L 153.639669 229.768854 
L 154.100826 231.65943 
L 154.561983 232.132182 
L 155.02314 227.878062 
L 155.484298 233.313738 
L 155.945455 232.604718 
L 156.406612 231.068544 
L 156.867769 226.814856 
L 157.328926 225.751434 
L 157.790083 226.93299 
L 158.25124 225.633084 
L 158.712397 229.414236 
L 159.173554 223.860642 
L 159.634711 223.671541 
L 160.095868 229.768854 
L 160.557025 227.287392 
L 161.018182 227.996412 
L 161.479339 227.287392 
L 161.940496 225.3966 
L 162.401653 226.93299 
L 162.86281 223.978776 
L 163.323967 223.624374 
L 163.785124 223.50624 
L 164.246281 223.978776 
L 164.707438 221.37918 
L 165.168595 221.261046 
L 165.629752 220.433892 
L 166.090909 222.324468 
L 166.552066 222.442818 
L 167.013223 221.261046 
L 167.47438 215.470967 
L 167.935537 225.987702 
L 168.396694 225.042198 
L 168.857851 225.278682 
L 169.319008 225.751434 
L 169.780165 222.560736 
L 170.241322 222.206334 
L 170.702479 221.615664 
L 171.163636 221.851932 
L 171.624793 221.615664 
L 172.08595 224.569446 
L 172.547107 223.50624 
L 173.008264 225.3966 
L 173.930579 221.37918 
L 174.391736 217.243626 
L 174.852893 219.015851 
L 175.31405 222.206334 
L 175.775207 220.433892 
L 176.236364 225.379507 
L 176.697521 216.06207 
L 177.158678 216.06207 
L 177.619835 218.307048 
L 178.080992 219.134202 
L 178.542149 216.179987 
L 179.003306 217.834295 
L 179.92562 213.698742 
L 180.386777 213.344123 
L 180.847934 206.372705 
L 181.309091 207.790529 
L 182.231405 207.790529 
L 182.692562 203.418491 
L 183.153719 203.300357 
L 183.614876 201.764183 
L 184.076033 196.328723 
L 184.53719 192.547354 
L 184.998347 191.602283 
L 185.920661 185.103184 
L 186.381818 182.031052 
L 186.842975 180.022342 
L 187.304132 179.54959 
L 188.226446 181.676434 
L 188.687603 184.866916 
L 189.14876 192.783839 
L 190.071074 194.910682 
L 190.532231 195.737837 
L 190.993388 196.328723 
L 191.454545 197.746547 
L 191.915702 195.265301 
L 192.37686 193.492859 
L 192.838017 195.265301 
L 193.299174 195.028816 
L 193.760331 195.383435 
L 194.221488 195.147167 
L 194.682645 195.501569 
L 195.143802 192.901972 
L 195.604959 193.729127 
L 196.066116 193.965611 
L 196.98843 196.447073 
L 197.449587 193.847261 
L 198.371901 193.020106 
L 198.833058 193.020106 
L 199.294215 193.256591 
L 199.755372 194.792765 
L 200.216529 193.492859 
L 200.677686 192.665705 
L 201.138843 196.210589 
L 201.6 196.328723 
L 202.061157 196.564991 
L 202.522314 195.85597 
L 202.983471 194.792765 
L 203.444628 194.792765 
L 203.905785 193.578322 
L 204.366942 193.965611 
L 204.828099 195.028816 
L 205.289256 193.492859 
L 205.750413 192.901972 
L 206.21157 196.564991 
L 206.672727 196.683125 
L 207.133884 200.582627 
L 207.595041 201.527915 
L 208.517355 199.046453 
L 208.978512 198.455783 
L 209.439669 195.95355 
L 209.900826 198.573701 
L 210.361983 194.104299 
L 210.82314 194.792765 
L 211.284298 192.994576 
L 211.745455 193.965611 
L 212.206612 193.847261 
L 212.667769 199.282937 
L 213.590083 204.127295 
L 214.05124 202.945739 
L 214.512397 195.265301 
L 214.973554 193.374508 
L 215.434711 198.692051 
L 215.895868 202.000667 
L 216.357025 201.764183 
L 216.818182 202.236935 
L 217.279339 204.718397 
L 218.201653 203.772893 
L 218.66281 202.355069 
L 219.123967 204.718397 
L 220.046281 219.134202 
L 221.429752 192.901972 
L 221.890909 192.075035 
L 222.352066 193.729127 
L 222.813223 192.901972 
L 223.27438 194.438147 
L 223.735537 197.392145 
L 224.196694 204.091379 
L 224.657851 205.817735 
L 225.119008 204.009377 
L 225.580165 202.806185 
L 226.041322 202.355069 
L 226.502479 204.566511 
L 226.963636 202.473203 
L 227.424793 202.827821 
L 227.88595 201.646049 
L 228.347107 200.937029 
L 228.808264 200.937029 
L 229.269421 203.772893 
L 229.730579 203.536625 
L 230.191736 202.000667 
L 230.652893 204.718397 
L 231.11405 204.245645 
L 231.575207 204.127295 
L 232.036364 204.127295 
L 232.497521 204.363779 
L 232.958678 201.409781 
L 233.419835 195.501569 
L 233.880992 196.092238 
L 234.342149 195.265301 
L 234.803306 196.801475 
L 235.264463 199.164587 
L 235.72562 197.274227 
L 236.186777 197.983031 
L 236.647934 203.654975 
L 237.109091 203.772893 
L 237.570248 203.772893 
L 238.031405 203.891243 
L 238.492562 204.127295 
L 239.414876 203.536625 
L 239.876033 203.891243 
L 240.798347 204.954449 
L 241.259504 206.877912 
L 241.720661 211.571681 
L 242.181818 210.626393 
L 242.642975 214.762164 
L 243.104132 213.698742 
L 243.565289 213.344123 
L 244.026446 209.917373 
L 244.487603 211.453547 
L 244.94876 214.407762 
L 245.409917 211.571681 
L 245.871074 207.790529 
L 246.332231 206.845241 
L 246.793388 206.845241 
L 247.254545 207.790529 
L 247.715702 207.672395 
L 248.17686 207.790529 
L 248.638017 207.435911 
L 249.560331 208.027013 
L 250.021488 209.917373 
L 250.943802 207.790529 
L 251.866116 207.790529 
L 252.327273 209.681322 
L 252.78843 207.790529 
L 255.094215 207.790529 
L 255.555372 209.444837 
L 256.016529 208.263065 
L 256.477686 207.672395 
L 256.938843 207.790529 
L 259.244628 207.790529 
L 259.705785 208.499549 
L 260.166942 217.952429 
L 260.628099 219.134202 
L 261.089256 217.361543 
L 261.550413 216.416472 
L 262.01157 216.298121 
L 262.472727 216.865424 
L 262.933884 216.914755 
L 263.395041 215.825585 
L 263.856198 216.179987 
L 264.317355 216.770874 
L 264.778512 216.534606 
L 265.239669 217.243626 
L 265.700826 217.125275 
L 266.161983 217.598028 
L 266.62314 218.450929 
L 267.545455 217.834295 
L 268.006612 219.134202 
L 268.467769 219.134202 
L 268.928926 224.80593 
L 269.390083 219.134202 
L 269.85124 219.725088 
L 270.773554 222.0882 
L 271.234711 219.015851 
L 272.157025 228.823566 
L 272.618182 227.760144 
L 273.079339 227.52366 
L 273.540496 227.050908 
L 274.46281 225.3966 
L 274.923967 223.033488 
L 275.385124 217.716378 
L 275.846281 218.897934 
L 276.307438 219.134202 
L 276.768595 222.560736 
L 277.229752 228.823566 
L 277.690909 228.350814 
L 278.152066 228.469164 
L 278.613223 227.878062 
L 279.07438 229.886988 
L 279.535537 228.469164 
L 279.996694 227.760144 
L 280.919008 227.169258 
L 281.380165 228.114546 
L 281.841322 227.52366 
L 282.302479 229.886988 
L 283.68595 228.587082 
L 284.147107 230.477874 
L 284.608264 230.123472 
L 285.069421 229.177968 
L 285.530579 228.823566 
L 285.991736 230.123472 
L 286.452893 230.477874 
L 286.91405 231.541296 
L 287.836364 229.53237 
L 288.297521 229.414236 
L 288.758678 230.477874 
L 289.219835 232.2501 
L 289.680992 238.634959 
L 290.142149 237.09489 
L 290.603306 236.38587 
L 291.064463 233.66814 
L 291.52562 234.849912 
L 291.986777 236.858622 
L 292.447934 237.213024 
L 292.909091 238.749198 
L 293.370248 240.994393 
L 293.831405 241.466929 
L 294.292562 247.375141 
L 294.753719 249.856387 
L 295.214876 250.092871 
L 296.598347 250.092871 
L 297.059504 253.165003 
L 297.981818 251.038159 
L 298.442975 250.211005 
L 298.904132 249.147367 
L 299.365289 248.674831 
L 299.826446 246.429853 
L 300.287603 239.1036 
L 300.74876 238.39458 
L 301.209917 236.740488 
L 301.671074 228.9417 
L 302.132231 229.768854 
L 302.593388 230.123472 
L 303.054545 230.714142 
L 303.515702 227.287392 
L 303.97686 229.414236 
L 304.438017 229.768854 
L 304.899174 231.541296 
L 305.360331 235.558716 
L 305.821488 232.132182 
L 306.282645 229.768854 
L 306.743802 230.123472 
L 307.204959 231.305028 
L 307.666116 231.186678 
L 308.127273 237.449292 
L 308.58843 236.504221 
L 309.049587 230.477874 
L 309.510744 228.350814 
L 309.971901 228.705216 
L 310.433058 230.477874 
L 310.894215 230.005122 
L 311.355372 238.749198 
L 312.277686 260.254988 
L 312.738843 261.081925 
L 313.661157 260.018503 
L 314.122314 257.773525 
L 315.044628 254.819311 
L 315.505785 246.311503 
L 315.966942 248.084161 
L 316.428099 247.138657 
L 316.889256 243.003103 
L 317.350413 242.412217 
L 317.81157 242.294083 
L 318.272727 237.922044 
L 318.733884 237.213024 
L 319.195041 234.022758 
L 320.117355 235.08618 
L 320.578512 234.259026 
L 321.500826 226.696506 
L 321.961983 229.886988 
L 322.42314 228.469164 
L 323.345455 227.996412 
L 323.806612 230.832276 
L 324.267769 229.177968 
L 324.728926 232.486584 
L 325.190083 227.169258 
L 325.65124 230.832276 
L 326.112397 229.768854 
L 326.573554 230.123472 
L 327.034711 228.823566 
L 327.495868 223.860642 
L 327.957025 223.978776 
L 328.418182 222.79722 
L 328.879339 223.50624 
L 329.340496 223.860642 
L 329.801653 224.92428 
L 330.26281 223.978776 
L 330.723967 222.560736 
L 331.185124 222.442818 
L 332.107438 221.615664 
L 332.568595 219.488604 
L 333.029752 223.269972 
L 333.490909 219.961356 
L 333.952066 223.624374 
L 334.413223 224.097126 
L 335.335537 220.197624 
L 335.796694 217.479894 
L 336.257851 217.361543 
L 336.719008 217.361543 
L 337.180165 216.62656 
L 337.641322 215.470967 
L 338.102479 215.234916 
L 338.563636 216.65274 
L 339.024793 219.134202 
L 339.48595 217.243626 
L 339.947107 216.534606 
L 340.408264 217.598028 
L 340.869421 216.298121 
L 341.330579 215.943719 
L 341.791736 217.007141 
L 342.252893 215.352833 
L 342.71405 215.744233 
L 343.175207 215.116565 
L 343.636364 214.762164 
L 344.097521 211.453547 
L 344.558678 204.954449 
L 345.019835 202.709471 
L 345.480992 202.236935 
L 345.942149 202.118585 
L 346.403306 201.055163 
L 346.864463 201.173513 
L 347.32562 204.363779 
L 347.786777 204.009377 
L 348.247934 204.954449 
L 348.709091 203.536625 
L 349.170248 203.300357 
L 350.092562 205.190933 
L 350.553719 205.427201 
L 351.014876 210.862877 
L 351.476033 209.444837 
L 351.93719 204.718397 
L 352.398347 204.127295 
L 353.320661 202.000667 
L 353.781818 201.055163 
L 354.242975 198.337433 
L 354.704132 199.755473 
L 355.165289 201.764183 
L 355.626446 199.282937 
L 356.087603 200.109875 
L 356.54876 202.355069 
L 357.009917 201.527915 
L 357.471074 201.882317 
L 357.932231 203.064089 
L 358.393388 205.427201 
L 358.854545 204.009377 
L 359.315702 202.118585 
L 359.77686 200.700761 
L 360.238017 201.882317 
L 360.699174 201.882317 
L 361.160331 204.718397 
L 361.621488 204.363779 
L 362.082645 205.072799 
L 362.543802 204.718397 
L 363.004959 204.600047 
L 363.466116 205.427201 
L 363.927273 206.018087 
L 364.38843 206.254355 
L 364.849587 203.418491 
L 365.310744 202.827821 
L 365.771901 204.009377 
L 366.233058 204.127295 
L 366.694215 202.945739 
L 367.155372 205.427201 
L 367.616529 202.591337 
L 368.538843 201.882317 
L 369 195.85597 
L 369.461157 195.265301 
L 369.922314 194.438147 
L 371.305785 170.214844 
L 371.766942 167.96965 
L 372.228099 161.825169 
L 373.150413 155.425165 
L 373.61157 145.991325 
L 374.072727 139.137824 
L 374.533884 137.365598 
L 375.456198 139.137824 
L 376.378512 149.536425 
L 376.839669 160.170861 
L 377.300826 161.470767 
L 377.761983 167.851516 
L 379.145455 176.595592 
L 379.606612 179.431456 
L 380.528926 181.676434 
L 380.990083 180.731362 
L 381.45124 182.031052 
L 381.912397 182.26732 
L 382.373554 183.685144 
L 382.834711 183.803494 
L 383.295868 183.094474 
L 383.757025 182.85799 
L 384.218182 183.685144 
L 384.679339 183.685144 
L 385.140496 185.103184 
L 386.06281 183.094474 
L 386.523967 184.512298 
L 386.985124 185.457802 
L 387.446281 185.812204 
L 387.907438 186.40309 
L 388.368595 183.685144 
L 388.829752 184.039978 
L 389.290909 183.921628 
L 389.752066 184.98505 
L 390.213223 185.221534 
L 390.67438 188.766419 
L 391.135537 191.365798 
L 391.596694 191.011396 
L 392.519008 191.956684 
L 392.980165 191.956684 
L 393.441322 192.075035 
L 393.902479 191.956684 
L 394.363636 191.484149 
L 394.824793 191.838551 
L 395.747107 191.484149 
L 396.208264 192.665705 
L 396.669421 192.075035 
L 397.130579 192.901972 
L 397.591736 192.783839 
L 398.052893 193.374508 
L 398.975207 192.192952 
L 399.436364 192.311303 
L 399.897521 191.484149 
L 400.358678 192.192952 
L 400.819835 192.429437 
L 401.280992 192.311303 
L 401.742149 187.230244 
L 402.203306 165.96094 
L 402.664463 191.484149 
L 403.12562 191.602283 
L 403.586777 192.192952 
L 404.047934 192.311303 
L 404.509091 192.547354 
L 404.970248 193.729127 
L 405.431405 193.729127 
L 405.892562 197.155877 
L 406.353719 197.746547 
L 406.814876 196.564991 
L 407.276033 202.709471 
L 407.73719 200.582627 
L 408.198347 194.910682 
L 408.659504 202.473203 
L 409.120661 193.492859 
L 409.581818 196.092238 
L 410.042975 202.000667 
L 410.504132 201.646049 
L 410.965289 202.709471 
L 411.426446 201.527915 
L 411.887603 196.801475 
L 412.34876 197.746547 
L 412.809917 205.072799 
L 413.271074 207.790529 
L 413.732231 205.521751 
L 414.193388 204.600047 
L 414.654545 205.899953 
L 415.115702 206.372705 
L 415.57686 205.781603 
L 416.038017 207.199859 
L 416.499174 212.753454 
L 416.960331 207.908663 
L 417.421488 207.672395 
L 417.882645 207.790529 
L 418.343802 209.208569 
L 418.804959 215.825585 
L 419.266116 214.762164 
L 419.727273 213.107855 
L 420.18843 208.735817 
L 420.649587 215.943719 
L 421.110744 216.298121 
L 421.571901 218.07078 
L 422.033058 219.134202 
L 422.494215 227.996412 
L 422.955372 231.541296 
L 423.416529 239.340085 
L 423.877686 239.81262 
L 424.338843 240.639775 
L 424.8 240.994393 
L 425.261157 243.239371 
L 425.722314 251.865097 
L 426.183471 253.046869 
L 426.644628 248.320213 
L 427.105785 241.82133 
L 427.566942 243.239371 
L 428.028099 253.034753 
L 428.489256 254.464909 
L 428.950413 267.108055 
L 429.41157 294.167439 
L 429.872727 332.924896 
L 430.333884 354.903221 
L 430.795041 363.174545 
L 431.256198 355.730159 
L 431.717355 344.977589 
L 432.178512 343.914167 
L 433.100826 343.914167 
L 433.561983 351.122069 
L 434.02314 350.294915 
L 434.484298 350.531183 
L 434.945455 353.367047 
L 435.406612 350.649317 
L 435.867769 354.548603 
L 436.328926 352.067357 
L 436.790083 343.914167 
L 437.25124 339.778397 
L 437.712397 332.924896 
L 438.173554 332.570494 
L 438.634711 330.44365 
L 439.095868 325.007974 
L 439.557025 321.226822 
L 440.018182 321.226822 
L 440.479339 316.618516 
L 440.940496 309.292263 
L 441.401653 298.657827 
L 441.86281 293.931387 
L 442.323967 282.823766 
L 442.785124 274.552442 
L 443.246281 272.78 
L 443.707438 271.952846 
L 444.168595 273.370886 
L 444.629752 276.679502 
L 445.090909 287.195804 
L 445.552066 287.668556 
L 446.013223 294.285789 
L 446.47438 290.268153 
L 446.935537 293.576552 
L 447.396694 294.403706 
L 447.857851 291.804327 
L 448.319008 287.195804 
L 448.780165 291.449925 
L 449.241322 283.887404 
L 449.702479 280.697138 
L 450.163636 275.734214 
L 451.08595 282.35123 
L 451.547107 272.18933 
L 452.008264 267.817292 
L 452.469421 262.263698 
L 452.930579 264.508676 
L 453.391736 264.763767 
L 453.852893 262.736233 
L 454.31405 264.508676 
L 454.775207 267.34454 
L 455.236364 275.852348 
L 455.697521 280.342304 
L 456.158678 283.65092 
L 456.619835 284.123672 
L 457.080992 285.069177 
L 457.542149 287.195804 
L 458.003306 284.35994 
L 458.92562 273.843638 
L 459.386777 275.615864 
L 459.847934 274.552442 
L 460.309091 269.235116 
L 460.770248 261.436544 
L 461.692562 257.773525 
L 462.153719 253.283137 
L 462.614876 252.455983 
L 463.076033 251.038159 
L 463.53719 248.320213 
L 463.998347 248.438563 
L 464.459504 243.712123 
L 464.920661 241.11231 
L 465.381818 246.429853 
L 465.842975 242.766618 
L 466.765289 240.757908 
L 467.226446 240.403507 
L 467.687603 238.158529 
L 468.14876 237.09489 
L 468.609917 238.630848 
L 469.071074 239.1036 
L 469.532231 237.922044 
L 469.993388 236.267736 
L 470.454545 235.913334 
L 470.915702 235.794984 
L 471.37686 236.149602 
L 471.838017 233.077254 
L 472.299174 239.1036 
L 473.221488 261.436544 
L 473.682645 270.535022 
L 474.143802 275.025194 
L 474.604959 269.116982 
L 475.066116 261.31841 
L 475.527273 259.427834 
L 475.98843 249.620119 
L 477.371901 245.011813 
L 477.833058 242.057815 
L 478.294215 242.175949 
L 478.755372 239.694486 
L 479.216529 240.403507 
L 479.677686 237.922044 
L 480.138843 236.858622 
L 480.6 238.158529 
L 481.061157 238.749198 
L 481.522314 241.82133 
L 481.983471 238.39458 
L 482.444628 237.567643 
L 483.366942 238.749198 
L 483.828099 237.09489 
L 484.289256 236.38587 
L 484.750413 233.78649 
L 485.21157 230.477874 
L 485.672727 229.414236 
L 486.133884 227.287392 
L 486.595041 227.287392 
L 487.056198 225.633084 
L 487.517355 230.477874 
L 487.978512 226.460238 
L 488.439669 223.978776 
L 489.361983 224.333394 
L 489.82314 227.52366 
L 490.284298 227.050908 
L 490.745455 223.742508 
L 491.206612 223.269972 
L 491.667769 223.033488 
L 492.128926 225.869352 
L 493.512397 223.269972 
L 494.434711 221.970066 
L 494.895868 221.851932 
L 495.357025 221.970066 
L 495.818182 223.624374 
L 496.279339 222.79722 
L 496.740496 222.679086 
L 497.201653 223.978776 
L 497.66281 221.615664 
L 498.123967 221.37918 
L 498.585124 221.37918 
L 499.046281 219.725088 
L 499.507438 219.843005 
L 499.968595 218.897934 
L 500.429752 220.07949 
L 500.890909 218.307048 
L 501.352066 218.779583 
L 501.813223 220.197624 
L 502.27438 219.843005 
L 502.735537 217.125275 
L 503.657851 215.234916 
L 504.580165 218.897934 
L 505.041322 217.716378 
L 505.502479 215.234916 
L 505.963636 215.116565 
L 506.88595 212.989505 
L 507.347107 214.643813 
L 507.808264 214.289411 
L 508.269421 213.580608 
L 509.191736 215.707452 
L 509.652893 216.298121 
L 510.11405 214.525896 
L 510.575207 214.643813 
L 511.036364 214.053143 
L 511.497521 214.525896 
L 511.958678 216.179987 
L 512.419835 214.998431 
L 512.880992 215.589318 
L 513.342149 213.935009 
L 513.803306 213.935009 
L 515.186777 214.525896 
L 515.647934 213.935009 
L 516.109091 213.816659 
L 516.570248 214.171277 
L 517.031405 214.171277 
L 517.492562 214.998431 
L 517.953719 214.643813 
L 518.414876 213.698742 
L 518.876033 213.462257 
L 519.33719 214.525896 
L 519.798347 213.698742 
L 520.259504 213.698742 
L 520.720661 214.762164 
L 521.181818 213.698742 
L 521.642975 215.605112 
L 522.104132 213.935009 
L 522.565289 215.116565 
L 523.026446 213.935009 
L 523.487603 213.462257 
L 523.94876 214.053143 
L 524.871074 212.398835 
L 525.332231 213.225989 
L 525.793388 215.707452 
L 526.254545 212.871587 
L 526.715702 212.044433 
L 527.17686 214.171277 
L 527.638017 213.698742 
L 528.099174 212.871587 
L 528.560331 213.816659 
L 529.021488 212.162351 
L 529.482645 211.926299 
L 529.943802 210.744527 
L 530.404959 211.217279 
L 530.866116 211.453547 
L 531.327273 210.035723 
L 531.78843 211.217279 
L 532.249587 208.263065 
L 533.171901 204.600047 
L 533.633058 205.427201 
L 534.094215 205.072799 
L 534.555372 201.882317 
L 535.016529 203.064089 
L 535.477686 200.937029 
L 535.938843 200.937029 
L 536.4 199.400855 
L 536.861157 200.228009 
L 537.322314 199.046453 
L 537.783471 200.582627 
L 538.244628 200.582627 
L 538.705785 199.873607 
L 539.166942 197.983031 
L 539.628099 197.983031 
L 540.089256 199.755473 
L 540.550413 200.109875 
L 541.01157 203.096543 
L 541.472727 200.464493 
L 541.933884 200.818895 
L 542.395041 200.818895 
L 542.856198 203.064089 
L 543.317355 202.000667 
L 544.239669 204.009377 
L 544.700826 203.772893 
L 545.62314 207.672395 
L 546.084298 205.545551 
L 546.545455 205.072799 
L 547.006612 206.608757 
L 547.467769 205.072799 
L 547.928926 204.954449 
L 548.390083 204.482129 
L 549.312397 204.954449 
L 549.773554 202.118585 
L 550.234711 193.847261 
L 551.157025 192.075035 
L 551.618182 189.71149 
L 552.079339 182.85799 
L 552.540496 182.740072 
L 553.001653 181.558516 
L 553.46281 181.440166 
L 553.923967 182.031052 
L 554.385124 186.875626 
L 554.846281 189.238954 
L 555.307438 188.884336 
L 555.768595 182.38567 
L 556.690909 183.094474 
L 557.152066 190.538644 
L 557.613223 189.357088 
L 558.535537 190.184242 
L 558.996694 191.12953 
L 559.457851 191.365798 
L 559.919008 192.783839 
L 560.380165 193.729127 
L 560.841322 200.464493 
L 561.302479 200.582627 
L 561.763636 200.228009 
L 562.224793 200.937029 
L 562.68595 202.000667 
L 563.147107 201.646049 
L 563.608264 199.873607 
L 564.069421 195.974321 
L 564.530579 193.256591 
L 564.991736 192.429437 
L 565.452893 192.429437 
L 565.91405 192.665705 
L 566.375207 192.665705 
L 566.836364 192.547354 
L 567.758678 192.783839 
L 568.219835 193.138457 
L 568.680992 195.737837 
L 569.142149 193.138457 
L 569.603306 193.256591 
L 570.064463 193.610993 
L 570.52562 193.492859 
L 570.986777 193.965611 
L 571.447934 193.610993 
L 571.909091 193.729127 
L 572.370248 196.447073 
L 572.831405 195.619919 
L 573.292562 196.683125 
L 574.214876 197.746547 
L 574.676033 196.092238 
L 575.13719 198.928319 
L 575.598347 196.564991 
L 576.059504 204.009377 
L 576.520661 204.127295 
L 576.981818 203.064089 
L 577.442975 202.827821 
L 577.904132 203.536625 
L 578.365289 203.418491 
L 578.826446 204.718397 
L 579.287603 204.009377 
L 579.74876 204.009377 
L 580.209917 205.663685 
L 580.671074 205.427201 
L 581.132231 205.427201 
L 581.593388 205.781603 
L 582.054545 205.309283 
L 582.515702 204.600047 
L 582.97686 207.081509 
L 583.438017 207.790529 
L 583.899174 206.608757 
L 584.821488 205.309283 
L 585.282645 207.790529 
L 585.743802 208.972085 
L 586.204959 207.790529 
L 587.127273 207.790529 
L 587.58843 206.608757 
L 588.049587 206.490839 
L 588.510744 206.727107 
L 589.433058 206.018087 
L 589.894215 206.727107 
L 590.355372 206.372705 
L 590.816529 207.435911 
L 591.277686 206.372705 
L 591.738843 206.963375 
L 592.2 206.136221 
L 592.661157 206.845241 
L 593.122314 206.490839 
L 593.583471 206.608757 
L 594.505785 208.972085 
L 594.966942 214.171277 
L 595.428099 214.171277 
L 596.350413 209.829746 
L 596.81157 207.790529 
L 597.733884 207.790529 
L 598.195041 207.199859 
L 598.656198 208.027013 
L 599.117355 210.862877 
L 599.578512 207.790529 
L 600.039669 207.790529 
L 600.500826 208.854168 
L 600.961983 208.027013 
L 601.42314 207.790529 
L 601.884298 213.698742 
L 602.345455 215.352833 
L 602.806612 214.762164 
L 603.267769 213.225989 
L 603.728926 207.790529 
L 607.418182 207.790529 
L 608.340496 214.289411 
L 608.801653 207.790529 
L 609.723967 207.790529 
L 610.185124 211.571681 
L 610.646281 212.044433 
L 611.107438 210.153641 
L 611.568595 213.107855 
L 612.029752 210.626393 
L 614.796694 207.790529 
L 615.257851 208.263065 
L 615.719008 216.416472 
L 616.180165 215.234916 
L 616.641322 213.225989 
L 617.102479 216.534606 
L 617.563636 216.416472 
L 618.024793 216.179987 
L 618.48595 215.352833 
L 618.947107 208.027013 
L 619.408264 214.407762 
L 619.869421 214.407762 
L 620.330579 213.698742 
L 620.791736 215.707452 
L 621.252893 219.134202 
L 621.71405 216.534606 
L 622.175207 219.134202 
L 622.636364 219.134202 
L 622.636364 219.134202 
" clip-path="url(#p432b54efd6)" style="fill: none; stroke: #ff7f0e; stroke-width: 1.5; stroke-linecap: square"/>
   </g>
   <g id="patch_3">
    <path d="M 90 378 
L 90 51.84 
" style="fill: none; stroke: #000000; stroke-width: 0.8; stroke-linejoin: miter; stroke-linecap: square"/>
   </g>
   <g id="patch_4">
    <path d="M 648 378 
L 648 51.84 
" style="fill: none; stroke: #000000; stroke-width: 0.8; stroke-linejoin: miter; stroke-linecap: square"/>
   </g>
   <g id="patch_5">
    <path d="M 90 378 
L 648 378 
" style="fill: none; stroke: #000000; stroke-width: 0.8; stroke-linejoin: miter; stroke-linecap: square"/>
   </g>
   <g id="patch_6">
    <path d="M 90 51.84 
L 648 51.84 
" style="fill: none; stroke: #000000; stroke-width: 0.8; stroke-linejoin: miter; stroke-linecap: square"/>
   </g>
   <g id="text_19">
    <!-- Spring Temperature: GW-SW Inputs -->
    <g transform="translate(262.981875 45.84)scale(0.12 -0.12)">
     <defs>
      <path id="DejaVuSans-75" d="M 544 1381 
L 544 3500 
L 1119 3500 
L 1119 1403 
Q 1119 906 1312 657 
Q 1506 409 1894 409 
Q 2359 409 2629 706 
Q 2900 1003 2900 1516 
L 2900 3500 
L 3475 3500 
L 3475 0 
L 2900 0 
L 2900 538 
Q 2691 219 2414 64 
Q 2138 -91 1772 -91 
Q 1169 -91 856 284 
Q 544 659 544 1381 
z
M 1991 3584 
L 1991 3584 
z
" transform="scale(0.015625)"/>
      <path id="DejaVuSans-3a" d="M 750 794 
L 1409 794 
L 1409 0 
L 750 0 
L 750 794 
z
M 750 3309 
L 1409 3309 
L 1409 2516 
L 750 2516 
L 750 3309 
z
" transform="scale(0.015625)"/>
      <path id="DejaVuSans-47" d="M 3809 666 
L 3809 1919 
L 2778 1919 
L 2778 2438 
L 4434 2438 
L 4434 434 
Q 4069 175 3628 42 
Q 3188 -91 2688 -91 
Q 1594 -91 976 548 
Q 359 1188 359 2328 
Q 359 3472 976 4111 
Q 1594 4750 2688 4750 
Q 3144 4750 3555 4637 
Q 3966 4525 4313 4306 
L 4313 3634 
Q 3963 3931 3569 4081 
Q 3175 4231 2741 4231 
Q 1884 4231 1454 3753 
Q 1025 3275 1025 2328 
Q 1025 1384 1454 906 
Q 1884 428 2741 428 
Q 3075 428 3337 486 
Q 3600 544 3809 666 
z
" transform="scale(0.015625)"/>
      <path id="DejaVuSans-57" d="M 213 4666 
L 850 4666 
L 1831 722 
L 2809 4666 
L 3519 4666 
L 4500 722 
L 5478 4666 
L 6119 4666 
L 4947 0 
L 4153 0 
L 3169 4050 
L 2175 0 
L 1381 0 
L 213 4666 
z
" transform="scale(0.015625)"/>
      <path id="DejaVuSans-49" d="M 628 4666 
L 1259 4666 
L 1259 0 
L 628 0 
L 628 4666 
z
" transform="scale(0.015625)"/>
      <path id="DejaVuSans-73" d="M 2834 3397 
L 2834 2853 
Q 2591 2978 2328 3040 
Q 2066 3103 1784 3103 
Q 1356 3103 1142 2972 
Q 928 2841 928 2578 
Q 928 2378 1081 2264 
Q 1234 2150 1697 2047 
L 1894 2003 
Q 2506 1872 2764 1633 
Q 3022 1394 3022 966 
Q 3022 478 2636 193 
Q 2250 -91 1575 -91 
Q 1294 -91 989 -36 
Q 684 19 347 128 
L 347 722 
Q 666 556 975 473 
Q 1284 391 1588 391 
Q 1994 391 2212 530 
Q 2431 669 2431 922 
Q 2431 1156 2273 1281 
Q 2116 1406 1581 1522 
L 1381 1569 
Q 847 1681 609 1914 
Q 372 2147 372 2553 
Q 372 3047 722 3315 
Q 1072 3584 1716 3584 
Q 2034 3584 2315 3537 
Q 2597 3491 2834 3397 
z
" transform="scale(0.015625)"/>
     </defs>
     <use xlink:href="#DejaVuSans-53"/>
     <use xlink:href="#DejaVuSans-70" x="63.476562"/>
     <use xlink:href="#DejaVuSans-72" x="126.953125"/>
     <use xlink:href="#DejaVuSans-69" x="168.066406"/>
     <use xlink:href="#DejaVuSans-6e" x="195.849609"/>
     <use xlink:href="#DejaVuSans-67" x="259.228516"/>
     <use xlink:href="#DejaVuSans-20" x="322.705078"/>
     <use xlink:href="#DejaVuSans-54" x="354.492188"/>
     <use xlink:href="#DejaVuSans-65" x="398.576172"/>
     <use xlink:href="#DejaVuSans-6d" x="460.099609"/>
     <use xlink:href="#DejaVuSans-70" x="557.511719"/>
     <use xlink:href="#DejaVuSans-65" x="620.988281"/>
     <use xlink:href="#DejaVuSans-72" x="682.511719"/>
     <use xlink:href="#DejaVuSans-61" x="723.625"/>
     <use xlink:href="#DejaVuSans-74" x="784.904297"/>
     <use xlink:href="#DejaVuSans-75" x="824.113281"/>
     <use xlink:href="#DejaVuSans-72" x="887.492188"/>
     <use xlink:href="#DejaVuSans-65" x="926.355469"/>
     <use xlink:href="#DejaVuSans-3a" x="987.878906"/>
     <use xlink:href="#DejaVuSans-20" x="1021.570312"/>
     <use xlink:href="#DejaVuSans-47" x="1053.357422"/>
     <use xlink:href="#DejaVuSans-57" x="1130.847656"/>
     <use xlink:href="#DejaVuSans-2d" x="1225.724609"/>
     <use xlink:href="#DejaVuSans-53" x="1261.808594"/>
     <use xlink:href="#DejaVuSans-57" x="1325.285156"/>
     <use xlink:href="#DejaVuSans-20" x="1424.162109"/>
     <use xlink:href="#DejaVuSans-49" x="1455.949219"/>
     <use xlink:href="#DejaVuSans-6e" x="1485.441406"/>
     <use xlink:href="#DejaVuSans-70" x="1548.820312"/>
     <use xlink:href="#DejaVuSans-75" x="1612.296875"/>
     <use xlink:href="#DejaVuSans-74" x="1675.675781"/>
     <use xlink:href="#DejaVuSans-73" x="1714.884766"/>
    </g>
   </g>
   <g id="legend_1">
    <g id="patch_7">
     <path d="M 532.126562 89.19625 
L 641 89.19625 
Q 643 89.19625 643 87.19625 
L 643 58.84 
Q 643 56.84 641 56.84 
L 532.126562 56.84 
Q 530.126562 56.84 530.126562 58.84 
L 530.126562 87.19625 
Q 530.126562 89.19625 532.126562 89.19625 
z
" style="fill: #ffffff; opacity: 0.8; stroke: #cccccc; stroke-linejoin: miter"/>
    </g>
    <g id="line2d_20">
     <path d="M 534.126562 64.938437 
L 544.126562 64.938437 
L 554.126562 64.938437 
" style="fill: none; stroke: #1f77b4; stroke-width: 1.5; stroke-linecap: square"/>
    </g>
    <g id="text_20">
     <!-- LSTM NO3-NO2 -->
     <g transform="translate(562.126562 68.438437)scale(0.1 -0.1)">
      <defs>
       <path id="DejaVuSans-4c" d="M 628 4666 
L 1259 4666 
L 1259 531 
L 3531 531 
L 3531 0 
L 628 0 
L 628 4666 
z
" transform="scale(0.015625)"/>
       <path id="DejaVuSans-4e" d="M 628 4666 
L 1478 4666 
L 3547 763 
L 3547 4666 
L 4159 4666 
L 4159 0 
L 3309 0 
L 1241 3903 
L 1241 0 
L 628 0 
L 628 4666 
z
" transform="scale(0.015625)"/>
       <path id="DejaVuSans-4f" d="M 2522 4238 
Q 1834 4238 1429 3725 
Q 1025 3213 1025 2328 
Q 1025 1447 1429 934 
Q 1834 422 2522 422 
Q 3209 422 3611 934 
Q 4013 1447 4013 2328 
Q 4013 3213 3611 3725 
Q 3209 4238 2522 4238 
z
M 2522 4750 
Q 3503 4750 4090 4092 
Q 4678 3434 4678 2328 
Q 4678 1225 4090 567 
Q 3503 -91 2522 -91 
Q 1538 -91 948 565 
Q 359 1222 359 2328 
Q 359 3434 948 4092 
Q 1538 4750 2522 4750 
z
" transform="scale(0.015625)"/>
       <path id="DejaVuSans-33" d="M 2597 2516 
Q 3050 2419 3304 2112 
Q 3559 1806 3559 1356 
Q 3559 666 3084 287 
Q 2609 -91 1734 -91 
Q 1441 -91 1130 -33 
Q 819 25 488 141 
L 488 750 
Q 750 597 1062 519 
Q 1375 441 1716 441 
Q 2309 441 2620 675 
Q 2931 909 2931 1356 
Q 2931 1769 2642 2001 
Q 2353 2234 1838 2234 
L 1294 2234 
L 1294 2753 
L 1863 2753 
Q 2328 2753 2575 2939 
Q 2822 3125 2822 3475 
Q 2822 3834 2567 4026 
Q 2313 4219 1838 4219 
Q 1578 4219 1281 4162 
Q 984 4106 628 3988 
L 628 4550 
Q 988 4650 1302 4700 
Q 1616 4750 1894 4750 
Q 2613 4750 3031 4423 
Q 3450 4097 3450 3541 
Q 3450 3153 3228 2886 
Q 3006 2619 2597 2516 
z
" transform="scale(0.015625)"/>
      </defs>
      <use xlink:href="#DejaVuSans-4c"/>
      <use xlink:href="#DejaVuSans-53" x="55.712891"/>
      <use xlink:href="#DejaVuSans-54" x="119.189453"/>
      <use xlink:href="#DejaVuSans-4d" x="180.273438"/>
      <use xlink:href="#DejaVuSans-20" x="266.552734"/>
      <use xlink:href="#DejaVuSans-4e" x="298.339844"/>
      <use xlink:href="#DejaVuSans-4f" x="373.144531"/>
      <use xlink:href="#DejaVuSans-33" x="451.855469"/>
      <use xlink:href="#DejaVuSans-2d" x="515.478516"/>
      <use xlink:href="#DejaVuSans-4e" x="551.5625"/>
      <use xlink:href="#DejaVuSans-4f" x="626.367188"/>
      <use xlink:href="#DejaVuSans-32" x="705.078125"/>
     </g>
    </g>
    <g id="line2d_21">
     <path d="M 534.126562 79.616562 
L 544.126562 79.616562 
L 554.126562 79.616562 
" style="fill: none; stroke: #ff7f0e; stroke-width: 1.5; stroke-linecap: square"/>
    </g>
    <g id="text_21">
     <!-- Measured -->
     <g transform="translate(562.126562 83.116562)scale(0.1 -0.1)">
      <defs>
       <path id="DejaVuSans-64" d="M 2906 2969 
L 2906 4863 
L 3481 4863 
L 3481 0 
L 2906 0 
L 2906 525 
Q 2725 213 2448 61 
Q 2172 -91 1784 -91 
Q 1150 -91 751 415 
Q 353 922 353 1747 
Q 353 2572 751 3078 
Q 1150 3584 1784 3584 
Q 2172 3584 2448 3432 
Q 2725 3281 2906 2969 
z
M 947 1747 
Q 947 1113 1208 752 
Q 1469 391 1925 391 
Q 2381 391 2643 752 
Q 2906 1113 2906 1747 
Q 2906 2381 2643 2742 
Q 2381 3103 1925 3103 
Q 1469 3103 1208 2742 
Q 947 2381 947 1747 
z
" transform="scale(0.015625)"/>
      </defs>
      <use xlink:href="#DejaVuSans-4d"/>
      <use xlink:href="#DejaVuSans-65" x="86.279297"/>
      <use xlink:href="#DejaVuSans-61" x="147.802734"/>
      <use xlink:href="#DejaVuSans-73" x="209.082031"/>
      <use xlink:href="#DejaVuSans-75" x="261.181641"/>
      <use xlink:href="#DejaVuSans-72" x="324.560547"/>
      <use xlink:href="#DejaVuSans-65" x="363.423828"/>
      <use xlink:href="#DejaVuSans-64" x="424.947266"/>
     </g>
    </g>
   </g>
  </g>
 </g>
 <defs>
  <clipPath id="p432b54efd6">
   <rect x="90" y="51.84" width="558" height="326.16"/>
  </clipPath>
 </defs>
</svg>
