<?xml version="1.0" encoding="utf-8" standalone="no"?>
<!DOCTYPE svg PUBLIC "-//W3C//DTD SVG 1.1//EN"
  "http://www.w3.org/Graphics/SVG/1.1/DTD/svg11.dtd">
<svg xmlns:xlink="http://www.w3.org/1999/xlink" width="720pt" height="432pt" viewBox="0 0 720 432" xmlns="http://www.w3.org/2000/svg" version="1.1">
 <metadata>
  <rdf:RDF xmlns:dc="http://purl.org/dc/elements/1.1/" xmlns:cc="http://creativecommons.org/ns#" xmlns:rdf="http://www.w3.org/1999/02/22-rdf-syntax-ns#">
   <cc:Work>
    <dc:type rdf:resource="http://purl.org/dc/dcmitype/StillImage"/>
    <dc:date>2022-11-01T15:51:19.815256</dc:date>
    <dc:format>image/svg+xml</dc:format>
    <dc:creator>
     <cc:Agent>
      <dc:title>Matplotlib v3.5.1, https://matplotlib.org/</dc:title>
     </cc:Agent>
    </dc:creator>
   </cc:Work>
  </rdf:RDF>
 </metadata>
 <defs>
  <style type="text/css">*{stroke-linejoin: round; stroke-linecap: butt}</style>
 </defs>
 <g id="figure_1">
  <g id="patch_1">
   <path d="M 0 432 
L 720 432 
L 720 0 
L 0 0 
L 0 432 
z
" style="fill: none"/>
  </g>
  <g id="axes_1">
   <g id="patch_2">
    <path d="M 90 378 
L 648 378 
L 648 51.84 
L 90 51.84 
z
" style="fill: #ffffff"/>
   </g>
   <g id="matplotlib.axis_1">
    <g id="xtick_1">
     <g id="line2d_1">
      <defs>
       <path id="m7a54f3090f" d="M 0 0 
L 0 3.5 
" style="stroke: #000000; stroke-width: 0.8"/>
      </defs>
      <g>
       <use xlink:href="#m7a54f3090f" x="103.373554" y="378" style="stroke: #000000; stroke-width: 0.8"/>
      </g>
     </g>
     <g id="text_1">
      <!-- 2017-01 -->
      <g transform="translate(82.482147 392.598437)scale(0.1 -0.1)">
       <defs>
        <path id="DejaVuSans-32" d="M 1228 531 
L 3431 531 
L 3431 0 
L 469 0 
L 469 531 
Q 828 903 1448 1529 
Q 2069 2156 2228 2338 
Q 2531 2678 2651 2914 
Q 2772 3150 2772 3378 
Q 2772 3750 2511 3984 
Q 2250 4219 1831 4219 
Q 1534 4219 1204 4116 
Q 875 4013 500 3803 
L 500 4441 
Q 881 4594 1212 4672 
Q 1544 4750 1819 4750 
Q 2544 4750 2975 4387 
Q 3406 4025 3406 3419 
Q 3406 3131 3298 2873 
Q 3191 2616 2906 2266 
Q 2828 2175 2409 1742 
Q 1991 1309 1228 531 
z
" transform="scale(0.015625)"/>
        <path id="DejaVuSans-30" d="M 2034 4250 
Q 1547 4250 1301 3770 
Q 1056 3291 1056 2328 
Q 1056 1369 1301 889 
Q 1547 409 2034 409 
Q 2525 409 2770 889 
Q 3016 1369 3016 2328 
Q 3016 3291 2770 3770 
Q 2525 4250 2034 4250 
z
M 2034 4750 
Q 2819 4750 3233 4129 
Q 3647 3509 3647 2328 
Q 3647 1150 3233 529 
Q 2819 -91 2034 -91 
Q 1250 -91 836 529 
Q 422 1150 422 2328 
Q 422 3509 836 4129 
Q 1250 4750 2034 4750 
z
" transform="scale(0.015625)"/>
        <path id="DejaVuSans-31" d="M 794 531 
L 1825 531 
L 1825 4091 
L 703 3866 
L 703 4441 
L 1819 4666 
L 2450 4666 
L 2450 531 
L 3481 531 
L 3481 0 
L 794 0 
L 794 531 
z
" transform="scale(0.015625)"/>
        <path id="DejaVuSans-37" d="M 525 4666 
L 3525 4666 
L 3525 4397 
L 1831 0 
L 1172 0 
L 2766 4134 
L 525 4134 
L 525 4666 
z
" transform="scale(0.015625)"/>
        <path id="DejaVuSans-2d" d="M 313 2009 
L 1997 2009 
L 1997 1497 
L 313 1497 
L 313 2009 
z
" transform="scale(0.015625)"/>
       </defs>
       <use xlink:href="#DejaVuSans-32"/>
       <use xlink:href="#DejaVuSans-30" x="63.623047"/>
       <use xlink:href="#DejaVuSans-31" x="127.246094"/>
       <use xlink:href="#DejaVuSans-37" x="190.869141"/>
       <use xlink:href="#DejaVuSans-2d" x="254.492188"/>
       <use xlink:href="#DejaVuSans-30" x="290.576172"/>
       <use xlink:href="#DejaVuSans-31" x="354.199219"/>
      </g>
     </g>
    </g>
    <g id="xtick_2">
     <g id="line2d_2">
      <g>
       <use xlink:href="#m7a54f3090f" x="158.712397" y="378" style="stroke: #000000; stroke-width: 0.8"/>
      </g>
     </g>
     <g id="text_2">
      <!-- 2017-05 -->
      <g transform="translate(137.82099 392.598437)scale(0.1 -0.1)">
       <defs>
        <path id="DejaVuSans-35" d="M 691 4666 
L 3169 4666 
L 3169 4134 
L 1269 4134 
L 1269 2991 
Q 1406 3038 1543 3061 
Q 1681 3084 1819 3084 
Q 2600 3084 3056 2656 
Q 3513 2228 3513 1497 
Q 3513 744 3044 326 
Q 2575 -91 1722 -91 
Q 1428 -91 1123 -41 
Q 819 9 494 109 
L 494 744 
Q 775 591 1075 516 
Q 1375 441 1709 441 
Q 2250 441 2565 725 
Q 2881 1009 2881 1497 
Q 2881 1984 2565 2268 
Q 2250 2553 1709 2553 
Q 1456 2553 1204 2497 
Q 953 2441 691 2322 
L 691 4666 
z
" transform="scale(0.015625)"/>
       </defs>
       <use xlink:href="#DejaVuSans-32"/>
       <use xlink:href="#DejaVuSans-30" x="63.623047"/>
       <use xlink:href="#DejaVuSans-31" x="127.246094"/>
       <use xlink:href="#DejaVuSans-37" x="190.869141"/>
       <use xlink:href="#DejaVuSans-2d" x="254.492188"/>
       <use xlink:href="#DejaVuSans-30" x="290.576172"/>
       <use xlink:href="#DejaVuSans-35" x="354.199219"/>
      </g>
     </g>
    </g>
    <g id="xtick_3">
     <g id="line2d_3">
      <g>
       <use xlink:href="#m7a54f3090f" x="215.434711" y="378" style="stroke: #000000; stroke-width: 0.8"/>
      </g>
     </g>
     <g id="text_3">
      <!-- 2017-09 -->
      <g transform="translate(194.543304 392.598437)scale(0.1 -0.1)">
       <defs>
        <path id="DejaVuSans-39" d="M 703 97 
L 703 672 
Q 941 559 1184 500 
Q 1428 441 1663 441 
Q 2288 441 2617 861 
Q 2947 1281 2994 2138 
Q 2813 1869 2534 1725 
Q 2256 1581 1919 1581 
Q 1219 1581 811 2004 
Q 403 2428 403 3163 
Q 403 3881 828 4315 
Q 1253 4750 1959 4750 
Q 2769 4750 3195 4129 
Q 3622 3509 3622 2328 
Q 3622 1225 3098 567 
Q 2575 -91 1691 -91 
Q 1453 -91 1209 -44 
Q 966 3 703 97 
z
M 1959 2075 
Q 2384 2075 2632 2365 
Q 2881 2656 2881 3163 
Q 2881 3666 2632 3958 
Q 2384 4250 1959 4250 
Q 1534 4250 1286 3958 
Q 1038 3666 1038 3163 
Q 1038 2656 1286 2365 
Q 1534 2075 1959 2075 
z
" transform="scale(0.015625)"/>
       </defs>
       <use xlink:href="#DejaVuSans-32"/>
       <use xlink:href="#DejaVuSans-30" x="63.623047"/>
       <use xlink:href="#DejaVuSans-31" x="127.246094"/>
       <use xlink:href="#DejaVuSans-37" x="190.869141"/>
       <use xlink:href="#DejaVuSans-2d" x="254.492188"/>
       <use xlink:href="#DejaVuSans-30" x="290.576172"/>
       <use xlink:href="#DejaVuSans-39" x="354.199219"/>
      </g>
     </g>
    </g>
    <g id="xtick_4">
     <g id="line2d_4">
      <g>
       <use xlink:href="#m7a54f3090f" x="271.695868" y="378" style="stroke: #000000; stroke-width: 0.8"/>
      </g>
     </g>
     <g id="text_4">
      <!-- 2018-01 -->
      <g transform="translate(250.804462 392.598437)scale(0.1 -0.1)">
       <defs>
        <path id="DejaVuSans-38" d="M 2034 2216 
Q 1584 2216 1326 1975 
Q 1069 1734 1069 1313 
Q 1069 891 1326 650 
Q 1584 409 2034 409 
Q 2484 409 2743 651 
Q 3003 894 3003 1313 
Q 3003 1734 2745 1975 
Q 2488 2216 2034 2216 
z
M 1403 2484 
Q 997 2584 770 2862 
Q 544 3141 544 3541 
Q 544 4100 942 4425 
Q 1341 4750 2034 4750 
Q 2731 4750 3128 4425 
Q 3525 4100 3525 3541 
Q 3525 3141 3298 2862 
Q 3072 2584 2669 2484 
Q 3125 2378 3379 2068 
Q 3634 1759 3634 1313 
Q 3634 634 3220 271 
Q 2806 -91 2034 -91 
Q 1263 -91 848 271 
Q 434 634 434 1313 
Q 434 1759 690 2068 
Q 947 2378 1403 2484 
z
M 1172 3481 
Q 1172 3119 1398 2916 
Q 1625 2713 2034 2713 
Q 2441 2713 2670 2916 
Q 2900 3119 2900 3481 
Q 2900 3844 2670 4047 
Q 2441 4250 2034 4250 
Q 1625 4250 1398 4047 
Q 1172 3844 1172 3481 
z
" transform="scale(0.015625)"/>
       </defs>
       <use xlink:href="#DejaVuSans-32"/>
       <use xlink:href="#DejaVuSans-30" x="63.623047"/>
       <use xlink:href="#DejaVuSans-31" x="127.246094"/>
       <use xlink:href="#DejaVuSans-38" x="190.869141"/>
       <use xlink:href="#DejaVuSans-2d" x="254.492188"/>
       <use xlink:href="#DejaVuSans-30" x="290.576172"/>
       <use xlink:href="#DejaVuSans-31" x="354.199219"/>
      </g>
     </g>
    </g>
    <g id="xtick_5">
     <g id="line2d_5">
      <g>
       <use xlink:href="#m7a54f3090f" x="327.034711" y="378" style="stroke: #000000; stroke-width: 0.8"/>
      </g>
     </g>
     <g id="text_5">
      <!-- 2018-05 -->
      <g transform="translate(306.143304 392.598437)scale(0.1 -0.1)">
       <use xlink:href="#DejaVuSans-32"/>
       <use xlink:href="#DejaVuSans-30" x="63.623047"/>
       <use xlink:href="#DejaVuSans-31" x="127.246094"/>
       <use xlink:href="#DejaVuSans-38" x="190.869141"/>
       <use xlink:href="#DejaVuSans-2d" x="254.492188"/>
       <use xlink:href="#DejaVuSans-30" x="290.576172"/>
       <use xlink:href="#DejaVuSans-35" x="354.199219"/>
      </g>
     </g>
    </g>
    <g id="xtick_6">
     <g id="line2d_6">
      <g>
       <use xlink:href="#m7a54f3090f" x="383.757025" y="378" style="stroke: #000000; stroke-width: 0.8"/>
      </g>
     </g>
     <g id="text_6">
      <!-- 2018-09 -->
      <g transform="translate(362.865619 392.598437)scale(0.1 -0.1)">
       <use xlink:href="#DejaVuSans-32"/>
       <use xlink:href="#DejaVuSans-30" x="63.623047"/>
       <use xlink:href="#DejaVuSans-31" x="127.246094"/>
       <use xlink:href="#DejaVuSans-38" x="190.869141"/>
       <use xlink:href="#DejaVuSans-2d" x="254.492188"/>
       <use xlink:href="#DejaVuSans-30" x="290.576172"/>
       <use xlink:href="#DejaVuSans-39" x="354.199219"/>
      </g>
     </g>
    </g>
    <g id="xtick_7">
     <g id="line2d_7">
      <g>
       <use xlink:href="#m7a54f3090f" x="440.018182" y="378" style="stroke: #000000; stroke-width: 0.8"/>
      </g>
     </g>
     <g id="text_7">
      <!-- 2019-01 -->
      <g transform="translate(419.126776 392.598437)scale(0.1 -0.1)">
       <use xlink:href="#DejaVuSans-32"/>
       <use xlink:href="#DejaVuSans-30" x="63.623047"/>
       <use xlink:href="#DejaVuSans-31" x="127.246094"/>
       <use xlink:href="#DejaVuSans-39" x="190.869141"/>
       <use xlink:href="#DejaVuSans-2d" x="254.492188"/>
       <use xlink:href="#DejaVuSans-30" x="290.576172"/>
       <use xlink:href="#DejaVuSans-31" x="354.199219"/>
      </g>
     </g>
    </g>
    <g id="xtick_8">
     <g id="line2d_8">
      <g>
       <use xlink:href="#m7a54f3090f" x="495.357025" y="378" style="stroke: #000000; stroke-width: 0.8"/>
      </g>
     </g>
     <g id="text_8">
      <!-- 2019-05 -->
      <g transform="translate(474.465619 392.598437)scale(0.1 -0.1)">
       <use xlink:href="#DejaVuSans-32"/>
       <use xlink:href="#DejaVuSans-30" x="63.623047"/>
       <use xlink:href="#DejaVuSans-31" x="127.246094"/>
       <use xlink:href="#DejaVuSans-39" x="190.869141"/>
       <use xlink:href="#DejaVuSans-2d" x="254.492188"/>
       <use xlink:href="#DejaVuSans-30" x="290.576172"/>
       <use xlink:href="#DejaVuSans-35" x="354.199219"/>
      </g>
     </g>
    </g>
    <g id="xtick_9">
     <g id="line2d_9">
      <g>
       <use xlink:href="#m7a54f3090f" x="552.079339" y="378" style="stroke: #000000; stroke-width: 0.8"/>
      </g>
     </g>
     <g id="text_9">
      <!-- 2019-09 -->
      <g transform="translate(531.187933 392.598437)scale(0.1 -0.1)">
       <use xlink:href="#DejaVuSans-32"/>
       <use xlink:href="#DejaVuSans-30" x="63.623047"/>
       <use xlink:href="#DejaVuSans-31" x="127.246094"/>
       <use xlink:href="#DejaVuSans-39" x="190.869141"/>
       <use xlink:href="#DejaVuSans-2d" x="254.492188"/>
       <use xlink:href="#DejaVuSans-30" x="290.576172"/>
       <use xlink:href="#DejaVuSans-39" x="354.199219"/>
      </g>
     </g>
    </g>
    <g id="xtick_10">
     <g id="line2d_10">
      <g>
       <use xlink:href="#m7a54f3090f" x="608.340496" y="378" style="stroke: #000000; stroke-width: 0.8"/>
      </g>
     </g>
     <g id="text_10">
      <!-- 2020-01 -->
      <g transform="translate(587.44909 392.598437)scale(0.1 -0.1)">
       <use xlink:href="#DejaVuSans-32"/>
       <use xlink:href="#DejaVuSans-30" x="63.623047"/>
       <use xlink:href="#DejaVuSans-32" x="127.246094"/>
       <use xlink:href="#DejaVuSans-30" x="190.869141"/>
       <use xlink:href="#DejaVuSans-2d" x="254.492188"/>
       <use xlink:href="#DejaVuSans-30" x="290.576172"/>
       <use xlink:href="#DejaVuSans-31" x="354.199219"/>
      </g>
     </g>
    </g>
    <g id="text_11">
     <!-- Date [Year-Month] -->
     <g transform="translate(323.814844 406.276563)scale(0.1 -0.1)">
      <defs>
       <path id="DejaVuSans-44" d="M 1259 4147 
L 1259 519 
L 2022 519 
Q 2988 519 3436 956 
Q 3884 1394 3884 2338 
Q 3884 3275 3436 3711 
Q 2988 4147 2022 4147 
L 1259 4147 
z
M 628 4666 
L 1925 4666 
Q 3281 4666 3915 4102 
Q 4550 3538 4550 2338 
Q 4550 1131 3912 565 
Q 3275 0 1925 0 
L 628 0 
L 628 4666 
z
" transform="scale(0.015625)"/>
       <path id="DejaVuSans-61" d="M 2194 1759 
Q 1497 1759 1228 1600 
Q 959 1441 959 1056 
Q 959 750 1161 570 
Q 1363 391 1709 391 
Q 2188 391 2477 730 
Q 2766 1069 2766 1631 
L 2766 1759 
L 2194 1759 
z
M 3341 1997 
L 3341 0 
L 2766 0 
L 2766 531 
Q 2569 213 2275 61 
Q 1981 -91 1556 -91 
Q 1019 -91 701 211 
Q 384 513 384 1019 
Q 384 1609 779 1909 
Q 1175 2209 1959 2209 
L 2766 2209 
L 2766 2266 
Q 2766 2663 2505 2880 
Q 2244 3097 1772 3097 
Q 1472 3097 1187 3025 
Q 903 2953 641 2809 
L 641 3341 
Q 956 3463 1253 3523 
Q 1550 3584 1831 3584 
Q 2591 3584 2966 3190 
Q 3341 2797 3341 1997 
z
" transform="scale(0.015625)"/>
       <path id="DejaVuSans-74" d="M 1172 4494 
L 1172 3500 
L 2356 3500 
L 2356 3053 
L 1172 3053 
L 1172 1153 
Q 1172 725 1289 603 
Q 1406 481 1766 481 
L 2356 481 
L 2356 0 
L 1766 0 
Q 1100 0 847 248 
Q 594 497 594 1153 
L 594 3053 
L 172 3053 
L 172 3500 
L 594 3500 
L 594 4494 
L 1172 4494 
z
" transform="scale(0.015625)"/>
       <path id="DejaVuSans-65" d="M 3597 1894 
L 3597 1613 
L 953 1613 
Q 991 1019 1311 708 
Q 1631 397 2203 397 
Q 2534 397 2845 478 
Q 3156 559 3463 722 
L 3463 178 
Q 3153 47 2828 -22 
Q 2503 -91 2169 -91 
Q 1331 -91 842 396 
Q 353 884 353 1716 
Q 353 2575 817 3079 
Q 1281 3584 2069 3584 
Q 2775 3584 3186 3129 
Q 3597 2675 3597 1894 
z
M 3022 2063 
Q 3016 2534 2758 2815 
Q 2500 3097 2075 3097 
Q 1594 3097 1305 2825 
Q 1016 2553 972 2059 
L 3022 2063 
z
" transform="scale(0.015625)"/>
       <path id="DejaVuSans-20" transform="scale(0.015625)"/>
       <path id="DejaVuSans-5b" d="M 550 4863 
L 1875 4863 
L 1875 4416 
L 1125 4416 
L 1125 -397 
L 1875 -397 
L 1875 -844 
L 550 -844 
L 550 4863 
z
" transform="scale(0.015625)"/>
       <path id="DejaVuSans-59" d="M -13 4666 
L 666 4666 
L 1959 2747 
L 3244 4666 
L 3922 4666 
L 2272 2222 
L 2272 0 
L 1638 0 
L 1638 2222 
L -13 4666 
z
" transform="scale(0.015625)"/>
       <path id="DejaVuSans-72" d="M 2631 2963 
Q 2534 3019 2420 3045 
Q 2306 3072 2169 3072 
Q 1681 3072 1420 2755 
Q 1159 2438 1159 1844 
L 1159 0 
L 581 0 
L 581 3500 
L 1159 3500 
L 1159 2956 
Q 1341 3275 1631 3429 
Q 1922 3584 2338 3584 
Q 2397 3584 2469 3576 
Q 2541 3569 2628 3553 
L 2631 2963 
z
" transform="scale(0.015625)"/>
       <path id="DejaVuSans-4d" d="M 628 4666 
L 1569 4666 
L 2759 1491 
L 3956 4666 
L 4897 4666 
L 4897 0 
L 4281 0 
L 4281 4097 
L 3078 897 
L 2444 897 
L 1241 4097 
L 1241 0 
L 628 0 
L 628 4666 
z
" transform="scale(0.015625)"/>
       <path id="DejaVuSans-6f" d="M 1959 3097 
Q 1497 3097 1228 2736 
Q 959 2375 959 1747 
Q 959 1119 1226 758 
Q 1494 397 1959 397 
Q 2419 397 2687 759 
Q 2956 1122 2956 1747 
Q 2956 2369 2687 2733 
Q 2419 3097 1959 3097 
z
M 1959 3584 
Q 2709 3584 3137 3096 
Q 3566 2609 3566 1747 
Q 3566 888 3137 398 
Q 2709 -91 1959 -91 
Q 1206 -91 779 398 
Q 353 888 353 1747 
Q 353 2609 779 3096 
Q 1206 3584 1959 3584 
z
" transform="scale(0.015625)"/>
       <path id="DejaVuSans-6e" d="M 3513 2113 
L 3513 0 
L 2938 0 
L 2938 2094 
Q 2938 2591 2744 2837 
Q 2550 3084 2163 3084 
Q 1697 3084 1428 2787 
Q 1159 2491 1159 1978 
L 1159 0 
L 581 0 
L 581 3500 
L 1159 3500 
L 1159 2956 
Q 1366 3272 1645 3428 
Q 1925 3584 2291 3584 
Q 2894 3584 3203 3211 
Q 3513 2838 3513 2113 
z
" transform="scale(0.015625)"/>
       <path id="DejaVuSans-68" d="M 3513 2113 
L 3513 0 
L 2938 0 
L 2938 2094 
Q 2938 2591 2744 2837 
Q 2550 3084 2163 3084 
Q 1697 3084 1428 2787 
Q 1159 2491 1159 1978 
L 1159 0 
L 581 0 
L 581 4863 
L 1159 4863 
L 1159 2956 
Q 1366 3272 1645 3428 
Q 1925 3584 2291 3584 
Q 2894 3584 3203 3211 
Q 3513 2838 3513 2113 
z
" transform="scale(0.015625)"/>
       <path id="DejaVuSans-5d" d="M 1947 4863 
L 1947 -844 
L 622 -844 
L 622 -397 
L 1369 -397 
L 1369 4416 
L 622 4416 
L 622 4863 
L 1947 4863 
z
" transform="scale(0.015625)"/>
      </defs>
      <use xlink:href="#DejaVuSans-44"/>
      <use xlink:href="#DejaVuSans-61" x="77.001953"/>
      <use xlink:href="#DejaVuSans-74" x="138.28125"/>
      <use xlink:href="#DejaVuSans-65" x="177.490234"/>
      <use xlink:href="#DejaVuSans-20" x="239.013672"/>
      <use xlink:href="#DejaVuSans-5b" x="270.800781"/>
      <use xlink:href="#DejaVuSans-59" x="309.814453"/>
      <use xlink:href="#DejaVuSans-65" x="357.648438"/>
      <use xlink:href="#DejaVuSans-61" x="419.171875"/>
      <use xlink:href="#DejaVuSans-72" x="480.451172"/>
      <use xlink:href="#DejaVuSans-2d" x="515.189453"/>
      <use xlink:href="#DejaVuSans-4d" x="551.273438"/>
      <use xlink:href="#DejaVuSans-6f" x="637.552734"/>
      <use xlink:href="#DejaVuSans-6e" x="698.734375"/>
      <use xlink:href="#DejaVuSans-74" x="762.113281"/>
      <use xlink:href="#DejaVuSans-68" x="801.322266"/>
      <use xlink:href="#DejaVuSans-5d" x="864.701172"/>
     </g>
    </g>
   </g>
   <g id="matplotlib.axis_2">
    <g id="ytick_1">
     <g id="line2d_11">
      <defs>
       <path id="m41755b4683" d="M 0 0 
L -3.5 0 
" style="stroke: #000000; stroke-width: 0.8"/>
      </defs>
      <g>
       <use xlink:href="#m41755b4683" x="90" y="338.747554" style="stroke: #000000; stroke-width: 0.8"/>
      </g>
     </g>
     <g id="text_12">
      <!-- 1.25 -->
      <g transform="translate(60.734375 342.546772)scale(0.1 -0.1)">
       <defs>
        <path id="DejaVuSans-2e" d="M 684 794 
L 1344 794 
L 1344 0 
L 684 0 
L 684 794 
z
" transform="scale(0.015625)"/>
       </defs>
       <use xlink:href="#DejaVuSans-31"/>
       <use xlink:href="#DejaVuSans-2e" x="63.623047"/>
       <use xlink:href="#DejaVuSans-32" x="95.410156"/>
       <use xlink:href="#DejaVuSans-35" x="159.033203"/>
      </g>
     </g>
    </g>
    <g id="ytick_2">
     <g id="line2d_12">
      <g>
       <use xlink:href="#m41755b4683" x="90" y="296.571434" style="stroke: #000000; stroke-width: 0.8"/>
      </g>
     </g>
     <g id="text_13">
      <!-- 1.50 -->
      <g transform="translate(60.734375 300.370653)scale(0.1 -0.1)">
       <use xlink:href="#DejaVuSans-31"/>
       <use xlink:href="#DejaVuSans-2e" x="63.623047"/>
       <use xlink:href="#DejaVuSans-35" x="95.410156"/>
       <use xlink:href="#DejaVuSans-30" x="159.033203"/>
      </g>
     </g>
    </g>
    <g id="ytick_3">
     <g id="line2d_13">
      <g>
       <use xlink:href="#m41755b4683" x="90" y="254.395314" style="stroke: #000000; stroke-width: 0.8"/>
      </g>
     </g>
     <g id="text_14">
      <!-- 1.75 -->
      <g transform="translate(60.734375 258.194533)scale(0.1 -0.1)">
       <use xlink:href="#DejaVuSans-31"/>
       <use xlink:href="#DejaVuSans-2e" x="63.623047"/>
       <use xlink:href="#DejaVuSans-37" x="95.410156"/>
       <use xlink:href="#DejaVuSans-35" x="159.033203"/>
      </g>
     </g>
    </g>
    <g id="ytick_4">
     <g id="line2d_14">
      <g>
       <use xlink:href="#m41755b4683" x="90" y="212.219194" style="stroke: #000000; stroke-width: 0.8"/>
      </g>
     </g>
     <g id="text_15">
      <!-- 2.00 -->
      <g transform="translate(60.734375 216.018413)scale(0.1 -0.1)">
       <use xlink:href="#DejaVuSans-32"/>
       <use xlink:href="#DejaVuSans-2e" x="63.623047"/>
       <use xlink:href="#DejaVuSans-30" x="95.410156"/>
       <use xlink:href="#DejaVuSans-30" x="159.033203"/>
      </g>
     </g>
    </g>
    <g id="ytick_5">
     <g id="line2d_15">
      <g>
       <use xlink:href="#m41755b4683" x="90" y="170.043075" style="stroke: #000000; stroke-width: 0.8"/>
      </g>
     </g>
     <g id="text_16">
      <!-- 2.25 -->
      <g transform="translate(60.734375 173.842293)scale(0.1 -0.1)">
       <use xlink:href="#DejaVuSans-32"/>
       <use xlink:href="#DejaVuSans-2e" x="63.623047"/>
       <use xlink:href="#DejaVuSans-32" x="95.410156"/>
       <use xlink:href="#DejaVuSans-35" x="159.033203"/>
      </g>
     </g>
    </g>
    <g id="ytick_6">
     <g id="line2d_16">
      <g>
       <use xlink:href="#m41755b4683" x="90" y="127.866955" style="stroke: #000000; stroke-width: 0.8"/>
      </g>
     </g>
     <g id="text_17">
      <!-- 2.50 -->
      <g transform="translate(60.734375 131.666174)scale(0.1 -0.1)">
       <use xlink:href="#DejaVuSans-32"/>
       <use xlink:href="#DejaVuSans-2e" x="63.623047"/>
       <use xlink:href="#DejaVuSans-35" x="95.410156"/>
       <use xlink:href="#DejaVuSans-30" x="159.033203"/>
      </g>
     </g>
    </g>
    <g id="ytick_7">
     <g id="line2d_17">
      <g>
       <use xlink:href="#m41755b4683" x="90" y="85.690835" style="stroke: #000000; stroke-width: 0.8"/>
      </g>
     </g>
     <g id="text_18">
      <!-- 2.75 -->
      <g transform="translate(60.734375 89.490054)scale(0.1 -0.1)">
       <use xlink:href="#DejaVuSans-32"/>
       <use xlink:href="#DejaVuSans-2e" x="63.623047"/>
       <use xlink:href="#DejaVuSans-37" x="95.410156"/>
       <use xlink:href="#DejaVuSans-35" x="159.033203"/>
      </g>
     </g>
    </g>
    <g id="text_19">
     <!-- Spring DO [uS/cm] -->
     <g transform="translate(54.654687 261.568437)rotate(-90)scale(0.1 -0.1)">
      <defs>
       <path id="DejaVuSans-53" d="M 3425 4513 
L 3425 3897 
Q 3066 4069 2747 4153 
Q 2428 4238 2131 4238 
Q 1616 4238 1336 4038 
Q 1056 3838 1056 3469 
Q 1056 3159 1242 3001 
Q 1428 2844 1947 2747 
L 2328 2669 
Q 3034 2534 3370 2195 
Q 3706 1856 3706 1288 
Q 3706 609 3251 259 
Q 2797 -91 1919 -91 
Q 1588 -91 1214 -16 
Q 841 59 441 206 
L 441 856 
Q 825 641 1194 531 
Q 1563 422 1919 422 
Q 2459 422 2753 634 
Q 3047 847 3047 1241 
Q 3047 1584 2836 1778 
Q 2625 1972 2144 2069 
L 1759 2144 
Q 1053 2284 737 2584 
Q 422 2884 422 3419 
Q 422 4038 858 4394 
Q 1294 4750 2059 4750 
Q 2388 4750 2728 4690 
Q 3069 4631 3425 4513 
z
" transform="scale(0.015625)"/>
       <path id="DejaVuSans-70" d="M 1159 525 
L 1159 -1331 
L 581 -1331 
L 581 3500 
L 1159 3500 
L 1159 2969 
Q 1341 3281 1617 3432 
Q 1894 3584 2278 3584 
Q 2916 3584 3314 3078 
Q 3713 2572 3713 1747 
Q 3713 922 3314 415 
Q 2916 -91 2278 -91 
Q 1894 -91 1617 61 
Q 1341 213 1159 525 
z
M 3116 1747 
Q 3116 2381 2855 2742 
Q 2594 3103 2138 3103 
Q 1681 3103 1420 2742 
Q 1159 2381 1159 1747 
Q 1159 1113 1420 752 
Q 1681 391 2138 391 
Q 2594 391 2855 752 
Q 3116 1113 3116 1747 
z
" transform="scale(0.015625)"/>
       <path id="DejaVuSans-69" d="M 603 3500 
L 1178 3500 
L 1178 0 
L 603 0 
L 603 3500 
z
M 603 4863 
L 1178 4863 
L 1178 4134 
L 603 4134 
L 603 4863 
z
" transform="scale(0.015625)"/>
       <path id="DejaVuSans-67" d="M 2906 1791 
Q 2906 2416 2648 2759 
Q 2391 3103 1925 3103 
Q 1463 3103 1205 2759 
Q 947 2416 947 1791 
Q 947 1169 1205 825 
Q 1463 481 1925 481 
Q 2391 481 2648 825 
Q 2906 1169 2906 1791 
z
M 3481 434 
Q 3481 -459 3084 -895 
Q 2688 -1331 1869 -1331 
Q 1566 -1331 1297 -1286 
Q 1028 -1241 775 -1147 
L 775 -588 
Q 1028 -725 1275 -790 
Q 1522 -856 1778 -856 
Q 2344 -856 2625 -561 
Q 2906 -266 2906 331 
L 2906 616 
Q 2728 306 2450 153 
Q 2172 0 1784 0 
Q 1141 0 747 490 
Q 353 981 353 1791 
Q 353 2603 747 3093 
Q 1141 3584 1784 3584 
Q 2172 3584 2450 3431 
Q 2728 3278 2906 2969 
L 2906 3500 
L 3481 3500 
L 3481 434 
z
" transform="scale(0.015625)"/>
       <path id="DejaVuSans-4f" d="M 2522 4238 
Q 1834 4238 1429 3725 
Q 1025 3213 1025 2328 
Q 1025 1447 1429 934 
Q 1834 422 2522 422 
Q 3209 422 3611 934 
Q 4013 1447 4013 2328 
Q 4013 3213 3611 3725 
Q 3209 4238 2522 4238 
z
M 2522 4750 
Q 3503 4750 4090 4092 
Q 4678 3434 4678 2328 
Q 4678 1225 4090 567 
Q 3503 -91 2522 -91 
Q 1538 -91 948 565 
Q 359 1222 359 2328 
Q 359 3434 948 4092 
Q 1538 4750 2522 4750 
z
" transform="scale(0.015625)"/>
       <path id="DejaVuSans-75" d="M 544 1381 
L 544 3500 
L 1119 3500 
L 1119 1403 
Q 1119 906 1312 657 
Q 1506 409 1894 409 
Q 2359 409 2629 706 
Q 2900 1003 2900 1516 
L 2900 3500 
L 3475 3500 
L 3475 0 
L 2900 0 
L 2900 538 
Q 2691 219 2414 64 
Q 2138 -91 1772 -91 
Q 1169 -91 856 284 
Q 544 659 544 1381 
z
M 1991 3584 
L 1991 3584 
z
" transform="scale(0.015625)"/>
       <path id="DejaVuSans-2f" d="M 1625 4666 
L 2156 4666 
L 531 -594 
L 0 -594 
L 1625 4666 
z
" transform="scale(0.015625)"/>
       <path id="DejaVuSans-63" d="M 3122 3366 
L 3122 2828 
Q 2878 2963 2633 3030 
Q 2388 3097 2138 3097 
Q 1578 3097 1268 2742 
Q 959 2388 959 1747 
Q 959 1106 1268 751 
Q 1578 397 2138 397 
Q 2388 397 2633 464 
Q 2878 531 3122 666 
L 3122 134 
Q 2881 22 2623 -34 
Q 2366 -91 2075 -91 
Q 1284 -91 818 406 
Q 353 903 353 1747 
Q 353 2603 823 3093 
Q 1294 3584 2113 3584 
Q 2378 3584 2631 3529 
Q 2884 3475 3122 3366 
z
" transform="scale(0.015625)"/>
       <path id="DejaVuSans-6d" d="M 3328 2828 
Q 3544 3216 3844 3400 
Q 4144 3584 4550 3584 
Q 5097 3584 5394 3201 
Q 5691 2819 5691 2113 
L 5691 0 
L 5113 0 
L 5113 2094 
Q 5113 2597 4934 2840 
Q 4756 3084 4391 3084 
Q 3944 3084 3684 2787 
Q 3425 2491 3425 1978 
L 3425 0 
L 2847 0 
L 2847 2094 
Q 2847 2600 2669 2842 
Q 2491 3084 2119 3084 
Q 1678 3084 1418 2786 
Q 1159 2488 1159 1978 
L 1159 0 
L 581 0 
L 581 3500 
L 1159 3500 
L 1159 2956 
Q 1356 3278 1631 3431 
Q 1906 3584 2284 3584 
Q 2666 3584 2933 3390 
Q 3200 3197 3328 2828 
z
" transform="scale(0.015625)"/>
      </defs>
      <use xlink:href="#DejaVuSans-53"/>
      <use xlink:href="#DejaVuSans-70" x="63.476562"/>
      <use xlink:href="#DejaVuSans-72" x="126.953125"/>
      <use xlink:href="#DejaVuSans-69" x="168.066406"/>
      <use xlink:href="#DejaVuSans-6e" x="195.849609"/>
      <use xlink:href="#DejaVuSans-67" x="259.228516"/>
      <use xlink:href="#DejaVuSans-20" x="322.705078"/>
      <use xlink:href="#DejaVuSans-44" x="354.492188"/>
      <use xlink:href="#DejaVuSans-4f" x="431.494141"/>
      <use xlink:href="#DejaVuSans-20" x="510.205078"/>
      <use xlink:href="#DejaVuSans-5b" x="541.992188"/>
      <use xlink:href="#DejaVuSans-75" x="581.005859"/>
      <use xlink:href="#DejaVuSans-53" x="644.384766"/>
      <use xlink:href="#DejaVuSans-2f" x="707.861328"/>
      <use xlink:href="#DejaVuSans-63" x="741.552734"/>
      <use xlink:href="#DejaVuSans-6d" x="796.533203"/>
      <use xlink:href="#DejaVuSans-5d" x="893.945312"/>
     </g>
    </g>
   </g>
   <g id="line2d_18">
    <path d="M 470.454545 378 
L 470.454545 51.84 
" clip-path="url(#p7e5a20a205)" style="fill: none; stroke-dasharray: 5.55,2.4; stroke-dashoffset: 0; stroke: #ff0000; stroke-width: 1.5"/>
   </g>
   <g id="line2d_19">
    <path d="M 115.363636 228.684085 
L 115.824793 211.186005 
L 116.28595 186.447531 
L 116.747107 235.662872 
L 117.208264 208.98669 
L 117.669421 211.077244 
L 118.130579 207.633814 
L 118.591736 189.045851 
L 119.052893 192.883177 
L 119.51405 157.930416 
L 119.975207 194.455868 
L 120.436364 191.138093 
L 120.897521 228.391066 
L 121.358678 181.627937 
L 121.819835 171.578359 
L 122.280992 214.444915 
L 122.742149 182.572074 
L 123.203306 201.917544 
L 123.664463 141.042488 
L 124.12562 214.756738 
L 124.586777 215.418957 
L 125.047934 231.960652 
L 125.509091 197.410476 
L 125.970248 210.139743 
L 126.431405 198.662435 
L 126.892562 197.576112 
L 127.353719 263.595377 
L 127.814876 163.309382 
L 128.276033 160.001662 
L 128.73719 202.823028 
L 129.198347 214.183047 
L 129.659504 199.735083 
L 130.120661 198.991815 
L 130.581818 155.010841 
L 131.042975 224.614053 
L 131.504132 133.913651 
L 131.965289 260.622126 
L 132.426446 172.662792 
L 132.887603 151.178824 
L 133.34876 249.380661 
L 133.809917 159.931877 
L 134.271074 148.128809 
L 134.732231 218.165576 
L 135.193388 228.609453 
L 135.654545 113.545892 
L 136.115702 206.949392 
L 136.57686 205.778601 
L 137.038017 185.733505 
L 137.499174 178.991326 
L 137.960331 192.242798 
L 138.421488 215.252578 
L 138.882645 186.152581 
L 139.343802 181.101387 
L 140.266116 117.622621 
L 140.727273 189.733209 
L 141.18843 232.210393 
L 141.649587 132.524736 
L 142.110744 207.980651 
L 142.571901 138.823304 
L 143.033058 169.11402 
L 143.494215 148.815202 
L 143.955372 270.24597 
L 144.416529 189.56331 
L 144.877686 270.142197 
L 145.338843 221.792721 
L 145.8 242.686266 
L 146.261157 206.73923 
L 146.722314 240.633099 
L 147.183471 252.506496 
L 147.644628 207.102236 
L 148.105785 232.157601 
L 148.566942 208.108558 
L 149.028099 97.214921 
L 149.489256 177.445262 
L 149.950413 191.091073 
L 150.41157 190.898046 
L 150.872727 139.813496 
L 151.333884 184.321864 
L 151.795041 174.303258 
L 152.717355 200.044553 
L 153.178512 229.484066 
L 153.639669 105.469861 
L 154.561983 217.579316 
L 155.02314 175.570702 
L 155.484298 165.423425 
L 155.945455 180.634728 
L 156.406612 201.438738 
L 156.867769 241.779535 
L 157.328926 180.029061 
L 157.790083 180.87216 
L 158.712397 212.754814 
L 159.173554 212.817943 
L 159.634711 176.220131 
L 160.095868 214.399081 
L 160.557025 149.259457 
L 161.018182 168.864843 
L 161.479339 175.099458 
L 162.401653 126.565885 
L 162.86281 85.036338 
L 163.785124 160.889851 
L 164.246281 161.025923 
L 164.707438 140.129965 
L 165.168595 238.195508 
L 165.629752 190.642715 
L 166.090909 111.179012 
L 166.552066 94.656181 
L 167.013223 66.665455 
L 167.47438 175.905714 
L 167.935537 211.232904 
L 168.396694 163.322052 
L 168.857851 139.897037 
L 169.319008 178.909071 
L 169.780165 268.284068 
L 170.241322 137.33516 
L 170.702479 267.145013 
L 171.163636 159.82392 
L 171.624793 133.50447 
L 172.08595 135.627281 
L 172.547107 194.225596 
L 173.008264 162.219962 
L 173.469421 215.259516 
L 173.930579 206.771529 
L 174.391736 180.073104 
L 174.852893 207.55341 
L 175.31405 246.326885 
L 175.775207 264.073962 
L 176.236364 209.735187 
L 176.697521 270.46307 
L 177.158678 225.985311 
L 177.619835 263.18342 
L 178.080992 282.855776 
L 178.542149 253.816958 
L 179.003306 295.583615 
L 179.464463 259.250144 
L 179.92562 266.311326 
L 180.386777 269.756003 
L 180.847934 250.386379 
L 181.309091 252.030465 
L 181.770248 261.971885 
L 182.231405 256.302112 
L 182.692562 269.947642 
L 183.153719 297.385251 
L 183.614876 255.578171 
L 184.076033 298.556484 
L 184.53719 217.550859 
L 184.998347 279.70609 
L 185.459504 289.568292 
L 185.920661 287.06542 
L 186.381818 263.447359 
L 186.842975 296.092246 
L 187.304132 282.456952 
L 187.765289 272.659368 
L 188.226446 297.856355 
L 188.687603 262.724826 
L 189.14876 285.061305 
L 189.609917 287.620427 
L 190.071074 287.62089 
L 190.532231 286.550977 
L 191.454545 308.742073 
L 191.915702 295.352477 
L 192.37686 296.403647 
L 192.838017 274.204466 
L 193.299174 296.326018 
L 193.760331 286.347312 
L 194.221488 301.039124 
L 194.682645 281.482708 
L 195.143802 295.469585 
L 195.604959 314.139179 
L 196.527273 303.442305 
L 196.98843 321.306368 
L 197.449587 270.793094 
L 198.371901 324.260553 
L 198.833058 289.796694 
L 199.294215 301.751279 
L 199.755372 294.99834 
L 200.216529 280.365213 
L 200.677686 296.971002 
L 201.138843 285.123207 
L 201.6 295.769623 
L 202.061157 268.260458 
L 202.522314 275.373346 
L 202.983471 301.264027 
L 203.444628 285.110718 
L 203.905785 285.986236 
L 204.366942 290.365759 
L 204.828099 307.07671 
L 205.289256 276.917037 
L 205.750413 280.038889 
L 206.21157 304.10189 
L 206.672727 270.00524 
L 207.133884 306.216556 
L 207.595041 292.648695 
L 208.056198 313.744659 
L 208.517355 285.046423 
L 208.978512 306.656226 
L 209.439669 283.75221 
L 209.900826 297.014643 
L 210.361983 274.637318 
L 210.82314 302.55114 
L 211.284298 256.892937 
L 211.745455 289.579132 
L 212.206612 294.022427 
L 212.667769 264.96215 
L 213.128926 269.807749 
L 213.590083 293.136592 
L 214.05124 300.729251 
L 214.512397 271.104475 
L 214.973554 304.346683 
L 215.434711 251.903584 
L 215.895868 263.192671 
L 216.357025 285.325083 
L 216.818182 299.048201 
L 217.279339 265.462616 
L 217.740496 273.379266 
L 218.201653 266.757271 
L 218.66281 246.043197 
L 219.585124 272.041835 
L 220.046281 248.617343 
L 220.507438 281.950333 
L 220.968595 279.091634 
L 221.429752 306.235259 
L 221.890909 290.750143 
L 222.813223 269.722075 
L 223.27438 305.743039 
L 223.735537 308.089969 
L 224.196694 265.121672 
L 224.657851 268.319866 
L 225.119008 281.713524 
L 225.580165 285.334716 
L 226.041322 272.487659 
L 226.502479 280.824089 
L 226.963636 283.342205 
L 227.424793 276.826939 
L 227.88595 261.029115 
L 228.347107 281.914374 
L 228.808264 272.095532 
L 229.269421 288.819333 
L 229.730579 282.414377 
L 230.191736 283.261338 
L 230.652893 278.966704 
L 231.11405 268.778139 
L 231.575207 303.515891 
L 232.036364 267.25299 
L 232.497521 298.83271 
L 232.958678 306.813877 
L 233.419835 307.166828 
L 233.880992 297.417912 
L 234.342149 301.854148 
L 234.803306 296.452114 
L 235.264463 306.245033 
L 235.72562 299.470515 
L 236.186777 305.990406 
L 236.647934 304.280698 
L 237.109091 291.246708 
L 237.570248 293.676656 
L 238.031405 274.061456 
L 238.492562 290.060713 
L 238.953719 288.759583 
L 239.414876 272.591332 
L 239.876033 297.777962 
L 240.33719 302.150968 
L 240.798347 281.660048 
L 241.259504 277.193143 
L 241.720661 271.511605 
L 242.181818 277.542413 
L 242.642975 269.513965 
L 243.104132 295.320601 
L 244.026446 279.483641 
L 244.487603 284.800363 
L 244.94876 296.019101 
L 245.409917 296.418951 
L 245.871074 308.808359 
L 246.332231 296.330281 
L 246.793388 291.009155 
L 247.715702 272.021824 
L 248.17686 294.302696 
L 248.638017 299.538933 
L 249.099174 296.283704 
L 249.560331 307.353781 
L 250.021488 290.393311 
L 250.482645 294.046842 
L 250.943802 301.003467 
L 251.404959 293.844665 
L 251.866116 316.726457 
L 252.327273 302.139223 
L 252.78843 295.142738 
L 253.249587 304.697541 
L 253.710744 297.430682 
L 254.171901 295.170452 
L 254.633058 290.966258 
L 255.094215 308.417298 
L 255.555372 279.878 
L 256.016529 314.913639 
L 256.477686 309.509031 
L 256.938843 312.622719 
L 257.4 310.594168 
L 257.861157 307.796387 
L 258.322314 310.22708 
L 258.783471 310.82609 
L 259.244628 330.866198 
L 259.705785 295.830841 
L 260.166942 293.009147 
L 260.628099 294.710168 
L 261.089256 293.118572 
L 261.550413 302.52226 
L 262.01157 322.506661 
L 262.472727 283.481977 
L 262.933884 316.136336 
L 263.395041 284.201192 
L 263.856198 303.764485 
L 264.317355 287.2391 
L 265.239669 317.761377 
L 265.700826 313.117533 
L 266.161983 286.778133 
L 266.62314 321.155635 
L 267.084298 293.875093 
L 267.545455 291.429095 
L 268.006612 232.336409 
L 268.467769 278.387483 
L 268.928926 258.655296 
L 269.390083 276.453415 
L 269.85124 317.357143 
L 270.773554 275.667813 
L 271.234711 280.361331 
L 271.695868 266.475473 
L 272.157025 269.005696 
L 272.618182 291.31947 
L 273.079339 281.718894 
L 273.540496 324.192357 
L 274.001653 258.962232 
L 274.46281 290.460724 
L 274.923967 274.844182 
L 275.385124 287.240548 
L 275.846281 263.154963 
L 276.307438 296.055141 
L 276.768595 285.387085 
L 278.152066 320.402533 
L 278.613223 312.663745 
L 279.07438 275.930324 
L 279.535537 296.009669 
L 279.996694 286.249853 
L 280.457851 315.471764 
L 280.919008 240.276187 
L 281.380165 270.621345 
L 282.302479 227.437033 
L 282.763636 194.298559 
L 283.224793 249.507844 
L 283.68595 274.363324 
L 284.147107 274.584728 
L 284.608264 294.38121 
L 285.069421 285.550629 
L 285.530579 286.09727 
L 285.991736 263.529412 
L 286.452893 256.929599 
L 286.91405 256.844268 
L 287.836364 296.766653 
L 288.297521 289.008559 
L 288.758678 273.182619 
L 289.219835 302.885367 
L 290.142149 287.756077 
L 290.603306 273.254436 
L 291.064463 304.555637 
L 291.52562 302.429648 
L 291.986777 288.994923 
L 292.447934 300.751052 
L 292.909091 275.837953 
L 293.370248 296.390977 
L 293.831405 289.854252 
L 294.292562 255.492598 
L 294.753719 274.806071 
L 295.214876 267.233181 
L 295.676033 251.509747 
L 296.13719 310.224244 
L 297.059504 295.155268 
L 297.520661 270.14819 
L 297.981818 305.14417 
L 298.442975 277.17816 
L 298.904132 266.876751 
L 299.365289 264.563527 
L 299.826446 289.411827 
L 300.287603 295.144609 
L 300.74876 269.053601 
L 301.209917 305.363462 
L 301.671074 270.714922 
L 302.593388 296.834769 
L 303.054545 257.790698 
L 303.515702 294.931189 
L 303.97686 301.94509 
L 304.438017 287.080242 
L 304.899174 291.723201 
L 305.360331 246.032156 
L 305.821488 264.553693 
L 306.282645 271.70809 
L 306.743802 315.458832 
L 307.204959 309.609849 
L 307.666116 307.393902 
L 308.58843 293.350373 
L 309.049587 305.501565 
L 309.510744 306.320732 
L 309.971901 255.527451 
L 310.433058 267.01767 
L 310.894215 236.593616 
L 311.355372 258.924243 
L 312.277686 239.307896 
L 312.738843 270.708285 
L 313.2 223.136789 
L 313.661157 282.311669 
L 314.122314 281.452441 
L 315.044628 242.159414 
L 315.505785 193.88805 
L 315.966942 292.152413 
L 316.889256 234.539544 
L 317.350413 275.674611 
L 317.81157 269.152367 
L 318.272727 290.270513 
L 318.733884 242.254801 
L 319.195041 242.916297 
L 319.656198 281.744696 
L 320.117355 274.513916 
L 320.578512 259.001972 
L 321.039669 236.408573 
L 321.500826 197.830839 
L 321.961983 191.557008 
L 322.42314 240.206462 
L 322.884298 258.36825 
L 323.345455 218.36178 
L 323.806612 219.690725 
L 324.267769 238.314184 
L 324.728926 222.055936 
L 325.190083 192.902122 
L 325.65124 224.225526 
L 326.112397 170.072115 
L 326.573554 206.014063 
L 327.034711 256.917774 
L 327.495868 202.236225 
L 327.957025 231.768269 
L 328.418182 201.166433 
L 328.879339 223.637777 
L 329.340496 173.624065 
L 329.801653 238.790818 
L 330.26281 235.610141 
L 330.723967 274.724601 
L 331.185124 226.304233 
L 331.646281 218.138989 
L 332.107438 259.901845 
L 332.568595 220.095381 
L 333.029752 218.041812 
L 333.490909 221.64233 
L 333.952066 253.714653 
L 334.413223 261.371608 
L 334.87438 292.127777 
L 335.335537 258.564052 
L 335.796694 266.166124 
L 336.257851 265.923262 
L 336.719008 260.730364 
L 337.180165 271.946005 
L 337.641322 262.688646 
L 338.102479 273.757396 
L 338.563636 217.361472 
L 339.024793 278.742384 
L 339.48595 257.1831 
L 339.947107 287.451796 
L 340.408264 285.715319 
L 340.869421 275.844429 
L 341.330579 255.062964 
L 341.791736 262.106489 
L 342.252893 237.323147 
L 342.71405 261.998371 
L 343.175207 228.592941 
L 343.636364 265.97722 
L 344.097521 265.387641 
L 344.558678 215.829969 
L 345.019835 266.238122 
L 345.480992 255.570489 
L 345.942149 209.326368 
L 346.403306 271.695863 
L 346.864463 244.788242 
L 347.32562 272.39933 
L 347.786777 264.465023 
L 348.247934 275.360776 
L 348.709091 289.906461 
L 349.170248 226.652458 
L 349.631405 258.892085 
L 350.092562 275.337186 
L 350.553719 230.937116 
L 351.014876 271.250441 
L 351.476033 254.997844 
L 351.93719 231.01026 
L 352.398347 237.328155 
L 352.859504 237.002998 
L 353.320661 260.274404 
L 353.781818 223.628748 
L 354.242975 252.961309 
L 354.704132 256.134224 
L 355.165289 272.408682 
L 355.626446 251.573661 
L 356.087603 289.657767 
L 356.54876 300.096414 
L 357.009917 255.34277 
L 357.471074 246.38559 
L 357.932231 259.52824 
L 358.393388 281.670325 
L 358.854545 232.567024 
L 359.315702 248.363299 
L 359.77686 286.461865 
L 360.238017 248.429787 
L 360.699174 257.99736 
L 361.160331 243.763037 
L 361.621488 265.362281 
L 362.082645 280.678021 
L 362.543802 302.764278 
L 363.004959 251.593832 
L 363.466116 284.92111 
L 363.927273 234.985449 
L 364.38843 287.879922 
L 365.310744 296.645121 
L 365.771901 290.556936 
L 366.233058 249.441799 
L 366.694215 289.637816 
L 367.155372 285.974331 
L 367.616529 279.046042 
L 368.077686 279.569757 
L 368.538843 262.591549 
L 369 285.092176 
L 369.461157 277.068474 
L 369.922314 294.824118 
L 370.383471 277.635367 
L 370.844628 297.257767 
L 371.305785 268.266189 
L 371.766942 299.537063 
L 372.228099 297.997696 
L 372.689256 288.904524 
L 373.150413 298.612514 
L 373.61157 288.878259 
L 374.072727 302.442741 
L 374.533884 293.249978 
L 374.995041 289.616981 
L 375.456198 292.036492 
L 375.917355 297.399832 
L 376.378512 294.821885 
L 377.761983 282.838963 
L 378.22314 314.204239 
L 378.684298 290.696366 
L 379.145455 320.02016 
L 379.606612 294.832846 
L 380.067769 294.628858 
L 380.528926 309.506518 
L 380.990083 313.095371 
L 381.45124 304.517667 
L 381.912397 312.417625 
L 382.373554 309.088306 
L 382.834711 318.282356 
L 383.295868 297.524963 
L 383.757025 283.55665 
L 384.218182 290.160183 
L 384.679339 302.545589 
L 385.140496 273.904509 
L 385.601653 311.7001 
L 386.06281 304.846907 
L 386.523967 290.46185 
L 386.985124 311.716933 
L 387.446281 301.063579 
L 387.907438 298.035444 
L 388.368595 302.988859 
L 388.829752 290.944618 
L 389.290909 287.482103 
L 389.752066 306.225727 
L 390.213223 301.887673 
L 390.67438 306.002433 
L 391.135537 322.452079 
L 391.596694 282.000027 
L 392.057851 299.401675 
L 392.519008 292.805442 
L 392.980165 275.043986 
L 393.441322 289.401691 
L 393.902479 281.826408 
L 394.363636 296.592832 
L 394.824793 276.234807 
L 395.28595 282.247817 
L 395.747107 271.862162 
L 396.208264 289.321609 
L 396.669421 298.885221 
L 397.130579 269.995084 
L 397.591736 305.913461 
L 398.052893 264.76305 
L 398.51405 267.557352 
L 398.975207 296.487168 
L 399.436364 282.292222 
L 399.897521 234.495139 
L 400.358678 269.787155 
L 400.819835 286.662956 
L 401.280992 287.706785 
L 401.742149 271.803136 
L 402.203306 278.675656 
L 402.664463 258.785415 
L 403.12562 253.545558 
L 404.047934 282.761455 
L 404.509091 279.015715 
L 404.970248 228.821384 
L 405.431405 259.75984 
L 405.892562 281.182027 
L 406.353719 289.99867 
L 406.814876 267.818475 
L 407.276033 269.061223 
L 407.73719 290.13438 
L 408.198347 266.694041 
L 408.659504 263.685495 
L 409.120661 251.036552 
L 409.581818 276.179421 
L 410.042975 278.877189 
L 410.504132 248.507114 
L 410.965289 245.917804 
L 411.426446 263.815815 
L 411.887603 263.467772 
L 412.34876 272.199627 
L 412.809917 262.941182 
L 413.271074 282.871845 
L 413.732231 265.362342 
L 414.193388 295.783097 
L 414.654545 276.481892 
L 415.115702 232.325066 
L 415.57686 249.747147 
L 416.038017 291.70679 
L 416.499174 283.425223 
L 416.960331 279.993478 
L 417.882645 242.732964 
L 418.343802 281.531216 
L 418.804959 246.259432 
L 419.266116 267.409415 
L 419.727273 263.287556 
L 420.18843 212.941225 
L 420.649587 258.934258 
L 421.110744 273.413113 
L 421.571901 258.204545 
L 422.494215 267.360363 
L 422.955372 263.916773 
L 423.416529 265.978829 
L 423.877686 265.986853 
L 424.338843 239.422972 
L 424.8 247.820117 
L 425.261157 237.2132 
L 425.722314 223.987148 
L 426.183471 201.390914 
L 426.644628 280.267975 
L 427.105785 263.417132 
L 427.566942 234.747775 
L 428.028099 232.256427 
L 428.489256 239.027707 
L 428.950413 230.814136 
L 429.41157 249.147634 
L 430.333884 244.505319 
L 430.795041 209.453189 
L 431.256198 240.136093 
L 431.717355 192.482764 
L 432.178512 176.628468 
L 433.100826 256.378554 
L 433.561983 234.257023 
L 434.02314 117.615784 
L 434.484298 190.758475 
L 434.945455 168.55839 
L 435.406612 243.218447 
L 435.867769 229.368286 
L 436.328926 164.18305 
L 436.790083 209.9836 
L 437.25124 171.796002 
L 437.712397 183.678589 
L 438.634711 234.829607 
L 439.095868 230.898744 
L 439.557025 265.741457 
L 440.018182 191.18097 
L 440.479339 271.440612 
L 440.940496 265.782061 
L 441.401653 170.381947 
L 441.86281 265.987818 
L 442.323967 165.202042 
L 442.785124 234.450854 
L 443.246281 241.326532 
L 443.707438 224.53393 
L 444.168595 228.544071 
L 444.629752 238.984428 
L 445.090909 186.764925 
L 445.552066 217.006812 
L 446.013223 222.214854 
L 446.47438 291.816255 
L 446.935537 263.1073 
L 447.396694 216.360521 
L 447.857851 249.602548 
L 448.319008 264.465304 
L 448.780165 269.207934 
L 449.241322 276.904769 
L 449.702479 240.594768 
L 450.163636 237.435911 
L 450.624793 264.721983 
L 451.08595 259.940619 
L 451.547107 206.436517 
L 452.008264 208.631769 
L 452.469421 215.455137 
L 452.930579 188.85025 
L 453.391736 192.035895 
L 454.31405 287.877126 
L 455.236364 213.507293 
L 455.697521 221.40162 
L 456.158678 205.383981 
L 457.080992 273.96621 
L 457.542149 214.166777 
L 458.464463 270.02334 
L 458.92562 267.888341 
L 459.386777 216.419949 
L 459.847934 240.724846 
L 460.309091 248.94439 
L 460.770248 237.81579 
L 461.231405 249.946629 
L 461.692562 284.070972 
L 462.153719 249.172069 
L 462.614876 238.932481 
L 463.076033 263.337089 
L 463.53719 242.67064 
L 463.998347 250.985792 
L 464.459504 211.775502 
L 464.920661 248.850612 
L 465.381818 271.586478 
L 465.842975 267.110784 
L 466.304132 257.612896 
L 466.765289 254.939099 
L 467.226446 281.795959 
L 467.687603 254.780684 
L 468.14876 246.739666 
L 468.609917 291.473461 
L 469.071074 262.352388 
L 469.532231 244.360277 
L 470.454545 228.822872 
L 470.915702 244.312915 
L 471.37686 238.613358 
L 471.838017 250.676402 
L 472.299174 265.784595 
L 473.221488 233.589052 
L 473.682645 252.252492 
L 474.143802 248.899844 
L 474.604959 260.18318 
L 475.066116 231.617858 
L 475.527273 261.156036 
L 475.98843 263.255297 
L 477.371901 286.355839 
L 477.833058 272.8571 
L 478.294215 281.173057 
L 478.755372 274.954592 
L 479.216529 265.799095 
L 479.677686 247.562011 
L 480.138843 236.916601 
L 480.6 286.737508 
L 481.061157 283.476245 
L 481.983471 256.030471 
L 482.444628 249.805851 
L 482.905785 220.188516 
L 483.366942 290.372677 
L 483.828099 263.172098 
L 484.289256 305.064147 
L 484.750413 275.414936 
L 485.21157 278.140941 
L 485.672727 209.587531 
L 486.595041 276.37299 
L 487.056198 270.211299 
L 487.517355 274.104574 
L 487.978512 249.205172 
L 488.439669 273.13031 
L 488.900826 279.531365 
L 489.361983 241.20494 
L 489.82314 244.087329 
L 490.284298 267.085062 
L 490.745455 242.795972 
L 491.206612 269.326951 
L 491.667769 245.307813 
L 492.128926 258.020066 
L 492.590083 243.297041 
L 493.05124 256.047123 
L 493.512397 242.671685 
L 493.973554 267.807112 
L 494.434711 245.170474 
L 494.895868 265.568903 
L 495.357025 242.84981 
L 495.818182 261.062821 
L 496.279339 254.277704 
L 496.740496 251.277826 
L 497.201653 255.47659 
L 497.66281 262.22074 
L 498.123967 296.667726 
L 498.585124 271.623282 
L 499.046281 238.509463 
L 499.507438 249.829985 
L 499.968595 314.509506 
L 500.429752 218.590504 
L 500.890909 262.89388 
L 501.352066 230.457224 
L 501.813223 290.846114 
L 502.27438 241.97037 
L 502.735537 234.570656 
L 503.196694 266.513906 
L 503.657851 239.412916 
L 504.119008 262.148984 
L 504.580165 274.579861 
L 505.041322 194.811312 
L 505.502479 288.77181 
L 505.963636 229.089707 
L 506.424793 228.616492 
L 506.88595 197.89785 
L 507.347107 230.481076 
L 507.808264 206.680385 
L 508.269421 262.063954 
L 508.730579 221.334448 
L 509.191736 227.376801 
L 509.652893 271.406323 
L 510.11405 213.657885 
L 510.575207 237.316149 
L 511.036364 273.581121 
L 511.497521 275.473359 
L 511.958678 248.766186 
L 512.419835 239.905961 
L 512.880992 276.023841 
L 513.342149 262.733172 
L 513.803306 253.405786 
L 514.264463 252.627102 
L 514.72562 283.34677 
L 515.186777 304.403155 
L 515.647934 274.058942 
L 516.109091 272.532064 
L 516.570248 251.881361 
L 517.031405 246.574494 
L 517.492562 272.416425 
L 517.953719 269.309575 
L 518.414876 288.818468 
L 518.876033 251.28406 
L 519.33719 248.231692 
L 519.798347 275.892776 
L 520.259504 281.444598 
L 520.720661 265.625436 
L 521.181818 272.476477 
L 521.642975 284.086357 
L 522.104132 267.326637 
L 522.565289 279.937147 
L 523.026446 250.363734 
L 523.487603 287.696991 
L 523.94876 258.233586 
L 524.409917 256.507467 
L 524.871074 247.874055 
L 525.332231 295.367842 
L 525.793388 284.1231 
L 526.254545 266.853181 
L 526.715702 302.50961 
L 527.17686 277.146706 
L 527.638017 265.14317 
L 528.560331 290.002934 
L 529.021488 274.664046 
L 529.482645 280.022177 
L 529.943802 261.08068 
L 530.404959 276.551678 
L 530.866116 282.81666 
L 531.327273 224.706845 
L 531.78843 260.666491 
L 532.249587 268.885069 
L 532.710744 289.032732 
L 533.171901 246.299112 
L 533.633058 230.973759 
L 534.094215 249.475365 
L 534.555372 259.726456 
L 535.016529 255.278736 
L 535.477686 272.848955 
L 535.938843 300.365944 
L 536.4 289.12824 
L 536.861157 273.989237 
L 537.322314 244.404341 
L 537.783471 247.853301 
L 538.244628 302.855441 
L 538.705785 283.909258 
L 539.166942 294.377972 
L 539.628099 281.271803 
L 540.089256 288.728571 
L 540.550413 251.915088 
L 541.01157 269.239287 
L 541.472727 239.771639 
L 541.933884 236.750282 
L 542.395041 295.036009 
L 542.856198 305.165387 
L 543.317355 232.654427 
L 543.778512 264.198852 
L 544.239669 246.583443 
L 544.700826 270.88106 
L 545.161983 257.427853 
L 545.62314 274.532841 
L 546.084298 310.797472 
L 546.545455 298.500877 
L 547.006612 272.087688 
L 547.467769 271.864535 
L 547.928926 292.755868 
L 548.390083 254.206873 
L 548.85124 272.265893 
L 549.312397 281.958397 
L 549.773554 297.32896 
L 550.234711 298.449513 
L 550.695868 291.50598 
L 551.157025 274.986971 
L 551.618182 286.299065 
L 552.079339 291.120208 
L 552.540496 287.421086 
L 553.001653 267.53889 
L 553.46281 281.641828 
L 553.923967 282.999289 
L 554.385124 290.66085 
L 554.846281 300.628615 
L 555.307438 251.129325 
L 555.768595 263.92534 
L 556.229752 251.715384 
L 556.690909 306.483552 
L 557.152066 275.87174 
L 557.613223 255.15465 
L 558.07438 250.368259 
L 558.535537 287.844244 
L 558.996694 264.719006 
L 559.457851 205.30599 
L 559.919008 257.562457 
L 560.380165 236.49493 
L 560.841322 243.383841 
L 561.302479 218.375295 
L 561.763636 255.628067 
L 562.224793 262.446729 
L 562.68595 201.721621 
L 563.147107 255.318315 
L 563.608264 253.285119 
L 564.069421 222.837857 
L 564.530579 239.041765 
L 564.991736 219.508296 
L 565.452893 310.926867 
L 565.91405 221.589558 
L 566.375207 246.794308 
L 566.836364 206.499425 
L 567.297521 231.991885 
L 567.758678 198.367485 
L 568.219835 199.017759 
L 568.680992 274.843779 
L 569.142149 236.669274 
L 569.603306 229.055779 
L 570.064463 241.979782 
L 570.52562 250.143658 
L 570.986777 251.574204 
L 571.447934 279.181491 
L 571.909091 209.176459 
L 572.370248 268.385127 
L 572.831405 283.389888 
L 573.292562 231.217485 
L 573.753719 267.662996 
L 574.214876 233.987252 
L 574.676033 271.121871 
L 575.13719 244.562736 
L 575.598347 253.252378 
L 576.059504 240.550865 
L 576.520661 239.760014 
L 576.981818 287.675572 
L 577.442975 256.552998 
L 577.904132 254.786375 
L 578.365289 286.074203 
L 578.826446 224.582056 
L 579.287603 234.58224 
L 579.74876 256.988002 
L 580.209917 208.58853 
L 580.671074 224.81808 
L 581.132231 188.932866 
L 581.593388 269.126021 
L 582.054545 244.206729 
L 582.515702 273.387612 
L 582.97686 272.444983 
L 583.438017 214.294503 
L 583.899174 230.226992 
L 584.360331 211.279521 
L 584.821488 232.940387 
L 585.282645 231.850162 
L 586.204959 150.987769 
L 586.666116 156.06547 
L 587.127273 177.822788 
L 587.58843 172.033836 
L 588.049587 171.878779 
L 588.510744 263.641713 
L 589.433058 118.116028 
L 589.894215 231.516116 
L 590.355372 196.05937 
L 590.816529 197.48537 
L 591.277686 242.477673 
L 592.2 149.890947 
L 592.661157 241.676546 
L 593.122314 205.86154 
L 593.583471 207.778614 
L 594.044628 207.333917 
L 594.505785 266.456086 
L 594.966942 207.05409 
L 595.428099 252.484052 
L 595.889256 202.657795 
L 596.350413 272.48064 
L 596.81157 252.64832 
L 597.272727 252.774457 
L 597.733884 301.768112 
L 598.195041 210.508782 
L 598.656198 229.850933 
L 599.117355 260.133666 
L 599.578512 255.76798 
L 600.039669 220.879474 
L 600.500826 235.591377 
L 600.961983 201.687271 
L 601.42314 271.688784 
L 601.884298 243.66407 
L 602.345455 197.17039 
L 602.806612 206.636301 
L 603.267769 188.133247 
L 603.728926 216.881218 
L 604.190083 229.398734 
L 604.65124 247.569331 
L 605.112397 260.60113 
L 605.573554 226.776423 
L 606.034711 214.468364 
L 606.495868 215.928312 
L 606.957025 204.810491 
L 607.418182 248.345722 
L 607.879339 252.381907 
L 608.340496 217.825939 
L 608.801653 262.336721 
L 609.26281 250.437341 
L 609.723967 246.683697 
L 610.185124 265.533588 
L 610.646281 224.739345 
L 611.107438 201.679549 
L 611.568595 230.019264 
L 612.029752 163.373979 
L 612.490909 149.90953 
L 612.952066 251.03796 
L 613.413223 268.295431 
L 613.87438 260.908106 
L 614.335537 243.079821 
L 614.796694 243.366022 
L 615.257851 249.671006 
L 615.719008 267.004296 
L 616.180165 249.059788 
L 616.641322 223.825776 
L 617.102479 245.217776 
L 617.563636 225.063456 
L 618.024793 194.524005 
L 618.48595 226.312519 
L 618.947107 219.387107 
L 619.408264 218.593219 
L 619.869421 268.978808 
L 620.791736 219.286853 
L 621.252893 271.554522 
L 621.71405 275.332862 
L 622.175207 208.292172 
L 622.636364 236.283965 
L 622.636364 236.283965 
" clip-path="url(#p7e5a20a205)" style="fill: none; stroke: #1f77b4; stroke-width: 1.5; stroke-linecap: square"/>
   </g>
   <g id="line2d_20">
    <path d="M 115.363636 212.219194 
L 115.824793 212.043463 
L 117.208264 185.85912 
L 118.130579 179.356987 
L 118.591736 178.302559 
L 119.052893 168.461494 
L 119.51405 164.595329 
L 119.975207 171.097502 
L 120.897521 179.914065 
L 121.358678 183.223112 
L 121.819835 172.32762 
L 122.280992 179.532718 
L 122.742149 194.821529 
L 123.203306 195.172991 
L 123.664463 188.495127 
L 124.12562 196.754612 
L 124.586777 180.235642 
L 125.047934 173.382007 
L 125.970248 201.675164 
L 126.431405 191.482597 
L 126.892562 189.549514 
L 127.353719 206.419986 
L 127.814876 211.867732 
L 128.276033 202.026627 
L 128.73719 202.55382 
L 129.198347 179.356987 
L 129.659504 186.562044 
L 130.581818 212.922119 
L 131.042975 193.591411 
L 131.504132 161.256397 
L 131.965289 157.038768 
L 132.426446 164.243826 
L 133.809917 213.625084 
L 134.271074 185.507657 
L 134.732231 181.290029 
L 135.193388 167.582798 
L 135.654545 172.679082 
L 136.115702 181.290029 
L 136.57686 174.260703 
L 137.038017 147.373394 
L 137.499174 139.11391 
L 138.421488 152.645409 
L 138.882645 150.536635 
L 139.343802 147.724897 
L 139.804959 161.78359 
L 140.266116 163.365211 
L 140.727273 158.093196 
L 141.18843 141.574186 
L 142.110744 169.515881 
L 142.571901 177.248173 
L 143.033058 192.712715 
L 143.494215 200.620778 
L 143.955372 204.311172 
L 144.416529 219.775755 
L 144.877686 223.290418 
L 145.338843 219.775755 
L 145.8 231.725654 
L 146.261157 232.996497 
L 146.722314 250.353417 
L 147.644628 200.97224 
L 148.105785 190.779672 
L 148.566942 185.156195 
L 149.028099 186.913507 
L 149.489256 192.00979 
L 149.950413 194.118604 
L 150.41157 194.157902 
L 150.872727 187.792202 
L 151.333884 186.386313 
L 152.256198 181.817223 
L 152.717355 182.168725 
L 153.178512 180.059911 
L 154.100826 173.9092 
L 155.02314 187.089278 
L 155.484298 187.616471 
L 155.945455 169.515881 
L 156.406612 178.654022 
L 156.867769 199.214888 
L 157.328926 204.486903 
L 157.790083 203.081014 
L 158.25124 199.390619 
L 158.712397 215.030933 
L 159.173554 182.520188 
L 159.634711 171.374955 
L 160.095868 203.608207 
L 160.557025 181.817223 
L 161.018182 154.22703 
L 161.479339 152.996912 
L 161.940496 146.494739 
L 162.401653 144.210193 
L 162.86281 142.980035 
L 163.323967 145.440352 
L 163.785124 152.82114 
L 164.246281 165.825447 
L 165.168595 144.561656 
L 165.629752 141.925648 
L 166.090909 145.616043 
L 166.552066 161.78359 
L 167.013223 165.122522 
L 167.47438 174.260703 
L 167.935537 194.470067 
L 168.396694 179.356987 
L 168.857851 178.302559 
L 169.319008 203.081014 
L 169.780165 192.888486 
L 170.241322 177.775366 
L 170.702479 172.854813 
L 171.163636 173.9092 
L 171.624793 166.528411 
L 172.08595 164.243826 
L 172.547107 162.662246 
L 173.469421 168.285723 
L 174.852893 187.616471 
L 175.31405 214.679471 
L 175.775207 226.453619 
L 176.697521 259.140116 
L 177.158678 261.776123 
L 177.619835 270.035608 
L 178.080992 273.726042 
L 178.542149 267.575352 
L 179.464463 252.813694 
L 179.92562 246.838774 
L 180.847934 239.633676 
L 181.309091 243.851284 
L 181.770248 243.447473 
L 182.231405 257.382784 
L 182.692562 278.470864 
L 183.153719 289.014874 
L 183.614876 290.069281 
L 184.076033 283.649382 
L 184.53719 280.579658 
L 184.998347 279.519579 
L 185.459504 279.700982 
L 185.920661 296.391942 
L 186.381818 296.571434 
L 186.842975 297.274358 
L 187.304132 303.425049 
L 187.765289 298.855979 
L 188.687603 293.759675 
L 189.14876 293.232482 
L 189.609917 293.05675 
L 190.532231 295.150783 
L 190.993388 306.516112 
L 191.454545 308.057711 
L 191.915702 309.002291 
L 192.37686 310.278665 
L 192.838017 309.040904 
L 193.299174 312.716276 
L 193.760331 312.90347 
L 194.221488 312.738941 
L 194.682645 318.362418 
L 195.143802 310.102934 
L 195.604959 308.521333 
L 196.066116 306.516112 
L 196.527273 305.805786 
L 196.98843 308.697064 
L 197.449587 307.642657 
L 198.371901 302.370662 
L 198.833058 293.935446 
L 199.294215 291.123688 
L 199.755372 290.596474 
L 200.216529 288.663391 
L 200.677686 284.797266 
L 201.138843 283.039934 
L 201.6 286.378866 
L 202.061157 291.123688 
L 202.522314 291.47515 
L 202.983471 292.353806 
L 203.444628 291.47515 
L 203.905785 293.236564 
L 204.366942 301.316255 
L 204.828099 298.680248 
L 205.289256 294.46264 
L 205.750413 291.299399 
L 206.21157 287.081791 
L 206.672727 288.839143 
L 207.133884 287.692264 
L 207.595041 287.433273 
L 208.056198 287.433273 
L 208.517355 286.730349 
L 208.978512 286.90608 
L 209.439669 291.009738 
L 209.900826 286.90608 
L 210.82314 295.692758 
L 211.745455 287.784756 
L 212.667769 277.767899 
L 213.128926 276.713492 
L 213.590083 268.80549 
L 214.05124 275.131892 
L 214.973554 299.734655 
L 215.434711 285.851673 
L 215.895868 278.295092 
L 216.357025 264.587882 
L 216.818182 266.696676 
L 217.279339 273.198849 
L 217.740496 272.671635 
L 218.201653 261.951874 
L 218.66281 262.127585 
L 219.585124 245.432885 
L 220.046281 218.018403 
L 221.890909 306.061057 
L 222.352066 309.751471 
L 222.813223 295.341296 
L 223.27438 273.198849 
L 223.735537 268.278276 
L 224.196694 261.705835 
L 224.657851 261.913683 
L 225.580165 248.516224 
L 226.041322 246.311561 
L 227.424793 285.851673 
L 227.88595 286.730349 
L 228.347107 287.960467 
L 228.808264 298.328765 
L 229.269421 299.03169 
L 229.730579 296.571434 
L 230.191736 303.249338 
L 230.652893 296.922896 
L 231.11405 275.307643 
L 231.575207 272.144422 
L 232.036364 298.328765 
L 232.497521 336.952835 
L 232.958678 341.735023 
L 233.419835 339.274747 
L 233.880992 338.747554 
L 234.342149 336.111546 
L 234.803306 328.730717 
L 235.264463 323.282971 
L 235.72562 333.299807 
L 236.186777 335.057139 
L 236.647934 316.253624 
L 237.109091 307.291195 
L 237.570248 310.630147 
L 238.031405 305.885326 
L 238.492562 306.412519 
L 239.414876 322.056573 
L 239.876033 319.065363 
L 240.33719 309.224258 
L 240.798347 281.634065 
L 241.259504 262.451435 
L 241.720661 273.726042 
L 242.181818 274.956181 
L 242.642975 264.060668 
L 243.104132 255.976915 
L 243.565289 260.370274 
L 244.026446 272.495884 
L 244.487603 288.136198 
L 244.94876 293.408233 
L 245.409917 295.341296 
L 245.871074 300.789042 
L 246.793388 303.776532 
L 247.254545 309.57574 
L 247.715702 299.03169 
L 248.17686 291.826612 
L 248.638017 297.625841 
L 249.099174 301.843449 
L 249.560331 297.625841 
L 250.021488 290.947957 
L 250.482645 294.989833 
L 250.943802 304.303725 
L 251.866116 316.253624 
L 252.327273 305.709594 
L 252.78843 319.241094 
L 253.249587 323.985916 
L 253.710744 323.634453 
L 254.171901 314.14481 
L 255.094215 307.818408 
L 255.555372 298.328765 
L 256.016529 297.274358 
L 256.477686 306.061057 
L 256.938843 303.776532 
L 257.4 306.061057 
L 257.861157 304.655187 
L 258.322314 301.667698 
L 258.783471 302.897856 
L 259.244628 304.479456 
L 259.705785 309.048547 
L 260.166942 297.801572 
L 260.628099 295.165565 
L 261.089256 290.244992 
L 261.550413 278.998057 
L 262.01157 280.851239 
L 262.472727 291.380527 
L 262.933884 291.987079 
L 263.395041 292.880999 
L 263.856198 298.504497 
L 264.317355 294.46264 
L 264.778512 297.977283 
L 265.239669 311.508803 
L 265.700826 310.454396 
L 266.161983 309.927202 
L 266.62314 310.59626 
L 267.545455 302.194931 
L 268.006612 308.345602 
L 268.467769 287.433273 
L 268.928926 283.039934 
L 269.390083 292.880999 
L 269.85124 292.705288 
L 270.312397 287.960467 
L 270.773554 277.240706 
L 271.234711 282.336989 
L 271.695868 272.847366 
L 272.157025 256.679859 
L 272.618182 259.491598 
L 273.079339 257.909977 
L 273.540496 258.085709 
L 274.001653 259.667309 
L 274.46281 260.370274 
L 275.385124 287.433273 
L 276.307438 294.989833 
L 276.768595 292.178075 
L 277.229752 274.780449 
L 277.690909 263.006281 
L 278.152066 261.424661 
L 278.613223 261.600392 
L 279.07438 265.993751 
L 279.535537 256.328377 
L 279.996694 258.085709 
L 280.919008 263.357744 
L 281.380165 275.131892 
L 282.302479 268.80549 
L 282.763636 262.83055 
L 283.224793 260.545985 
L 283.68595 274.253256 
L 284.147107 283.91859 
L 284.608264 282.5127 
L 285.069421 264.060668 
L 285.530579 258.437191 
L 285.991736 267.751083 
L 286.452893 271.265766 
L 286.91405 261.073198 
L 287.375207 277.037241 
L 287.836364 276.36205 
L 288.297521 271.617208 
L 288.758678 278.295092 
L 289.219835 271.176955 
L 290.603306 291.826612 
L 291.064463 289.717798 
L 291.986777 292.705288 
L 292.447934 292.880999 
L 292.909091 306.061057 
L 293.370248 308.345602 
L 293.831405 309.927202 
L 294.292562 309.224258 
L 294.753719 309.048547 
L 295.214876 307.994119 
L 295.676033 306.061057 
L 296.598347 300.086097 
L 297.520661 307.466926 
L 297.981818 305.182401 
L 298.904132 312.387479 
L 299.365289 308.872795 
L 299.826446 298.328765 
L 300.287603 291.123688 
L 300.74876 291.826612 
L 301.209917 302.194931 
L 301.671074 297.274358 
L 302.132231 287.609004 
L 302.593388 281.282582 
L 303.054545 287.257542 
L 303.97686 303.249338 
L 304.438017 296.922896 
L 304.899174 292.353806 
L 305.360331 294.111157 
L 306.282645 310.805878 
L 306.743802 316.429356 
L 307.204959 318.713901 
L 307.666116 323.810164 
L 308.127273 312.56321 
L 308.58843 308.521333 
L 309.049587 293.05675 
L 309.510744 268.102565 
L 310.894215 236.821918 
L 311.355372 232.60431 
L 311.816529 223.993363 
L 312.277686 221.884569 
L 312.738843 205.365599 
L 313.661157 209.583187 
L 314.122314 208.880262 
L 314.583471 219.248561 
L 315.044628 203.081014 
L 315.505785 202.729592 
L 315.966942 222.0603 
L 316.428099 230.319784 
L 316.889256 235.240317 
L 317.350413 250.529168 
L 317.81157 254.746776 
L 318.272727 252.110769 
L 318.733884 248.596086 
L 319.195041 249.29901 
L 319.656198 262.303316 
L 320.117355 233.834468 
L 320.578512 219.232754 
L 321.039669 217.666961 
L 321.500826 228.035259 
L 321.961983 221.357355 
L 322.42314 221.181604 
L 322.884298 224.872018 
L 323.345455 226.805101 
L 323.806612 216.788285 
L 324.267769 210.11038 
L 324.728926 209.758918 
L 325.190083 215.206684 
L 325.65124 203.95971 
L 326.112397 200.093584 
L 326.573554 194.118604 
L 327.034711 202.026627 
L 327.495868 206.068524 
L 327.957025 203.783979 
L 328.418182 203.608207 
L 329.340496 207.650104 
L 329.801653 184.629002 
L 330.26281 185.331926 
L 330.723967 185.683388 
L 331.185124 186.562044 
L 331.646281 192.537024 
L 332.107438 203.256785 
L 332.568595 204.311172 
L 333.029752 223.290418 
L 333.490909 228.21097 
L 333.952066 263.363274 
L 334.413223 275.834856 
L 334.87438 271.265766 
L 335.335537 269.332683 
L 335.796694 276.537781 
L 336.257851 277.240706 
L 336.719008 281.985507 
L 337.180165 280.056145 
L 337.641322 276.36205 
L 338.102479 271.090015 
L 338.563636 276.713492 
L 339.024793 283.742859 
L 339.48595 281.809776 
L 339.947107 289.717798 
L 340.408264 287.609004 
L 340.869421 288.136198 
L 341.330579 283.215665 
L 341.791736 274.077485 
L 342.71405 250.807909 
L 343.175207 247.190216 
L 343.636364 245.432885 
L 344.097521 240.512352 
L 344.558678 243.499802 
L 345.019835 242.585992 
L 345.480992 244.027015 
L 346.403306 248.596086 
L 346.864463 248.268676 
L 347.786777 252.175507 
L 348.247934 255.625452 
L 348.709091 253.340907 
L 349.170248 249.29901 
L 349.631405 238.227787 
L 350.553719 230.495516 
L 351.014876 230.495516 
L 351.476033 228.386702 
L 351.93719 231.901385 
L 352.398347 230.846978 
L 352.859504 232.955792 
L 353.320661 234.537392 
L 353.781818 247.365968 
L 354.242975 253.340907 
L 355.165289 283.742859 
L 355.626446 261.424661 
L 356.087603 256.152666 
L 356.54876 253.951361 
L 357.009917 253.868101 
L 357.471074 257.558515 
L 357.932231 257.858211 
L 358.393388 258.437191 
L 359.315702 250.001975 
L 359.77686 251.056382 
L 360.699174 255.976915 
L 361.160331 263.181992 
L 361.621488 256.152666 
L 362.543802 274.780449 
L 363.004959 269.156952 
L 363.466116 262.127585 
L 363.927273 263.718457 
L 364.38843 264.060668 
L 364.849587 260.545985 
L 365.310744 254.571065 
L 365.771901 264.587882 
L 366.233058 267.3996 
L 366.694215 271.792959 
L 367.155372 279.700982 
L 367.616529 264.412151 
L 368.077686 262.654799 
L 368.538843 268.629759 
L 369 278.646575 
L 369.461157 273.726042 
L 369.922314 293.05675 
L 370.383471 317.1323 
L 370.844628 347.885714 
L 371.305785 363.174545 
L 372.689256 319.241094 
L 373.150413 313.441866 
L 373.61157 313.090403 
L 374.072727 313.793348 
L 374.533884 316.253624 
L 374.995041 328.203524 
L 375.456198 329.25791 
L 375.917355 328.203524 
L 376.839669 316.253624 
L 377.300826 313.441866 
L 377.761983 313.441866 
L 378.22314 309.57574 
L 378.684298 309.048547 
L 379.145455 306.58827 
L 379.606612 305.533863 
L 380.528926 303.952263 
L 380.990083 302.194931 
L 381.45124 303.249338 
L 381.912397 296.219972 
L 382.373554 300.789042 
L 382.834711 299.910366 
L 383.295868 301.316255 
L 384.218182 290.420763 
L 384.679339 290.772205 
L 385.601653 303.249338 
L 386.523967 295.868489 
L 386.985124 290.772205 
L 387.907438 295.868489 
L 388.368595 290.069281 
L 388.829752 289.89355 
L 389.290909 286.90608 
L 389.752066 286.378866 
L 390.213223 282.864183 
L 390.67438 281.809776 
L 391.135537 283.567148 
L 391.596694 280.052464 
L 392.057851 277.767899 
L 392.519008 282.688472 
L 393.441322 286.554597 
L 393.902479 284.972997 
L 394.363636 285.50019 
L 394.824793 284.972997 
L 395.28595 283.039934 
L 395.747107 283.91859 
L 396.208264 284.270072 
L 397.130579 277.592168 
L 397.591736 268.278276 
L 398.052893 265.290806 
L 398.51405 266.872407 
L 399.436364 264.939344 
L 400.358678 267.751083 
L 400.819835 268.629759 
L 401.280992 281.458314 
L 401.742149 290.772205 
L 402.203306 195.700225 
L 402.664463 326.446192 
L 404.509091 268.981201 
L 404.970248 265.993751 
L 405.431405 257.031301 
L 405.892562 252.813694 
L 406.353719 259.315867 
L 406.814876 261.600392 
L 407.276033 252.110769 
L 407.73719 267.3996 
L 408.659504 275.307643 
L 409.120661 289.366356 
L 409.581818 293.583964 
L 410.042975 267.751083 
L 410.965289 249.123299 
L 411.426446 258.26146 
L 412.34876 307.994119 
L 413.271074 266.872407 
L 413.732231 273.327701 
L 414.193388 283.91859 
L 414.654545 288.663391 
L 415.115702 283.391396 
L 415.57686 272.495884 
L 416.499174 237.349111 
L 416.960331 251.407824 
L 417.882645 285.50019 
L 418.804959 219.600003 
L 419.266116 225.04777 
L 420.18843 249.474761 
L 420.649587 280.9311 
L 421.110744 276.537781 
L 422.033058 273.550291 
L 422.494215 277.767899 
L 422.955372 278.470864 
L 423.416529 282.688472 
L 423.877686 270.562801 
L 424.338843 237.524862 
L 424.8 220.478679 
L 425.261157 229.441109 
L 426.183471 281.282582 
L 426.644628 294.111157 
L 427.105785 298.153054 
L 427.566942 312.211748 
L 428.028099 299.480128 
L 428.950413 239.106483 
L 429.872727 146.494739 
L 430.333884 125.055216 
L 430.795041 118.02585 
L 431.717355 148.076319 
L 432.178512 174.084931 
L 432.639669 181.465801 
L 433.100826 195.348722 
L 434.02314 167.055605 
L 434.484298 161.080625 
L 434.945455 161.256397 
L 435.867769 145.791814 
L 436.328926 161.256397 
L 436.790083 163.540901 
L 437.25124 177.951097 
L 437.712397 178.478291 
L 438.173554 181.465801 
L 438.634711 190.076707 
L 439.095868 196.578881 
L 439.557025 212.219194 
L 440.940496 212.219194 
L 441.401653 211.51627 
L 441.86281 213.09787 
L 442.323967 227.332295 
L 442.785124 232.077116 
L 443.246281 243.851284 
L 443.707438 238.403558 
L 444.629752 213.273601 
L 445.090909 212.219194 
L 446.47438 212.219194 
L 446.935537 211.692001 
L 447.396694 212.394926 
L 448.319008 235.591799 
L 448.780165 242.093953 
L 449.241322 231.19846 
L 449.702479 232.780061 
L 450.624793 259.140116 
L 451.08595 249.650493 
L 451.547107 243.324091 
L 452.008264 245.960078 
L 452.469421 242.972608 
L 452.930579 245.960078 
L 453.391736 237.430099 
L 453.852893 231.549903 
L 454.31405 239.985159 
L 454.775207 245.608616 
L 455.236364 245.960078 
L 455.697521 243.675553 
L 456.158678 230.671267 
L 456.619835 224.520576 
L 457.080992 223.466169 
L 457.542149 220.65441 
L 458.003306 209.231725 
L 458.464463 211.340498 
L 459.386777 254.219583 
L 459.847934 246.838774 
L 460.309091 226.805101 
L 460.770248 239.985159 
L 461.692562 271.968691 
L 462.153719 273.550291 
L 462.614876 257.382784 
L 463.076033 253.340907 
L 463.53719 261.248909 
L 463.998347 266.345193 
L 464.459504 258.26146 
L 464.920661 252.989445 
L 465.381818 225.223501 
L 466.304132 252.637983 
L 466.765289 255.976915 
L 467.226446 253.516658 
L 467.687603 253.340907 
L 468.14876 252.989445 
L 468.609917 247.71741 
L 469.532231 224.169094 
L 469.993388 226.277908 
L 470.915702 255.625452 
L 471.37686 255.801183 
L 471.838017 247.893161 
L 472.760331 208.001607 
L 473.221488 208.704531 
L 473.682645 206.595717 
L 474.143802 202.905283 
L 474.604959 200.620778 
L 475.066116 203.256785 
L 475.527273 203.783979 
L 475.98843 206.947179 
L 476.910744 223.114687 
L 477.371901 226.980832 
L 478.294215 264.412151 
L 478.755372 274.077485 
L 479.216529 256.85559 
L 479.677686 233.658717 
L 480.138843 228.738184 
L 480.6 258.085709 
L 481.061157 276.36205 
L 481.522314 273.023098 
L 481.983471 259.140116 
L 482.444628 270.38709 
L 482.905785 277.847097 
L 483.366942 295.165565 
L 483.828099 303.60078 
L 484.289256 302.897856 
L 484.750413 304.127974 
L 485.21157 304.127974 
L 485.672727 301.843449 
L 487.056198 256.152666 
L 487.517355 275.131892 
L 487.978512 242.093953 
L 488.439669 217.842692 
L 488.900826 222.587493 
L 489.361983 231.022709 
L 489.82314 246.838774 
L 490.284298 239.282194 
L 490.745455 212.746388 
L 491.206612 216.788285 
L 491.667769 214.855202 
L 492.590083 230.319784 
L 493.05124 247.365968 
L 493.512397 241.566719 
L 493.973554 217.842692 
L 494.434711 216.612534 
L 495.357025 248.596086 
L 496.279339 242.796877 
L 497.201653 258.964384 
L 497.66281 254.395294 
L 498.123967 244.027015 
L 498.585124 241.391008 
L 499.046281 252.462251 
L 499.507438 252.110769 
L 499.968595 248.947568 
L 500.429752 254.395294 
L 500.890909 257.207053 
L 501.352066 239.809407 
L 501.813223 226.980832 
L 502.27438 233.307254 
L 503.196694 255.976915 
L 504.119008 261.248909 
L 504.580165 255.27399 
L 505.502479 259.491598 
L 505.963636 260.194523 
L 506.424793 254.219583 
L 506.88595 237.1734 
L 507.808264 249.826224 
L 508.269421 249.474761 
L 509.191736 264.236399 
L 509.652893 267.926814 
L 510.11405 258.612902 
L 510.575207 261.248909 
L 511.497521 272.144422 
L 511.958678 287.081791 
L 512.419835 283.567148 
L 512.880992 296.747165 
L 513.342149 292.178075 
L 513.803306 289.190605 
L 514.264463 290.772205 
L 514.72562 291.47515 
L 515.186777 289.366356 
L 515.647934 283.742859 
L 516.109091 283.742859 
L 516.570248 287.257542 
L 517.031405 288.311949 
L 517.492562 288.663391 
L 517.953719 291.826612 
L 518.876033 286.378866 
L 519.33719 291.47515 
L 519.798347 288.48768 
L 520.259504 288.311949 
L 520.720661 291.299399 
L 521.181818 284.972997 
L 521.642975 293.97597 
L 522.104132 290.772205 
L 522.565289 292.705288 
L 523.026446 289.014874 
L 523.487603 288.663391 
L 523.94876 292.178075 
L 524.409917 287.960467 
L 524.871074 280.579658 
L 525.332231 285.50019 
L 525.793388 299.03169 
L 526.254545 290.772205 
L 526.715702 284.621535 
L 527.17686 283.391396 
L 527.638017 272.495884 
L 528.099174 267.048158 
L 528.560331 273.726042 
L 529.021488 251.232093 
L 529.482645 246.311561 
L 529.943802 234.537392 
L 530.404959 231.022709 
L 530.866116 233.307254 
L 531.327273 228.035259 
L 531.78843 237.349111 
L 532.249587 227.156584 
L 532.710744 227.508026 
L 533.171901 230.144053 
L 533.633058 233.658717 
L 534.094215 235.240317 
L 534.555372 226.805101 
L 535.016529 238.930752 
L 535.477686 233.307254 
L 535.938843 235.416068 
L 536.4 229.089646 
L 536.861157 239.809407 
L 537.322314 237.876325 
L 537.783471 245.960078 
L 538.244628 246.135809 
L 538.705785 261.600392 
L 539.166942 258.26146 
L 539.628099 258.437191 
L 540.089256 254.219583 
L 540.550413 256.152666 
L 541.01157 258.996321 
L 541.472727 236.470475 
L 541.933884 229.61686 
L 542.395041 226.805101 
L 542.856198 236.294724 
L 543.317355 232.077116 
L 543.778512 251.583575 
L 544.239669 265.115075 
L 544.700826 264.412151 
L 545.62314 292.705288 
L 546.084298 273.550291 
L 546.545455 272.495884 
L 547.006612 277.240706 
L 547.467769 275.483374 
L 547.928926 274.604698 
L 548.390083 273.198849 
L 548.85124 264.763593 
L 549.312397 276.010567 
L 549.773554 280.052464 
L 550.234711 286.378866 
L 550.695868 284.270072 
L 551.157025 284.094341 
L 551.618182 284.445783 
L 552.079339 283.391396 
L 552.540496 274.428967 
L 553.001653 269.156952 
L 553.46281 266.520965 
L 553.923967 262.479068 
L 554.385124 254.219583 
L 554.846281 254.043852 
L 555.307438 261.600392 
L 555.768595 280.9311 
L 556.229752 293.05675 
L 556.690909 301.843449 
L 558.07438 261.600392 
L 558.535537 253.165176 
L 558.996694 259.140116 
L 559.457851 268.981201 
L 559.919008 262.654799 
L 560.380165 242.796877 
L 560.841322 234.010179 
L 561.302479 229.265377 
L 562.224793 264.939344 
L 562.68595 268.981201 
L 563.147107 279.3495 
L 563.608264 279.525251 
L 564.069421 284.445783 
L 564.530579 286.378866 
L 564.991736 289.190605 
L 565.452893 293.935446 
L 565.91405 288.311949 
L 566.375207 287.609004 
L 566.836364 293.408233 
L 567.297521 301.316255 
L 567.758678 302.01918 
L 568.219835 303.249338 
L 568.680992 307.466926 
L 569.142149 302.897856 
L 569.603306 302.370662 
L 570.064463 301.667698 
L 570.52562 302.01918 
L 570.986777 302.194931 
L 571.447934 301.667698 
L 571.909091 302.722125 
L 572.370248 305.182401 
L 572.831405 304.127974 
L 573.292562 290.420763 
L 573.753719 292.353806 
L 574.214876 295.165565 
L 574.676033 302.370662 
L 575.13719 287.960467 
L 575.598347 285.675942 
L 576.059504 267.926814 
L 576.520661 271.617208 
L 576.981818 269.332683 
L 577.442975 269.332683 
L 577.904132 267.926814 
L 578.365289 265.818 
L 578.826446 269.859877 
L 579.287603 271.453202 
L 579.74876 286.027384 
L 580.209917 261.776123 
L 580.671074 262.83055 
L 581.132231 259.84306 
L 581.593388 268.981201 
L 582.054545 273.023098 
L 582.515702 269.859877 
L 582.97686 275.659105 
L 583.438017 275.483374 
L 583.899174 261.424661 
L 584.360331 254.571065 
L 584.821488 260.370274 
L 585.282645 273.198849 
L 585.743802 252.989445 
L 586.204959 262.127585 
L 586.666116 274.253256 
L 587.127273 272.320173 
L 587.58843 262.479068 
L 588.049587 266.345193 
L 588.510744 264.587882 
L 588.971901 265.466558 
L 589.433058 264.587882 
L 589.894215 275.131892 
L 590.355372 280.579658 
L 590.816529 278.998057 
L 591.277686 271.090015 
L 591.738843 275.659105 
L 592.2 282.336989 
L 592.661157 281.985507 
L 593.122314 274.253256 
L 593.583471 272.495884 
L 594.044628 277.416457 
L 594.505785 266.872407 
L 594.966942 252.110769 
L 595.428099 255.449701 
L 595.889256 257.696035 
L 596.350413 260.555859 
L 596.81157 273.023098 
L 597.272727 269.332683 
L 597.733884 275.483374 
L 598.195041 275.659105 
L 598.656198 263.709206 
L 599.117355 254.746776 
L 599.578512 262.83055 
L 600.039669 264.412151 
L 600.500826 259.140116 
L 600.961983 261.951874 
L 601.42314 278.119381 
L 601.884298 254.746776 
L 602.345455 243.675553 
L 602.806612 242.093953 
L 603.267769 250.7049 
L 603.728926 262.479068 
L 604.190083 266.520965 
L 604.65124 263.357744 
L 605.112397 255.976915 
L 605.573554 256.504108 
L 606.034711 259.491598 
L 606.495868 269.684166 
L 606.957025 275.307643 
L 607.418182 272.671635 
L 607.879339 257.909977 
L 608.340496 251.583575 
L 608.801653 259.84306 
L 609.26281 279.173788 
L 609.723967 276.713492 
L 610.646281 249.123299 
L 611.107438 251.759307 
L 611.568595 247.541699 
L 612.029752 245.960078 
L 615.257851 276.186299 
L 615.719008 260.545985 
L 616.180165 258.437191 
L 616.641322 274.604698 
L 617.102479 254.395294 
L 617.563636 241.566719 
L 618.024793 241.039525 
L 618.48595 247.365968 
L 618.947107 264.763593 
L 619.408264 268.981201 
L 619.869421 265.818 
L 620.330579 274.428967 
L 620.791736 272.144422 
L 621.252893 275.307643 
L 621.71405 275.131892 
L 622.175207 278.646575 
L 622.636364 279.700982 
L 622.636364 279.700982 
" clip-path="url(#p7e5a20a205)" style="fill: none; stroke: #ff7f0e; stroke-width: 1.5; stroke-linecap: square"/>
   </g>
   <g id="patch_3">
    <path d="M 90 378 
L 90 51.84 
" style="fill: none; stroke: #000000; stroke-width: 0.8; stroke-linejoin: miter; stroke-linecap: square"/>
   </g>
   <g id="patch_4">
    <path d="M 648 378 
L 648 51.84 
" style="fill: none; stroke: #000000; stroke-width: 0.8; stroke-linejoin: miter; stroke-linecap: square"/>
   </g>
   <g id="patch_5">
    <path d="M 90 378 
L 648 378 
" style="fill: none; stroke: #000000; stroke-width: 0.8; stroke-linejoin: miter; stroke-linecap: square"/>
   </g>
   <g id="patch_6">
    <path d="M 90 51.84 
L 648 51.84 
" style="fill: none; stroke: #000000; stroke-width: 0.8; stroke-linejoin: miter; stroke-linecap: square"/>
   </g>
   <g id="text_20">
    <!-- Spring DO: GW-SW Inputs -->
    <g transform="translate(291.747187 45.84)scale(0.12 -0.12)">
     <defs>
      <path id="DejaVuSans-3a" d="M 750 794 
L 1409 794 
L 1409 0 
L 750 0 
L 750 794 
z
M 750 3309 
L 1409 3309 
L 1409 2516 
L 750 2516 
L 750 3309 
z
" transform="scale(0.015625)"/>
      <path id="DejaVuSans-47" d="M 3809 666 
L 3809 1919 
L 2778 1919 
L 2778 2438 
L 4434 2438 
L 4434 434 
Q 4069 175 3628 42 
Q 3188 -91 2688 -91 
Q 1594 -91 976 548 
Q 359 1188 359 2328 
Q 359 3472 976 4111 
Q 1594 4750 2688 4750 
Q 3144 4750 3555 4637 
Q 3966 4525 4313 4306 
L 4313 3634 
Q 3963 3931 3569 4081 
Q 3175 4231 2741 4231 
Q 1884 4231 1454 3753 
Q 1025 3275 1025 2328 
Q 1025 1384 1454 906 
Q 1884 428 2741 428 
Q 3075 428 3337 486 
Q 3600 544 3809 666 
z
" transform="scale(0.015625)"/>
      <path id="DejaVuSans-57" d="M 213 4666 
L 850 4666 
L 1831 722 
L 2809 4666 
L 3519 4666 
L 4500 722 
L 5478 4666 
L 6119 4666 
L 4947 0 
L 4153 0 
L 3169 4050 
L 2175 0 
L 1381 0 
L 213 4666 
z
" transform="scale(0.015625)"/>
      <path id="DejaVuSans-49" d="M 628 4666 
L 1259 4666 
L 1259 0 
L 628 0 
L 628 4666 
z
" transform="scale(0.015625)"/>
      <path id="DejaVuSans-73" d="M 2834 3397 
L 2834 2853 
Q 2591 2978 2328 3040 
Q 2066 3103 1784 3103 
Q 1356 3103 1142 2972 
Q 928 2841 928 2578 
Q 928 2378 1081 2264 
Q 1234 2150 1697 2047 
L 1894 2003 
Q 2506 1872 2764 1633 
Q 3022 1394 3022 966 
Q 3022 478 2636 193 
Q 2250 -91 1575 -91 
Q 1294 -91 989 -36 
Q 684 19 347 128 
L 347 722 
Q 666 556 975 473 
Q 1284 391 1588 391 
Q 1994 391 2212 530 
Q 2431 669 2431 922 
Q 2431 1156 2273 1281 
Q 2116 1406 1581 1522 
L 1381 1569 
Q 847 1681 609 1914 
Q 372 2147 372 2553 
Q 372 3047 722 3315 
Q 1072 3584 1716 3584 
Q 2034 3584 2315 3537 
Q 2597 3491 2834 3397 
z
" transform="scale(0.015625)"/>
     </defs>
     <use xlink:href="#DejaVuSans-53"/>
     <use xlink:href="#DejaVuSans-70" x="63.476562"/>
     <use xlink:href="#DejaVuSans-72" x="126.953125"/>
     <use xlink:href="#DejaVuSans-69" x="168.066406"/>
     <use xlink:href="#DejaVuSans-6e" x="195.849609"/>
     <use xlink:href="#DejaVuSans-67" x="259.228516"/>
     <use xlink:href="#DejaVuSans-20" x="322.705078"/>
     <use xlink:href="#DejaVuSans-44" x="354.492188"/>
     <use xlink:href="#DejaVuSans-4f" x="431.494141"/>
     <use xlink:href="#DejaVuSans-3a" x="508.455078"/>
     <use xlink:href="#DejaVuSans-20" x="542.146484"/>
     <use xlink:href="#DejaVuSans-47" x="573.933594"/>
     <use xlink:href="#DejaVuSans-57" x="651.423828"/>
     <use xlink:href="#DejaVuSans-2d" x="746.300781"/>
     <use xlink:href="#DejaVuSans-53" x="782.384766"/>
     <use xlink:href="#DejaVuSans-57" x="845.861328"/>
     <use xlink:href="#DejaVuSans-20" x="944.738281"/>
     <use xlink:href="#DejaVuSans-49" x="976.525391"/>
     <use xlink:href="#DejaVuSans-6e" x="1006.017578"/>
     <use xlink:href="#DejaVuSans-70" x="1069.396484"/>
     <use xlink:href="#DejaVuSans-75" x="1132.873047"/>
     <use xlink:href="#DejaVuSans-74" x="1196.251953"/>
     <use xlink:href="#DejaVuSans-73" x="1235.460938"/>
    </g>
   </g>
   <g id="legend_1">
    <g id="patch_7">
     <path d="M 560.15625 89.19625 
L 641 89.19625 
Q 643 89.19625 643 87.19625 
L 643 58.84 
Q 643 56.84 641 56.84 
L 560.15625 56.84 
Q 558.15625 56.84 558.15625 58.84 
L 558.15625 87.19625 
Q 558.15625 89.19625 560.15625 89.19625 
z
" style="fill: #ffffff; opacity: 0.8; stroke: #cccccc; stroke-linejoin: miter"/>
    </g>
    <g id="line2d_21">
     <path d="M 562.15625 64.938437 
L 572.15625 64.938437 
L 582.15625 64.938437 
" style="fill: none; stroke: #1f77b4; stroke-width: 1.5; stroke-linecap: square"/>
    </g>
    <g id="text_21">
     <!-- LSTM DO -->
     <g transform="translate(590.15625 68.438437)scale(0.1 -0.1)">
      <defs>
       <path id="DejaVuSans-4c" d="M 628 4666 
L 1259 4666 
L 1259 531 
L 3531 531 
L 3531 0 
L 628 0 
L 628 4666 
z
" transform="scale(0.015625)"/>
       <path id="DejaVuSans-54" d="M -19 4666 
L 3928 4666 
L 3928 4134 
L 2272 4134 
L 2272 0 
L 1638 0 
L 1638 4134 
L -19 4134 
L -19 4666 
z
" transform="scale(0.015625)"/>
      </defs>
      <use xlink:href="#DejaVuSans-4c"/>
      <use xlink:href="#DejaVuSans-53" x="55.712891"/>
      <use xlink:href="#DejaVuSans-54" x="119.189453"/>
      <use xlink:href="#DejaVuSans-4d" x="180.273438"/>
      <use xlink:href="#DejaVuSans-20" x="266.552734"/>
      <use xlink:href="#DejaVuSans-44" x="298.339844"/>
      <use xlink:href="#DejaVuSans-4f" x="375.341797"/>
     </g>
    </g>
    <g id="line2d_22">
     <path d="M 562.15625 79.616562 
L 572.15625 79.616562 
L 582.15625 79.616562 
" style="fill: none; stroke: #ff7f0e; stroke-width: 1.5; stroke-linecap: square"/>
    </g>
    <g id="text_22">
     <!-- Measured -->
     <g transform="translate(590.15625 83.116562)scale(0.1 -0.1)">
      <defs>
       <path id="DejaVuSans-64" d="M 2906 2969 
L 2906 4863 
L 3481 4863 
L 3481 0 
L 2906 0 
L 2906 525 
Q 2725 213 2448 61 
Q 2172 -91 1784 -91 
Q 1150 -91 751 415 
Q 353 922 353 1747 
Q 353 2572 751 3078 
Q 1150 3584 1784 3584 
Q 2172 3584 2448 3432 
Q 2725 3281 2906 2969 
z
M 947 1747 
Q 947 1113 1208 752 
Q 1469 391 1925 391 
Q 2381 391 2643 752 
Q 2906 1113 2906 1747 
Q 2906 2381 2643 2742 
Q 2381 3103 1925 3103 
Q 1469 3103 1208 2742 
Q 947 2381 947 1747 
z
" transform="scale(0.015625)"/>
      </defs>
      <use xlink:href="#DejaVuSans-4d"/>
      <use xlink:href="#DejaVuSans-65" x="86.279297"/>
      <use xlink:href="#DejaVuSans-61" x="147.802734"/>
      <use xlink:href="#DejaVuSans-73" x="209.082031"/>
      <use xlink:href="#DejaVuSans-75" x="261.181641"/>
      <use xlink:href="#DejaVuSans-72" x="324.560547"/>
      <use xlink:href="#DejaVuSans-65" x="363.423828"/>
      <use xlink:href="#DejaVuSans-64" x="424.947266"/>
     </g>
    </g>
   </g>
  </g>
 </g>
 <defs>
  <clipPath id="p7e5a20a205">
   <rect x="90" y="51.84" width="558" height="326.16"/>
  </clipPath>
 </defs>
</svg>
