<?xml version="1.0" encoding="utf-8" standalone="no"?>
<!DOCTYPE svg PUBLIC "-//W3C//DTD SVG 1.1//EN"
  "http://www.w3.org/Graphics/SVG/1.1/DTD/svg11.dtd">
<svg xmlns:xlink="http://www.w3.org/1999/xlink" width="720pt" height="432pt" viewBox="0 0 720 432" xmlns="http://www.w3.org/2000/svg" version="1.1">
 <metadata>
  <rdf:RDF xmlns:dc="http://purl.org/dc/elements/1.1/" xmlns:cc="http://creativecommons.org/ns#" xmlns:rdf="http://www.w3.org/1999/02/22-rdf-syntax-ns#">
   <cc:Work>
    <dc:type rdf:resource="http://purl.org/dc/dcmitype/StillImage"/>
    <dc:date>2022-11-01T15:53:36.326704</dc:date>
    <dc:format>image/svg+xml</dc:format>
    <dc:creator>
     <cc:Agent>
      <dc:title>Matplotlib v3.5.1, https://matplotlib.org/</dc:title>
     </cc:Agent>
    </dc:creator>
   </cc:Work>
  </rdf:RDF>
 </metadata>
 <defs>
  <style type="text/css">*{stroke-linejoin: round; stroke-linecap: butt}</style>
 </defs>
 <g id="figure_1">
  <g id="patch_1">
   <path d="M 0 432 
L 720 432 
L 720 0 
L 0 0 
L 0 432 
z
" style="fill: none"/>
  </g>
  <g id="axes_1">
   <g id="patch_2">
    <path d="M 90 378 
L 648 378 
L 648 51.84 
L 90 51.84 
z
" style="fill: #ffffff"/>
   </g>
   <g id="matplotlib.axis_1">
    <g id="xtick_1">
     <g id="line2d_1">
      <defs>
       <path id="mbe6c159802" d="M 0 0 
L 0 3.5 
" style="stroke: #000000; stroke-width: 0.8"/>
      </defs>
      <g>
       <use xlink:href="#mbe6c159802" x="103.373554" y="378" style="stroke: #000000; stroke-width: 0.8"/>
      </g>
     </g>
     <g id="text_1">
      <!-- 2017-01 -->
      <g transform="translate(82.482147 392.598437)scale(0.1 -0.1)">
       <defs>
        <path id="DejaVuSans-32" d="M 1228 531 
L 3431 531 
L 3431 0 
L 469 0 
L 469 531 
Q 828 903 1448 1529 
Q 2069 2156 2228 2338 
Q 2531 2678 2651 2914 
Q 2772 3150 2772 3378 
Q 2772 3750 2511 3984 
Q 2250 4219 1831 4219 
Q 1534 4219 1204 4116 
Q 875 4013 500 3803 
L 500 4441 
Q 881 4594 1212 4672 
Q 1544 4750 1819 4750 
Q 2544 4750 2975 4387 
Q 3406 4025 3406 3419 
Q 3406 3131 3298 2873 
Q 3191 2616 2906 2266 
Q 2828 2175 2409 1742 
Q 1991 1309 1228 531 
z
" transform="scale(0.015625)"/>
        <path id="DejaVuSans-30" d="M 2034 4250 
Q 1547 4250 1301 3770 
Q 1056 3291 1056 2328 
Q 1056 1369 1301 889 
Q 1547 409 2034 409 
Q 2525 409 2770 889 
Q 3016 1369 3016 2328 
Q 3016 3291 2770 3770 
Q 2525 4250 2034 4250 
z
M 2034 4750 
Q 2819 4750 3233 4129 
Q 3647 3509 3647 2328 
Q 3647 1150 3233 529 
Q 2819 -91 2034 -91 
Q 1250 -91 836 529 
Q 422 1150 422 2328 
Q 422 3509 836 4129 
Q 1250 4750 2034 4750 
z
" transform="scale(0.015625)"/>
        <path id="DejaVuSans-31" d="M 794 531 
L 1825 531 
L 1825 4091 
L 703 3866 
L 703 4441 
L 1819 4666 
L 2450 4666 
L 2450 531 
L 3481 531 
L 3481 0 
L 794 0 
L 794 531 
z
" transform="scale(0.015625)"/>
        <path id="DejaVuSans-37" d="M 525 4666 
L 3525 4666 
L 3525 4397 
L 1831 0 
L 1172 0 
L 2766 4134 
L 525 4134 
L 525 4666 
z
" transform="scale(0.015625)"/>
        <path id="DejaVuSans-2d" d="M 313 2009 
L 1997 2009 
L 1997 1497 
L 313 1497 
L 313 2009 
z
" transform="scale(0.015625)"/>
       </defs>
       <use xlink:href="#DejaVuSans-32"/>
       <use xlink:href="#DejaVuSans-30" x="63.623047"/>
       <use xlink:href="#DejaVuSans-31" x="127.246094"/>
       <use xlink:href="#DejaVuSans-37" x="190.869141"/>
       <use xlink:href="#DejaVuSans-2d" x="254.492188"/>
       <use xlink:href="#DejaVuSans-30" x="290.576172"/>
       <use xlink:href="#DejaVuSans-31" x="354.199219"/>
      </g>
     </g>
    </g>
    <g id="xtick_2">
     <g id="line2d_2">
      <g>
       <use xlink:href="#mbe6c159802" x="158.712397" y="378" style="stroke: #000000; stroke-width: 0.8"/>
      </g>
     </g>
     <g id="text_2">
      <!-- 2017-05 -->
      <g transform="translate(137.82099 392.598437)scale(0.1 -0.1)">
       <defs>
        <path id="DejaVuSans-35" d="M 691 4666 
L 3169 4666 
L 3169 4134 
L 1269 4134 
L 1269 2991 
Q 1406 3038 1543 3061 
Q 1681 3084 1819 3084 
Q 2600 3084 3056 2656 
Q 3513 2228 3513 1497 
Q 3513 744 3044 326 
Q 2575 -91 1722 -91 
Q 1428 -91 1123 -41 
Q 819 9 494 109 
L 494 744 
Q 775 591 1075 516 
Q 1375 441 1709 441 
Q 2250 441 2565 725 
Q 2881 1009 2881 1497 
Q 2881 1984 2565 2268 
Q 2250 2553 1709 2553 
Q 1456 2553 1204 2497 
Q 953 2441 691 2322 
L 691 4666 
z
" transform="scale(0.015625)"/>
       </defs>
       <use xlink:href="#DejaVuSans-32"/>
       <use xlink:href="#DejaVuSans-30" x="63.623047"/>
       <use xlink:href="#DejaVuSans-31" x="127.246094"/>
       <use xlink:href="#DejaVuSans-37" x="190.869141"/>
       <use xlink:href="#DejaVuSans-2d" x="254.492188"/>
       <use xlink:href="#DejaVuSans-30" x="290.576172"/>
       <use xlink:href="#DejaVuSans-35" x="354.199219"/>
      </g>
     </g>
    </g>
    <g id="xtick_3">
     <g id="line2d_3">
      <g>
       <use xlink:href="#mbe6c159802" x="215.434711" y="378" style="stroke: #000000; stroke-width: 0.8"/>
      </g>
     </g>
     <g id="text_3">
      <!-- 2017-09 -->
      <g transform="translate(194.543304 392.598437)scale(0.1 -0.1)">
       <defs>
        <path id="DejaVuSans-39" d="M 703 97 
L 703 672 
Q 941 559 1184 500 
Q 1428 441 1663 441 
Q 2288 441 2617 861 
Q 2947 1281 2994 2138 
Q 2813 1869 2534 1725 
Q 2256 1581 1919 1581 
Q 1219 1581 811 2004 
Q 403 2428 403 3163 
Q 403 3881 828 4315 
Q 1253 4750 1959 4750 
Q 2769 4750 3195 4129 
Q 3622 3509 3622 2328 
Q 3622 1225 3098 567 
Q 2575 -91 1691 -91 
Q 1453 -91 1209 -44 
Q 966 3 703 97 
z
M 1959 2075 
Q 2384 2075 2632 2365 
Q 2881 2656 2881 3163 
Q 2881 3666 2632 3958 
Q 2384 4250 1959 4250 
Q 1534 4250 1286 3958 
Q 1038 3666 1038 3163 
Q 1038 2656 1286 2365 
Q 1534 2075 1959 2075 
z
" transform="scale(0.015625)"/>
       </defs>
       <use xlink:href="#DejaVuSans-32"/>
       <use xlink:href="#DejaVuSans-30" x="63.623047"/>
       <use xlink:href="#DejaVuSans-31" x="127.246094"/>
       <use xlink:href="#DejaVuSans-37" x="190.869141"/>
       <use xlink:href="#DejaVuSans-2d" x="254.492188"/>
       <use xlink:href="#DejaVuSans-30" x="290.576172"/>
       <use xlink:href="#DejaVuSans-39" x="354.199219"/>
      </g>
     </g>
    </g>
    <g id="xtick_4">
     <g id="line2d_4">
      <g>
       <use xlink:href="#mbe6c159802" x="271.695868" y="378" style="stroke: #000000; stroke-width: 0.8"/>
      </g>
     </g>
     <g id="text_4">
      <!-- 2018-01 -->
      <g transform="translate(250.804462 392.598437)scale(0.1 -0.1)">
       <defs>
        <path id="DejaVuSans-38" d="M 2034 2216 
Q 1584 2216 1326 1975 
Q 1069 1734 1069 1313 
Q 1069 891 1326 650 
Q 1584 409 2034 409 
Q 2484 409 2743 651 
Q 3003 894 3003 1313 
Q 3003 1734 2745 1975 
Q 2488 2216 2034 2216 
z
M 1403 2484 
Q 997 2584 770 2862 
Q 544 3141 544 3541 
Q 544 4100 942 4425 
Q 1341 4750 2034 4750 
Q 2731 4750 3128 4425 
Q 3525 4100 3525 3541 
Q 3525 3141 3298 2862 
Q 3072 2584 2669 2484 
Q 3125 2378 3379 2068 
Q 3634 1759 3634 1313 
Q 3634 634 3220 271 
Q 2806 -91 2034 -91 
Q 1263 -91 848 271 
Q 434 634 434 1313 
Q 434 1759 690 2068 
Q 947 2378 1403 2484 
z
M 1172 3481 
Q 1172 3119 1398 2916 
Q 1625 2713 2034 2713 
Q 2441 2713 2670 2916 
Q 2900 3119 2900 3481 
Q 2900 3844 2670 4047 
Q 2441 4250 2034 4250 
Q 1625 4250 1398 4047 
Q 1172 3844 1172 3481 
z
" transform="scale(0.015625)"/>
       </defs>
       <use xlink:href="#DejaVuSans-32"/>
       <use xlink:href="#DejaVuSans-30" x="63.623047"/>
       <use xlink:href="#DejaVuSans-31" x="127.246094"/>
       <use xlink:href="#DejaVuSans-38" x="190.869141"/>
       <use xlink:href="#DejaVuSans-2d" x="254.492188"/>
       <use xlink:href="#DejaVuSans-30" x="290.576172"/>
       <use xlink:href="#DejaVuSans-31" x="354.199219"/>
      </g>
     </g>
    </g>
    <g id="xtick_5">
     <g id="line2d_5">
      <g>
       <use xlink:href="#mbe6c159802" x="327.034711" y="378" style="stroke: #000000; stroke-width: 0.8"/>
      </g>
     </g>
     <g id="text_5">
      <!-- 2018-05 -->
      <g transform="translate(306.143304 392.598437)scale(0.1 -0.1)">
       <use xlink:href="#DejaVuSans-32"/>
       <use xlink:href="#DejaVuSans-30" x="63.623047"/>
       <use xlink:href="#DejaVuSans-31" x="127.246094"/>
       <use xlink:href="#DejaVuSans-38" x="190.869141"/>
       <use xlink:href="#DejaVuSans-2d" x="254.492188"/>
       <use xlink:href="#DejaVuSans-30" x="290.576172"/>
       <use xlink:href="#DejaVuSans-35" x="354.199219"/>
      </g>
     </g>
    </g>
    <g id="xtick_6">
     <g id="line2d_6">
      <g>
       <use xlink:href="#mbe6c159802" x="383.757025" y="378" style="stroke: #000000; stroke-width: 0.8"/>
      </g>
     </g>
     <g id="text_6">
      <!-- 2018-09 -->
      <g transform="translate(362.865619 392.598437)scale(0.1 -0.1)">
       <use xlink:href="#DejaVuSans-32"/>
       <use xlink:href="#DejaVuSans-30" x="63.623047"/>
       <use xlink:href="#DejaVuSans-31" x="127.246094"/>
       <use xlink:href="#DejaVuSans-38" x="190.869141"/>
       <use xlink:href="#DejaVuSans-2d" x="254.492188"/>
       <use xlink:href="#DejaVuSans-30" x="290.576172"/>
       <use xlink:href="#DejaVuSans-39" x="354.199219"/>
      </g>
     </g>
    </g>
    <g id="xtick_7">
     <g id="line2d_7">
      <g>
       <use xlink:href="#mbe6c159802" x="440.018182" y="378" style="stroke: #000000; stroke-width: 0.8"/>
      </g>
     </g>
     <g id="text_7">
      <!-- 2019-01 -->
      <g transform="translate(419.126776 392.598437)scale(0.1 -0.1)">
       <use xlink:href="#DejaVuSans-32"/>
       <use xlink:href="#DejaVuSans-30" x="63.623047"/>
       <use xlink:href="#DejaVuSans-31" x="127.246094"/>
       <use xlink:href="#DejaVuSans-39" x="190.869141"/>
       <use xlink:href="#DejaVuSans-2d" x="254.492188"/>
       <use xlink:href="#DejaVuSans-30" x="290.576172"/>
       <use xlink:href="#DejaVuSans-31" x="354.199219"/>
      </g>
     </g>
    </g>
    <g id="xtick_8">
     <g id="line2d_8">
      <g>
       <use xlink:href="#mbe6c159802" x="495.357025" y="378" style="stroke: #000000; stroke-width: 0.8"/>
      </g>
     </g>
     <g id="text_8">
      <!-- 2019-05 -->
      <g transform="translate(474.465619 392.598437)scale(0.1 -0.1)">
       <use xlink:href="#DejaVuSans-32"/>
       <use xlink:href="#DejaVuSans-30" x="63.623047"/>
       <use xlink:href="#DejaVuSans-31" x="127.246094"/>
       <use xlink:href="#DejaVuSans-39" x="190.869141"/>
       <use xlink:href="#DejaVuSans-2d" x="254.492188"/>
       <use xlink:href="#DejaVuSans-30" x="290.576172"/>
       <use xlink:href="#DejaVuSans-35" x="354.199219"/>
      </g>
     </g>
    </g>
    <g id="xtick_9">
     <g id="line2d_9">
      <g>
       <use xlink:href="#mbe6c159802" x="552.079339" y="378" style="stroke: #000000; stroke-width: 0.8"/>
      </g>
     </g>
     <g id="text_9">
      <!-- 2019-09 -->
      <g transform="translate(531.187933 392.598437)scale(0.1 -0.1)">
       <use xlink:href="#DejaVuSans-32"/>
       <use xlink:href="#DejaVuSans-30" x="63.623047"/>
       <use xlink:href="#DejaVuSans-31" x="127.246094"/>
       <use xlink:href="#DejaVuSans-39" x="190.869141"/>
       <use xlink:href="#DejaVuSans-2d" x="254.492188"/>
       <use xlink:href="#DejaVuSans-30" x="290.576172"/>
       <use xlink:href="#DejaVuSans-39" x="354.199219"/>
      </g>
     </g>
    </g>
    <g id="xtick_10">
     <g id="line2d_10">
      <g>
       <use xlink:href="#mbe6c159802" x="608.340496" y="378" style="stroke: #000000; stroke-width: 0.8"/>
      </g>
     </g>
     <g id="text_10">
      <!-- 2020-01 -->
      <g transform="translate(587.44909 392.598437)scale(0.1 -0.1)">
       <use xlink:href="#DejaVuSans-32"/>
       <use xlink:href="#DejaVuSans-30" x="63.623047"/>
       <use xlink:href="#DejaVuSans-32" x="127.246094"/>
       <use xlink:href="#DejaVuSans-30" x="190.869141"/>
       <use xlink:href="#DejaVuSans-2d" x="254.492188"/>
       <use xlink:href="#DejaVuSans-30" x="290.576172"/>
       <use xlink:href="#DejaVuSans-31" x="354.199219"/>
      </g>
     </g>
    </g>
    <g id="text_11">
     <!-- Date [Year-Month] -->
     <g transform="translate(323.814844 406.276563)scale(0.1 -0.1)">
      <defs>
       <path id="DejaVuSans-44" d="M 1259 4147 
L 1259 519 
L 2022 519 
Q 2988 519 3436 956 
Q 3884 1394 3884 2338 
Q 3884 3275 3436 3711 
Q 2988 4147 2022 4147 
L 1259 4147 
z
M 628 4666 
L 1925 4666 
Q 3281 4666 3915 4102 
Q 4550 3538 4550 2338 
Q 4550 1131 3912 565 
Q 3275 0 1925 0 
L 628 0 
L 628 4666 
z
" transform="scale(0.015625)"/>
       <path id="DejaVuSans-61" d="M 2194 1759 
Q 1497 1759 1228 1600 
Q 959 1441 959 1056 
Q 959 750 1161 570 
Q 1363 391 1709 391 
Q 2188 391 2477 730 
Q 2766 1069 2766 1631 
L 2766 1759 
L 2194 1759 
z
M 3341 1997 
L 3341 0 
L 2766 0 
L 2766 531 
Q 2569 213 2275 61 
Q 1981 -91 1556 -91 
Q 1019 -91 701 211 
Q 384 513 384 1019 
Q 384 1609 779 1909 
Q 1175 2209 1959 2209 
L 2766 2209 
L 2766 2266 
Q 2766 2663 2505 2880 
Q 2244 3097 1772 3097 
Q 1472 3097 1187 3025 
Q 903 2953 641 2809 
L 641 3341 
Q 956 3463 1253 3523 
Q 1550 3584 1831 3584 
Q 2591 3584 2966 3190 
Q 3341 2797 3341 1997 
z
" transform="scale(0.015625)"/>
       <path id="DejaVuSans-74" d="M 1172 4494 
L 1172 3500 
L 2356 3500 
L 2356 3053 
L 1172 3053 
L 1172 1153 
Q 1172 725 1289 603 
Q 1406 481 1766 481 
L 2356 481 
L 2356 0 
L 1766 0 
Q 1100 0 847 248 
Q 594 497 594 1153 
L 594 3053 
L 172 3053 
L 172 3500 
L 594 3500 
L 594 4494 
L 1172 4494 
z
" transform="scale(0.015625)"/>
       <path id="DejaVuSans-65" d="M 3597 1894 
L 3597 1613 
L 953 1613 
Q 991 1019 1311 708 
Q 1631 397 2203 397 
Q 2534 397 2845 478 
Q 3156 559 3463 722 
L 3463 178 
Q 3153 47 2828 -22 
Q 2503 -91 2169 -91 
Q 1331 -91 842 396 
Q 353 884 353 1716 
Q 353 2575 817 3079 
Q 1281 3584 2069 3584 
Q 2775 3584 3186 3129 
Q 3597 2675 3597 1894 
z
M 3022 2063 
Q 3016 2534 2758 2815 
Q 2500 3097 2075 3097 
Q 1594 3097 1305 2825 
Q 1016 2553 972 2059 
L 3022 2063 
z
" transform="scale(0.015625)"/>
       <path id="DejaVuSans-20" transform="scale(0.015625)"/>
       <path id="DejaVuSans-5b" d="M 550 4863 
L 1875 4863 
L 1875 4416 
L 1125 4416 
L 1125 -397 
L 1875 -397 
L 1875 -844 
L 550 -844 
L 550 4863 
z
" transform="scale(0.015625)"/>
       <path id="DejaVuSans-59" d="M -13 4666 
L 666 4666 
L 1959 2747 
L 3244 4666 
L 3922 4666 
L 2272 2222 
L 2272 0 
L 1638 0 
L 1638 2222 
L -13 4666 
z
" transform="scale(0.015625)"/>
       <path id="DejaVuSans-72" d="M 2631 2963 
Q 2534 3019 2420 3045 
Q 2306 3072 2169 3072 
Q 1681 3072 1420 2755 
Q 1159 2438 1159 1844 
L 1159 0 
L 581 0 
L 581 3500 
L 1159 3500 
L 1159 2956 
Q 1341 3275 1631 3429 
Q 1922 3584 2338 3584 
Q 2397 3584 2469 3576 
Q 2541 3569 2628 3553 
L 2631 2963 
z
" transform="scale(0.015625)"/>
       <path id="DejaVuSans-4d" d="M 628 4666 
L 1569 4666 
L 2759 1491 
L 3956 4666 
L 4897 4666 
L 4897 0 
L 4281 0 
L 4281 4097 
L 3078 897 
L 2444 897 
L 1241 4097 
L 1241 0 
L 628 0 
L 628 4666 
z
" transform="scale(0.015625)"/>
       <path id="DejaVuSans-6f" d="M 1959 3097 
Q 1497 3097 1228 2736 
Q 959 2375 959 1747 
Q 959 1119 1226 758 
Q 1494 397 1959 397 
Q 2419 397 2687 759 
Q 2956 1122 2956 1747 
Q 2956 2369 2687 2733 
Q 2419 3097 1959 3097 
z
M 1959 3584 
Q 2709 3584 3137 3096 
Q 3566 2609 3566 1747 
Q 3566 888 3137 398 
Q 2709 -91 1959 -91 
Q 1206 -91 779 398 
Q 353 888 353 1747 
Q 353 2609 779 3096 
Q 1206 3584 1959 3584 
z
" transform="scale(0.015625)"/>
       <path id="DejaVuSans-6e" d="M 3513 2113 
L 3513 0 
L 2938 0 
L 2938 2094 
Q 2938 2591 2744 2837 
Q 2550 3084 2163 3084 
Q 1697 3084 1428 2787 
Q 1159 2491 1159 1978 
L 1159 0 
L 581 0 
L 581 3500 
L 1159 3500 
L 1159 2956 
Q 1366 3272 1645 3428 
Q 1925 3584 2291 3584 
Q 2894 3584 3203 3211 
Q 3513 2838 3513 2113 
z
" transform="scale(0.015625)"/>
       <path id="DejaVuSans-68" d="M 3513 2113 
L 3513 0 
L 2938 0 
L 2938 2094 
Q 2938 2591 2744 2837 
Q 2550 3084 2163 3084 
Q 1697 3084 1428 2787 
Q 1159 2491 1159 1978 
L 1159 0 
L 581 0 
L 581 4863 
L 1159 4863 
L 1159 2956 
Q 1366 3272 1645 3428 
Q 1925 3584 2291 3584 
Q 2894 3584 3203 3211 
Q 3513 2838 3513 2113 
z
" transform="scale(0.015625)"/>
       <path id="DejaVuSans-5d" d="M 1947 4863 
L 1947 -844 
L 622 -844 
L 622 -397 
L 1369 -397 
L 1369 4416 
L 622 4416 
L 622 4863 
L 1947 4863 
z
" transform="scale(0.015625)"/>
      </defs>
      <use xlink:href="#DejaVuSans-44"/>
      <use xlink:href="#DejaVuSans-61" x="77.001953"/>
      <use xlink:href="#DejaVuSans-74" x="138.28125"/>
      <use xlink:href="#DejaVuSans-65" x="177.490234"/>
      <use xlink:href="#DejaVuSans-20" x="239.013672"/>
      <use xlink:href="#DejaVuSans-5b" x="270.800781"/>
      <use xlink:href="#DejaVuSans-59" x="309.814453"/>
      <use xlink:href="#DejaVuSans-65" x="357.648438"/>
      <use xlink:href="#DejaVuSans-61" x="419.171875"/>
      <use xlink:href="#DejaVuSans-72" x="480.451172"/>
      <use xlink:href="#DejaVuSans-2d" x="515.189453"/>
      <use xlink:href="#DejaVuSans-4d" x="551.273438"/>
      <use xlink:href="#DejaVuSans-6f" x="637.552734"/>
      <use xlink:href="#DejaVuSans-6e" x="698.734375"/>
      <use xlink:href="#DejaVuSans-74" x="762.113281"/>
      <use xlink:href="#DejaVuSans-68" x="801.322266"/>
      <use xlink:href="#DejaVuSans-5d" x="864.701172"/>
     </g>
    </g>
   </g>
   <g id="matplotlib.axis_2">
    <g id="ytick_1">
     <g id="line2d_11">
      <defs>
       <path id="ma74d574d8b" d="M 0 0 
L -3.5 0 
" style="stroke: #000000; stroke-width: 0.8"/>
      </defs>
      <g>
       <use xlink:href="#ma74d574d8b" x="90" y="363.174629" style="stroke: #000000; stroke-width: 0.8"/>
      </g>
     </g>
     <g id="text_12">
      <!-- 7.40 -->
      <g transform="translate(60.734375 366.973848)scale(0.1 -0.1)">
       <defs>
        <path id="DejaVuSans-2e" d="M 684 794 
L 1344 794 
L 1344 0 
L 684 0 
L 684 794 
z
" transform="scale(0.015625)"/>
        <path id="DejaVuSans-34" d="M 2419 4116 
L 825 1625 
L 2419 1625 
L 2419 4116 
z
M 2253 4666 
L 3047 4666 
L 3047 1625 
L 3713 1625 
L 3713 1100 
L 3047 1100 
L 3047 0 
L 2419 0 
L 2419 1100 
L 313 1100 
L 313 1709 
L 2253 4666 
z
" transform="scale(0.015625)"/>
       </defs>
       <use xlink:href="#DejaVuSans-37"/>
       <use xlink:href="#DejaVuSans-2e" x="63.623047"/>
       <use xlink:href="#DejaVuSans-34" x="95.410156"/>
       <use xlink:href="#DejaVuSans-30" x="159.033203"/>
      </g>
     </g>
    </g>
    <g id="ytick_2">
     <g id="line2d_12">
      <g>
       <use xlink:href="#ma74d574d8b" x="90" y="319.159998" style="stroke: #000000; stroke-width: 0.8"/>
      </g>
     </g>
     <g id="text_13">
      <!-- 7.45 -->
      <g transform="translate(60.734375 322.959216)scale(0.1 -0.1)">
       <use xlink:href="#DejaVuSans-37"/>
       <use xlink:href="#DejaVuSans-2e" x="63.623047"/>
       <use xlink:href="#DejaVuSans-34" x="95.410156"/>
       <use xlink:href="#DejaVuSans-35" x="159.033203"/>
      </g>
     </g>
    </g>
    <g id="ytick_3">
     <g id="line2d_13">
      <g>
       <use xlink:href="#ma74d574d8b" x="90" y="275.145366" style="stroke: #000000; stroke-width: 0.8"/>
      </g>
     </g>
     <g id="text_14">
      <!-- 7.50 -->
      <g transform="translate(60.734375 278.944585)scale(0.1 -0.1)">
       <use xlink:href="#DejaVuSans-37"/>
       <use xlink:href="#DejaVuSans-2e" x="63.623047"/>
       <use xlink:href="#DejaVuSans-35" x="95.410156"/>
       <use xlink:href="#DejaVuSans-30" x="159.033203"/>
      </g>
     </g>
    </g>
    <g id="ytick_4">
     <g id="line2d_14">
      <g>
       <use xlink:href="#ma74d574d8b" x="90" y="231.130734" style="stroke: #000000; stroke-width: 0.8"/>
      </g>
     </g>
     <g id="text_15">
      <!-- 7.55 -->
      <g transform="translate(60.734375 234.929953)scale(0.1 -0.1)">
       <use xlink:href="#DejaVuSans-37"/>
       <use xlink:href="#DejaVuSans-2e" x="63.623047"/>
       <use xlink:href="#DejaVuSans-35" x="95.410156"/>
       <use xlink:href="#DejaVuSans-35" x="159.033203"/>
      </g>
     </g>
    </g>
    <g id="ytick_5">
     <g id="line2d_15">
      <g>
       <use xlink:href="#ma74d574d8b" x="90" y="187.116102" style="stroke: #000000; stroke-width: 0.8"/>
      </g>
     </g>
     <g id="text_16">
      <!-- 7.60 -->
      <g transform="translate(60.734375 190.915321)scale(0.1 -0.1)">
       <defs>
        <path id="DejaVuSans-36" d="M 2113 2584 
Q 1688 2584 1439 2293 
Q 1191 2003 1191 1497 
Q 1191 994 1439 701 
Q 1688 409 2113 409 
Q 2538 409 2786 701 
Q 3034 994 3034 1497 
Q 3034 2003 2786 2293 
Q 2538 2584 2113 2584 
z
M 3366 4563 
L 3366 3988 
Q 3128 4100 2886 4159 
Q 2644 4219 2406 4219 
Q 1781 4219 1451 3797 
Q 1122 3375 1075 2522 
Q 1259 2794 1537 2939 
Q 1816 3084 2150 3084 
Q 2853 3084 3261 2657 
Q 3669 2231 3669 1497 
Q 3669 778 3244 343 
Q 2819 -91 2113 -91 
Q 1303 -91 875 529 
Q 447 1150 447 2328 
Q 447 3434 972 4092 
Q 1497 4750 2381 4750 
Q 2619 4750 2861 4703 
Q 3103 4656 3366 4563 
z
" transform="scale(0.015625)"/>
       </defs>
       <use xlink:href="#DejaVuSans-37"/>
       <use xlink:href="#DejaVuSans-2e" x="63.623047"/>
       <use xlink:href="#DejaVuSans-36" x="95.410156"/>
       <use xlink:href="#DejaVuSans-30" x="159.033203"/>
      </g>
     </g>
    </g>
    <g id="ytick_6">
     <g id="line2d_16">
      <g>
       <use xlink:href="#ma74d574d8b" x="90" y="143.101471" style="stroke: #000000; stroke-width: 0.8"/>
      </g>
     </g>
     <g id="text_17">
      <!-- 7.65 -->
      <g transform="translate(60.734375 146.900689)scale(0.1 -0.1)">
       <use xlink:href="#DejaVuSans-37"/>
       <use xlink:href="#DejaVuSans-2e" x="63.623047"/>
       <use xlink:href="#DejaVuSans-36" x="95.410156"/>
       <use xlink:href="#DejaVuSans-35" x="159.033203"/>
      </g>
     </g>
    </g>
    <g id="ytick_7">
     <g id="line2d_17">
      <g>
       <use xlink:href="#ma74d574d8b" x="90" y="99.086839" style="stroke: #000000; stroke-width: 0.8"/>
      </g>
     </g>
     <g id="text_18">
      <!-- 7.70 -->
      <g transform="translate(60.734375 102.886058)scale(0.1 -0.1)">
       <use xlink:href="#DejaVuSans-37"/>
       <use xlink:href="#DejaVuSans-2e" x="63.623047"/>
       <use xlink:href="#DejaVuSans-37" x="95.410156"/>
       <use xlink:href="#DejaVuSans-30" x="159.033203"/>
      </g>
     </g>
    </g>
    <g id="ytick_8">
     <g id="line2d_18">
      <g>
       <use xlink:href="#ma74d574d8b" x="90" y="55.072207" style="stroke: #000000; stroke-width: 0.8"/>
      </g>
     </g>
     <g id="text_19">
      <!-- 7.75 -->
      <g transform="translate(60.734375 58.871426)scale(0.1 -0.1)">
       <use xlink:href="#DejaVuSans-37"/>
       <use xlink:href="#DejaVuSans-2e" x="63.623047"/>
       <use xlink:href="#DejaVuSans-37" x="95.410156"/>
       <use xlink:href="#DejaVuSans-35" x="159.033203"/>
      </g>
     </g>
    </g>
    <g id="text_20">
     <!-- Spring pH [uS/cm] -->
     <g transform="translate(54.654687 260.716875)rotate(-90)scale(0.1 -0.1)">
      <defs>
       <path id="DejaVuSans-53" d="M 3425 4513 
L 3425 3897 
Q 3066 4069 2747 4153 
Q 2428 4238 2131 4238 
Q 1616 4238 1336 4038 
Q 1056 3838 1056 3469 
Q 1056 3159 1242 3001 
Q 1428 2844 1947 2747 
L 2328 2669 
Q 3034 2534 3370 2195 
Q 3706 1856 3706 1288 
Q 3706 609 3251 259 
Q 2797 -91 1919 -91 
Q 1588 -91 1214 -16 
Q 841 59 441 206 
L 441 856 
Q 825 641 1194 531 
Q 1563 422 1919 422 
Q 2459 422 2753 634 
Q 3047 847 3047 1241 
Q 3047 1584 2836 1778 
Q 2625 1972 2144 2069 
L 1759 2144 
Q 1053 2284 737 2584 
Q 422 2884 422 3419 
Q 422 4038 858 4394 
Q 1294 4750 2059 4750 
Q 2388 4750 2728 4690 
Q 3069 4631 3425 4513 
z
" transform="scale(0.015625)"/>
       <path id="DejaVuSans-70" d="M 1159 525 
L 1159 -1331 
L 581 -1331 
L 581 3500 
L 1159 3500 
L 1159 2969 
Q 1341 3281 1617 3432 
Q 1894 3584 2278 3584 
Q 2916 3584 3314 3078 
Q 3713 2572 3713 1747 
Q 3713 922 3314 415 
Q 2916 -91 2278 -91 
Q 1894 -91 1617 61 
Q 1341 213 1159 525 
z
M 3116 1747 
Q 3116 2381 2855 2742 
Q 2594 3103 2138 3103 
Q 1681 3103 1420 2742 
Q 1159 2381 1159 1747 
Q 1159 1113 1420 752 
Q 1681 391 2138 391 
Q 2594 391 2855 752 
Q 3116 1113 3116 1747 
z
" transform="scale(0.015625)"/>
       <path id="DejaVuSans-69" d="M 603 3500 
L 1178 3500 
L 1178 0 
L 603 0 
L 603 3500 
z
M 603 4863 
L 1178 4863 
L 1178 4134 
L 603 4134 
L 603 4863 
z
" transform="scale(0.015625)"/>
       <path id="DejaVuSans-67" d="M 2906 1791 
Q 2906 2416 2648 2759 
Q 2391 3103 1925 3103 
Q 1463 3103 1205 2759 
Q 947 2416 947 1791 
Q 947 1169 1205 825 
Q 1463 481 1925 481 
Q 2391 481 2648 825 
Q 2906 1169 2906 1791 
z
M 3481 434 
Q 3481 -459 3084 -895 
Q 2688 -1331 1869 -1331 
Q 1566 -1331 1297 -1286 
Q 1028 -1241 775 -1147 
L 775 -588 
Q 1028 -725 1275 -790 
Q 1522 -856 1778 -856 
Q 2344 -856 2625 -561 
Q 2906 -266 2906 331 
L 2906 616 
Q 2728 306 2450 153 
Q 2172 0 1784 0 
Q 1141 0 747 490 
Q 353 981 353 1791 
Q 353 2603 747 3093 
Q 1141 3584 1784 3584 
Q 2172 3584 2450 3431 
Q 2728 3278 2906 2969 
L 2906 3500 
L 3481 3500 
L 3481 434 
z
" transform="scale(0.015625)"/>
       <path id="DejaVuSans-48" d="M 628 4666 
L 1259 4666 
L 1259 2753 
L 3553 2753 
L 3553 4666 
L 4184 4666 
L 4184 0 
L 3553 0 
L 3553 2222 
L 1259 2222 
L 1259 0 
L 628 0 
L 628 4666 
z
" transform="scale(0.015625)"/>
       <path id="DejaVuSans-75" d="M 544 1381 
L 544 3500 
L 1119 3500 
L 1119 1403 
Q 1119 906 1312 657 
Q 1506 409 1894 409 
Q 2359 409 2629 706 
Q 2900 1003 2900 1516 
L 2900 3500 
L 3475 3500 
L 3475 0 
L 2900 0 
L 2900 538 
Q 2691 219 2414 64 
Q 2138 -91 1772 -91 
Q 1169 -91 856 284 
Q 544 659 544 1381 
z
M 1991 3584 
L 1991 3584 
z
" transform="scale(0.015625)"/>
       <path id="DejaVuSans-2f" d="M 1625 4666 
L 2156 4666 
L 531 -594 
L 0 -594 
L 1625 4666 
z
" transform="scale(0.015625)"/>
       <path id="DejaVuSans-63" d="M 3122 3366 
L 3122 2828 
Q 2878 2963 2633 3030 
Q 2388 3097 2138 3097 
Q 1578 3097 1268 2742 
Q 959 2388 959 1747 
Q 959 1106 1268 751 
Q 1578 397 2138 397 
Q 2388 397 2633 464 
Q 2878 531 3122 666 
L 3122 134 
Q 2881 22 2623 -34 
Q 2366 -91 2075 -91 
Q 1284 -91 818 406 
Q 353 903 353 1747 
Q 353 2603 823 3093 
Q 1294 3584 2113 3584 
Q 2378 3584 2631 3529 
Q 2884 3475 3122 3366 
z
" transform="scale(0.015625)"/>
       <path id="DejaVuSans-6d" d="M 3328 2828 
Q 3544 3216 3844 3400 
Q 4144 3584 4550 3584 
Q 5097 3584 5394 3201 
Q 5691 2819 5691 2113 
L 5691 0 
L 5113 0 
L 5113 2094 
Q 5113 2597 4934 2840 
Q 4756 3084 4391 3084 
Q 3944 3084 3684 2787 
Q 3425 2491 3425 1978 
L 3425 0 
L 2847 0 
L 2847 2094 
Q 2847 2600 2669 2842 
Q 2491 3084 2119 3084 
Q 1678 3084 1418 2786 
Q 1159 2488 1159 1978 
L 1159 0 
L 581 0 
L 581 3500 
L 1159 3500 
L 1159 2956 
Q 1356 3278 1631 3431 
Q 1906 3584 2284 3584 
Q 2666 3584 2933 3390 
Q 3200 3197 3328 2828 
z
" transform="scale(0.015625)"/>
      </defs>
      <use xlink:href="#DejaVuSans-53"/>
      <use xlink:href="#DejaVuSans-70" x="63.476562"/>
      <use xlink:href="#DejaVuSans-72" x="126.953125"/>
      <use xlink:href="#DejaVuSans-69" x="168.066406"/>
      <use xlink:href="#DejaVuSans-6e" x="195.849609"/>
      <use xlink:href="#DejaVuSans-67" x="259.228516"/>
      <use xlink:href="#DejaVuSans-20" x="322.705078"/>
      <use xlink:href="#DejaVuSans-70" x="354.492188"/>
      <use xlink:href="#DejaVuSans-48" x="417.96875"/>
      <use xlink:href="#DejaVuSans-20" x="493.164062"/>
      <use xlink:href="#DejaVuSans-5b" x="524.951172"/>
      <use xlink:href="#DejaVuSans-75" x="563.964844"/>
      <use xlink:href="#DejaVuSans-53" x="627.34375"/>
      <use xlink:href="#DejaVuSans-2f" x="690.820312"/>
      <use xlink:href="#DejaVuSans-63" x="724.511719"/>
      <use xlink:href="#DejaVuSans-6d" x="779.492188"/>
      <use xlink:href="#DejaVuSans-5d" x="876.904297"/>
     </g>
    </g>
   </g>
   <g id="line2d_19">
    <path d="M 470.454545 378 
L 470.454545 51.84 
" clip-path="url(#pf411e90adb)" style="fill: none; stroke-dasharray: 5.55,2.4; stroke-dashoffset: 0; stroke: #ff0000; stroke-width: 1.5"/>
   </g>
   <g id="line2d_20">
    <path d="M 115.363636 312.875995 
L 115.824793 316.892642 
L 116.28595 298.226082 
L 116.747107 289.824661 
L 117.208264 292.553497 
L 117.669421 310.57657 
L 118.130579 295.150948 
L 118.591736 309.37187 
L 119.052893 293.80521 
L 119.51405 295.042651 
L 119.975207 277.864127 
L 120.436364 270.24723 
L 120.897521 238.331904 
L 121.358678 252.333293 
L 121.819835 289.631154 
L 122.280992 301.678577 
L 122.742149 287.458495 
L 123.203306 276.898268 
L 123.664463 299.053422 
L 124.12562 283.583306 
L 124.586777 278.032449 
L 125.047934 287.225111 
L 125.509091 274.15684 
L 125.970248 280.331454 
L 126.431405 277.475013 
L 126.892562 279.605696 
L 127.353719 301.050622 
L 127.814876 237.723258 
L 128.276033 299.240633 
L 128.73719 266.295225 
L 129.198347 264.239259 
L 129.659504 270.214909 
L 130.120661 273.863011 
L 130.581818 255.73164 
L 131.042975 263.031201 
L 131.504132 264.229605 
L 131.965289 207.51508 
L 132.426446 223.627004 
L 132.887603 222.429019 
L 133.34876 267.771508 
L 133.809917 254.482025 
L 134.271074 245.76159 
L 134.732231 255.452082 
L 135.193388 199.822208 
L 135.654545 204.619182 
L 136.115702 260.378341 
L 136.57686 213.871029 
L 137.038017 267.428147 
L 137.499174 252.626283 
L 137.960331 197.385942 
L 138.421488 272.442555 
L 138.882645 232.964481 
L 139.343802 228.164569 
L 139.804959 227.941678 
L 140.266116 165.348887 
L 140.727273 203.567693 
L 141.18843 176.333068 
L 141.649587 229.093069 
L 142.110744 210.404682 
L 142.571901 227.799381 
L 143.033058 203.968979 
L 143.494215 174.222114 
L 143.955372 158.410736 
L 144.416529 248.194497 
L 144.877686 223.746634 
L 145.338843 190.374754 
L 145.8 204.573848 
L 146.261157 205.00074 
L 146.722314 204.272043 
L 147.183471 218.052641 
L 147.644628 259.818806 
L 148.105785 271.867909 
L 148.566942 258.816848 
L 149.028099 211.683679 
L 149.489256 234.36185 
L 149.950413 235.124127 
L 150.41157 269.611719 
L 150.872727 202.064545 
L 151.333884 262.890163 
L 151.795041 256.948933 
L 152.256198 230.958886 
L 152.717355 256.410386 
L 153.178512 235.357092 
L 153.639669 261.227508 
L 154.100826 250.044782 
L 154.561983 225.504993 
L 155.02314 270.657752 
L 155.484298 228.858845 
L 155.945455 258.741292 
L 156.406612 204.790023 
L 156.867769 244.833928 
L 157.328926 211.499826 
L 157.790083 190.46752 
L 158.712397 262.832236 
L 159.173554 209.080771 
L 159.634711 183.568407 
L 160.095868 274.642498 
L 160.557025 232.082573 
L 161.018182 241.870449 
L 161.479339 277.330617 
L 161.940496 204.424415 
L 162.401653 196.141365 
L 162.86281 213.211592 
L 163.323967 214.103574 
L 163.785124 219.952877 
L 164.246281 235.933837 
L 164.707438 258.69302 
L 165.168595 158.736887 
L 165.629752 196.574973 
L 166.090909 156.366523 
L 166.552066 188.812841 
L 167.013223 269.419051 
L 167.47438 212.948405 
L 167.935537 266.113051 
L 168.396694 125.75454 
L 168.857851 109.412171 
L 169.319008 229.196329 
L 169.780165 204.60449 
L 170.241322 204.852147 
L 170.702479 223.005764 
L 171.163636 206.847668 
L 171.624793 249.037787 
L 172.08595 186.109191 
L 172.547107 203.29611 
L 173.008264 227.534514 
L 173.469421 177.691399 
L 173.930579 174.616685 
L 174.391736 228.750129 
L 174.852893 186.3346 
L 175.31405 165.185602 
L 175.775207 277.177826 
L 176.236364 120.858084 
L 177.158678 207.588118 
L 178.080992 305.028652 
L 179.003306 266.162582 
L 179.464463 290.955485 
L 179.92562 302.148704 
L 180.386777 289.148854 
L 180.847934 307.629462 
L 181.309091 301.65633 
L 181.770248 301.257142 
L 182.231405 289.867057 
L 182.692562 296.469403 
L 183.153719 342.316018 
L 183.614876 313.05691 
L 184.53719 315.435249 
L 184.998347 303.276589 
L 185.459504 320.380397 
L 185.920661 309.425179 
L 186.381818 308.133169 
L 186.842975 321.065019 
L 187.304132 307.21852 
L 188.226446 313.338566 
L 188.687603 296.76575 
L 189.14876 304.802823 
L 189.609917 298.858235 
L 190.071074 305.805621 
L 190.532231 277.540075 
L 190.993388 326.036612 
L 191.454545 305.777077 
L 191.915702 291.832775 
L 192.37686 325.759153 
L 192.838017 296.142412 
L 193.299174 310.919511 
L 193.760331 318.858361 
L 194.221488 309.44029 
L 194.682645 305.916017 
L 195.143802 337.305808 
L 195.604959 311.573911 
L 196.066116 301.77806 
L 196.527273 299.045866 
L 196.98843 320.532349 
L 197.449587 307.054396 
L 197.910744 324.435242 
L 198.371901 329.457206 
L 198.833058 330.20773 
L 199.294215 309.512068 
L 199.755372 298.866211 
L 200.216529 316.651282 
L 200.677686 304.971565 
L 201.138843 304.132472 
L 201.6 305.678854 
L 202.061157 313.239084 
L 202.522314 261.949069 
L 202.983471 275.63816 
L 203.444628 315.76098 
L 203.905785 310.527459 
L 204.366942 296.219228 
L 204.828099 287.906795 
L 205.289256 322.310016 
L 205.750413 318.303023 
L 206.21157 309.719008 
L 207.133884 269.85182 
L 207.595041 285.488999 
L 208.056198 272.77878 
L 208.517355 300.533482 
L 208.978512 261.312299 
L 209.439669 271.684056 
L 209.900826 267.757656 
L 210.361983 267.35553 
L 210.82314 264.282494 
L 211.284298 260.20792 
L 211.745455 292.626114 
L 212.206612 262.10312 
L 212.667769 250.70254 
L 213.128926 252.392899 
L 213.590083 231.188073 
L 214.05124 203.742311 
L 214.512397 260.716245 
L 214.973554 263.733873 
L 215.434711 159.167137 
L 216.357025 261.674129 
L 216.818182 187.905748 
L 217.279339 198.944497 
L 217.740496 238.193804 
L 218.201653 254.42242 
L 218.66281 212.001855 
L 219.123967 253.06199 
L 219.585124 247.030513 
L 220.046281 170.813274 
L 220.507438 184.297523 
L 220.968595 284.060569 
L 221.429752 237.532688 
L 221.890909 261.967539 
L 222.352066 229.150576 
L 222.813223 219.698925 
L 223.27438 267.051206 
L 223.735537 187.467942 
L 224.196694 185.504322 
L 224.657851 265.203439 
L 225.119008 265.453194 
L 225.580165 215.197039 
L 226.041322 221.930769 
L 226.502479 243.433622 
L 226.963636 196.282823 
L 227.424793 256.680289 
L 227.88595 220.36088 
L 228.347107 212.648699 
L 228.808264 194.346487 
L 229.269421 216.295541 
L 229.730579 228.597757 
L 230.191736 253.092632 
L 230.652893 193.820113 
L 231.11405 265.683221 
L 231.575207 190.751695 
L 232.036364 160.200577 
L 232.497521 203.006898 
L 232.958678 232.011635 
L 233.419835 184.408339 
L 233.880992 166.728626 
L 234.803306 242.963075 
L 235.264463 186.61122 
L 235.72562 244.857854 
L 236.186777 191.072389 
L 236.647934 210.235101 
L 237.109091 184.209794 
L 237.570248 198.402592 
L 238.031405 206.573147 
L 238.492562 153.269142 
L 238.953719 240.552415 
L 239.414876 157.493149 
L 239.876033 140.664282 
L 240.33719 242.48917 
L 240.798347 187.104853 
L 241.259504 233.77671 
L 241.720661 125.700392 
L 242.181818 173.234008 
L 242.642975 127.42601 
L 243.104132 198.386641 
L 243.565289 183.26996 
L 244.026446 191.910642 
L 244.487603 212.659193 
L 244.94876 181.286612 
L 245.409917 180.94493 
L 245.871074 161.079127 
L 246.332231 209.194105 
L 246.793388 162.250246 
L 247.254545 209.302822 
L 247.715702 197.28604 
L 248.17686 207.905453 
L 248.638017 199.217759 
L 249.099174 178.376861 
L 249.560331 218.662547 
L 250.021488 161.476636 
L 250.482645 145.292514 
L 250.943802 178.054069 
L 251.404959 196.555245 
L 251.866116 244.655532 
L 252.327273 217.281968 
L 252.78843 113.2181 
L 253.249587 194.022436 
L 253.710744 218.452249 
L 254.171901 196.64969 
L 254.633058 181.494391 
L 255.094215 186.082746 
L 255.555372 129.903411 
L 256.016529 199.156474 
L 256.477686 156.970972 
L 256.938843 143.877096 
L 257.4 203.81283 
L 257.861157 174.596117 
L 258.322314 184.446537 
L 258.783471 175.560297 
L 259.244628 184.961158 
L 259.705785 153.167981 
L 260.166942 162.615434 
L 261.089256 238.47672 
L 261.550413 203.527816 
L 262.01157 225.965466 
L 262.472727 235.029262 
L 262.933884 227.788467 
L 263.395041 148.488118 
L 263.856198 183.854261 
L 264.317355 185.695311 
L 264.778512 197.720068 
L 265.239669 232.016252 
L 265.700826 160.180428 
L 267.545455 249.035269 
L 268.006612 203.935399 
L 268.467769 219.15534 
L 269.390083 155.365824 
L 269.85124 186.587293 
L 270.312397 180.691817 
L 270.773554 182.71882 
L 271.234711 216.765248 
L 271.695868 229.656382 
L 272.157025 207.986886 
L 272.618182 191.571059 
L 273.079339 188.179849 
L 273.540496 232.035141 
L 274.001653 220.730686 
L 274.46281 237.974272 
L 274.923967 176.697836 
L 275.385124 207.408042 
L 275.846281 194.49634 
L 276.307438 90.263731 
L 276.768595 212.414475 
L 277.229752 195.647732 
L 277.690909 194.443871 
L 278.152066 181.643824 
L 278.613223 214.135056 
L 279.07438 204.099104 
L 279.535537 170.56142 
L 279.996694 128.7856 
L 280.457851 111.293098 
L 280.919008 180.363568 
L 281.841322 237.338761 
L 282.302479 158.71422 
L 282.763636 162.495804 
L 283.224793 198.370271 
L 283.68595 213.98982 
L 284.147107 182.189507 
L 284.608264 182.416595 
L 285.069421 105.415252 
L 285.530579 143.846034 
L 285.991736 206.586579 
L 286.452893 207.259868 
L 286.91405 244.012465 
L 287.375207 223.213124 
L 287.836364 225.017236 
L 288.297521 147.822385 
L 289.219835 252.533097 
L 289.680992 217.980862 
L 290.142149 248.13741 
L 290.603306 179.603809 
L 291.064463 167.366235 
L 291.52562 158.578219 
L 291.986777 212.042991 
L 292.447934 229.16107 
L 293.370248 239.615099 
L 293.831405 236.037097 
L 294.292562 213.832412 
L 294.753719 206.816186 
L 295.214876 250.081721 
L 295.676033 251.853512 
L 297.059504 174.942416 
L 297.520661 194.592465 
L 297.981818 270.397923 
L 298.442975 265.107315 
L 298.904132 256.445225 
L 299.365289 242.309934 
L 299.826446 250.107746 
L 300.287603 265.571985 
L 300.74876 233.761179 
L 301.209917 223.285322 
L 301.671074 222.431538 
L 302.132231 264.912129 
L 302.593388 219.461763 
L 303.054545 214.909086 
L 303.515702 187.950662 
L 303.97686 210.490312 
L 304.438017 241.12832 
L 304.899174 208.60015 
L 305.360331 212.092942 
L 305.821488 213.949943 
L 306.282645 179.48166 
L 306.743802 205.888525 
L 307.204959 180.765694 
L 307.666116 182.984526 
L 308.127273 164.563943 
L 308.58843 231.102443 
L 309.049587 212.656255 
L 309.510744 281.803539 
L 309.971901 213.711102 
L 310.433058 258.045756 
L 310.894215 269.066036 
L 311.355372 233.473226 
L 311.816529 208.546841 
L 312.277686 216.984361 
L 312.738843 265.679443 
L 313.2 233.461892 
L 313.661157 232.771813 
L 314.122314 237.036536 
L 314.583471 272.866929 
L 315.044628 231.982671 
L 315.505785 254.976079 
L 315.966942 263.900516 
L 316.428099 222.506674 
L 316.889256 213.915523 
L 317.350413 217.114905 
L 317.81157 224.071526 
L 318.272727 224.274268 
L 318.733884 219.831148 
L 319.195041 223.87508 
L 319.656198 223.222778 
L 320.117355 229.985891 
L 320.578512 200.304088 
L 321.039669 246.952858 
L 322.42314 214.766369 
L 322.884298 193.241689 
L 323.345455 235.424673 
L 323.806612 242.982384 
L 324.267769 184.783601 
L 324.728926 203.940436 
L 325.65124 271.467042 
L 326.573554 243.562906 
L 327.034711 125.490933 
L 327.495868 237.39291 
L 327.957025 236.414877 
L 328.418182 185.665509 
L 328.879339 193.75715 
L 329.340496 255.313143 
L 329.801653 178.696716 
L 330.26281 244.527506 
L 330.723967 138.309869 
L 331.185124 193.561124 
L 331.646281 164.1551 
L 332.107438 229.133786 
L 332.568595 227.066906 
L 333.029752 271.003211 
L 333.490909 165.841681 
L 333.952066 181.262686 
L 334.413223 250.929209 
L 334.87438 190.821375 
L 335.335537 200.149617 
L 335.796694 198.713212 
L 336.257851 195.576373 
L 337.180165 240.728293 
L 337.641322 223.939302 
L 338.102479 183.290108 
L 338.563636 170.804879 
L 339.024793 200.814931 
L 339.48595 213.213691 
L 339.947107 184.052805 
L 340.408264 225.231312 
L 341.330579 241.226543 
L 341.791736 228.337088 
L 342.252893 245.504279 
L 342.71405 244.839805 
L 343.175207 277.510692 
L 343.636364 276.606537 
L 344.097521 273.048264 
L 344.558678 290.442542 
L 345.019835 271.942626 
L 345.480992 303.867606 
L 345.942149 270.255625 
L 346.403306 316.877951 
L 346.864463 301.119042 
L 347.32562 318.058305 
L 348.247934 300.346691 
L 348.709091 311.077759 
L 349.170248 300.096516 
L 350.092562 283.708813 
L 350.553719 280.572814 
L 351.014876 296.513057 
L 351.476033 283.461576 
L 351.93719 293.564689 
L 352.398347 283.088833 
L 353.320661 254.758645 
L 353.781818 259.46873 
L 354.242975 286.281919 
L 354.704132 234.117552 
L 355.165289 291.230425 
L 355.626446 276.51545 
L 356.087603 322.678143 
L 356.54876 298.906507 
L 357.009917 283.841456 
L 357.471074 288.755542 
L 357.932231 283.879654 
L 358.393388 272.84846 
L 358.854545 278.259118 
L 359.315702 277.349506 
L 359.77686 256.633276 
L 360.238017 259.153912 
L 360.699174 247.992594 
L 361.160331 268.750799 
L 361.621488 275.215885 
L 362.082645 277.793188 
L 362.543802 295.463667 
L 363.004959 258.491957 
L 363.466116 247.32812 
L 363.927273 243.596067 
L 364.849587 280.754149 
L 365.310744 284.214619 
L 365.771901 263.004756 
L 366.233058 263.808589 
L 366.694215 288.352996 
L 367.155372 277.283184 
L 367.616529 282.593521 
L 368.077686 301.65717 
L 368.538843 278.212525 
L 369 311.463935 
L 369.461157 272.281369 
L 369.922314 284.349361 
L 370.383471 309.724885 
L 370.844628 288.936877 
L 371.305785 316.669332 
L 371.766942 325.431324 
L 372.228099 302.816537 
L 372.689256 322.636587 
L 373.150413 315.181716 
L 373.61157 316.869975 
L 374.072727 314.89964 
L 374.533884 300.545236 
L 374.995041 334.348625 
L 375.456198 305.127714 
L 375.917355 317.526054 
L 376.378512 299.313671 
L 376.839669 311.880753 
L 377.300826 320.351434 
L 377.761983 323.867312 
L 378.22314 316.370046 
L 378.684298 318.06712 
L 379.606612 294.432745 
L 380.067769 294.376078 
L 380.528926 311.040821 
L 380.990083 309.099028 
L 381.45124 298.979965 
L 381.912397 307.575313 
L 382.373554 273.523008 
L 382.834711 299.363202 
L 383.295868 300.515433 
L 383.757025 319.953085 
L 384.218182 310.750769 
L 384.679339 305.534458 
L 385.140496 293.35649 
L 385.601653 316.269724 
L 386.06281 287.776671 
L 386.985124 303.200194 
L 387.446281 297.993537 
L 387.907438 283.514466 
L 388.368595 287.425754 
L 388.829752 302.050901 
L 389.290909 270.354268 
L 389.752066 293.984446 
L 390.213223 286.534192 
L 390.67438 271.741563 
L 391.135537 276.126756 
L 391.596694 260.539528 
L 392.057851 276.615352 
L 392.519008 272.293122 
L 392.980165 259.937597 
L 393.441322 268.244573 
L 393.902479 263.966837 
L 394.363636 247.583332 
L 394.824793 258.094867 
L 395.28595 303.936027 
L 395.747107 200.460657 
L 396.208264 216.718236 
L 396.669421 249.559964 
L 397.130579 250.365896 
L 397.591736 226.737817 
L 398.052893 215.192842 
L 398.51405 156.297683 
L 398.975207 157.931794 
L 399.436364 181.302143 
L 399.897521 124.924262 
L 400.358678 214.641282 
L 400.819835 186.880283 
L 401.280992 149.315038 
L 401.742149 269.629769 
L 402.203306 159.740524 
L 402.664463 176.281018 
L 403.12562 212.464426 
L 403.586777 168.005524 
L 404.047934 215.345213 
L 404.509091 156.692674 
L 404.970248 193.420505 
L 405.431405 172.787387 
L 405.892562 248.270473 
L 406.353719 94.228328 
L 406.814876 158.441378 
L 407.276033 248.767464 
L 407.73719 191.487108 
L 408.198347 114.178083 
L 408.659504 139.920474 
L 409.120661 247.010784 
L 409.581818 119.821286 
L 410.042975 146.870378 
L 410.504132 125.480439 
L 410.965289 120.344722 
L 411.426446 263.203301 
L 411.887603 206.507665 
L 412.34876 167.313766 
L 412.809917 104.665987 
L 413.271074 139.126295 
L 413.732231 92.906936 
L 414.193388 168.717011 
L 414.654545 177.19063 
L 415.115702 158.307896 
L 415.57686 182.032938 
L 416.038017 243.479375 
L 416.499174 171.763182 
L 416.960331 172.760103 
L 417.421488 175.475086 
L 417.882645 219.34591 
L 418.343802 242.839666 
L 418.804959 170.589544 
L 419.266116 206.198305 
L 419.727273 231.379901 
L 420.18843 216.852138 
L 420.649587 184.760934 
L 421.110744 223.781054 
L 421.571901 207.896219 
L 422.033058 199.344105 
L 422.494215 159.945785 
L 422.955372 230.563476 
L 423.416529 256.137964 
L 423.877686 254.219678 
L 424.338843 243.265299 
L 424.8 256.104803 
L 425.261157 238.914106 
L 425.722314 267.955361 
L 426.183471 263.178115 
L 426.644628 298.570283 
L 427.105785 297.972969 
L 427.566942 290.575185 
L 428.028099 293.914346 
L 428.489256 248.319164 
L 428.950413 300.661928 
L 429.41157 284.078618 
L 429.872727 278.989074 
L 430.333884 267.489852 
L 430.795041 281.240646 
L 431.256198 301.396921 
L 431.717355 272.242751 
L 432.178512 273.64012 
L 432.639669 302.806043 
L 433.100826 278.024054 
L 433.561983 280.536715 
L 434.02314 294.868032 
L 434.484298 252.009241 
L 435.406612 277.880917 
L 435.867769 290.937015 
L 436.328926 288.249316 
L 436.790083 308.994089 
L 437.25124 255.836999 
L 438.173554 282.988931 
L 438.634711 280.654666 
L 439.095868 284.429115 
L 439.557025 265.920383 
L 440.018182 286.154732 
L 440.479339 311.719986 
L 440.940496 253.09641 
L 441.401653 313.974077 
L 441.86281 279.496559 
L 442.323967 270.222465 
L 442.785124 295.094701 
L 443.246281 259.220234 
L 443.707438 299.076509 
L 444.168595 250.030091 
L 444.629752 277.966548 
L 445.090909 260.986148 
L 445.552066 281.953392 
L 446.013223 257.257874 
L 446.935537 290.163405 
L 447.396694 271.151385 
L 447.857851 220.777698 
L 448.780165 285.12549 
L 449.241322 227.302389 
L 449.702479 269.311174 
L 450.163636 260.213377 
L 450.624793 279.504954 
L 451.08595 257.581925 
L 451.547107 255.678331 
L 452.008264 236.680583 
L 452.469421 206.427072 
L 452.930579 292.024184 
L 453.391736 254.696101 
L 453.852893 309.079719 
L 454.31405 225.250621 
L 455.236364 279.561621 
L 455.697521 307.911958 
L 456.619835 198.494938 
L 457.080992 298.085464 
L 457.542149 235.344499 
L 458.003306 298.899791 
L 458.464463 222.178425 
L 458.92562 229.133786 
L 459.386777 267.100318 
L 459.847934 233.995403 
L 460.309091 260.034141 
L 461.231405 284.576869 
L 461.692562 254.633977 
L 462.153719 274.715116 
L 462.614876 256.106902 
L 463.076033 258.282079 
L 463.53719 292.089666 
L 463.998347 286.543007 
L 464.459504 270.407157 
L 464.920661 260.56933 
L 465.381818 266.019865 
L 465.842975 259.683225 
L 466.304132 268.754997 
L 466.765289 243.767328 
L 467.226446 253.25088 
L 467.687603 275.349787 
L 468.14876 250.498959 
L 468.609917 284.604992 
L 469.071074 229.891866 
L 469.532231 289.216434 
L 469.993388 261.005457 
L 470.454545 268.21645 
L 470.915702 290.313258 
L 471.37686 254.945436 
L 471.838017 294.380276 
L 472.299174 313.639112 
L 472.760331 271.235336 
L 473.221488 272.617174 
L 473.682645 259.681966 
L 474.143802 282.549866 
L 474.604959 243.123002 
L 475.066116 217.413772 
L 475.527273 253.039323 
L 475.98843 274.338594 
L 476.449587 264.786621 
L 476.910744 246.419348 
L 477.371901 254.815732 
L 477.833058 282.486902 
L 478.294215 212.752379 
L 478.755372 281.850552 
L 479.216529 258.6926 
L 480.138843 280.397356 
L 480.6 237.572145 
L 481.061157 276.641797 
L 481.522314 262.891422 
L 482.444628 278.903863 
L 482.905785 237.734591 
L 483.366942 232.547243 
L 483.828099 214.823876 
L 484.289256 237.251452 
L 484.750413 267.891558 
L 485.21157 249.599841 
L 485.672727 242.732629 
L 486.133884 225.917613 
L 486.595041 224.832963 
L 487.056198 248.554228 
L 487.517355 280.346565 
L 487.978512 270.973828 
L 488.439669 243.692611 
L 488.900826 244.980004 
L 489.361983 185.113109 
L 489.82314 251.073605 
L 490.284298 203.971918 
L 490.745455 205.632893 
L 491.206612 249.10159 
L 491.667769 239.296504 
L 492.128926 242.796432 
L 492.590083 252.745914 
L 493.05124 220.289102 
L 493.512397 233.822463 
L 493.973554 239.720038 
L 494.434711 248.079064 
L 494.895868 258.803416 
L 495.357025 279.795006 
L 495.818182 268.010769 
L 496.279339 267.221208 
L 496.740496 254.062689 
L 497.201653 259.153912 
L 497.66281 260.671331 
L 498.123967 255.345044 
L 498.585124 238.438103 
L 499.046281 263.365327 
L 499.507438 212.472821 
L 499.968595 262.358332 
L 500.429752 266.242336 
L 500.890909 248.377511 
L 501.352066 240.209474 
L 501.813223 193.799545 
L 502.27438 262.690779 
L 502.735537 247.997211 
L 503.657851 235.313437 
L 504.119008 274.127457 
L 504.580165 249.414728 
L 505.041322 203.969399 
L 505.502479 247.605579 
L 505.963636 209.419514 
L 506.88595 233.075297 
L 507.347107 187.807945 
L 507.808264 256.482164 
L 508.269421 192.968008 
L 508.730579 245.252425 
L 509.191736 233.425374 
L 509.652893 248.674278 
L 510.11405 271.967811 
L 510.575207 218.895511 
L 511.036364 256.187915 
L 511.497521 237.761036 
L 511.958678 254.133628 
L 512.419835 238.70003 
L 512.880992 231.236345 
L 513.342149 250.701281 
L 513.803306 234.518839 
L 514.264463 253.719328 
L 514.72562 192.295139 
L 515.186777 250.18708 
L 515.647934 274.891833 
L 516.109091 272.272134 
L 516.570248 239.93999 
L 517.031405 281.231412 
L 517.492562 250.516588 
L 518.876033 285.972139 
L 519.33719 315.977154 
L 519.798347 281.102966 
L 520.259504 285.341245 
L 520.720661 280.290318 
L 521.181818 270.475578 
L 521.642975 279.310187 
L 522.104132 294.946527 
L 522.565289 289.089248 
L 523.026446 290.22301 
L 523.487603 286.151374 
L 523.94876 286.74491 
L 524.409917 279.545671 
L 524.871074 275.386306 
L 525.332231 277.640817 
L 525.793388 257.695679 
L 526.254545 258.432771 
L 526.715702 226.073763 
L 527.17686 310.151357 
L 527.638017 270.349651 
L 528.099174 256.980834 
L 528.560331 286.898121 
L 529.021488 246.918438 
L 529.482645 301.079166 
L 529.943802 295.127442 
L 530.404959 275.526085 
L 530.866116 294.865514 
L 531.327273 274.572818 
L 531.78843 286.605131 
L 532.249587 279.434435 
L 532.710744 241.574941 
L 533.171901 282.936042 
L 533.633058 234.253972 
L 534.094215 210.353892 
L 534.555372 231.646447 
L 535.016529 230.270905 
L 535.477686 259.89814 
L 535.938843 278.538256 
L 536.4 302.784635 
L 536.861157 222.952455 
L 537.322314 285.202725 
L 537.783471 281.614649 
L 538.705785 246.335396 
L 539.166942 294.154867 
L 539.628099 267.907089 
L 540.089256 218.611756 
L 540.550413 231.550742 
L 541.01157 268.908628 
L 541.472727 248.673019 
L 541.933884 274.891833 
L 542.395041 266.319151 
L 542.856198 269.778782 
L 543.317355 252.13265 
L 543.778512 304.731045 
L 544.239669 269.491249 
L 544.700826 221.672619 
L 545.161983 289.32809 
L 545.62314 198.520124 
L 546.084298 278.523144 
L 546.545455 212.185288 
L 547.006612 283.776813 
L 547.467769 271.518672 
L 547.928926 284.108001 
L 548.390083 240.934813 
L 548.85124 299.515993 
L 549.312397 283.983753 
L 549.773554 256.355817 
L 550.234711 276.976762 
L 550.695868 264.602348 
L 551.157025 272.266258 
L 551.618182 227.959308 
L 552.079339 282.797942 
L 552.540496 265.419614 
L 553.001653 242.987421 
L 553.46281 259.095147 
L 553.923967 292.35831 
L 554.385124 288.792061 
L 554.846281 247.187502 
L 555.307438 225.99275 
L 555.768595 252.479368 
L 556.229752 226.545989 
L 556.690909 280.913236 
L 557.152066 239.618037 
L 558.07438 226.154356 
L 558.535537 253.30293 
L 558.996694 267.52763 
L 559.457851 204.43239 
L 559.919008 253.858268 
L 560.380165 250.192536 
L 560.841322 240.581798 
L 561.302479 215.308694 
L 562.224793 223.722708 
L 562.68595 218.883758 
L 563.147107 219.203193 
L 563.608264 219.699764 
L 564.069421 197.825847 
L 564.530579 201.311083 
L 564.991736 243.636784 
L 565.452893 240.950763 
L 565.91405 276.055397 
L 566.375207 253.391919 
L 566.836364 153.75522 
L 567.297521 246.31273 
L 567.758678 199.840677 
L 568.219835 231.225431 
L 568.680992 275.760309 
L 569.142149 247.846519 
L 569.603306 207.237202 
L 570.064463 214.358786 
L 570.52562 178.127106 
L 570.986777 273.96753 
L 571.447934 169.714772 
L 571.909091 213.291766 
L 572.370248 238.273138 
L 572.831405 186.17929 
L 573.292562 199.929245 
L 573.753719 195.600299 
L 574.214876 196.117439 
L 574.676033 195.905882 
L 575.13719 210.431966 
L 575.598347 230.86612 
L 576.059504 242.777123 
L 576.520661 232.641689 
L 576.981818 202.421758 
L 577.442975 199.19761 
L 577.904132 207.062163 
L 578.365289 222.469736 
L 578.826446 224.759086 
L 579.287603 227.739775 
L 579.74876 221.397678 
L 580.209917 123.20704 
L 580.671074 204.401328 
L 581.132231 240.962097 
L 582.054545 216.448332 
L 582.515702 269.939969 
L 582.97686 205.65598 
L 583.438017 210.191026 
L 583.899174 216.251047 
L 584.360331 228.026049 
L 584.821488 256.133347 
L 585.282645 186.577639 
L 585.743802 200.517324 
L 586.204959 160.684975 
L 586.666116 224.859828 
L 587.127273 233.325891 
L 587.58843 222.691367 
L 588.049587 200.872438 
L 588.510744 150.58564 
L 588.971901 281.014817 
L 589.894215 181.849924 
L 590.816529 238.655117 
L 591.277686 213.21537 
L 591.738843 211.993879 
L 592.2 228.020592 
L 592.661157 265.327267 
L 593.122314 207.555797 
L 593.583471 179.022866 
L 594.044628 158.554713 
L 594.505785 247.305033 
L 594.966942 226.432654 
L 595.428099 249.005466 
L 595.889256 199.276524 
L 596.350413 205.765956 
L 596.81157 186.253587 
L 597.272727 207.564611 
L 597.733884 211.381035 
L 598.195041 194.093794 
L 598.656198 205.585461 
L 599.117355 251.511411 
L 600.039669 189.602402 
L 600.500826 218.891734 
L 600.961983 166.042324 
L 601.42314 201.786247 
L 601.884298 164.074087 
L 602.345455 66.665455 
L 602.806612 157.059541 
L 603.267769 218.528644 
L 603.728926 129.822398 
L 604.190083 211.065798 
L 604.65124 129.299801 
L 605.112397 186.619615 
L 605.573554 187.610239 
L 606.034711 160.097736 
L 606.495868 212.304079 
L 606.957025 111.081121 
L 607.418182 114.485345 
L 607.879339 150.934038 
L 608.340496 224.487924 
L 608.801653 236.107196 
L 609.26281 203.474087 
L 609.723967 136.149804 
L 610.185124 184.408339 
L 610.646281 259.172382 
L 611.107438 161.560587 
L 611.568595 232.365909 
L 612.490909 101.882583 
L 612.952066 131.742783 
L 613.413223 134.874164 
L 613.87438 209.696973 
L 614.335537 189.514254 
L 614.796694 154.894858 
L 615.257851 223.986735 
L 615.719008 179.710847 
L 616.180165 192.920576 
L 616.641322 233.122729 
L 617.102479 233.028284 
L 617.563636 197.325078 
L 618.024793 237.39291 
L 618.48595 191.913161 
L 618.947107 236.006874 
L 619.408264 213.130999 
L 619.869421 171.563798 
L 620.330579 190.91456 
L 620.791736 245.921517 
L 621.252893 171.133548 
L 621.71405 203.294011 
L 622.175207 139.718991 
L 622.636364 154.653498 
L 622.636364 154.653498 
" clip-path="url(#pf411e90adb)" style="fill: none; stroke: #1f77b4; stroke-width: 1.5; stroke-linecap: square"/>
   </g>
   <g id="line2d_21">
    <path d="M 115.363636 275.145366 
L 115.824793 275.145366 
L 116.28595 293.484516 
L 116.747107 363.174545 
L 119.052893 363.174545 
L 119.51405 356.755633 
L 119.975207 354.921718 
L 120.436364 343.001061 
L 120.897521 335.665401 
L 121.358678 322.827576 
L 121.819835 275.145366 
L 130.581818 275.145366 
L 131.042975 254.055133 
L 131.504132 243.968391 
L 131.965289 241.217728 
L 132.426446 235.715564 
L 132.887603 240.300561 
L 133.34876 242.134476 
L 133.809917 246.719054 
L 134.732231 211.874249 
L 135.193388 197.202509 
L 135.654545 188.032934 
L 136.115702 187.116186 
L 149.950413 187.116186 
L 150.41157 219.60322 
L 150.872727 275.145366 
L 155.484298 275.145366 
L 156.406612 265.058623 
L 156.867769 274.228198 
L 157.328926 270.560368 
L 157.790083 272.394283 
L 158.25124 256.805796 
L 158.712397 273.311451 
L 159.173554 236.632731 
L 159.634711 236.227246 
L 160.095868 248.553388 
L 160.557025 235.715564 
L 161.018182 230.213819 
L 161.479339 230.213819 
L 161.940496 229.296651 
L 162.401653 226.545989 
L 162.86281 226.545989 
L 163.785124 224.711654 
L 164.246281 217.375994 
L 164.707438 199.036844 
L 165.168595 188.950101 
L 165.629752 188.032934 
L 166.090909 190.783597 
L 166.552066 188.032934 
L 167.013223 188.950101 
L 167.47438 192.617931 
L 167.935537 188.032934 
L 168.396694 187.116186 
L 169.319008 187.116186 
L 169.780165 194.451846 
L 170.241322 188.950101 
L 170.702479 187.116186 
L 171.624793 187.116186 
L 172.08595 188.032934 
L 172.547107 188.032934 
L 173.008264 187.116186 
L 174.391736 187.116186 
L 174.852893 188.032934 
L 175.31405 187.116186 
L 175.775207 187.116186 
L 176.236364 194.040065 
L 176.697521 187.116186 
L 177.158678 187.116186 
L 177.619835 218.293161 
L 178.080992 275.145366 
L 179.92562 275.145366 
L 180.386777 276.062533 
L 180.847934 277.896448 
L 181.770248 297.152766 
L 182.231405 359.506715 
L 182.692562 363.174545 
L 190.071074 363.174545 
L 190.532231 356.755633 
L 190.993388 346.66931 
L 191.915702 312.741253 
L 192.37686 332.914738 
L 192.838017 321.910828 
L 193.299174 355.838885 
L 193.760331 356.755633 
L 194.682645 362.257378 
L 195.143802 362.257378 
L 195.604959 360.423883 
L 196.527273 352.171055 
L 196.98843 356.755633 
L 197.449587 354.00497 
L 197.910744 363.174545 
L 198.371901 355.838885 
L 198.833058 331.080823 
L 199.294215 288.899938 
L 199.755372 275.145366 
L 200.216529 276.062533 
L 200.677686 275.145366 
L 206.672727 275.145366 
L 207.133884 274.228198 
L 207.595041 275.145366 
L 211.284298 275.145366 
L 211.745455 269.643621 
L 212.206612 258.639711 
L 212.667769 256.805796 
L 213.128926 246.719054 
L 213.590083 244.885139 
L 214.05124 253.137966 
L 214.512397 253.137966 
L 214.973554 256.805796 
L 215.434711 239.383394 
L 215.895868 204.538589 
L 216.357025 189.866849 
L 216.818182 190.783597 
L 217.279339 187.116186 
L 219.123967 187.116186 
L 219.585124 189.866849 
L 220.046281 187.116186 
L 220.507438 188.032934 
L 220.968595 190.783597 
L 221.429752 191.701184 
L 221.890909 238.466226 
L 222.352066 255.889048 
L 222.813223 236.632731 
L 223.27438 188.950101 
L 223.735537 188.950101 
L 224.196694 187.116186 
L 226.502479 187.116186 
L 226.963636 189.866849 
L 227.424793 187.116186 
L 227.88595 188.032934 
L 228.347107 187.116186 
L 228.808264 188.032934 
L 229.269421 187.116186 
L 259.244628 187.116186 
L 259.705785 188.032934 
L 260.166942 187.116186 
L 262.01157 187.116186 
L 262.472727 188.105132 
L 262.933884 187.116186 
L 263.395041 187.116186 
L 263.856198 188.032934 
L 264.317355 188.032934 
L 264.778512 187.116186 
L 265.700826 187.116186 
L 266.161983 188.950101 
L 266.62314 187.116186 
L 281.380165 187.116186 
L 281.841322 182.531189 
L 282.302479 185.282271 
L 282.763636 176.112276 
L 283.224793 177.946611 
L 283.68595 177.946611 
L 284.147107 187.116186 
L 284.608264 181.614441 
L 285.069421 156.856379 
L 285.530579 144.018554 
L 285.991736 166.025954 
L 286.452893 160.523789 
L 286.91405 143.101806 
L 287.375207 159.607041 
L 287.836364 150.437466 
L 288.297521 120.177239 
L 288.758678 131.181149 
L 289.219835 136.682894 
L 289.680992 147.102503 
L 290.142149 264.141876 
L 290.603306 259.556878 
L 291.064463 242.134476 
L 291.52562 230.213819 
L 291.986777 223.794906 
L 292.447934 250.387303 
L 292.909091 266.892538 
L 293.370248 275.145366 
L 301.209917 275.145366 
L 302.132231 220.127076 
L 302.593388 210.040334 
L 303.054545 191.701184 
L 303.515702 190.783597 
L 303.97686 199.036844 
L 304.438017 210.040334 
L 304.899174 197.202509 
L 305.360331 210.957081 
L 305.821488 206.372504 
L 306.282645 207.289671 
L 306.743802 230.213819 
L 307.204959 216.459246 
L 308.127273 200.870759 
L 308.58843 196.285761 
L 309.049587 188.950101 
L 309.510744 187.116186 
L 309.971901 188.032934 
L 310.433058 187.116186 
L 310.894215 189.866849 
L 311.355372 197.202509 
L 311.816529 258.639711 
L 312.277686 275.145366 
L 314.583471 275.145366 
L 315.505785 210.040334 
L 315.966942 206.372504 
L 316.428099 204.538589 
L 316.889256 203.621421 
L 317.350413 193.535099 
L 317.81157 192.617931 
L 318.272727 194.451846 
L 318.733884 191.701184 
L 319.656198 189.866849 
L 320.117355 188.032934 
L 320.578512 214.124982 
L 321.039669 265.975371 
L 321.500826 258.639711 
L 321.961983 243.051224 
L 322.42314 243.051224 
L 322.884298 241.217728 
L 323.345455 236.632731 
L 324.267769 188.950101 
L 324.728926 187.116186 
L 325.190083 188.032934 
L 325.65124 187.116186 
L 332.107438 187.116186 
L 332.568595 186.199439 
L 333.029752 187.116186 
L 333.490909 186.199439 
L 333.952066 187.116186 
L 337.641322 187.116186 
L 338.102479 188.950101 
L 338.563636 187.116186 
L 339.947107 187.116186 
L 340.408264 188.032934 
L 340.869421 187.116186 
L 342.252893 187.116186 
L 342.71405 202.331091 
L 343.175207 275.145366 
L 343.636364 328.329741 
L 344.097521 362.257378 
L 344.558678 363.174545 
L 347.32562 363.174545 
L 347.786777 360.423883 
L 348.247934 362.257378 
L 348.709091 318.242998 
L 349.631405 280.647111 
L 350.092562 275.145366 
L 359.315702 275.145366 
L 359.77686 271.477536 
L 360.238017 268.726873 
L 360.699174 262.307961 
L 361.160331 264.141876 
L 361.621488 262.307961 
L 362.082645 265.975371 
L 362.543802 272.394283 
L 363.004959 265.058623 
L 363.466116 262.307961 
L 363.927273 267.809706 
L 364.38843 267.809706 
L 364.849587 263.224708 
L 365.310744 253.137966 
L 365.771901 264.141876 
L 366.233058 260.473626 
L 367.155372 275.145366 
L 367.616529 272.394283 
L 368.077686 274.228198 
L 368.538843 275.145366 
L 370.383471 275.145366 
L 370.844628 276.062533 
L 371.305785 278.813196 
L 371.766942 295.318431 
L 372.228099 357.672381 
L 372.689256 363.174545 
L 373.150413 363.174545 
L 413.732231 116.015356 
L 414.193388 187.116186 
L 420.649587 187.116186 
L 421.110744 188.032934 
L 421.571901 192.617931 
L 422.033058 190.783597 
L 422.494215 273.311451 
L 422.955372 275.145366 
L 424.8 275.145366 
L 425.261157 272.394283 
L 425.722314 275.145366 
L 427.566942 275.145366 
L 428.028099 251.87324 
L 428.489256 257.722963 
L 428.950413 275.145366 
L 449.241322 275.145366 
L 449.702479 233.881649 
L 450.163636 210.957081 
L 450.624793 208.206419 
L 451.08595 228.379904 
L 451.547107 187.116186 
L 453.391736 187.116186 
L 453.852893 188.032934 
L 454.31405 196.285761 
L 454.775207 248.553388 
L 455.236364 275.145366 
L 455.697521 274.228198 
L 456.158678 275.145366 
L 457.542149 275.145366 
L 458.003306 241.217728 
L 458.464463 272.394283 
L 458.92562 261.390793 
L 459.386777 275.145366 
L 459.847934 273.311451 
L 460.309091 248.553388 
L 460.770248 272.394283 
L 461.231405 274.228198 
L 461.692562 274.228198 
L 462.153719 275.145366 
L 464.459504 275.145366 
L 464.920661 273.311451 
L 465.381818 258.639711 
L 465.842975 267.809706 
L 466.765289 275.145366 
L 467.226446 274.228198 
L 467.687603 275.145366 
L 468.14876 274.228198 
L 468.609917 265.975371 
L 469.071074 273.311451 
L 469.532231 253.137966 
L 469.993388 270.560368 
L 470.454545 275.145366 
L 497.201653 275.145366 
L 497.66281 259.556878 
L 498.123967 270.560368 
L 498.585124 268.726873 
L 499.046281 268.726873 
L 499.507438 261.390793 
L 499.968595 272.394283 
L 500.429752 275.145366 
L 500.890909 275.145366 
L 501.352066 271.477536 
L 501.813223 271.477536 
L 502.27438 275.145366 
L 505.041322 275.145366 
L 505.502479 271.477536 
L 505.963636 275.145366 
L 506.424793 275.145366 
L 506.88595 257.722963 
L 507.347107 255.889048 
L 507.808264 270.560368 
L 508.269421 255.889048 
L 508.730579 265.058623 
L 509.191736 266.892538 
L 509.652893 275.145366 
L 510.11405 274.228198 
L 510.575207 262.307961 
L 511.036364 254.972301 
L 511.497521 271.477536 
L 511.958678 275.145366 
L 512.419835 273.311451 
L 512.880992 275.145366 
L 513.803306 275.145366 
L 514.72562 273.311451 
L 515.186777 274.228198 
L 515.647934 274.228198 
L 516.109091 269.643621 
L 516.570248 260.473626 
L 517.031405 255.889048 
L 517.492562 267.809706 
L 517.953719 270.560368 
L 518.414876 263.224708 
L 518.876033 259.556878 
L 519.33719 272.394283 
L 519.798347 273.311451 
L 520.259504 265.058623 
L 520.720661 259.556878 
L 521.181818 273.311451 
L 521.642975 275.145366 
L 522.104132 256.805796 
L 522.565289 249.470136 
L 523.026446 238.466226 
L 523.487603 235.715564 
L 523.94876 240.300561 
L 524.409917 237.549479 
L 524.871074 232.047734 
L 525.332231 231.130566 
L 525.793388 239.383394 
L 527.638017 193.535099 
L 528.099174 190.783597 
L 529.021488 187.116186 
L 541.472727 187.116186 
L 541.933884 170.610531 
L 542.395041 179.780526 
L 542.856198 175.195529 
L 543.317355 176.112276 
L 543.778512 173.361614 
L 544.239669 187.116186 
L 548.85124 187.116186 
L 549.312397 188.032934 
L 549.773554 258.639711 
L 550.234711 274.228198 
L 550.695868 275.145366 
L 558.535537 275.145366 
L 558.996694 278.813196 
L 559.457851 275.145366 
L 567.297521 275.145366 
L 567.758678 276.979281 
L 568.219835 276.062533 
L 568.680992 276.062533 
L 569.142149 276.979281 
L 569.603306 275.145366 
L 570.064463 276.979281 
L 570.52562 275.145366 
L 571.909091 275.145366 
L 572.370248 277.896448 
L 572.831405 277.896448 
L 573.292562 280.647111 
L 573.753719 279.729943 
L 574.214876 290.733853 
L 574.676033 338.416483 
L 575.13719 289.817106 
L 575.598347 311.824086 
L 576.059504 287.982771 
L 576.520661 288.899938 
L 576.981818 322.827576 
L 577.442975 306.322341 
L 577.904132 334.748233 
L 578.365289 330.164075 
L 578.826446 354.921718 
L 579.287603 363.174545 
L 582.054545 363.174545 
L 582.515702 362.257378 
L 582.97686 352.171055 
L 583.438017 363.174545 
L 583.899174 336.582148 
L 584.360331 334.748233 
L 584.821488 334.748233 
L 585.282645 343.001061 
L 585.743802 293.484516 
L 586.204959 290.733853 
L 586.666116 286.148856 
L 587.127273 277.896448 
L 587.58843 278.813196 
L 588.049587 276.062533 
L 588.510744 276.062533 
L 588.971901 275.145366 
L 598.195041 275.145366 
L 598.656198 265.975371 
L 599.578512 273.311451 
L 600.039669 254.972301 
L 600.500826 209.123586 
L 600.961983 196.285761 
L 601.42314 234.798816 
L 601.884298 189.866849 
L 602.345455 187.116186 
L 603.267769 187.116186 
L 603.728926 188.950101 
L 604.190083 187.116186 
L 604.65124 192.617931 
L 605.112397 187.116186 
L 605.573554 187.116186 
L 606.034711 194.451846 
L 606.495868 199.954011 
L 606.957025 195.369014 
L 607.418182 195.369014 
L 607.879339 188.950101 
L 608.340496 192.617931 
L 608.801653 189.866849 
L 609.26281 199.954011 
L 609.723967 198.119676 
L 610.646281 187.116186 
L 611.107438 188.032934 
L 611.568595 187.116186 
L 612.029752 187.116186 
L 614.796694 275.145366 
L 616.641322 275.145366 
L 617.563636 241.217728 
L 618.024793 243.051224 
L 618.48595 210.957081 
L 618.947107 225.628821 
L 619.408264 273.311451 
L 619.869421 275.145366 
L 622.636364 275.145366 
L 622.636364 275.145366 
" clip-path="url(#pf411e90adb)" style="fill: none; stroke: #ff7f0e; stroke-width: 1.5; stroke-linecap: square"/>
   </g>
   <g id="patch_3">
    <path d="M 90 378 
L 90 51.84 
" style="fill: none; stroke: #000000; stroke-width: 0.8; stroke-linejoin: miter; stroke-linecap: square"/>
   </g>
   <g id="patch_4">
    <path d="M 648 378 
L 648 51.84 
" style="fill: none; stroke: #000000; stroke-width: 0.8; stroke-linejoin: miter; stroke-linecap: square"/>
   </g>
   <g id="patch_5">
    <path d="M 90 378 
L 648 378 
" style="fill: none; stroke: #000000; stroke-width: 0.8; stroke-linejoin: miter; stroke-linecap: square"/>
   </g>
   <g id="patch_6">
    <path d="M 90 51.84 
L 648 51.84 
" style="fill: none; stroke: #000000; stroke-width: 0.8; stroke-linejoin: miter; stroke-linecap: square"/>
   </g>
   <g id="text_21">
    <!-- Spring pH: GW-SW Inputs -->
    <g transform="translate(292.664062 45.84)scale(0.12 -0.12)">
     <defs>
      <path id="DejaVuSans-3a" d="M 750 794 
L 1409 794 
L 1409 0 
L 750 0 
L 750 794 
z
M 750 3309 
L 1409 3309 
L 1409 2516 
L 750 2516 
L 750 3309 
z
" transform="scale(0.015625)"/>
      <path id="DejaVuSans-47" d="M 3809 666 
L 3809 1919 
L 2778 1919 
L 2778 2438 
L 4434 2438 
L 4434 434 
Q 4069 175 3628 42 
Q 3188 -91 2688 -91 
Q 1594 -91 976 548 
Q 359 1188 359 2328 
Q 359 3472 976 4111 
Q 1594 4750 2688 4750 
Q 3144 4750 3555 4637 
Q 3966 4525 4313 4306 
L 4313 3634 
Q 3963 3931 3569 4081 
Q 3175 4231 2741 4231 
Q 1884 4231 1454 3753 
Q 1025 3275 1025 2328 
Q 1025 1384 1454 906 
Q 1884 428 2741 428 
Q 3075 428 3337 486 
Q 3600 544 3809 666 
z
" transform="scale(0.015625)"/>
      <path id="DejaVuSans-57" d="M 213 4666 
L 850 4666 
L 1831 722 
L 2809 4666 
L 3519 4666 
L 4500 722 
L 5478 4666 
L 6119 4666 
L 4947 0 
L 4153 0 
L 3169 4050 
L 2175 0 
L 1381 0 
L 213 4666 
z
" transform="scale(0.015625)"/>
      <path id="DejaVuSans-49" d="M 628 4666 
L 1259 4666 
L 1259 0 
L 628 0 
L 628 4666 
z
" transform="scale(0.015625)"/>
      <path id="DejaVuSans-73" d="M 2834 3397 
L 2834 2853 
Q 2591 2978 2328 3040 
Q 2066 3103 1784 3103 
Q 1356 3103 1142 2972 
Q 928 2841 928 2578 
Q 928 2378 1081 2264 
Q 1234 2150 1697 2047 
L 1894 2003 
Q 2506 1872 2764 1633 
Q 3022 1394 3022 966 
Q 3022 478 2636 193 
Q 2250 -91 1575 -91 
Q 1294 -91 989 -36 
Q 684 19 347 128 
L 347 722 
Q 666 556 975 473 
Q 1284 391 1588 391 
Q 1994 391 2212 530 
Q 2431 669 2431 922 
Q 2431 1156 2273 1281 
Q 2116 1406 1581 1522 
L 1381 1569 
Q 847 1681 609 1914 
Q 372 2147 372 2553 
Q 372 3047 722 3315 
Q 1072 3584 1716 3584 
Q 2034 3584 2315 3537 
Q 2597 3491 2834 3397 
z
" transform="scale(0.015625)"/>
     </defs>
     <use xlink:href="#DejaVuSans-53"/>
     <use xlink:href="#DejaVuSans-70" x="63.476562"/>
     <use xlink:href="#DejaVuSans-72" x="126.953125"/>
     <use xlink:href="#DejaVuSans-69" x="168.066406"/>
     <use xlink:href="#DejaVuSans-6e" x="195.849609"/>
     <use xlink:href="#DejaVuSans-67" x="259.228516"/>
     <use xlink:href="#DejaVuSans-20" x="322.705078"/>
     <use xlink:href="#DejaVuSans-70" x="354.492188"/>
     <use xlink:href="#DejaVuSans-48" x="417.96875"/>
     <use xlink:href="#DejaVuSans-3a" x="493.164062"/>
     <use xlink:href="#DejaVuSans-20" x="526.855469"/>
     <use xlink:href="#DejaVuSans-47" x="558.642578"/>
     <use xlink:href="#DejaVuSans-57" x="636.132812"/>
     <use xlink:href="#DejaVuSans-2d" x="731.009766"/>
     <use xlink:href="#DejaVuSans-53" x="767.09375"/>
     <use xlink:href="#DejaVuSans-57" x="830.570312"/>
     <use xlink:href="#DejaVuSans-20" x="929.447266"/>
     <use xlink:href="#DejaVuSans-49" x="961.234375"/>
     <use xlink:href="#DejaVuSans-6e" x="990.726562"/>
     <use xlink:href="#DejaVuSans-70" x="1054.105469"/>
     <use xlink:href="#DejaVuSans-75" x="1117.582031"/>
     <use xlink:href="#DejaVuSans-74" x="1180.960938"/>
     <use xlink:href="#DejaVuSans-73" x="1220.169922"/>
    </g>
   </g>
   <g id="legend_1">
    <g id="patch_7">
     <path d="M 97 89.19625 
L 177.84375 89.19625 
Q 179.84375 89.19625 179.84375 87.19625 
L 179.84375 58.84 
Q 179.84375 56.84 177.84375 56.84 
L 97 56.84 
Q 95 56.84 95 58.84 
L 95 87.19625 
Q 95 89.19625 97 89.19625 
z
" style="fill: #ffffff; opacity: 0.8; stroke: #cccccc; stroke-linejoin: miter"/>
    </g>
    <g id="line2d_22">
     <path d="M 99 64.938437 
L 109 64.938437 
L 119 64.938437 
" style="fill: none; stroke: #1f77b4; stroke-width: 1.5; stroke-linecap: square"/>
    </g>
    <g id="text_22">
     <!-- LSTM pH -->
     <g transform="translate(127 68.438437)scale(0.1 -0.1)">
      <defs>
       <path id="DejaVuSans-4c" d="M 628 4666 
L 1259 4666 
L 1259 531 
L 3531 531 
L 3531 0 
L 628 0 
L 628 4666 
z
" transform="scale(0.015625)"/>
       <path id="DejaVuSans-54" d="M -19 4666 
L 3928 4666 
L 3928 4134 
L 2272 4134 
L 2272 0 
L 1638 0 
L 1638 4134 
L -19 4134 
L -19 4666 
z
" transform="scale(0.015625)"/>
      </defs>
      <use xlink:href="#DejaVuSans-4c"/>
      <use xlink:href="#DejaVuSans-53" x="55.712891"/>
      <use xlink:href="#DejaVuSans-54" x="119.189453"/>
      <use xlink:href="#DejaVuSans-4d" x="180.273438"/>
      <use xlink:href="#DejaVuSans-20" x="266.552734"/>
      <use xlink:href="#DejaVuSans-70" x="298.339844"/>
      <use xlink:href="#DejaVuSans-48" x="361.816406"/>
     </g>
    </g>
    <g id="line2d_23">
     <path d="M 99 79.616562 
L 109 79.616562 
L 119 79.616562 
" style="fill: none; stroke: #ff7f0e; stroke-width: 1.5; stroke-linecap: square"/>
    </g>
    <g id="text_23">
     <!-- Measured -->
     <g transform="translate(127 83.116562)scale(0.1 -0.1)">
      <defs>
       <path id="DejaVuSans-64" d="M 2906 2969 
L 2906 4863 
L 3481 4863 
L 3481 0 
L 2906 0 
L 2906 525 
Q 2725 213 2448 61 
Q 2172 -91 1784 -91 
Q 1150 -91 751 415 
Q 353 922 353 1747 
Q 353 2572 751 3078 
Q 1150 3584 1784 3584 
Q 2172 3584 2448 3432 
Q 2725 3281 2906 2969 
z
M 947 1747 
Q 947 1113 1208 752 
Q 1469 391 1925 391 
Q 2381 391 2643 752 
Q 2906 1113 2906 1747 
Q 2906 2381 2643 2742 
Q 2381 3103 1925 3103 
Q 1469 3103 1208 2742 
Q 947 2381 947 1747 
z
" transform="scale(0.015625)"/>
      </defs>
      <use xlink:href="#DejaVuSans-4d"/>
      <use xlink:href="#DejaVuSans-65" x="86.279297"/>
      <use xlink:href="#DejaVuSans-61" x="147.802734"/>
      <use xlink:href="#DejaVuSans-73" x="209.082031"/>
      <use xlink:href="#DejaVuSans-75" x="261.181641"/>
      <use xlink:href="#DejaVuSans-72" x="324.560547"/>
      <use xlink:href="#DejaVuSans-65" x="363.423828"/>
      <use xlink:href="#DejaVuSans-64" x="424.947266"/>
     </g>
    </g>
   </g>
  </g>
 </g>
 <defs>
  <clipPath id="pf411e90adb">
   <rect x="90" y="51.84" width="558" height="326.16"/>
  </clipPath>
 </defs>
</svg>
